<?xml version="1.0" encoding="utf-8"?>
<!-- Generator: Adobe Illustrator 23.0.6, SVG Export Plug-In . SVG Version: 6.00 Build 0)  -->
<svg version="1.1" id="Layer_1" xmlns="http://www.w3.org/2000/svg" xmlns:xlink="http://www.w3.org/1999/xlink" x="0px" y="0px"
	 width="475px" height="93px" viewBox="0 0 475 93" style="enable-background:new 0 0 475 93;" xml:space="preserve">
<style type="text/css">
	.st0{fill:#0068A5;}
	.st1{fill:#FFFFFF;}
	.st2{fill:#42C7E4;}
	.st3{fill:#757677;}
</style>
<g>
	<g>
		<path class="st0" d="M85.662,46.175c-0.024,0.015,0.071-0.318,0.106,0.284C85.751,46.405,85.663,46.534,85.662,46.175
			 M85.022,40.396l-0.242-0.841l0.187,0.744L85.022,40.396z M84.452,37.982l0.221,0.406c-0.151-0.58-0.309-1.25-0.501-1.864
			c-0.194-0.613-0.362-1.187-0.464-1.597c-0.006,0.547,0.599,1.909,0.741,2.889L84.452,37.982z M83.229,32.562
			c-0.044-0.112-0.103-0.266-0.205-0.528c0.012,0.193-0.283-0.579,0.237,0.65C83.243,32.62,83.238,32.601,83.229,32.562
			 M83.229,32.562C83.448,33.107,83.135,32.187,83.229,32.562 M82.508,30.765c-0.034-0.161-0.31-0.793-0.182-0.57
			c-0.354-0.711-0.318-0.546-0.186-0.111L82.508,30.765z M81.924,29.82c-0.015-0.07-0.052-0.17-0.195-0.348
			c0,0,0.051,0.086,0.102,0.172L81.924,29.82z M82.316,30.571l-0.392-0.752c0.023,0.113-0.017,0.145,0.176,0.347
			C82.029,30.123,82.138,30.257,82.316,30.571 M82.482,31.258c0.565,1.357,0.602,1.111,0.01-0.241
			C82.645,31.423,82.824,31.951,82.482,31.258 M83.596,35.267l0.184,0.461c-0.046-0.115-0.111-0.383-0.17-0.617
			c-0.063-0.232-0.129-0.426-0.145-0.403l0.07,0.277C83.571,35.126,83.596,35.267,83.596,35.267 M80.301,26.624
			c-0.119-0.27-0.408-0.745-0.386-0.805c-0.054-0.023,0.066,0.266,0.061,0.336c0,0,0.088,0.113,0.167,0.232L80.301,26.624z
			 M79.976,26.156l-0.507-0.686C79.874,26.112,79.971,26.215,79.976,26.156 M81.868,30.026c0.171,0.305,0.341,0.611,0.341,0.611
			s-0.199-0.366-0.396-0.732c-0.095-0.185-0.209-0.361-0.289-0.495c-0.081-0.133-0.135-0.223-0.135-0.223l0.123,0.239
			C81.512,29.425,81.704,29.718,81.868,30.026 M78.422,23.471c0,0-0.148-0.159-0.296-0.318l-0.312-0.305l0.264,0.275L78.422,23.471z
			 M76.755,21.261c-0.398-0.437-0.761-0.789-1.102-1.089c0.344,0.337,0.668,0.736,1.065,1.268
			C77.001,21.671,76.477,20.999,76.755,21.261 M75.077,19.671c0.177,0.163,0.367,0.324,0.576,0.501
			C75.466,19.997,75.277,19.83,75.077,19.671 M78.482,23.983c0.058,0.083,0.126,0.178,0.193,0.274
			c-0.022-0.065-0.053-0.198-0.312-0.601L78.482,23.983z M78.486,23.995l-0.005-0.011c-0.208-0.298-0.353-0.504-0.415-0.592
			C78.12,23.468,78.246,23.649,78.486,23.995 M78.723,24.326c-0.017-0.026-0.031-0.044-0.049-0.069
			C78.686,24.289,78.694,24.306,78.723,24.326 M80.118,27.057c0.232,0.277-0.015-0.244,0.426,0.367
			C80.25,27.017,79.686,26.148,80.118,27.057 M79.343,25.496c0.011-0.028-0.047-0.184,0.108,0.01c0,0-0.144-0.195-0.289-0.39
			c-0.072-0.097-0.144-0.195-0.197-0.268c-0.058-0.07-0.097-0.117-0.097-0.117s0.126,0.186,0.241,0.38
			C79.226,25.304,79.343,25.496,79.343,25.496 M78.589,24.387l0.279,0.343l-0.186-0.277L78.589,24.387z M76.06,20.873
			c-0.282-0.272-0.568-0.589-0.911-0.929c0.351,0.38,0.691,0.791,1.022,1.177C76.24,21.156,76.426,21.291,76.06,20.873
			 M77.273,22.365c-0.017-0.02-0.04-0.046-0.057-0.065C77.242,22.347,77.266,22.382,77.273,22.365 M71.702,16.686
			c0.015,0.022,0.031,0.041,0.047,0.063c0.008,0,0.015-0.001,0.024,0L71.702,16.686z M76.215,21.197
			c0.241,0.305,0.41,0.465,0.576,0.615c-0.197-0.214-0.403-0.442-0.62-0.691C76.14,21.105,76.131,21.106,76.215,21.197
			 M74.118,18.752c0.135,0.152,0.288,0.324,0.441,0.512C74.448,19.096,74.188,18.783,74.118,18.752 M77.154,22.181
			c0.013,0.015,0.025,0.028,0.039,0.043C77.13,22.111,77.132,22.13,77.154,22.181 M77.154,22.181
			c-0.134-0.149-0.248-0.259-0.362-0.369c0.153,0.181,0.295,0.348,0.423,0.488C77.19,22.258,77.168,22.213,77.154,22.181
			 M72.919,17.755c0.123,0.117,0.205,0.195,0.205,0.195l-0.1-0.077l0.273,0.245c-0.289-0.305-0.494-0.524-0.868-0.936
			c-0.491-0.37-0.607-0.428-0.657-0.434c0,0,0.34,0.298,0.679,0.597C72.621,17.494,72.792,17.643,72.919,17.755 M74.482,19.265
			c-0.257-0.151-0.932-0.715-0.61-0.276c0.768,0.747,0.581,0.482,1.058,0.913c-1.213-1.239,0.382,0.325-0.446-0.62
			c0.247,0.236,0.464,0.455,0.666,0.663c-0.204-0.237-0.403-0.465-0.591-0.681c0.01,0.013,0.017,0.023,0.024,0.033l0.006,0.006
			h-0.002c0.043,0.062,0.056,0.085,0.001,0.019c-0.004-0.004-0.019-0.018-0.026-0.024C74.544,19.297,74.514,19.282,74.482,19.265
			c-0.334-0.378-0.037-0.075,0.079,0.032c0.008,0.001,0.02,0.008,0.025,0.006c0,0-0.003-0.003-0.004-0.006
			c0,0-0.307-0.309-0.636-0.596c-0.324-0.291-0.649-0.582-0.649-0.582C73.551,18.386,73.9,18.689,74.482,19.265 M79.475,26.369
			c-0.022-0.049-0.015-0.051-0.011-0.058C79.395,26.224,79.365,26.193,79.475,26.369 M79.608,26.328l-0.077-0.096
			c-0.277-0.478-0.573-1.085-0.647-1.27c0.04,0.197,0.092,0.385,0.257,0.782c0.079,0.099,0.166,0.166,0.378,0.515
			c0.167,0.313-0.039,0.022-0.055,0.054C79.619,26.503,79.975,27.007,79.608,26.328 M78.884,24.962
			c-0.003-0.018-0.008-0.036-0.011-0.055C78.857,24.887,78.864,24.914,78.884,24.962 M76.464,21.822
			c-0.245-0.265-0.489-0.53-0.489-0.53l0.418,0.606l0.013-0.059c0.508,0.641,0.432,0.475,0.529,0.528c0,0-0.058-0.07-0.145-0.172
			C76.704,22.092,76.589,21.953,76.464,21.822 M71.814,16.592c0,0-0.179-0.115-0.368-0.214c-0.187-0.102-0.373-0.205-0.373-0.205
			l0.533,0.369L71.814,16.592z M70.221,15.358c0,0-0.106-0.066-0.217-0.127c-0.109-0.062-0.218-0.123-0.218-0.123l0.329,0.276
			L70.221,15.358z M25.407,14.069l0.213-0.025c0.357-0.248,0.643-0.42,0.891-0.555C25.946,13.755,25.289,14.029,25.407,14.069
			 M52.426,8.11c-0.527-0.104-0.949-0.173-1.321-0.225C51.742,8.02,52.246,8.166,52.426,8.11 M12.993,65.132
			c0.145,0.218,0.217,0.305,0.232,0.288C13.076,65.195,12.985,65.072,12.993,65.132 M49.561,7.756
			c0.095,0.015,0.186,0.029,0.281,0.044c0.392,0.019,0.789,0.02,1.264,0.086C50.636,7.786,50.089,7.736,49.561,7.756 M85.117,52.334
			c0.023-0.129,0.05-0.348,0.085-0.725C85.182,51.783,85.149,52.067,85.117,52.334 M63.643,11.421
			C64.007,11.59,63.706,11.436,63.643,11.421 M65.041,12.599c0.04-0.005,0.096,0.008,0.163,0.032
			C65.123,12.602,65.06,12.585,65.041,12.599 M64.163,11.729c-0.129-0.079-0.278-0.167-0.444-0.258
			C63.792,11.514,63.927,11.592,64.163,11.729 M64.111,11.653c0.122,0.067,0.217,0.118,0.308,0.168
			C64.47,11.83,64.435,11.801,64.111,11.653 M63.643,11.421c-0.107-0.047-0.259-0.115-0.51-0.226
			c0.209,0.094,0.402,0.186,0.586,0.277C63.65,11.434,63.622,11.415,63.643,11.421 M85.385,47.536
			c0.058,0.118,0.07,0.675,0.022,1.252c-0.042,0.576-0.086,1.174-0.03,1.384c0,0-0.014,0.14-0.054,0.346
			c-0.04,0.207-0.093,0.483-0.147,0.758c-0.052,0.275-0.106,0.549-0.145,0.755c-0.038,0.207-0.069,0.343-0.069,0.343
			c0.063-0.062,0.075,0.312,0.155-0.04c-0.094,0.546-0.172,1.024,0.029,0.321c-0.598,2.618-1.311,5.232-2.272,7.755
			c-0.959,2.519-2.171,4.946-3.687,7.096c-0.182,0.307-0.031,0.161,0.07,0.063c-0.627,0.747-0.467,0.804-0.751,1.256
			c0,0-0.245,0.261-0.489,0.523c-0.12,0.132-0.245,0.26-0.343,0.352c-0.096,0.094-0.16,0.156-0.16,0.156
			c-0.312,0.487,0.013,0.17,0.017,0.226c-1.62,2.162-3.587,3.914-5.145,5.426c-0.569,0.401,0.023-0.223-0.681,0.355
			c0.527-0.336,0.055,0.134-0.501,0.595c-0.558,0.458-1.165,0.946-0.812,0.757c-0.402,0.204-1.093,0.651-1.64,1.023
			c-0.55,0.366-1.001,0.59-0.908,0.366c-0.925,0.572-0.693,0.592-0.415,0.444c-0.529,0.348-1.033,0.618-1.499,0.899
			c-0.232,0.142-0.456,0.281-0.68,0.418c-0.227,0.131-0.449,0.264-0.67,0.402c-0.163,0.061-0.56,0.273-1.095,0.528
			c-0.544,0.237-1.205,0.57-1.904,0.846c-1.39,0.576-2.883,1.036-3.453,1.099c0.779-0.083-0.033,0.091-0.73,0.348l0.679-0.063
			c0,0-0.404,0.111-0.808,0.223c-0.202,0.056-0.404,0.111-0.556,0.152c-0.151,0.045-0.254,0.064-0.254,0.064
			c-0.33,0.088-0.425,0.105-0.426,0.093c-0.277,0.058,0.049-0.085-0.66,0.047c-0.554,0.129-0.843,0.202-1.071,0.262
			c-0.223,0.07-0.392,0.122-0.691,0.215l0.175-0.012l-0.761,0.147c-0.56,0.097,1.96-0.476,0.124-0.213
			c-0.017,0.055-1.076,0.36-1.584,0.331c0.942-0.113,0.81-0.184,0.46-0.177c0,0-0.329,0.04-0.658,0.079
			c-0.164,0.02-0.329,0.04-0.453,0.055c-0.122,0.015-0.206,0.017-0.206,0.017s0.113,0.035,0.226,0.058
			c0.113,0.026,0.226,0.051,0.226,0.051c-3.796,0.399-7.792,0.16-11.776-0.613c0.077-0.1-2.8-0.64-2.387-0.772l0.144,0.062
			c0.482,0.118,0.423,0.054,0.143-0.048c-0.277-0.115-0.768-0.285-1.158-0.384c0.794,0.293-1.517-0.218,0.453,0.373
			c0,0-0.39-0.086-0.779-0.172c-0.393-0.077-0.775-0.192-0.775-0.192c-0.478,0.042-1.501-0.289-2.649-0.81
			c-1.156-0.504-2.432-1.192-3.532-1.701c0.159,0.064,0.209,0.066,0.233,0.065c-1.98-0.875-4.09-2.553-4.508-2.813l-0.092-0.197
			c-0.804-0.453-1.217-0.761-1.671-1.087c-0.456-0.323-0.896-0.738-1.703-1.478c0.033,0.006,0.245,0.148-0.001-0.095
			c-0.225-0.143-0.437-0.302-0.737-0.548c-0.293-0.252-0.691-0.572-1.193-1.133l0.067,0.021c0,0-0.408-0.421-0.816-0.844
			c-0.399-0.43-0.781-0.876-0.781-0.876c0.065-0.051-0.076-0.257-0.327-0.551c-0.25-0.294-0.59-0.694-0.944-1.111
			c-0.366-0.409-0.708-0.866-0.98-1.258c-0.27-0.394-0.474-0.721-0.488-0.923c-0.163-0.166-0.483-0.606-0.818-1.082
			c-0.339-0.474-0.645-1.014-0.861-1.33c0.01-0.012-0.002-0.061-0.051-0.178c-0.606-0.699-1.162-2.331-1.57-3.236
			c-0.307-0.576-0.243-0.298-0.178-0.016c-0.217-0.609-0.547-1.434-0.892-2.147c-0.305-0.729-0.579-1.364-0.627-1.597
			c-0.27-0.91,0.018-0.375,0.012-0.644c-0.412-1.342-0.228,0.312-0.607-1.544c0.064,0.21,0.193,0.595,0.167,0.439
			c-0.095-0.348-0.097-0.866-0.126-1.372c-0.025-0.507-0.068-1.004-0.159-1.35l0.026,0.475c-0.159-0.633-0.232-1.407-0.285-2.04
			c-0.031-0.636-0.061-1.131-0.184-1.223l-0.088,0.134c-0.042-0.563-0.062-0.903-0.07-1.133c-0.013-0.23-0.028-0.35-0.043-0.47
			c-0.015-0.12-0.031-0.241-0.047-0.476c-0.014-0.234-0.04-0.58-0.016-1.151l0.018,0.028c-0.045-0.994,0.063-1.53-0.08-2.018
			l-0.031,0.341c0.013-0.617,0.021-0.953,0.029-1.292c0.005-0.339,0.031-0.681,0.087-1.307c-0.005-0.148,0.017-0.757,0.065-0.929
			c-0.079-0.036,0.002-0.763,0.104-1.551c0.027-0.197,0.054-0.397,0.08-0.592c0.038-0.193,0.074-0.38,0.107-0.552
			c0.067-0.341,0.123-0.621,0.15-0.759c-0.155,0.986-0.014,0.53,0.091,0.262c-0.005-0.298,0.009-0.548,0.05-0.822
			c0.056-0.27,0.141-0.564,0.273-0.951c-0.072-0.077-0.143-0.164-0.152-0.43c-0.004-0.134,0.006-0.311,0.041-0.554
			c0.045-0.241,0.119-0.546,0.227-0.935c-0.044,0.248-0.137,0.629-0.058,0.483c0.079-0.148,0.144-0.519,0.166-0.645
			c0.078-0.145-0.038,0.361,0.07,0.204c0.068-0.547,0.188-1.003,0.378-1.5c0.18-0.501,0.38-1.058,0.647-1.802
			c-0.136,0.485,0.054,0.095,0.176-0.05c-0.07-0.092,0.168-0.579,0.366-0.982c0.207-0.399,0.387-0.711,0.146-0.49
			c0.672-1.391,1.585-3.12,2.467-4.597c0.473-0.718,0.882-1.409,1.284-1.934c0.395-0.531,0.71-0.945,0.922-1.16
			c0.255-0.211,0.693-0.953,1.022-1.378l0.021,0.111c0.421-0.622,0.608-0.848,0.808-1.104c0.099-0.129,0.204-0.263,0.353-0.453
			c0.152-0.186,0.347-0.428,0.627-0.773c-0.431,0.601-0.184,0.409,0.38-0.065c0,0,0.177-0.25,0.354-0.499
			c0.188-0.241,0.376-0.481,0.376-0.481l0.262-0.067c0.322-0.377,0.728-0.747,1.164-1.084c0.125-0.196,0.493-0.56,0.876-0.921
			c0.467-0.403,0.95-0.804,1.056-0.943c0.525-0.203,1.153-0.889,1.568-0.99c0.133-0.122,0.303-0.28,0.508-0.425
			c-0.264,0.076-0.394,0.055,0.041-0.178c0.035-0.024,0.062-0.042,0.096-0.065l0.236-0.028c0.408-0.287,0.825-0.581,1.115-0.751
			c-0.136,0.065-0.293,0.143-0.46,0.223c0.188-0.104,0.366-0.193,0.544-0.272c0.058-0.033,0.116-0.066,0.155-0.088
			c-0.025,0.018-0.056,0.038-0.091,0.058c0.277-0.131,0.556-0.277,0.917-0.526c1.594-0.702,3.366-1.989,5.267-2.448
			c-0.278,0.085-0.663,0.226-0.751,0.301c0.375-0.149,0.751-0.294,1.122-0.421c0.376-0.113,0.743-0.223,1.093-0.329
			c0.694-0.223,1.334-0.364,1.811-0.546l-0.095-0.074c0.282-0.09,0.547-0.18,0.803-0.256c0.259-0.067,0.506-0.133,0.746-0.196
			c0.483-0.116,0.933-0.252,1.405-0.322l0.031-0.117c0.344-0.051,0.784-0.134,1.265-0.227c0.48-0.094,1.008-0.154,1.517-0.23
			c0.508-0.079,1.004-0.121,1.427-0.132c0.422-0.016,0.77-0.011,0.985,0.029c0.167-0.065,0.649-0.066,1.185-0.067
			c0.537,0.002,1.129,0.004,1.524,0.005l0.199,0.089c0.513,0.026,0.928,0.037,1.291,0.039c0.363,0.015,0.675,0.027,0.983,0.04
			c1.035,0.145,2.023,0.298,2.989,0.398c0.957,0.156,1.894,0.256,2.777,0.487l0.011,0.028c0,0,0.453,0.089,0.907,0.179
			c0.449,0.11,0.899,0.22,0.899,0.22c-0.487-0.059,0.364,0.049,0.895,0.222c0.573,0.14,1.476,0.465,2.109,0.753l1.095,0.437
			c-1.238-0.428,0.042,0.147,0.073,0.264c0,0,0.182,0.051,0.363,0.102c0.179,0.06,0.357,0.119,0.357,0.119
			c0.257,0.167-0.47-0.129,0.026,0.118c0.239,0.079,0.696,0.273,1.152,0.459c0.453,0.193,0.892,0.404,1.123,0.461
			c-0.054-0.055-0.204-0.157-0.394-0.276c-0.06-0.024-0.056-0.023-0.017-0.01c-0.016-0.01-0.027-0.018-0.044-0.029
			c0.022,0.013,0.031,0.017,0.056,0.032c0.06,0.02,0.156,0.051,0.2,0.059c0.825,0.447,0.538,0.255,0.528,0.201
			c0.444,0.302,0.792,0.526,1.117,0.731c0.325,0.205,0.622,0.395,0.926,0.677c-0.827-0.761,2.051,1.309,1.576,0.782
			c0.564,0.581,0.439,0.32,0.78,0.719c-0.44-0.341-0.908-0.645-1.379-0.889c-0.468-0.248-0.906-0.49-1.313-0.679
			c0,0,0.183,0.122,0.353,0.265l0.344,0.275c-0.556-0.18-1.658-1.051-2.137-1.267c0.325,0.138,0.99,0.568,0.993,0.614l-0.137-0.232
			c-0.265-0.168-0.521-0.319-0.768-0.458c-0.254-0.127-0.499-0.241-0.735-0.346c-0.476-0.206-0.904-0.401-1.327-0.544
			c0.743,0.383-0.957-0.345-0.444-0.01l0.606,0.256c0.074,0.048,0.071,0.061,0.029,0.056c1.571,0.754,3.081,1.613,4.524,2.567
			l-0.361-0.252l0.33,0.108l0.118,0.201c0.494,0.328,0.979,0.667,1.456,1.017c0.207-0.002,1.423,0.882,1.142,0.546
			c0.21,0.194,0.262,0.273,0.38,0.39c0.119,0.116,0.307,0.265,0.76,0.636c0.616,0.431-0.592-0.708-0.823-0.919
			c0.734,0.506,0.744,0.497,0.791,0.483c0.439,0.574,0.671,1.11,0.149,0.772c0.282,0.245,0.562,0.494,0.837,0.748
			c-0.152-0.174,0.103,0.031,0.429,0.338l-0.008,0.054c7.379,6.97,11.986,16.846,11.986,27.798c0,0.729-0.022,1.454-0.063,2.174
			c0.011-0.038,0.024-0.077,0.035-0.115c0.115-0.421,0.207-0.748,0.277-0.274L85.385,47.536z M71.663,17.324
			c-0.337-0.352-0.736-0.659-1.035-0.851C70.979,16.751,71.323,17.034,71.663,17.324 M59.55,9.843
			c-0.422-0.163-0.636-0.252-0.032-0.006C59.53,9.839,59.538,9.841,59.55,9.843 M52.912,8.506c-0.38-0.031-0.72-0.024-1-0.022
			c-0.155,0.002-0.291,0.008-0.41,0.018c1.813,0.217,3.586,0.56,5.311,1.022c-0.124-0.042-0.229-0.081-0.299-0.112
			c0.401,0.15,1.158,0.334,1.528,0.398l-0.925-0.32c0.382,0.106,0.717,0.23,1.097,0.363c0.376,0.143,0.793,0.31,1.355,0.475
			c-0.161-0.143,0.687,0.022-0.122-0.375c-1.045-0.436-1.514-0.499-2.033-0.576c-0.26-0.039-0.533-0.079-0.904-0.155
			c-0.376-0.06-0.849-0.154-1.506-0.313c-0.252-0.019,0.586-0.032-0.84-0.262C53.712,8.588,53.29,8.541,52.912,8.506 M45.342,8.171
			c-0.294,0.022-0.624,0.076-0.925,0.138c0.361-0.024,0.724-0.042,1.088-0.054C45.408,8.232,45.303,8.2,45.342,8.171 M37.606,9.074
			c-0.161,0.088-0.212,0.216-0.177,0.338c0.446-0.114,0.896-0.218,1.349-0.316l0.126-0.193l0.061,0.152
			c0.452-0.095,0.908-0.184,1.366-0.263c-0.026-0.01-0.065-0.016-0.133-0.017c-0.234,0.009-0.853,0.032-1.421,0.124
			C38.206,8.985,37.677,9.063,37.606,9.074 M30.871,11.416c-0.686,0.359-1.279,0.796-1.755,1.197c0.63-0.332,1.27-0.647,1.921-0.945
			c0.54-0.373,1.021-0.72,1.305-0.902c0,0-0.294,0.129-0.579,0.281c-0.284,0.151-0.57,0.302-0.57,0.302L30.871,11.416z
			 M21.474,17.568c-0.183,0.161-0.072,0.08-0.043,0.086C21.436,17.631,21.453,17.602,21.474,17.568 M18.977,20.228
			c-0.076,0.12-0.165,0.257-0.257,0.405c0.218-0.238,0.438-0.472,0.661-0.704c-0.088-0.013-0.159-0.033-0.136-0.124L18.977,20.228
			 M9.297,38.883c-0.051,0.395-0.103,0.79-0.103,0.79c0.042-0.143,0.112-0.344,0.193-0.577c0.025-0.131,0.049-0.261,0.077-0.392
			c0.014-0.125,0.03-0.245,0.042-0.355c-0.001,0.051-0.001,0.115-0.002,0.172c0.053-0.25,0.106-0.499,0.164-0.746
			c-0.028,0.017-0.067,0.097-0.129,0.283c-0.008,0.081-0.02,0.184-0.033,0.291c0.002-0.266-0.008-0.433-0.073-0.251
			C9.433,38.098,9.353,38.489,9.297,38.883 M56.169,83.986c0.153-0.066,0.308-0.13-0.262,0.033L56.169,83.986 M67.305,13.371
			c0,0-0.183-0.117-0.377-0.217c-0.192-0.103-0.383-0.205-0.383-0.205c0.366,0.207,0.487,0.296,0.655,0.428
			C67.197,13.346,67.076,13.226,67.305,13.371 M67.795,14.097c0.005,0.118,0.492,0.36,0.985,0.707l-0.087-0.062
			C68.91,14.741,68.362,14.4,67.795,14.097 M69.352,15.203c0.086,0.001-0.179-0.14-0.455-0.321
			C69.05,14.986,69.206,15.095,69.352,15.203 M62.758,11.016c0.34,0.024-1.809-0.657-0.344-0.072
			C62.667,11.084,62.624,10.916,62.758,11.016 M64.828,12.628c-0.004-0.022,0.109,0.024,0.246,0.085
			c-0.524-0.273-1.092-0.588-1.085-0.549L64.828,12.628z M65.075,12.713c0.271,0.146,0.522,0.297,0.681,0.365
			C65.609,12.997,65.301,12.815,65.075,12.713 M53.773,8.827c0.251,0.019,0.637,0.072,0.485,0.009l-1.037-0.154
			C53.111,8.701,53.387,8.773,53.773,8.827 M85.605,48.682c0,0,0.032-0.2,0.044-0.402c0.017-0.202,0.033-0.403,0.033-0.403
			l-0.087,0.517L85.605,48.682z M85.637,46.943l-0.115-0.485c0.002,0.182,0.006,0.535-0.03,0.672L85.637,46.943z"/>
		<path class="st1" d="M29.097,58.108c-1.098-1.1-1.648-2.467-1.648-4.096c0-1.635,0.55-3.002,1.648-4.1
			c1.099-1.099,2.465-1.648,4.1-1.648c1.635,0,3.002,0.549,4.101,1.648c1.098,1.098,1.647,2.465,1.647,4.1
			c0,1.634-0.549,3.002-1.647,4.1c-1.099,1.098-2.466,1.648-4.101,1.648C31.562,59.76,30.195,59.208,29.097,58.108 M33.204,57.614
			c1.017,0,1.844-0.345,2.483-1.035c0.638-0.69,0.958-1.546,0.958-2.567s-0.319-1.878-0.958-2.567
			c-0.639-0.69-1.472-1.035-2.499-1.035c-1.017,0-1.845,0.345-2.483,1.035c-0.639,0.69-0.958,1.546-0.958,2.567
			s0.319,1.878,0.958,2.567C31.344,57.269,32.177,57.614,33.204,57.614 M58.846,31.793h-7.778c-0.193,0-0.334,0.159-0.334,0.334
			v0.241v0.23v0.971v0.031v7.878v0.241v0.481v0.722v0.031c0,0.194,0.158,0.334,0.334,0.334h1.691h4.397h1.69
			c0.176,0,0.334-0.14,0.334-0.334v-0.031v-1.202V41.48c0-0.176-0.14-0.334-0.334-0.334h-5.82l0.006-0.003V38.53h4.272
			c0.176,0,0.334-0.14,0.334-0.334v-0.031v-1.202v-0.241c0-0.177-0.14-0.334-0.334-0.334h-4.272v-2.451h5.814
			c0.176,0,0.334-0.14,0.334-0.334v-0.031v-1.202v-0.241C59.181,31.952,59.04,31.793,58.846,31.793 M51.441,41.894l-0.025-0.006
			l0.014-0.006L51.441,41.894z M72.083,48.256h-3.405h-0.691c-0.194,0-0.334,0.166-0.334,0.342v0.241v0.23v0.971v0.031v7.879v0.241
			v0.48v0.721v0.031c0,0.194,0.159,0.334,0.334,0.334h0.691h1h2.405c3.576,0,5.365-1.916,5.365-5.748
			C77.448,50.175,75.659,48.256,72.083,48.256 M68.336,58.359l0.013-0.006l0.011,0.013L68.336,58.359z M72.083,57.468h-2.13v-2.467
			l-0.001,0.038v-4.476h2.131c2.039,0,3.06,1.149,3.065,3.448C75.143,56.312,74.122,57.463,72.083,57.468 M47.993,31.793h-7.779
			c-0.193,0-0.334,0.159-0.334,0.334v1.443V33.57v9.384c0,0.194,0.158,0.334,0.334,0.334h0.825h1.033
			c0.176,0,0.334-0.14,0.334-0.334v-0.031V41.48v-2.951h4.045c0.177,0,0.334-0.14,0.334-0.334v-0.031v-1.202v-0.241
			c0-0.177-0.14-0.334-0.334-0.334h-4.045v-2.451h5.587c0.176,0,0.334-0.14,0.334-0.334v-0.031v-1.202v-0.241
			C48.327,31.952,48.186,31.793,47.993,31.793 M37.813,42.831L33.526,32.11c-0.013-0.033-0.027-0.061-0.041-0.089l-0.003-0.007
			c-0.068-0.14-0.146-0.22-0.29-0.22h-0.44h-1.008h-0.089h-0.351c-0.176,0-0.253,0.113-0.334,0.316l-4.3,10.721
			c-0.009,0.019-0.006,0.039-0.012,0.058l-0.001,0.003v-0.001c-0.056,0.207,0.072,0.396,0.313,0.396h1.606
			c0.282,0,0.44-0.176,0.51-0.352l0.565-1.411h5.181l0.565,1.411c0.071,0.176,0.228,0.352,0.51,0.352h1.607
			C37.779,43.289,37.919,43.06,37.813,42.831 M30.571,39.227l1.67-4.173l1.67,4.173H30.571z M24.379,37.349
			c-0.681-0.461-1.431-0.752-2.244-0.892l-0.259-0.042c-0.048-0.006-0.092-0.018-0.14-0.024c-0.921-0.153-1.508-0.382-1.763-0.689
			c-0.256-0.307-0.256-0.677,0-1.112c0.255-0.434,0.842-0.651,1.763-0.651c0.709,0,1.29,0.194,1.757,0.558l0.293,0.236
			c0.133,0.116,0.345,0.115,0.472-0.031l0.021-0.024l0.951-1.084c0.116-0.133,0.115-0.344-0.031-0.472l-0.318-0.272v-0.001
			c-0.002-0.001-0.004-0.003-0.006-0.005l-0.008-0.006l-0.001,0.001c-0.163-0.129-0.33-0.247-0.5-0.351
			c-0.195-0.12-0.395-0.224-0.599-0.313c-0.588-0.255-1.415-0.383-2.483-0.383c-0.919,0-1.815,0.308-2.686,0.923
			c-0.871,0.615-1.307,1.432-1.307,2.448c0,1.124,0.383,1.916,1.149,2.375c0.579,0.348,1.201,0.592,1.866,0.735l0.214,0.035
			c0.149,0.026,0.296,0.056,0.448,0.073c1.022,0.102,1.659,0.371,1.912,0.805c0.253,0.434,0.253,0.869,0,1.303
			c-0.253,0.434-0.891,0.652-1.912,0.652c-0.906-0.076-1.731-0.383-2.263-0.75l-0.113-0.084l-0.216-0.189
			c-0.132-0.116-0.343-0.115-0.472,0.031l-0.02,0.024l-0.951,1.085c-0.116,0.132-0.115,0.344,0.031,0.471l0.331,0.283l-0.001,0.002
			c0.406,0.323,0.866,0.595,1.377,0.814c0.716,0.307,1.607,0.46,2.674,0.46c1.124,0,2.109-0.332,2.955-0.996
			c0.846-0.663,1.268-1.456,1.268-2.375C25.567,38.741,25.172,37.886,24.379,37.349 M24.379,53.82
			c-0.681-0.461-1.431-0.752-2.244-0.892l-0.259-0.042c-0.048-0.006-0.092-0.018-0.14-0.023c-0.921-0.154-1.508-0.383-1.763-0.69
			c-0.256-0.307-0.256-0.677,0-1.112c0.255-0.434,0.842-0.651,1.763-0.651c0.709,0,1.29,0.194,1.757,0.559l0.293,0.236
			c0.133,0.115,0.345,0.115,0.472-0.031l0.021-0.024l0.951-1.084c0.116-0.133,0.115-0.344-0.031-0.472l-0.318-0.273
			c-0.002-0.001-0.004-0.003-0.006-0.005l-0.008-0.006l-0.001,0.001c-0.163-0.129-0.33-0.247-0.5-0.351
			c-0.195-0.12-0.395-0.224-0.599-0.313c-0.588-0.255-1.415-0.383-2.483-0.383c-0.919,0-1.815,0.308-2.686,0.923
			c-0.871,0.616-1.307,1.432-1.307,2.448c0,1.124,0.383,1.916,1.149,2.375c0.579,0.348,1.201,0.592,1.866,0.736l0.214,0.035
			c0.149,0.027,0.296,0.056,0.448,0.073c1.022,0.102,1.659,0.371,1.912,0.805c0.253,0.434,0.253,0.869,0,1.303
			c-0.253,0.434-0.891,0.652-1.912,0.652c-0.906-0.076-1.731-0.382-2.263-0.75l-0.113-0.085l-0.216-0.19
			c-0.132-0.115-0.343-0.114-0.472,0.031l-0.02,0.024l-0.951,1.085c-0.116,0.132-0.115,0.344,0.031,0.471l0.331,0.284l-0.001,0.001
			c0.406,0.323,0.866,0.595,1.377,0.814c0.716,0.307,1.607,0.46,2.674,0.46c1.124,0,2.109-0.332,2.955-0.997
			c0.846-0.663,1.268-1.456,1.268-2.375C25.567,55.212,25.172,54.357,24.379,53.82 M50.839,48.264h-0.032h-1.355H49.21
			c-0.177,0-0.335,0.14-0.335,0.334v4.045h0.001v2.288c0,0.869-0.256,1.508-0.767,1.916c-0.51,0.409-1.149,0.613-1.915,0.613
			c-0.767,0-1.405-0.204-1.916-0.613c-0.511-0.408-0.766-1.047-0.766-1.916v-2.288v-2.972v-1.073c0-0.176-0.142-0.334-0.336-0.334
			h-0.031h-1.355h-0.242c-0.177,0-0.335,0.14-0.335,0.334v1.081v2.964v2.901c0,1.175,0.472,2.171,1.418,2.989
			c0.944,0.817,2.132,1.226,3.564,1.226c1.43,0,2.617-0.409,3.563-1.226c0.945-0.818,1.417-1.814,1.417-2.989v-2.901v-2.19v-1.855
			C51.174,48.423,51.033,48.264,50.839,48.264 M64.217,48.264h-0.823h-0.812c-0.176,0-0.334,0.14-0.334,0.334v0.031v1.444v2.95
			v0.011l0.006,2.434l-7.012-7.204h-0.184h-0.44c-0.175,0-0.334,0.14-0.334,0.316v1.461v4.386v3.749v1.248
			c0,0.194,0.159,0.334,0.334,0.334h0.824h0.812c0.177,0,0.334-0.14,0.334-0.334v-0.031v-1.444V55v-0.013v-2.131l6.898,6.903h0.292
			h0.44c0.176,0,0.335-0.14,0.335-0.317v-0.974v-0.487v-8.845v-0.539C64.552,48.405,64.393,48.264,64.217,48.264 M55.007,48.659
			l0.014,0.014L55,48.711L55.007,48.659z"/>
		<path class="st2" d="M89.824,35.438c-0.063-0.529-0.128-1.076-0.041-1.689c0.03-0.216-0.065-0.421-0.232-0.542
			c0.01-0.045,0.018-0.09,0.018-0.138c0.003-0.443,0.069-0.862,0.12-1.011c0.039-0.04,0.085-0.081,0.104-0.114
			c0.11-0.186,0.105-0.419-0.013-0.601c-0.083-0.129-0.217-0.197-0.364-0.227c0.129-0.146,0.209-0.333,0.221-0.59
			c0.008-0.154-0.015-0.264-0.12-0.376c-0.024-0.047-0.038-0.108-0.057-0.168c-0.033-0.105-0.096-0.311-0.223-0.49
			c0.074-0.165,0.069-0.355-0.019-0.514c-0.017-0.03-0.059-0.124-0.155-0.443l-0.245-0.67c-0.094-0.242-0.21-0.541-0.415-0.72
			l-0.057-0.43c-0.038-0.233-0.243-0.381-0.471-0.424c-0.071-0.208-0.138-0.417-0.201-0.63l-0.239-0.75
			c-0.186-0.56-0.378-1.135-0.673-1.667c0.011-0.124-0.019-0.252-0.09-0.359l-0.323-0.508c-0.328-0.525-0.665-1.06-0.99-1.472
			c-0.094-0.15-0.182-0.28-0.268-0.403c0.012-0.036,0.013-0.072,0.017-0.109c0.101-0.074,0.186-0.169,0.221-0.292
			c0.049-0.175,0.013-0.364-0.1-0.507c-0.097-0.123-0.314-0.365-0.626-0.362c-0.013-0.059-0.027-0.119-0.06-0.174
			c-0.118-0.191-0.201-0.353-0.276-0.496c-0.201-0.382-0.369-0.699-0.823-1.081c-0.078-0.586-0.757-1.216-0.861-1.309
			c0.012-0.118-0.013-0.236-0.072-0.341c-0.25-0.437-0.576-0.836-0.999-1.218c-0.285-0.254-0.597-0.463-0.901-0.663l-0.322-0.22
			c0.076-0.234,0.004-0.498-0.209-0.645l-0.711-0.492c-0.111-0.075-0.239-0.099-0.363-0.09c-0.011-0.026-0.031-0.047-0.041-0.074
			c-0.068-0.168-0.211-0.296-0.389-0.341c-0.075-0.018-0.168-0.024-0.268-0.01c-0.047-0.079-0.092-0.156-0.134-0.227
			c-0.176-0.303-0.293-0.504-0.391-0.581c-0.125-0.142-0.243-0.251-0.443-0.407c-0.02-0.013-0.127-0.08-0.147-0.092
			c-0.058-0.035-0.116-0.063-0.182-0.094c-0.243-0.106-0.462-0.143-0.627-0.172c-0.275-0.045-0.473-0.076-0.833-0.392
			c-0.027-0.024-0.056-0.044-0.086-0.061c-0.023-0.095-0.066-0.199-0.143-0.312c-0.104-0.153-0.273-0.245-0.452-0.25
			c-0.117-0.108-0.252-0.223-0.385-0.332l-0.17-0.141c-0.013-0.01-0.026-0.021-0.039-0.031c-0.033-0.195-0.167-0.364-0.359-0.439
			c-0.129-0.048-0.373-0.132-0.567-0.127c-0.176-0.116-0.352-0.223-0.531-0.328l-0.154-0.084c-0.326-0.177-0.666-0.361-1.06-0.643
			c-0.004-0.003-0.01-0.002-0.015-0.006c-0.148-0.134-0.305-0.225-0.476-0.233c-0.106-0.017-0.2,0.024-0.287,0.07
			c-0.289-0.12-0.531-0.165-0.785-0.1c-0.003,0-0.041-0.002-0.099-0.015c0.001-0.081-0.01-0.159-0.036-0.222
			c-0.051-0.127-0.132-0.221-0.237-0.296c0-0.003,0-0.006,0.001-0.009c0.044-0.296-0.15-0.576-0.443-0.64
			c-0.51-0.111-0.928-0.366-1.3-0.622c-0.022-0.243-0.198-0.451-0.448-0.505l-0.014-0.003c-0.257-0.057-0.46-0.141-0.745-0.259
			c-0.12-0.048-0.243-0.052-0.364-0.02c-0.069-0.022-0.143-0.028-0.213-0.02c-0.067,0.008-0.17,0.026-0.275,0.077
			c-0.063-0.145-0.188-0.261-0.348-0.313c-0.057-0.018-0.135-0.038-0.21-0.057c-0.072-0.09-0.163-0.16-0.284-0.213
			c-0.001-0.001-0.001-0.002-0.003-0.003c-0.726-0.449-1.076-0.443-1.498-0.268c-0.07,0.029-0.132,0.049-0.268,0.042
			c-0.188-0.337-0.617-0.553-0.899-0.583c-0.216-0.017-0.425,0.096-0.529,0.286c-0.371-0.138-0.623-0.15-0.877-0.14
			c-0.112,0.005-0.156,0.001-0.216-0.016L60.49,3.197c-0.216-0.089-0.451-0.039-0.61,0.111c-0.153-0.033-0.342-0.125-0.556-0.234
			c-0.32-0.164-0.7-0.359-1.152-0.427c-0.073-0.282-0.303-0.434-0.46-0.506c-0.081-0.038-0.17-0.083-0.259-0.051
			c-0.405,0.004-0.589-0.066-0.835-0.177c-0.299-0.134-0.652-0.284-1.373-0.29c-0.184,0.003-0.352,0.095-0.455,0.24
			c-0.056-0.054-0.122-0.097-0.2-0.126c-0.768-0.285-1.487-0.284-2.156-0.246c-0.276,0.013-0.56,0.021-0.87,0.017l-0.527-0.032
			c-0.172-0.016-0.351-0.04-0.54-0.078c-0.202-0.04-0.407,0.032-0.538,0.177c-0.092-0.01-0.184-0.019-0.281-0.026
			c-0.139-0.148-0.312-0.245-0.401-0.293l-0.054-0.032c-0.09-0.1-0.193-0.167-0.254-0.206c-0.22-0.135-0.502-0.106-0.69,0.068
			c-0.019,0.017-0.019,0.045-0.035,0.065c-0.307,0.007-0.657,0.026-0.943,0.171l-0.412-0.177c-0.051-0.021-0.104-0.036-0.158-0.042
			c-0.84-0.102-1.331,0.087-1.76,0.263c-0.093-0.19-0.286-0.318-0.506-0.321l-0.154-0.002c-0.215-0.006-0.413-0.004-0.557,0.009
			c-0.126,0.015-0.229,0.045-0.315,0.084c-0.194,0.006-0.401,0.054-0.625,0.108c-0.076,0.017-0.181,0.04-0.281,0.06
			c-0.015-0.005-0.026-0.015-0.04-0.018c-0.07-0.016-0.135-0.026-0.2-0.033c-0.136-0.017-0.283-0.026-0.505,0.026
			c-0.159,0.038-0.269,0.152-0.347,0.289L41.44,1.567c-0.224-0.07-0.469,0.006-0.616,0.191c0.017-0.02,0.042-0.065,0.049-0.069
			c-0.052,0.02-0.127,0.058-0.196,0.092c-0.48-0.031-0.88-0.089-0.996-0.137l-0.026-0.08l-0.123,0.024c0,0-0.615,0.113-1.221,0.249
			C38.166,1.868,38.025,1.9,37.892,1.93l-0.047-0.131l-0.039,0.013c-0.031-0.05-0.053-0.114-0.09-0.147
			c-0.163-0.139-0.465-0.272-0.953-0.096c-0.166,0.059-0.295,0.188-0.35,0.353c-0.006,0.019-0.002,0.04-0.006,0.06
			c-0.004,0.001-0.006,0.002-0.01,0.003l-0.129,0.05c-0.036-0.008-0.062-0.037-0.099-0.037c-0.008,0-0.016,0-0.025,0.002
			l-0.338,0.014c-0.143,0.007-0.266,0.07-0.364,0.163c-0.241,0.067-0.482,0.136-0.734,0.213l-0.122,0.024l-0.445,0.118
			c-0.135,0.039-0.268,0.08-0.398,0.12l0.117-0.196l-0.505,0.121c-0.376,0.09-0.765,0.183-1.176,0.312l-0.993,0.353
			c-0.383,0.002-0.768,0.165-0.987,0.271c-0.01,0.006-0.137,0.074-0.145,0.081c-0.217,0.122-0.451,0.252-0.67,0.333
			c-0.074-0.03-0.143-0.043-0.24-0.045c-0.613,0.019-1.11,0.385-1.638,0.772c-0.177,0.131-0.368,0.25-0.556,0.372l0.006-0.268
			l-0.266,0.349c-0.031,0.04-0.101,0.078-0.184,0.116c-0.086,0.013-0.161,0.044-0.235,0.095c-0.032,0.012-0.06,0.024-0.091,0.035
			c-0.118,0.042-0.243,0.087-0.365,0.138c-0.358,0.143-0.747,0.315-0.965,0.566L24.8,6.03l-0.07,0.04
			c-0.91,0.531-1.534,0.95-2.111,1.366c-0.427,0.12-0.724,0.432-0.946,0.665c-0.014,0.016-0.031,0.032-0.045,0.049
			c-0.146-0.014-0.287,0.027-0.403,0.117c-0.614,0.475-0.877,0.834-1.129,1.211c-0.129,0.187-0.27,0.382-0.526,0.626
			c-0.017-0.002-0.032-0.015-0.05-0.016c-0.428-0.033-1.214,0.391-1.451,0.992c-0.026,0.065-0.008,0.133-0.009,0.2
			c-0.141,0.015-0.276,0.064-0.372,0.176c-0.163-0.016-0.316,0.033-0.438,0.143c-0.011,0.013-1.158,1.058-1.476,1.775l-0.063,0.07
			c-0.556,0.606-0.928,1.009-1.321,1.484c-0.282,0.177-0.576,0.442-0.906,0.807l-0.153,0.163c-0.229,0.247-0.465,0.499-0.708,0.723
			c-0.33,0.321-0.48,0.38-0.53,0.39c-0.162,0.033-0.3,0.136-0.382,0.28c-0.236,0.419-0.522,0.811-0.78,1.147
			c-0.28,0.382-0.584,0.747-0.896,1.113c-0.337,0.386-0.668,0.793-1.007,1.227l-0.103,0.135c-0.302,0.395-0.62,0.81-0.885,1.247
			c-0.104,0.172-0.088,0.377,0.002,0.551c-0.264,0.067-0.469,0.262-0.553,0.349c-0.2,0.204-0.184,0.501-0.008,0.727
			c0.001,0.003,0.004,0.006,0.006,0.01c-0.01,0.062-0.017,0.129-0.017,0.196c-0.041-0.022-0.086-0.039-0.129-0.049
			c-0.236-0.049-0.479,0.042-0.608,0.248c-0.143,0.22-0.221,0.315-0.221,0.334c-0.237,0.035-0.461,0.129-0.763,0.452
			c-0.159,0.171-0.199,0.424-0.097,0.636c0.006,0.012,0.013,0.024,0.019,0.036c-0.065,0.137-0.161,0.305-0.275,0.478
			c-0.113,0.172-0.12,0.385-0.035,0.56c-0.163,0.147-0.355,0.328-0.528,0.622c-0.15,0.063-0.27,0.191-0.321,0.356
			c-0.057,0.186-0.156,0.44-0.269,0.733c-0.395,1.017-0.729,1.944-0.78,2.701c-0.092,0.064-0.167,0.156-0.21,0.268
			c-0.176,0.47-0.373,1.02-0.479,1.601c-0.076,0.389-0.143,0.783-0.211,1.17l-0.153,0.944c-0.093,0.601-0.182,1.18-0.323,1.656
			c-0.201,0.08-0.342,0.269-0.358,0.487c-0.015,0.201,0.015,0.377,0.037,0.518c0.008,0.042,0.014,0.079,0.017,0.111
			c-0.131,0.104-0.238,0.267-0.271,0.41c-0.013,0.065-0.016,0.129-0.009,0.194c0.022,0.17,0.036,0.356,0.041,0.538
			c-0.095,0.075-0.165,0.178-0.198,0.302c-0.275,1.033-0.23,1.867-0.159,2.647c0.027,0.236,0.061,0.467,0.097,0.698
			c0.056,0.366,0.11,0.717,0.131,1.086c-0.473,0.423-0.64,1.401-0.751,2.257c-0.063,0.085-0.102,0.189-0.11,0.298
			c-0.042,0.628,0.008,1.216,0.05,1.693c0.051,0.519,0.114,1.011,0.205,1.503l0.565,2.733c-0.261,1.019-0.052,2.577,0.17,4.221
			c0.109,0.818,0.22,1.634,0.261,2.348c0.017,0.289,0.247,0.517,0.532,0.536c0.036,0.189,0.106,0.369,0.175,0.535
			c-0.12,0.178-0.195,0.394-0.224,0.651c-0.009,0.104-0.013,0.215-0.004,0.377C2.3,61.04,2.311,61.114,2.334,61.24
			c0.074,0.401,0.209,0.836,0.366,1.332c0.049,0.154,0.167,0.252,0.305,0.318c-0.065,0.152-0.085,0.318-0.005,0.474l0.172,0.338
			c0.094,0.191,0.199,0.374,0.199,0.374c0.058,0.102,0.147,0.172,0.245,0.221c0.209,0.572,0.505,1.186,0.907,1.855l0.366,0.599
			c0.44,0.715,0.856,1.389,0.847,1.777c-0.003,0.164,0.065,0.323,0.186,0.435c0.161,0.145,0.312,0.324,0.467,0.501
			c0.079,0.09,0.159,0.182,0.238,0.269c-0.003,0.008-0.005,0.015-0.006,0.022c-0.038,0.15-0.013,0.309,0.067,0.44
			c0.616,0.992,1.002,1.594,1.806,2.534c-0.027,0.156,0.01,0.318,0.113,0.449c0.444,0.568,1.032,0.689,1.492,0.783
			c0.15,0.029,0.264,0.052,0.359,0.085l-0.036,0.11c-0.066,0.195-0.019,0.412,0.119,0.565c0.297,0.325,0.579,0.67,0.861,1.016
			c0.646,0.789,1.308,1.598,2.163,2.223c0.023,0.096,0.073,0.188,0.15,0.263l0.235,0.243c1.026,1.056,1.647,1.604,2.17,1.668
			c0.238,0.239,0.693,0.564,1.585,1.012c0.001,0.013,0.003,0.026,0.004,0.04c0.04,0.24,0.229,0.428,0.47,0.469l0.394,0.06
			c0.37,0.053,0.524,0.076,0.822,0.213c0.024,0.074,0.063,0.148,0.12,0.211c0.039,0.044,0.077,0.081,0.114,0.115
			c0.307,0.282,0.547,0.372,0.782,0.43c0.033,0.129,0.108,0.247,0.223,0.328c0.611,0.438,0.85,0.492,1.247,0.51
			c0.067,0.003,0.147,0.007,0.134-0.008c0.323,0.111,0.856,0.599,0.92,0.643c-0.019,0.203,0.051,0.409,0.218,0.526
			c0.165,0.12,0.362,0.146,0.549,0.062c0.018-0.006,0.051-0.006,0.09-0.001c0.035,0.099,0.097,0.188,0.184,0.257
			c0.32,0.259,0.628,0.439,0.913,0.576c-0.111,0.092-0.186,0.228-0.201,0.383c-0.028,0.292,0.171,0.557,0.458,0.614l0.289,0.054
			c0.623,0.117,1.521,0.285,2.129,0.574c0.044,0.108,0.12,0.202,0.224,0.269c0.186,0.12,0.392,0.204,0.622,0.255
			c0.157,0.108,0.285,0.193,0.438,0.277c0.193,0.271,0.538,0.427,0.722,0.51c0.152,0.064,0.317,0.127,0.471,0.186
			c0.137,0.051,0.264,0.099,0.362,0.143c0.153,0.068,0.325,0.067,0.471-0.005c0.076-0.035,0.144-0.087,0.197-0.15
			c0.113-0.042,0.236-0.121,0.329-0.213c0.113,0.106,0.227,0.21,0.338,0.31l0.147,0.129c0.133,0.113,0.307,0.273,0.316,0.23
			c0.046,0.219,0.218,0.392,0.438,0.438c0.299,0.065,0.613,0.155,0.936,0.247c0.439,0.126,0.891,0.253,1.325,0.333
			c0.584,0.115,1.051,0.172,1.444,0.172h0.016c0.09,0.16,0.259,0.273,0.453,0.288c0.245,0.019,0.556,0.079,0.874,0.137
			c0.565,0.105,1.067,0.206,1.464,0.172c0.09,0.113,0.229,0.181,0.407,0.229c0.054,0.058,0.118,0.108,0.193,0.143
			c0.65,0.294,1.315,0.471,2.053,0.539c0.58,0.033,1.139-0.006,1.679-0.04l0.141-0.011c0.206-0.006,0.414-0.02,0.625-0.035
			c0.371-0.026,0.743-0.055,1.143-0.039c0.504,0.012,1.072,0.107,1.832,0.309c0.026,0.008,0.052,0.013,0.078,0.021
			c0.05,0.014,0.099,0.02,0.147,0.02c0.102,0,0.199-0.028,0.284-0.077c1.405,0.127,2.956,0.051,4.724-0.216l1.303-0.191
			c0.263-0.03,0.526-0.082,0.789-0.135c0.182-0.035,0.364-0.072,0.556-0.102c0.428-0.074,0.857-0.135,1.319-0.188
			c0.41-0.07,0.816-0.136,1.257-0.178c0.508-0.076,0.851-0.196,1.145-0.401c0.044-0.028,0.084-0.06,0.154-0.115
			c0.036-0.021,0.071-0.045,0.1-0.069c0.003-0.003,0.015-0.013,0.027-0.026c0.207,0.118,0.462,0.1,0.649-0.051l0.748-0.62
			c0.436-0.248,0.914-0.275,1.467-0.307c0.805-0.047,1.717-0.101,2.706-0.821c0.102-0.073,0.174-0.177,0.211-0.293
			c0.07-0.029,0.141-0.058,0.21-0.088c0.191-0.08,0.455-0.189,0.622-0.244c0.003,0,0.006,0.002,0.009,0.003
			c0.193,0.062,0.404,0.021,0.556-0.108c0.147,0.026,0.294-0.005,0.416-0.088l1.217-0.821c0.248,0.079,0.595-0.076,1.273-0.386
			c0.005-0.003,0.149-0.099,0.34-0.245l1.062-0.049l-0.827-0.138c0.205-0.17,0.423-0.376,0.602-0.595l0.13-0.09
			c0.106-0.059,0.227-0.131,0.328-0.225l0.045-0.031c0.082-0.057,0.132-0.131,0.166-0.21l0.147-0.062
			c0.157-0.09,0.315-0.186,0.47-0.289c0.131-0.09,0.241-0.175,0.354-0.267l0.049-0.035c0.247-0.2,0.474-0.412,0.691-0.631
			l0.028-0.004l-0.015-0.008c0.009-0.009,0.017-0.019,0.026-0.029c0.305-0.287,0.595-0.584,0.875-0.894l0.28-0.314
			c0.095-0.106,0.188-0.204,0.282-0.309c0.344-0.28,0.708-0.557,1.089-0.815c0.006,0.008,0.013,0.015,0.021,0.023
			c0.025,0.03,0.175,0.147,0.367-0.049l1.075-1.241l0.378-0.385l-0.096,0.06l0.188-0.216l-0.189-0.022l0.161-0.185
			c0.071-0.04,0.142-0.081,0.222-0.129l0.892-0.522l-0.483,0.025l0.042-0.025l-0.036,0.002c0.058-0.063,0.095-0.127,0.111-0.197
			l0.293-0.169l-0.292,0.015c-0.003-0.024,0.006-0.042,0.001-0.066c-0.001-0.003-0.001-0.008-0.001-0.012
			c0.113-0.073,0.195-0.14,0.236-0.203l0.028,0.099l0.255-0.405c0.12-0.188,0.215-0.376,0.308-0.563
			c0.017-0.035,0.035-0.07,0.054-0.106l0.177,0.186l0.15-0.213c0.165-0.237,0.281-0.496,0.391-0.753
			c0.099-0.17,0.19-0.344,0.266-0.522c0.275-0.2,0.437-0.346,0.556-0.483c0.25-0.202,0.357-0.341,0.503-0.531
			c0.056-0.075,0.121-0.159,0.205-0.261c0.072-0.086,0.234-0.276,0.4-0.468l0.428-0.52l-0.147-0.138l-0.054,0.051
			c0.076-0.425,0.29-0.775,0.539-1.149l0.095-0.145c0.082-0.128,0.166-0.281,0.252-0.423c0.043-0.025,0.08-0.056,0.108-0.081
			c0.012-0.01,0.03-0.026,0.047-0.041c0.017,0.006,0.038,0.011,0.057,0.013c0.056-0.004,0.12-0.018,0.164-0.059
			c0.069-0.067,0.145-0.147,0.217-0.223c0.009-0.009,0.02-0.02,0.029-0.03l0.004,0.006l0.083-0.078
			c0.031-0.031,0.065-0.067,0.097-0.1c0.107-0.002,0.182-0.067,0.202-0.164c0.006-0.029,0.021-0.047,0.029-0.072
			c0.076-0.078,0.148-0.15,0.177-0.162c-0.008,0.004-0.04,0.008-0.065-0.01c-0.021-0.013-0.024-0.029-0.029-0.042
			c0.004-0.003,0.009-0.008,0.012-0.01l0.18,0.024c0.056-0.271,0.195-0.448,0.352-0.652c0.192-0.248,0.407-0.533,0.506-1.031
			c0.06-0.016,0.123-0.037,0.15-0.095c0.034-0.074,0.064-0.144,0.088-0.211c0.021-0.028,0.041-0.059,0.059-0.076l0.085,0.165
			l0.087-0.188c0.122-0.262,0.163-0.376,0.073-0.439c-0.084-0.051-0.143-0.002-0.236,0.088c0.172-0.395,0.43-0.804,0.7-1.23
			c0.502-0.791,1.071-1.686,1.28-2.785c0.233-0.792,0.307-1.259,0.343-1.72c0.02-0.255,0.053-0.505,0.099-0.793
			c0.051-0.108,0.077-0.2,0.12-0.302l-0.051,0.522l0.249-0.527c0.338-0.717,0.51-1.27,0.589-1.921
			c0.088-0.018,0.165-0.124,0.284-0.282l0.018-0.041c0.054-0.273,0.021-0.41-0.01-0.531c-0.013-0.059-0.029-0.117-0.026-0.195
			l0.367,0.539l-0.035-0.387c-0.029-0.32-0.132-0.533-0.212-0.697l-0.1-0.204l-0.086,0.212c-0.006,0.018-0.013,0.034-0.019,0.052
			l-0.094-0.136l-0.026,0.279c-0.003,0.035-0.008,0.056-0.012,0.089c-0.001-0.005-0.003-0.011-0.006-0.015
			c-0.036-0.076-0.118-0.129-0.2-0.12c-0.027,0.001-0.038,0.033-0.062,0.043c0.015-0.225,0.038-0.451,0.041-0.672l0.11,0.604
			l0.12-0.892c0.073-0.535,0.22-2.144-0.045-2.513l-0.17-0.239l-0.188,0.64c-0.024,0.041-0.044,0.099-0.051,0.177l0.221,0.042
			c0.008,0.023,0.014,0.051,0.017,0.086c0.009,0.072-0.004,0.11-0.003,0.171l-0.238,0.2c-0.304,0.257-0.391,0.756-0.428,1.425
			c-0.006,0.127-0.008,0.259-0.012,0.392c-0.004,0.171-0.009,0.344-0.021,0.509c-0.015,0.163-0.032,0.304-0.051,0.428l-0.366-0.727
			l0.039,0.977l-0.265,0.495c-0.188,0.351-0.206,0.542-0.221,0.695c-0.015,0.145-0.027,0.259-0.189,0.501
			c0.018-0.015,0.065-0.041,0.122-0.015l-0.036,0.057l-0.168-0.016l-0.052,0.371l-0.139-0.066c-0.308,0.584-0.416,1.106-0.503,1.524
			c-0.079,0.378-0.136,0.656-0.302,0.807l-0.056-0.015c-0.245,0.721-0.257,0.901-0.194,1.015c0.047,0.085,0.126,0.104,0.168,0.105
			c0.005,0.008,0.041,0.084-0.024,0.465l-1.059,0.583l0.204,0.333c-0.044,0.081-0.084,0.145-0.115,0.188l-0.119-0.19l-0.075,0.34
			c-0.054,0.249-0.079,0.394,0.036,0.462l0.001,0.001c-0.193,0.249-0.356,0.565-0.515,0.871c-0.067,0.129-0.132,0.255-0.2,0.376
			c-0.135,0.245-0.414,0.75-0.583,0.75c-0.001,0-0.004,0-0.006-0.001l-0.162-0.014l0.008,0.163c0.005,0.089,0.034,0.143,0.069,0.176
			c-0.188,0.131-0.298,0.391-0.41,0.661c-0.044,0.106-0.09,0.218-0.145,0.329c-0.01-0.027-0.029-0.051-0.06-0.072
			c-0.113-0.083-0.215,0.01-0.474,0.261l-0.053,0.049l0.011,0.072c0.045,0.326-0.304,0.704-0.64,1.069
			c-0.225,0.245-0.457,0.497-0.585,0.748l-0.064,0.082l0.088,0.072c0.026,0.138-0.371,0.718-0.661,1.143
			c-0.215,0.312-0.437,0.636-0.628,0.955c-0.102,0.056-0.27,0.254-0.764,0.85l-0.067,0.079c-0.218,0.264-0.462,0.559-0.693,0.837
			l-0.337,0.4c-0.087,0.1-0.15,0.158-0.227,0.229l-0.05,0.045l0.052,0.057l-0.109,0.036c0.068,0.206-0.451,0.804-0.795,1.199
			c-0.03,0.035-0.059,0.07-0.089,0.102c0.029-0.053,0.066-0.116,0.113-0.19l-0.224-0.175l-0.545,0.576l-0.01,0.036
			c-0.028,0.116-0.088,0.248-0.254,0.472l-0.035-0.269l-0.206,0.218c-0.234,0.248-0.448,0.514-0.672,0.793
			c-0.439,0.549-0.893,1.116-1.574,1.627l-0.094,0.07l0.05,0.106c0.011,0.022,0.025,0.042,0.042,0.058l-0.387,0.324
			c-0.43,0.361-0.935,0.677-1.125,0.703l-0.506,0.059l0.466,0.201c0,0.002,0,0.07-0.152,0.219c-0.301,0.261-0.385,0.28-0.385,0.283
			c-0.115-0.07-0.226-0.089-0.451,0.016L70.1,82.97l-0.023,0.051c-0.026,0.067-0.127,0.158-0.305,0.273
			c-0.009,0.006-0.016,0.013-0.024,0.019c-0.297-0.05-0.612-0.013-0.86,0.042c-0.099,0.023-0.191,0.07-0.266,0.139l-0.117,0.108
			c-0.54,0.024-0.861,0.28-1.081,0.51c-0.127-0.013-0.268-0.009-0.428,0.022c-0.129,0.025-0.246,0.095-0.33,0.195l-0.211,0.256
			c-0.239-0.063-0.478-0.005-0.6,0.024c-0.113,0.029-0.218,0.091-0.294,0.182c-0.095,0.108-0.152,0.215-0.182,0.312
			c-0.184-0.08-0.401-0.067-0.576,0.06c-0.019,0.015-0.047,0.034-0.079,0.059c-0.12,0.084-0.302,0.173-0.476,0.259
			c-0.271,0.131-0.547,0.266-0.755,0.457c-0.272,0.027-0.545,0.12-0.796,0.206c-0.076,0.026-0.172,0.056-0.256,0.081
			c-0.154-0.139-0.379-0.211-0.579-0.15c-0.157,0.047-0.259,0.166-0.327,0.306c-0.079,0.076-0.218,0.189-0.39,0.308
			c-0.28-0.106-0.649,0.006-1.031,0.119c-0.136,0.04-0.355,0.106-0.513,0.139c-0.065-0.066-0.146-0.117-0.239-0.145
			c-0.24-0.076-0.51,0.019-0.648,0.234c-0.029,0.043-0.11,0.137-0.337,0.26c-0.102,0.057-0.213,0.109-0.332,0.159l0.006,0.017
			c-0.036,0.003-0.07,0.012-0.113,0.033l-0.018,0.004l-0.538,0.179c-0.362,0.115-0.734,0.234-1.08,0.38
			c-0.066,0.003-0.126,0.013-0.184,0.032c-0.254,0.048-0.39,0.024-0.572-0.01c-0.136-0.025-0.271-0.048-0.431-0.052
			c-0.156-0.008-0.3-0.015-0.413,0.104c-0.113,0.115-0.155,0.203-0.145,0.363c-0.018,0.026-0.07,0.061-0.12,0.095l-0.053,0.003
			c-0.035-0.088-0.083-0.166-0.129-0.224c-0.176-0.21-0.474-0.265-0.71-0.137c-0.126,0.07-0.217,0.181-0.264,0.308
			c-0.072,0.033-0.168,0.071-0.234,0.098c-0.108,0.043-0.215,0.097-0.321,0.152c-0.062,0.012-0.117,0.026-0.178,0.038
			c-0.033-0.026-0.067-0.059-0.128-0.117c-0.161-0.154-0.391-0.19-0.597-0.117c-0.144,0.054-0.259,0.166-0.32,0.305
			c-0.135,0.012-0.317,0.035-0.51,0.119c-0.031-0.015-0.044-0.028-0.05-0.035c-0.043-0.049-0.087-0.089-0.131-0.124
			c-0.056-0.273-0.332-0.519-0.581-0.455c-0.316,0.012-0.709,0.062-0.95,0.346c-0.018,0.021-0.035,0.043-0.049,0.065
			c-0.054-0.058-0.123-0.113-0.209-0.163c-0.11-0.061-0.238-0.093-0.364-0.07c-0.371,0.051-0.691,0.164-0.974,0.261
			c-0.131,0.047-0.254,0.088-0.367,0.12c-0.154-0.128-0.373-0.164-0.57-0.087c-0.215,0.087-0.643,0.061-1.052,0.039l-0.205-0.011
			c-0.295-0.015-0.628-0.019-0.962-0.006c-0.152-0.244-0.488-0.293-0.954-0.35c-0.114-0.018-0.228,0.01-0.328,0.063
			c-0.057-0.088-0.117-0.161-0.16-0.212c-0.083-0.098-0.196-0.166-0.321-0.191c-0.653-0.134-1.065-0.206-1.517-0.224
			c-0.35-0.025-0.682-0.049-1.248-0.215c-0.118-0.036-0.243-0.03-0.36,0.013c-0.111,0.04-0.246,0.134-0.356,0.268l-0.559-0.159
			l0.481,0.25c-0.005,0.008-0.013,0.011-0.017,0.019c-0.479-0.082-0.635-0.266-0.817-0.479c-0.306-0.355-0.65-0.672-1.463-0.672
			c-0.086,0.001-0.181,0.001-0.273,0.029c-0.1,0.031-0.193,0.076-0.286,0.122c-0.056-0.023-0.107-0.047-0.161-0.07
			c-0.058-0.152-0.162-0.284-0.32-0.34c-0.143-0.052-0.245-0.067-0.362-0.095l0.008-0.058l-0.084-0.013
			c-0.302-0.051-0.546-0.138-0.79-0.23l-0.485-0.183l0.022,0.027c-0.2-0.065-0.381-0.065-0.556-0.022
			c-0.057-0.154-0.182-0.282-0.344-0.339c-0.223-0.08-0.474-0.146-0.707-0.221c-0.35-0.197-0.554-0.243-0.731-0.227
			c-0.235-0.07-0.451-0.146-0.691-0.215c-0.13-0.04-0.271-0.096-0.404-0.139c-0.136-0.136-0.332-0.249-0.435-0.284l-0.049,0.118
			c-0.219-0.077-0.43-0.14-0.654-0.225c-0.036-0.152-0.131-0.299-0.282-0.44c-0.059-0.054-0.127-0.095-0.203-0.12
			c-0.404-0.138-0.794-0.337-1.293-0.586l-0.197-0.105c-0.371-0.197-0.746-0.394-1.104-0.64c-0.969-0.638-1.747-1.208-2.378-1.74
			c-0.083-0.069-0.182-0.114-0.289-0.129l-0.348-0.049c-0.031-0.061-0.075-0.118-0.129-0.167c-0.138-0.123-0.346-0.307-0.602-0.332
			c-0.045-0.039-0.097-0.072-0.156-0.096c-0.527-0.213-1.331-0.579-2.175-1.107c-0.57-0.355-1.063-0.733-1.421-1.086
			c-0.002-0.141-0.056-0.281-0.158-0.389c-0.462-0.485-0.915-0.595-1.247-0.674c-0.145-0.036-0.248-0.061-0.337-0.108
			c-0.023-0.107-0.075-0.208-0.158-0.289c-0.351-0.345-0.72-0.693-1.091-1.042c-1.309-1.235-2.665-2.511-3.243-3.725
			c-0.104-0.215-0.21-0.33-0.444-0.306c-0.11-0.058-0.355-0.388-0.56-0.66c-0.236-0.324-0.585-0.802-1.027-0.94
			c-0.099-0.243-0.149-0.412-0.195-0.563l-0.071-0.228c-0.122-0.357-0.306-0.759-0.721-1.561c-0.176-0.3-0.414-0.444-0.629-0.56
			c0.024-0.127,0.008-0.26-0.057-0.38l-0.078-0.143c-0.075-0.138-0.239-0.22-0.391-0.259H8.62c-0.06-0.042-0.129-0.089-0.2-0.143
			l-0.058-0.042l0.051-0.203c0.042-0.168,0.006-0.346-0.099-0.484L7.97,64.907c-0.024-0.031-0.056-0.046-0.084-0.07
			c-0.065-0.086-0.116-0.191-0.203-0.245c-0.041-0.026-0.088-0.015-0.131-0.029c-0.077-0.274-0.122-0.532-0.122-0.661
			c0.017-0.033,0.028-0.068,0.039-0.102c0.041-0.155,0.017-0.319-0.069-0.453l-0.473-0.793c0.054-0.173,0.026-0.366-0.09-0.522
			c0,0-0.002,0-0.002-0.001L6.77,61.944c0.185-0.407-0.128-0.843-0.261-1.028c-0.051-0.072-0.118-0.129-0.191-0.17
			c-0.028-0.291-0.08-0.565-0.108-0.697c-0.048-0.271-0.113-0.56-0.188-0.849c0.093-0.126,0.132-0.289,0.102-0.446
			c-0.154-0.812-0.311-1.605-0.497-2.446c-0.191-0.793-0.321-1.668-0.446-2.514c-0.016-0.108-0.064-0.2-0.132-0.271
			c0.011-0.072,0.008-0.149-0.013-0.224l-0.009-0.034c0.031-0.027,0.058-0.057,0.081-0.094c0.13-0.207,0.143-0.426-0.012-0.615
			c-0.013-0.069,0.006-0.284,0.019-0.428c0.035-0.346,0.072-0.75-0.044-1.111c0.008-0.042,0.01-0.084,0.008-0.127
			c-0.031-0.563-0.076-1.028-0.118-1.448c-0.022-0.236-0.045-0.456-0.06-0.67L4.88,48.519c-0.038-0.497-0.073-0.985-0.091-1.588
			c-0.008-0.201-0.119-0.378-0.284-0.475c-0.008-0.033-0.014-0.069-0.023-0.106c-0.033-0.152-0.074-0.331-0.15-0.517
			c0.063-0.467,0.134-0.955,0.236-1.462c0.104-0.541,0.215-1.188,0.25-1.961c-0.014-0.198-0.035-0.521-0.181-0.758
			c0-0.001,0.001-0.001,0.001-0.003c0.189-0.079,0.326-0.259,0.345-0.474l0.175-1.767c0.027-0.273,0.051-0.558,0.074-0.907
			c0.019-0.327,0.042-0.704,0.097-1.171c0.003-0.024,0.005-0.048,0.005-0.071c0.054-0.083,0.088-0.181,0.092-0.288
			c0.027-0.556,0.128-1.063,0.307-1.515c0.2-0.527,0.444-1.051,0.694-1.595c0.533-0.988,1.063-2.032,1.196-3.021l0.259-1.131
			c0.131-0.033,0.275-0.115,0.426-0.277c0.069-0.076,0.117-0.17,0.138-0.271c0.213-1.032,0.628-1.67,1.067-2.348
			c0.291-0.449,0.592-0.912,0.829-1.489c0.705-0.414,1.25-1.263,1.823-2.155l0.104-0.161c0.286-0.465,0.584-0.944,0.913-1.366
			c0.263-0.343,0.574-0.726,0.894-0.94c0.161-0.11,0.252-0.29,0.251-0.479c0.079-0.042,0.165-0.098,0.25-0.178
			c0.143-0.131,0.207-0.328,0.171-0.519c-0.009-0.049-0.024-0.097-0.045-0.141c0.132-0.177,0.264-0.353,0.397-0.524
			c0.287-0.352,0.591-0.695,0.904-1.043c0.46-0.531,0.971-1.012,1.512-1.521l0.433-0.412c0.245-0.215,0.496-0.423,0.747-0.633
			l0.329-0.278c0.347-0.298,0.7-0.585,1.075-0.862l2.236-1.657c0.617-0.467,0.724-0.91,0.81-1.311
			c0.006,0.006,0.016,0.01,0.023,0.017c0.229,0.134,0.519,0.093,0.702-0.099c0.453-0.478,0.993-0.871,1.522-1.234
			c0.512-0.376,1.095-0.693,1.727-1.039c0.398-0.234,0.81-0.435,1.22-0.638l0.597-0.299c0.251-0.137,0.503-0.266,0.756-0.395
			c0.104-0.054,0.207-0.108,0.312-0.163c0.033,0.01,0.067,0.014,0.102,0.015c0.538,0.042,1.159-0.281,1.463-0.455
			c0.213-0.104,0.423-0.22,0.597-0.351c0.102,0.038,0.207,0.053,0.302,0.059c0.412-0.02,0.77-0.234,1.11-0.436
			c0.005-0.002,0.008-0.004,0.012-0.006c0.151,0.067,0.326,0.071,0.482-0.006c0.039-0.02,0.083-0.041,0.128-0.065
			c0.11-0.042,0.307-0.098,0.435-0.134c0.391-0.112,0.727-0.209,0.916-0.411c0.354-0.062,0.722-0.155,1.071-0.248
			c0.262-0.065,0.508-0.113,0.747-0.138c0.075,0.041,0.158,0.072,0.246,0.075l0.681,0.033c0.008,0.001,0.018,0.001,0.027,0.001
			c0.242,0,0.444-0.163,0.524-0.39c0.226-0.014,0.49-0.035,0.724-0.124c0.359,0.13,0.858,0.118,1.335,0.058
			c0.085,0.06,0.181,0.105,0.291,0.111c0.106,0.006,0.225,0.009,0.351,0.009c0.208,0,0.435-0.008,0.659-0.019l0.002,0.001
			l0.108,0.001h0.007c0.015,0,0.028-0.006,0.042-0.008c0.736-0.041,1.18-0.123,1.45-0.291c0.628,0.145,1.232,0.057,1.736-0.017
			c0.627-0.09,0.917-0.113,1.08,0.065c0.119,0.129,0.286,0.18,0.463,0.182c1.152-0.09,2.278-0.126,3.45-0.114
			c0.062,0.247,0.284,0.428,0.549,0.431c0.557-0.003,1.062-0.019,1.528-0.042c0.324-0.015,0.633-0.031,0.946-0.032
			c0.462-0.015,0.9,0.004,1.332,0.061c0.067,0.225,0.268,0.389,0.507,0.406c0.996,0.067,1.943,0.282,2.861,0.492
			c0.417,0.094,0.846,0.183,1.275,0.266c0.15,0.161,0.363,0.193,0.606,0.204c0.058,0.014,0.118,0.031,0.176,0.047
			c0.276,0.082,0.622,0.185,0.923-0.015c0.091-0.06,0.173-0.179,0.23-0.3c0.113,0.019,0.215,0.036,0.338,0.055
			c0.016,0.003,0.03,0.006,0.045,0.008c0.074,0.054,0.138,0.116,0.22,0.161l-0.174,0.146l0.179-0.006
			c-0.007,0.054-0.024,0.105-0.017,0.161c0.038,0.251,0.237,0.447,0.49,0.48c0.054,0.008,0.113,0.013,0.175,0.017
			c0.074,0.072,0.167,0.124,0.273,0.147c0.553,0.127,0.837,0.124,1.035,0.11c0.095,0.197,0.298,0.326,0.52,0.326
			c0,0,0.008,0,0.012-0.001c0.395-0.006,0.737-0.014,1.144,0.117c0.055,0.134,0.16,0.247,0.302,0.308
			c0.03,0.012,0.059,0.024,0.087,0.033c0.497,0.187,0.969,0.314,1.433,0.437c0.67,0.177,1.311,0.346,1.976,0.712
			c0.021,0.316,0.282,0.512,0.433,0.627c0.026,0.018,0.058,0.043,0.088,0.067c0.022,0.207,0.155,0.394,0.36,0.473l0.847,0.334
			c0.155,0.063,0.33,0.051,0.473-0.026c0.049,0.021,0.098,0.041,0.146,0.06c0.063,0.026,0.125,0.05,0.185,0.076
			c0.043,0.144,0.144,0.27,0.286,0.344c0.006,0.003,0.316,0.161,0.618,0.348l0.643,0.382c0.038,0.022,0.082,0.01,0.124,0.022
			l0.073,0.067c0.14,0.126,0.263,0.237,0.428,0.362c0.042,0.136,0.2,0.291,0.53,0.535l0.393,0.289
			c0.131,0.097,0.25,0.189,0.344,0.266l0.123,0.116l0.042-0.078c0.094,0.082,0.218,0.129,0.372,0.118
			c0.128,0.022,0.485,0.275,0.714,0.437l0.145,0.107c0.037,0.028,0.073,0.051,0.11,0.079c0.152,0.234,0.286,0.457,0.286,0.531
			l-0.003,0.074l0.06,0.045c0.479,0.358,0.988,0.818,1.481,1.263c0.309,0.278,0.611,0.547,0.9,0.791
			c0.006,0.024-0.006,0.048,0.003,0.072l0.181,0.456c0.058,0.144,0.177,0.235,0.312,0.293c0.009,0.134,0.058,0.261,0.151,0.359
			l0.647,0.663c0.51,0.518,1.028,1.045,1.496,1.591l0.074,0.177c0.127,0.302,0.275,0.571,0.415,0.831l0.061,0.111
			c0.145,0.276,0.31,0.55,0.509,0.839l0.62,0.875c-0.001,0.025-0.017,0.047-0.015,0.072c0.006,0.093,0.038,0.181,0.087,0.259
			c0.153,0.366,0.35,0.717,0.562,1.088l1.098,1.974c-0.013,0.066-0.015,0.136-0.005,0.206c0.031,0.193,0.082,0.407,0.143,0.615
			l0.272,1.05c0.075,0.267,0.148,0.523,0.172,0.748c0.014,0.129,0.116,0.314,0.213,0.419c0.063,0.297,0.114,0.591,0.171,0.889
			c0.013,0.229,0.035,0.455,0.06,0.684c0.043,0.326,0.115,0.643,0.187,0.959c0.026,0.117,0.051,0.245,0.077,0.366
			c0.003,0.035,0.013,0.068,0.017,0.103c0.088,0.842,0.106,1.596,0.088,2.309c-0.1,0.118-0.175,0.257-0.175,0.407
			c0,0.019,0.001,0.039,0.003,0.058c0.006,0.092,0.019,0.463,0.022,0.786c0.001,0.151-0.001,0.295-0.004,0.426
			c-0.09,0.512-0.204,0.998-0.37,1.432c-0.233,0.667-0.236,0.948-0.239,1.273c-0.001,0.117-0.003,0.239-0.016,0.387
			c-0.021,0.006-0.045,0.014-0.07,0.019l-0.258,0.07l-0.01,0.099c-0.001,0.001-0.01,0.083-0.026,0.198l-0.014,0.041l0.007,0.003
			c-0.01,0.067-0.022,0.138-0.038,0.213l-0.058,0.031c-0.019,0.01-0.056,0.039-0.06,0.084c-0.014,0.025-0.029,0.05-0.042,0.076
			l-0.025,0.047c-0.044,0.052-0.099,0.104-0.152,0.157c-0.017-0.007-0.035-0.003-0.053,0.002c0.04-0.028,0.061-0.056,0.108-0.086
			l0.023-0.014l0.008-0.024c0.024-0.065,0.005-0.102-0.015-0.123c-0.017-0.017-0.035-0.024-0.053-0.027l0.242-0.426l-0.419,0.429
			c-0.102,0.104-0.185,0.217-0.259,0.316c-0.026,0.036-0.054,0.072-0.079,0.106l0.116,0.101c0.016-0.017,0.046-0.033,0.063-0.049
			c-0.062,0.062-0.117,0.124-0.193,0.184l-0.065,0.036c-0.03,0.019-0.06,0.035-0.09,0.051l-0.001-0.063l-0.116,0.115
			c0,0-0.001,0.001-0.002,0.001v0.001c-0.243,0.05-0.268,0.114-0.275,0.135l-0.022,0.066c-0.072,0.046-0.138,0.095-0.211,0.139
			l-0.017,0.008c-0.127,0.045-0.227,0.067-0.426,0.082l-0.035,0.013c-0.081,0.051-0.127,0.083-0.168,0.114l0.082-0.232l-0.264,0.229
			c-0.058,0.051-0.117,0.101-0.177,0.149c-0.108-0.046-0.218-0.045-0.326-0.019l0.002-0.024l-0.086,0.042
			c-0.007,0.003-0.015,0.002-0.022,0.006c-0.165-0.197-0.442-0.272-0.676-0.159c-0.06,0.026-0.098,0.029-0.319-0.036
			c-0.244-0.066-0.539-0.123-0.93-0.052c-0.087-0.168-0.251-0.284-0.44-0.307c-0.174-0.018-0.583-0.071-0.8,0.227
			c-0.186-0.066-0.376-0.154-0.572-0.243l-0.2-0.09c-0.362-0.185-0.702-0.086-0.928-0.022c-0.062,0.018-0.154,0.045-0.136,0.058
			c-0.054-0.025-0.181-0.152-0.268-0.235c-0.248-0.245-0.557-0.55-0.895-0.582c-0.433-0.124-0.773-0.192-1.068-0.23
			c-0.124-0.115-0.29-0.25-0.5-0.318l-0.13-0.041c-0.035-0.02-0.067-0.036-0.103-0.058c-0.017-0.01-0.038-0.022-0.056-0.036
			l0.096-0.049l-0.067-0.04c0.001-0.003,0.005-0.005,0.006-0.008c0.01-0.01,0.019-0.021,0.027-0.032
			c0.026-0.028,0.062-0.092,0.123-0.229c0.031-0.071,0.048-0.129,0.054-0.176c0.295-0.251,0.515-1.097,0.697-1.875l0.053-0.216
			l-0.094-0.042c0.084-0.373,0.112-0.749,0.124-1.192l0.003-0.101l-0.095,0.023c0-0.154,0.022-0.337,0.044-0.542
			c0.025-0.227,0.052-0.474,0.058-0.732l0.006,0.001c0.095-0.447,0.015-0.83-0.098-1.29c-0.105-0.325-0.339-0.571-0.659-0.693
			c-0.335-0.129-0.72-0.102-1.022,0.075c-0.22,0.194-0.33,0.38-0.403,0.541l-0.012-0.003l-0.003,0.012h-0.001
			c-0.008,0.032-0.022,0.071-0.026,0.097c-0.044,0.116-0.059,0.288-0.059,0.409H73.79c-0.01,0.067-0.026,0.138-0.04,0.202
			c-0.041,0.186-0.06,0.28,0,0.329c0.009,0.008,0.031,0.021,0.058,0.021c0.008,0,0.017-0.003,0.026-0.005
			c0.008,0.038,0.024,0.075,0.067,0.089c0.021,0.008,0.049,0.01,0.083-0.007c0.008,0.027,0.016,0.054,0.024,0.078
			c-0.056,0.095-0.045,0.215-0.033,0.332c0.012,0.127,0.025,0.245-0.042,0.325l-0.035,0.045l0.029,0.047
			c0.027,0.042,0.029,0.266,0.031,0.414c0.003,0.264,0.009,0.455,0.051,0.569l-0.012,0.047c-0.041,0.164-0.081,0.332-0.084,0.497
			l-0.14,0.065l0.006,0.054c0.008,0.081,0.018,0.169,0.026,0.257l-0.027-0.037l0.034,0.245c-0.028,0.05-0.051,0.086-0.067,0.112
			c0-0.013-0.001-0.028-0.001-0.045l-0.154-0.006c-0.033,0.346-0.067,0.48-0.097,0.601c-0.003,0.008-0.004,0.018-0.006,0.026
			c-0.095-0.027-0.194-0.055-0.286-0.035c-0.027,0.006-0.036,0.027-0.061,0.035c-0.116-0.054-0.235-0.088-0.357-0.088
			c-0.008-0.006-0.015-0.013-0.021-0.019c-0.006-0.007-0.013-0.013-0.019-0.019c-0.076-0.084-0.168-0.181-0.279-0.261
			c-0.08-0.08-0.159-0.162-0.239-0.245c-0.237-0.242-0.471-0.471-0.696-0.656c-0.081-0.11-0.164-0.22-0.234-0.331l-0.118-0.186
			l-0.014,0.129c-0.01-0.02-0.021-0.04-0.03-0.057c-0.079-0.15-0.161-0.302-0.26-0.339c0-0.008-0.001-0.015-0.003-0.02l0.07-0.072
			c-0.177-0.196-0.287-0.371-0.385-0.526c-0.093-0.145-0.175-0.276-0.294-0.398l0.368,0.337l-0.365-0.54
			c-0.312-0.462-0.508-0.512-0.677-0.482c-0.084-0.23-0.156-0.356-0.277-0.475l0.07-0.035c-0.047-0.096-0.19-0.396-0.318-0.668
			c-0.082-0.161-0.124-0.235-0.168-0.292c-0.031-0.042-0.06-0.074-0.087-0.095c0.003-0.004,0.006-0.008,0.008-0.013
			c0.019-0.028,0.045-0.068,0.059-0.102l0.607-0.709l-0.06-0.058c0.03-0.067,0.09-0.126,0.185-0.214
			c0.048-0.047,0.102-0.097,0.158-0.158l0.001,0.001l0.095-0.09c0.353-0.334,0.4-0.407,0.458-0.502
			c0.048-0.076,0.104-0.163,0.403-0.47l0.106-0.111l-0.197-0.026c0.025-0.065,0.143-0.2,0.225-0.295
			c0.177-0.202,0.398-0.455,0.484-0.733l0.033-0.106c0.053-0.057,0.113-0.115,0.171-0.174c0.059-0.059,0.119-0.118,0.173-0.176
			L71.6,29.471l0.289-0.579c0.161-0.325,0.176-0.403,0.148-0.464c-0.022-0.048-0.066-0.06-0.097-0.066
			c-0.002-0.001-0.017-0.03,0.006-0.158c0.026,0.01,0.063,0.022,0.102,0.001c0.058-0.03,0.092-0.105,0.124-0.273
			c0.062-0.136,0.021-0.522-0.044-0.823c-0.038-0.185-0.09-0.371-0.14-0.551c-0.048-0.165-0.092-0.322-0.121-0.46l-0.139,0.013
			c-0.003-0.003-0.005-0.008-0.008-0.012c-0.027-0.057-0.056-0.122-0.086-0.193c-0.072-0.17-0.156-0.36-0.273-0.542
			c-0.131-0.211-0.293-0.357-0.453-0.455l0.009-0.008l-0.011-0.081l-0.029-0.02c-0.12-0.077-0.17-0.077-0.197-0.073
			c-0.231-0.128-0.458-0.225-0.654-0.27c-0.239-0.053-0.471-0.066-0.607-0.032c-0.228-0.186-0.821-0.052-1.2,0.203
			c-0.167,0.102-0.31,0.218-0.426,0.311c-0.099,0.08-0.224,0.179-0.254,0.181l-0.054-0.06l-0.057,0.056
			c-0.204,0.2-0.387,0.422-0.546,0.662l-0.013-0.039l-0.089,0.141c-0.291,0.457-0.339,0.717-0.355,0.917l-0.013-0.023l-0.057,0.14
			c-0.335,0.838-0.325,0.991-0.27,1.7l-0.102,0.072l0.006,0.045c0.006,0.041-0.005,0.153-0.015,0.284
			c-0.035,0.41-0.096,1.158,0.092,1.789l-0.029,0.008c0.074,0.254,0.134,0.547,0.191,0.83c0.05,0.24,0.099,0.491,0.159,0.719
			l0.056,0.218l0.01,0.03c0.003,0.01,0.01,0.025,0.01,0.025l-0.01,0.022c-0.05,0.101-0.047,0.183-0.032,0.293l-0.289,0.533
			l0.127,0.084c0.032-0.04,0.058-0.074,0.081-0.099c-0.002,0.026,0,0.051,0.008,0.071c-0.031,0.04-0.066,0.078-0.097,0.113
			c-0.024-0.039-0.058-0.049-0.076-0.053c-0.111-0.022-0.214,0.113-0.453,0.431c-0.073,0.098-0.178,0.239-0.234,0.291l-0.031-0.031
			l-0.054,0.075c-0.886,1.323-1.765,2.752-1.919,4.395l-0.022,0.219l0.02-0.021c-0.038,0.139-0.012,0.336,0.025,0.485
			c-0.008-0.002-0.02-0.002-0.031,0c-0.073,0.014-0.066,0.09-0.063,0.116c0.007,0.12,0.02,0.236,0.037,0.344l0.096,0.594
			l0.035-0.366c0.039,0.095,0.083,0.211,0.146,0.447c0.031,0.131,0.024,0.161,0.022,0.163c-0.025,0.033-0.031,0.067-0.019,0.115
			c-0.003,0.034,0.017,0.088,0.079,0.204c0.048,0.114,0.102,0.225,0.156,0.332l0.023,0.04c0.021,0.042,0.046,0.089,0.088,0.152
			l0.329,0.427l-0.073-0.323c0.07,0.081,0.112,0.12,0.154,0.12h0.003c0.17,0.276,0.526,0.649,0.912,0.942
			c0.327,0.261,0.681,0.46,0.913,0.592c0.104,0.058,0.194,0.108,0.227,0.135l0.029,0.015c0.181,0.047,0.356,0.103,0.539,0.162
			c0.238,0.078,0.485,0.158,0.774,0.227l0.038-0.117c0.028,0,0.072,0.004,0.135,0.017c-0.001,0.022,0.003,0.039,0.009,0.054
			c0.049,0.129,0.278,0.167,0.676,0.223c0.2,0.028,0.405,0.057,0.538,0.102c0.01,0.005,0.02,0.008,0.026,0.01l0.019-0.054
			l0.005,0.01c0.021-0.01,0.115-0.025,0.193-0.037c0.084-0.013,0.181-0.027,0.27-0.047c0.113-0.015,0.342-0.052,0.433-0.135
			l0.005,0.004c0.031,0.031,0.076,0.042,0.156,0.042h0.027l0.022-0.005c0.419-0.15,0.892-0.321,1.369-0.548
			c0.508-0.215,0.996-0.554,1.375-0.958l0.033-0.035l-0.016-0.044c-0.014-0.037-0.04-0.05-0.071-0.056
			c0.001-0.003,0.003-0.004,0.004-0.006l0.506-0.307l0.008-0.021c0.018-0.036,0.017-0.077,0.017-0.12
			c-0.001-0.096,0.006-0.115,0.056-0.127l0.084-0.028l0.205,0.165c0.208,0.152,0.431,0.302,0.666,0.448
			c0.431,0.266,0.895,0.518,1.419,0.77c0.748,0.36,1.508,0.67,2.29,0.983c0.003,0.002,0.003,0.006,0.006,0.008
			c0.165,0.093,0.307,0.141,0.439,0.172c0.027,0.011,0.052,0.022,0.079,0.032l0.18,0.072l0.03-0.067
			c0.037,0.008,0.076,0.017,0.114,0.025l0.006,0.001c0,0,0.001,0.001,0.001,0.001c0.06,0.019,0.151,0.036,0.295,0.057l0.013-0.079
			c0.172,0.062,0.357,0.124,0.554,0.181l0.028,0.009l0.029-0.015c0.033-0.016,0.116-0.016,0.215-0.015l-0.034,0.011l0.157-0.002
			c0.048,0.003,0.097,0.008,0.14,0.01c0.069,0.007,0.113,0.008,0.17,0.011l-0.563,0.07l0.784,0.159l0.044-0.147l-0.2-0.079
			c0.037,0.002,0.088,0.008,0.119,0.008c0.126,0,0.202-0.021,0.25-0.07l0.157,0.27l0.562-0.312l-0.339,0.021
			c-0.175,0.01-0.219-0.003-0.233-0.008l-0.081-0.042l0.049-0.06l-0.161,0.002l-0.04-0.02l0.012,0.021l-0.086,0.001
			c-0.001-0.036-0.019-0.067-0.047-0.099c0.034,0.002,0.059,0.001,0.092,0.003c0.282,0.125,0.591,0.12,0.731,0.107
			c0.089-0.004,0.181-0.015,0.277-0.026c0.036-0.004,0.072-0.009,0.107-0.012c0.413,0.229,0.865,0.167,1.117-0.159
			c0.017-0.024,0.033-0.048,0.046-0.073c0.008-0.002,0.015-0.004,0.023-0.006c0.106,0.088,0.216,0.163,0.349,0.145
			c0.081-0.015,0.152-0.058,0.224-0.096l-0.2,0.264l0.3-0.153c0.065-0.034,0.126-0.073,0.188-0.11
			c0.035,0.001,0.067,0.009,0.104,0.006c0.088-0.003,0.181-0.009,0.277-0.02c0.055,0.05,0.122,0.094,0.2,0.124
			c0.162,0.065,0.41,0.044,0.561-0.045c0.061-0.036,0.134-0.069,0.217-0.108c0.102-0.048,0.214-0.101,0.294-0.144
			c0.252-0.112,0.53-0.282,0.887-0.552c0.136-0.121,0.279-0.254,0.435-0.428c0.056-0.08,0.113-0.161,0.166-0.242
			c0.008-0.006,0.013-0.012,0.021-0.017c0.017-0.013,0.033-0.025,0.045-0.037c0.057-0.049,0.138-0.132,0.228-0.239
			c0.031-0.035,0.067-0.087,0.1-0.129c0.002-0.001,0.004-0.003,0.006-0.004l0.043,0.153l0.013-0.195
			c0.006-0.006,0.008-0.006,0.014-0.011c0.028-0.023,0.05-0.044,0.062-0.052l-0.007-0.018l0.029,0.019
			c0.108-0.147,0.143-0.219,0.118-0.277c0.051-0.077,0.103-0.149,0.154-0.234c0.293-0.462,0.563-1.017,0.785-1.506
			c0.05-0.026,0.095-0.062,0.134-0.106c0.207-0.231,0.216-0.553-0.01-0.764c-0.027-0.079-0.011-0.286,0.015-0.494
			c0.239-0.038,0.432-0.223,0.473-0.469l0.037-0.234c0.156-0.143,0.247-0.346,0.188-0.556l-0.102-0.363
			c-0.001-0.005-0.006-0.007-0.008-0.011c0.061-0.083,0.127-0.166,0.135-0.272C89.932,36.36,89.876,35.891,89.824,35.438
			 M87.884,58.492l0.007,0.081c-0.004-0.005-0.012-0.001-0.016-0.006c-0.005-0.019-0.007-0.047-0.012-0.065
			c-0.018-0.075-0.034-0.141-0.019-0.249C87.862,58.324,87.877,58.403,87.884,58.492 M87.173,59.234l0.017-0.12l0.011,0.271
			c-0.013,0.013-0.026,0.026-0.036,0.034C87.162,59.383,87.162,59.323,87.173,59.234 M73.074,81.586
			c-0.017,0.013-0.024,0.022-0.04,0.035c0-0.002-0.002-0.004-0.002-0.006c-0.003-0.01,0.015-0.041,0.023-0.063
			c0.008,0.01,0.014,0.022,0.022,0.03C73.075,81.584,73.075,81.585,73.074,81.586 M73.017,81.229c0.019,0.001,0.035,0,0.052,0
			c0.01,0,0.026,0,0.038-0.001c-0.007,0.006-0.01,0.01-0.017,0.016c-0.045,0.033-0.07,0.082-0.079,0.134l-0.049-0.038L73.017,81.229
			z M72.743,81.182c0.006,0.003,0.01,0.006,0.017,0.008l-0.032,0.022L72.743,81.182z M71.782,40.553l-0.294,0.186l0.326-0.109
			l-0.011,0.236c-0.004,0.096-0.015,0.122-0.025,0.149l-0.005,0.014l-0.054,0.061c-0.026,0.028-0.035,0.063-0.042,0.097
			c-0.001,0.005-0.003,0.01-0.005,0.017h-0.008c-0.099,0-0.197,0.069-0.31,0.149c-0.131,0.095-0.282,0.2-0.441,0.201h-0.049
			l0.069-0.204l-0.239,0.244c-0.029,0.03-0.058,0.038-0.096,0.047c-0.024,0.006-0.053,0.014-0.081,0.028l0.04-0.12l-0.164,0.079
			c-0.135,0.065-0.141,0.194-0.118,0.314l-0.082,0.01c-0.121,0.016-0.268,0.044-0.328,0.127c-0.003,0.003-0.005,0.008-0.008,0.011
			c-0.022,0.006-0.044,0.017-0.06,0.029c-0.023,0.002-0.039,0.003-0.054,0.005c-0.054,0.005-0.089,0.008-0.177,0.033l-0.186,0.054
			c-0.056-0.015-0.093-0.006-0.127,0.013c0,0-0.022-0.002-0.086-0.035l-0.134-0.07l0.029,0.191
			c-0.003-0.003-0.007-0.006-0.012-0.008c-0.051-0.036-0.117-0.083-0.188-0.083c-0.01,0-0.019,0.001-0.031,0.003
			c-0.013-0.027-0.026-0.056-0.035-0.075c-0.017-0.035-0.029-0.063-0.042-0.087l0.072-0.04l-0.082-0.072
			c-0.027-0.025-0.083-0.076-0.147-0.052c-0.009,0.003-0.017,0.008-0.023,0.012c-0.008-0.004-0.015-0.01-0.025-0.013
			c-0.051-0.047-0.132-0.014-0.184,0.008c-0.088,0.033-0.144,0.051-0.162,0.021l-0.25-0.428l0.108,0.484
			c0,0.003,0.002,0.006,0.002,0.009c-0.009-0.009-0.017-0.019-0.024-0.027c-0.039-0.043-0.086-0.097-0.148-0.11l0.016-0.044
			l-0.141,0.033c-0.021,0.005-0.061,0.005-0.097,0.005c-0.041-0.005-0.08-0.003-0.12,0.003c-0.004-0.021-0.013-0.041-0.026-0.057
			c-0.055-0.078-0.162-0.088-0.248-0.096c-0.026-0.003-0.06-0.006-0.081-0.011c0.001-0.006,0.004-0.013,0.01-0.024l0.038-0.07
			l-0.176-0.087l0.006-0.006l-0.06-0.053c-0.084-0.074-0.163-0.093-0.227-0.081l-0.002-0.001c-0.123-0.145-0.172-0.186-0.314-0.195
			l0.062-0.108L66.4,41.084c-0.013-0.016-0.027-0.044-0.038-0.065c-0.026-0.043-0.056-0.097-0.095-0.149l0.451,0.032l-0.609-0.195
			c-0.073-0.023-0.115-0.123-0.152-0.213l-0.034-0.078c-0.049-0.1-0.082-0.116-0.195-0.1c-0.015,0.002-0.033,0.006-0.055,0.008
			l-0.116-0.076c0.003-0.038-0.006-0.074-0.013-0.104c-0.001-0.01-0.005-0.024-0.006-0.036l0.063-0.017l-0.029-0.078
			c-0.086-0.241-0.048-0.493-0.008-0.757c0.013-0.088,0.025-0.173,0.034-0.26l0.009-0.095l0.056-0.016l-0.012-0.282l-0.08,0.058
			c-0.017-0.017-0.022-0.024-0.022-0.039c0.019-0.002,0.034,0,0.045-0.004l0.015,0.002l0.031-0.026
			c0.023-0.019,0.031-0.047,0.033-0.067l0.002-0.003l-0.002-0.003v-0.015c0.003-0.015,0.006-0.028,0.01-0.042
			c0.008-0.028,0.015-0.057,0.027-0.086l0.057-0.147l-0.186,0.056c-0.001-0.009-0.003-0.019-0.006-0.029
			c0.072-0.096,0.113-0.236,0.145-0.357c0.017-0.058,0.04-0.14,0.045-0.152l0.058-0.029l-0.019-0.062
			c-0.032-0.092-0.001-0.165,0.046-0.267l0.02-0.045c0.039-0.022,0.066-0.056,0.088-0.081c0.035-0.044,0.056-0.068,0.097-0.071
			c0.005-0.001,0.012-0.001,0.023-0.001l-0.009-0.15c0.014,0.006,0.026,0.022,0.026,0.036c0-0.01,0.008-0.038,0.015-0.056
			c0.006-0.022,0.012-0.047,0.016-0.07c0.012-0.003,0.026-0.006,0.04-0.011l0.048-0.019v-0.051c0.003-0.11,0.081-0.202,0.172-0.308
			c0.074-0.086,0.149-0.174,0.197-0.285l0.024-0.055l-0.015-0.01l0.091-0.015l0.012-0.051c0.01-0.04-0.007-0.077-0.024-0.106
			l0.552-0.067l-0.526-0.074c0.132-0.138,0.227-0.302,0.321-0.462c0.148-0.256,0.299-0.492,0.578-0.634l0.047,0.065
			c0.027,0.034,0.06,0.07,0.095,0.106c0.049,0.051,0.11,0.114,0.113,0.152l0.018,0.192l0.119-0.151
			c0.017-0.023,0.003-0.038,0.01-0.058c0.009,0.013,0.006,0.03,0.024,0.037l0.051,0.012l0.065-0.044l0.004-0.05
			c0.13,0.22,0.297,0.452,0.441,0.676c-0.015,0.001-0.029,0.006-0.043,0.013V35.75h-0.079c-0.024,0-0.031,0.011-0.048,0.017
			l-0.128-0.192l-0.14-0.055l-0.045-0.058c-0.029-0.036-0.059-0.062-0.089-0.076c-0.043-0.022-0.092-0.017-0.123,0.009
			c-0.007,0.006-0.006,0.018-0.011,0.024c-0.007-0.006-0.004-0.003-0.015-0.014l-0.107-0.113l-0.024,0.151
			c-0.008,0.017-0.028,0.026-0.024,0.047l0.018,0.075l0.037,0.003l0.024,0.062l-0.264-0.083l0.298,0.25
			c0.017,0.013,0.056,0.047,0.104,0.047c0.01,0,0.021-0.002,0.031-0.005c0.04-0.011,0.047-0.048,0.06-0.079l0.02,0.024l0.001-0.028
			c0.003,0.001,0.004,0.002,0.004,0.002l0.049,0.028l0.003-0.006c0,0,0.005,0.003,0.006,0.003h0.229l0.014,0.007
			c-0.008,0.003-0.013,0.007-0.029,0.005l-0.019,0.073v0.001l-0.02,0.074c0.01,0.003,0.02,0.008,0.031,0.01
			c0.031,0.011,0.066,0.024,0.104,0.024l-0.016,0.013l-0.015,0.015l-0.054-0.026l0.006,0.013c-0.01-0.005-0.011-0.017-0.022-0.019
			c-0.008-0.002-0.023,0.008-0.033,0.008l-0.148-0.075l-0.004,0.12c0,0.012,0,0.026,0.001,0.039c0,0.001,0,0.003,0.001,0.006
			l-0.006,0.006l0.007,0.003c0,0.006,0.001,0.012,0.001,0.016l-0.483,0.378l0.569-0.253c0.029-0.014,0.047-0.04,0.065-0.065
			l0.079,0.039l-0.002,0.002c-0.014,0.021-0.055,0.077-0.04,0.156l-0.031-0.001l-0.011,0.153l0.072,0.009l0.006,0.026l0.015-0.023
			l0.041,0.005l0.017-0.092l0.005-0.007l0.037,0.033l-0.028,0.047l0.059,0.03c-0.064,0.002-0.097,0.04-0.116,0.075l-0.22-0.053
			l0.184,0.191c0.058,0.06,0.143,0.078,0.212,0.092l0.138,0.031c0.002,0.022,0.004,0.045,0.019,0.062l0.003,0.003l0.035,0.229
			l-0.218,0.095l0.356-0.01l-0.009,0.021l0.035-0.022l0.138-0.003l-0.196,0.12l0.294,0.052c-0.002,0.008-0.004,0.015-0.01,0.03
			l0.071,0.029l0.072,0.03c-0.006,0.009-0.03,0.013-0.043,0.004c0.006,0.005,0.019,0.022,0.029,0.035
			c-0.003,0.004-0.006,0.006-0.011,0.012c0.002-0.002,0.011-0.003,0.017-0.006c0,0.001,0.001,0.001,0.001,0.001
			c0.005,0.007,0.013,0.012,0.017,0.018l-0.005,0.026l-0.03,0.005c0,0.009,0,0.018,0.001,0.03l-0.032,0.035l0.038,0.033l0.004-0.001
			l0.045,0.033l0.039-0.053c0.003-0.002,0.004-0.006,0.007-0.008c0.003,0.013,0.006,0.025,0.01,0.037
			c0.012,0.033,0.019,0.058,0.007,0.114l-0.054,0.245l0.157-0.149l0.01,0.022l0.003-0.001l0.03,0.035
			c0.004,0.006,0.017,0.018,0.027,0.028c-0.001,0.01-0.003,0.022-0.003,0.026c0.004,0.035,0.031,0.077,0.127,0.089l0.076,0.097
			c0.009,0.06,0.031,0.114,0.065,0.158l-0.012,0.001l0.031,0.021c0.019,0.02,0.04,0.036,0.063,0.049
			c0.022,0.026,0.054,0.042,0.084,0.051l0.104,0.07l0.034,0.043c0.047,0.058,0.108,0.102,0.167,0.144
			c0.018,0.012,0.031,0.026,0.046,0.038l0.006,0.023c0.015,0.069,0.035,0.122,0.066,0.165l0.022,0.03
			c0.02,0.042,0.037,0.08,0.067,0.094l0.083,0.115l-0.01-0.094l0.012,0.003h0.019c0.02,0.013,0.042,0.023,0.06,0.045l-0.055,0.091
			l0.069,0.04c0.012,0.007,0.036,0.049,0.051,0.074c0.021,0.035,0.05,0.084,0.092,0.113c-0.008,0.146,0.134,0.248,0.232,0.321
			c0.048,0.035,0.099,0.072,0.117,0.101l0.05,0.078l0.086-0.08c0.063,0.053,0.138,0.094,0.236,0.139l0.056,0.024l0.053-0.065
			c0.021,0.022,0.042,0.06,0.063,0.099c0.018,0.03,0.036,0.062,0.057,0.093c0.003,0.074,0.036,0.134,0.072,0.173L71.821,40.5
			l-0.196-0.001L71.782,40.553z M67.835,29.04l0.074,0.005l-0.001-0.081c0-0.122,0.045-0.241,0.089-0.357
			c0.029-0.077,0.057-0.153,0.074-0.232l0.006-0.03l0.033-0.009l0.021-0.054l-0.019-0.129c0.005-0.006,0.009-0.013,0.012-0.022
			l0.067-0.025l-0.055-0.032l0.056-0.154l-0.156,0.01c0.045-0.058,0.063-0.133,0.075-0.185c0.005-0.016,0.009-0.038,0.013-0.051
			l0.097-0.023l-0.072-0.095c-0.031-0.04-0.029-0.055-0.002-0.106l0.006-0.009c0.022-0.009,0.041-0.022,0.06-0.039
			c0.015-0.013,0.024-0.022,0.048-0.022c0.012,0,0.024,0.003,0.036,0.003l0.016-0.141h0.005l0.096-0.007l-0.028-0.094
			c-0.008-0.022-0.004-0.035,0.07-0.088c0.049-0.036,0.104-0.078,0.131-0.143l0.074,0.019l0.005-0.094
			c0.003-0.042-0.024-0.072-0.052-0.104c-0.003-0.005-0.008-0.009-0.011-0.014c0.09-0.049,0.149-0.119,0.2-0.183
			c0.019-0.022,0.038-0.044,0.056-0.067c0.116-0.127,0.204-0.088,0.257-0.049l0.072-0.083l0.005,0.002
			c-0.005,0.005-0.009,0.01-0.013,0.012l0.017-0.009l0.004,0.004l-0.003,0.023l0.023,0.026c0.006,0.008,0.008,0.013,0.01,0.017
			l0.019-0.007l-0.013,0.131l-0.033,0.052l0.03-0.024l-0.01,0.101l-0.19,0.045h0.186l-0.018,0.184l0.056-0.125l0.312,0.041
			c0.008,0,0.014,0.001,0.019,0.001l0.003-0.001l0.013,0.003l-0.053,0.03l0.146,0.015l0.003,0.008l-0.017-0.001l0.027,0.02
			l0.003,0.006l-0.05,0.004l0.013,0.096c-0.003,0.002-0.008,0.003-0.01,0.005L69.472,27l0.131,0.143
			c0.035,0.037,0.087,0.042,0.161,0.049l0.007,0.001l-0.033,0.033l0.022-0.001L69.73,27.26l-0.006,0.003l0.003,0.001l-0.029,0.036
			h-0.236l0.112,0.042l-0.142,0.047l0.204-0.01l-0.073,0.094l0.128-0.086l0.115,0.043v0.082l0.001,0.029l-0.007,0.006l0.008-0.003
			v0.003l0.001,0.003l-0.467,0.084l0.453,0.054c-0.003,0.007-0.006,0.015-0.008,0.028l-0.124,0.125l0.065-0.022l0.013,0.066
			c-0.001,0.017,0,0.033,0.005,0.048c-0.001,0.023,0.006,0.044,0.018,0.062l0.009,0.039l-0.001,0.001
			c-0.023,0.044-0.021,0.092-0.019,0.133c-0.039,0.015-0.074,0.031-0.092,0.058l-0.006,0.006c-0.023,0.012-0.044,0.008-0.056,0.04
			c-0.003,0.006,0.008,0.019,0.007,0.027l-0.03,0.041l-0.05-0.016l0.01,0.095c-0.003,0.003-0.008,0.006-0.011,0.009
			c-0.015,0.013-0.036,0.029-0.049,0.051c-0.026,0.003-0.05,0.01-0.071,0.024c-0.063,0.04-0.078,0.113-0.089,0.164
			c-0.003,0.017-0.008,0.043-0.008,0.047l-0.093,0.07l0.129,0.074c-0.01,0.045-0.006,0.093-0.002,0.141l0.003,0.043l0.037,0.018
			c-0.009,0.006-0.018,0.01-0.027,0.017l-0.05-0.051l0.013,0.054c-0.042,0.003-0.074,0.017-0.1,0.044
			c-0.048,0.051-0.04,0.121-0.035,0.174c0.001,0.006,0.001,0.012,0.003,0.019l-0.022,0.021l-0.067,0.006l0.009,0.036
			c-0.016-0.004-0.035-0.008-0.051-0.011c-0.072-0.016-0.138-0.031-0.165,0.035c-0.018,0.044,0,0.083,0.054,0.116l0.028,0.015
			l-0.001,0.001l-0.249-0.123l0.243,0.285c0.001,0.005,0.001,0.022,0,0.032c0,0.024-0.001,0.054,0.006,0.088l-0.241-0.15
			l0.136,0.245l-0.086,0.036c0.022,0.066,0.019,0.083,0.018,0.098v0.006l-0.017,0.024c-0.013,0.019-0.017,0.04-0.017,0.061
			c-0.083,0.011-0.149,0.081-0.2,0.134c-0.01,0.012-0.036,0.037-0.047,0.037l-0.021-0.012l-0.097-0.53l-0.02,0.237l-0.073,0.19
			l-0.026-0.016l0.018,0.033l-0.017,0.042c-0.011,0.028-0.013,0.072,0.009,0.348c-0.08,0.017-0.102,0.111-0.111,0.185
			c-0.008,0.013-0.014,0.027-0.018,0.042c-0.01,0.005-0.017,0.01-0.024,0.018l0.003-0.098c0.028-0.099,0.054-0.183,0.06-0.199
			c0.004-0.017,0.008-0.026,0.013-0.035l0.015-0.032c0.011-0.038,0.021-0.074,0.02-0.102l0.022-0.045l-0.061-0.038
			c-0.01-0.006-0.021-0.009-0.028-0.01l0.06-0.095l-0.216,0.117c0-0.002-0.002-0.003-0.002-0.005
			c-0.004-0.013-0.01-0.024-0.017-0.033l0.047-0.023l-0.029-0.066l0.006-0.018c0.009-0.03,0.006-0.06-0.009-0.084
			c-0.01-0.017-0.026-0.031-0.044-0.04c0.017-0.069,0.01-0.113-0.024-0.152l0.168-0.035l-0.179-0.072
			c0.012-0.025,0.03-0.06,0.039-0.099l0.374,0.224l-0.382-0.404c-0.007-0.009-0.001-0.029,0.032-0.083
			c0.029-0.054,0.07-0.12,0.035-0.191c-0.031-0.063-0.106-0.088-0.177-0.099l-0.045-0.047C67.825,29.07,67.83,29.053,67.835,29.04
			 M68.572,26.755c0.009-0.005,0.017-0.009,0.026-0.013c0,0.008,0,0.021-0.004,0.033l-0.026-0.006L68.572,26.755z M69.312,25.967
			h0.029L69.32,25.99C69.317,25.981,69.315,25.974,69.312,25.967 M69.354,25.968c0.056,0.001,0.108,0.012,0.159,0.027
			c0.055,0.019,0.112,0.056,0.168,0.09l-0.096,0.107l-0.038-0.056l-0.069,0.036l-0.082,0.13l0.023-0.28l-0.059,0.06L69.354,25.968z
			 M70.316,27.054l-0.04,0.009l0.024,0.069c-0.009,0.001-0.017,0.005-0.026,0.006l-0.015-0.049c-0.01-0.031-0.031-0.035-0.05-0.049
			l0.076-0.077C70.294,26.996,70.309,27.021,70.316,27.054 M69.388,26.616l0.012-0.154c0-0.003,0.001-0.006,0.001-0.008h0.001
			v-0.006l0.083-0.067l0.076,0.012c0.019,0.001,0.051,0.001,0.088,0.006l0.006,0.108c-0.016,0.012-0.022,0.03-0.03,0.047
			l-0.001,0.001c0,0-0.004,0-0.012-0.003l-0.063-0.001l-0.038,0.067l-0.2,0.047l0.045-0.102L69.388,26.616z M70.136,28.014
			c0.016,0.006,0.031,0.012,0.048,0.018c-0.006,0.005-0.012,0.009-0.018,0.015C70.155,28.035,70.146,28.024,70.136,28.014
			 M69.773,26.732c0.007-0.002,0.018-0.003,0.023-0.006l0.088-0.036l0.003,0.029l-0.01-0.002v0.009H69.87h-0.001
			c-0.001-0.001-0.003,0.001-0.005,0.001l-0.088,0.005H69.773z M70.269,27.677c-0.003-0.001-0.004-0.003-0.006-0.006l-0.003-0.003
			h0.014c-0.001,0.003,0.001,0.008,0,0.011L70.269,27.677z M70.312,27.415h-0.006l0.001-0.003
			C70.308,27.413,70.309,27.414,70.312,27.415 M70.057,26.974l-0.004-0.003l-0.008-0.013c-0.008-0.014-0.022-0.008-0.033-0.016
			l-0.004-0.009l-0.008,0.001l-0.021-0.013c-0.003-0.003-0.015-0.006-0.02-0.01l0.001-0.002l0.034-0.01l0.024,0.004l0.062,0.057
			L70.057,26.974z M69.404,26.731l-0.086,0.029l-0.049,0.003l0.014-0.032H69.404z M69.264,26.773l0.008,0.001l-0.01,0.004
			L69.264,26.773z M69.798,27.794c-0.013,0.008-0.023,0.019-0.032,0.03l-0.018-0.013L69.798,27.794z M70.167,28.307
			c-0.001-0.002-0.002-0.003-0.004-0.004c0.004-0.008,0.001-0.014,0.008-0.02l-0.002,0.022
			C70.168,28.305,70.168,28.306,70.167,28.307 M70.231,26.802l-0.086-0.021c0.021-0.014,0.042-0.031,0.063-0.049
			C70.216,26.753,70.223,26.779,70.231,26.802 M70.022,26.557c-0.01,0.003-0.015,0.007-0.023,0.01l-0.077-0.076l-0.107,0.012
			l-0.011-0.008c-0.021-0.013-0.043-0.001-0.065-0.002l0.052-0.088c0.006-0.01,0.017-0.029,0.024-0.051l0.045-0.001l0.042-0.054
			l0.004-0.029c0.072,0.075,0.137,0.163,0.199,0.265L70.022,26.557z M69.787,26.155l-0.026,0.011h-0.001l0.016,0.047l-0.016-0.001
			l-0.003,0.022c-0.008-0.003-0.013-0.012-0.02-0.015l0.029-0.083C69.773,26.141,69.78,26.15,69.787,26.155 M71.869,40.402
			c0.026,0.011,0.058,0.011,0.09,0.011c-0.013,0.003-0.028,0.008-0.037,0.01c-0.01,0.002-0.028,0.009-0.045,0.016L71.869,40.402z
			 M68.892,36.215l-0.034,0.028c-0.006-0.004-0.011-0.007-0.019-0.009c-0.047-0.019-0.084,0.003-0.115,0.019l-0.113,0.037
			l-0.026-0.068l0.148-0.041l-0.131-0.063c0.001-0.003,0.005-0.005,0.006-0.008c0.04-0.049,0.073-0.097,0.106-0.164
			C68.776,36.035,68.83,36.123,68.892,36.215 M69.157,36.706c0.014,0.02,0.03,0.033,0.047,0.044
			c-0.039,0.029-0.074,0.07-0.108,0.109l-0.025-0.021l0.019,0.028c-0.017,0.02-0.031,0.036-0.047,0.057l-0.07-0.059
			c-0.003-0.008-0.006-0.015-0.01-0.022c0.047-0.009,0.096-0.033,0.127-0.105l0.017-0.042l-0.029-0.035
			c-0.061-0.077-0.122-0.077-0.168-0.076c-0.013,0.003-0.017,0.002-0.027-0.001l-0.061-0.03l-0.003-0.003l-0.008-0.07l0.11,0.091
			l0.041-0.25c0.069,0.1,0.12,0.192,0.192,0.294l-0.042,0.035L69.157,36.706z M69.678,37.3v0.001
			c-0.001-0.002-0.003-0.003-0.003-0.003l0.001-0.001L69.678,37.3z M69.675,37.904c-0.001,0-0.003,0.001-0.005,0.001
			c-0.006-0.008-0.013-0.017-0.017-0.026l-0.003-0.012l0.001-0.013c0.019,0.01,0.039,0.024,0.056,0.038L69.675,37.904z
			 M69.707,37.58l0.016-0.073l0.022,0.031c0.009,0.012,0.017,0.025,0.024,0.038c0.015,0.025,0.038,0.036,0.057,0.054
			c-0.001,0-0.001,0-0.003,0.001C69.775,37.614,69.736,37.601,69.707,37.58 M70.493,38.318l0.003-0.013
			c0.004,0.004,0.009,0.01,0.014,0.015L70.493,38.318z M70.513,38.323c0.002,0.002,0.003,0.003,0.006,0.006
			c-0.001,0.001-0.001,0.002-0.003,0.003L70.513,38.323z M70.607,38.44l-0.009,0.018l-0.003,0.001
			c-0.005-0.004-0.011-0.015-0.009-0.031c0,0,0-0.001,0.001-0.002L70.607,38.44z M70.205,38.201
			c-0.074-0.001-0.092-0.001-0.106-0.058c0.009-0.037,0.034-0.051,0.081-0.076c0.011-0.005,0.023-0.01,0.033-0.017
			c0.008,0.015,0.012,0.035,0.017,0.06c0.006,0.028,0.013,0.062,0.031,0.092C70.241,38.201,70.221,38.201,70.205,38.201
			 M69.328,37.242c-0.008,0.015-0.015,0.031-0.015,0.049c-0.001-0.001-0.002-0.001-0.002-0.002l-0.018-0.052l0.031-0.001
			L69.328,37.242z M68.494,35.917l0.004,0.012c-0.001,0.018-0.006,0.031-0.01,0.049l-0.01-0.026
			C68.488,35.944,68.487,35.927,68.494,35.917 M68.49,36.318l0.043-0.029c-0.002-0.003-0.004-0.006-0.006-0.01l-0.005-0.009
			l0.001-0.001l-0.01-0.015l-0.006-0.01l0.097,0.049l-0.013,0.004l0.204,0.17l-0.017,0.053l-0.021-0.016l-0.009-0.008
			c-0.002-0.004-0.01-0.003-0.012-0.008l-0.081-0.063c-0.022-0.017-0.047-0.033-0.072-0.046l-0.075-0.038l-0.021,0.051l-0.043-0.006
			L68.49,36.318z M68.615,36.694c0.014,0.002,0.026,0.02,0.038,0.03L68.6,36.696c-0.002-0.001-0.006-0.006-0.008-0.008
			L68.615,36.694z M68.582,36.677c0,0-0.001,0-0.001-0.001L68.582,36.677z M68.809,36.95l0.021-0.006l0.008,0.008
			c0.003,0.021,0,0.049-0.011,0.113l-0.012,0.061l0.011,0.005l-0.07,0.03L68.809,36.95z M69.509,37.213
			c-0.006-0.006-0.007-0.015-0.013-0.02l-0.065,0.045l0.049-0.058l-0.01-0.008c-0.012-0.01-0.015-0.015-0.017-0.018l-0.021-0.053
			c0.029,0.002,0.058,0.006,0.091-0.001c0.013,0.016,0.026,0.032,0.038,0.047L69.509,37.213z M69.302,37.185
			c0,0.001-0.002,0.002-0.002,0.003l-0.004-0.002l0.003-0.006L69.302,37.185z M68.027,34.902l-0.028,0.083
			c-0.02-0.035-0.047-0.068-0.068-0.088c-0.017-0.017-0.036-0.035-0.047-0.051l0.07-0.108c0.031,0.057,0.063,0.115,0.096,0.172
			L68.027,34.902z M67.761,34.43l-0.015-0.019c-0.004-0.006-0.006-0.012,0.01-0.04c0,0.002,0,0.002,0.001,0.003l0.019,0.035v0.012
			L67.761,34.43z M67.777,34.446v0.006l-0.003-0.003L67.777,34.446z M67.777,34.497l0.001,0.081l0.058-0.058l0.024,0.044
			c0.001,0.002,0.001,0.003,0.003,0.004l-0.104,0.022l-0.056-0.034l0.024-0.037L67.777,34.497z M67.905,34.651
			c0.011,0.02,0.023,0.041,0.035,0.061l-0.243,0.031L67.905,34.651z M72.043,40.65c0,0.001-0.001,0.001,0,0.004
			c0.001,0.021,0.006,0.048,0.019,0.081l-0.145-0.083L71.906,40.6L72.043,40.65z M75.512,37.001l-0.026-0.019
			c0.024-0.135,0.044-0.272,0.06-0.406c0.047,0.013,0.081,0.031,0.101,0.051C75.627,36.689,75.575,36.838,75.512,37.001
			 M75.629,33.884c-0.022-0.037-0.047-0.076-0.071-0.115v-0.013l-0.001-0.022c-0.025-0.172-0.12-0.32-0.254-0.419
			c0.011,0.004,0.023,0.009,0.035,0.014l0.004,0.001c0.149,0.052,0.298,0.24,0.334,0.414L75.629,33.884z M85.478,41.375
			c0.085-0.056,0.163-0.113,0.234-0.17l-0.075,0.138L85.478,41.375z M85.726,41.331l-0.135,0.132
			c-0.004,0.001-0.008,0.001-0.012,0.004c-0.035,0.016-0.071,0.035-0.093,0.044c-0.031,0.015-0.062,0.025-0.062,0.026
			c-0.021,0.006-0.035,0.019-0.056,0.027l-0.049-0.06L85.726,41.331z M85.856,41.115c0.115-0.079,0.163-0.158,0.201-0.229
			c-0.006,0.024-0.01,0.056-0.016,0.078L86.034,41c-0.022,0.025-0.044,0.051-0.066,0.075c-0.022,0.019-0.045,0.039-0.063,0.058
			c-0.026,0.027-0.051,0.058-0.081,0.095c-0.017,0.019-0.033,0.036-0.051,0.056l-0.042,0.041l-0.09,0.018l0.196-0.216
			C85.842,41.121,85.852,41.119,85.856,41.115 M84.434,42.011l0.006,0.01l0.117-0.066v-0.001c0.064-0.026,0.138-0.061,0.232-0.112
			c-0.001,0.009,0.003,0.019,0.003,0.027c-0.05,0.055-0.097,0.113-0.123,0.185c-0.011,0.031,0.001,0.063-0.006,0.095l-0.049,0.012
			c-0.132,0.026-0.271,0.042-0.406,0.063c-0.045-0.029-0.094-0.051-0.148-0.069C84.187,42.108,84.315,42.063,84.434,42.011
			 M69.34,44.067l0.008-0.024c0,0,0.003-0.001,0.003-0.001c0.004,0.008,0.008,0.018,0.008,0.03L69.34,44.067z M81.784,44.536
			c0.042,0.027,0.063,0.074,0.054,0.118c-0.001,0.002-0.001,0.006-0.003,0.008l0.006,0.017h-0.012
			c-0.033,0.063-0.126,0.081-0.206,0.09l-0.314,0.034l0.237-0.159c0.013-0.074,0.065-0.113,0.153-0.12l0.026-0.022L81.784,44.536"/>
	</g>
	<g>
		<path class="st3" d="M116.455,57.688v-2.659l5.876-5.748c4.161-4.032,6.949-6.477,6.949-9.479c0-2.574-1.33-4.075-4.805-4.075
			c-3.217,0-4.718,0.772-4.718,4.461l-3.646-0.386c0-6.177,4.503-7.163,8.578-7.163c6.177,0,8.492,2.788,8.492,6.777
			c0,4.504-3.517,7.549-6.862,10.724l-4.89,4.632h8.922c0.429,0,0.558-0.086,0.643-0.472l0.644-3.646h2.831v7.034H116.455z"/>
		<path class="st3" d="M136.016,45.506c0-6.906,2.487-12.868,10.766-12.868c8.192,0,10.166,5.619,10.166,12.31
			c0,7.077-2.188,13.254-10.595,13.254C137.903,58.203,136.016,52.498,136.016,45.506z M152.872,45.249
			c0-5.876-1.287-9.308-6.177-9.308c-4.933,0-6.605,3.474-6.605,9.779c0,5.576,1.416,9.308,6.392,9.308
			C151.371,55.029,152.872,51.255,152.872,45.249z"/>
		<path class="st3" d="M158.45,57.688v-2.359l4.332-0.257c0.601-0.043,0.687-0.215,0.687-0.858V37.357
			c0-0.644-0.172-0.772-0.601-0.901l-4.075-0.772l0.3-2.402h8.278v20.931c0,0.687,0.043,0.772,0.687,0.858l3.774,0.3v2.316H158.45z"
			/>
		<path class="st3" d="M191.435,50.568c0,5.062-4.16,7.635-9.607,7.635c-5.233,0-8.793-2.445-8.793-7.12
			c0-3.56,2.401-5.962,5.147-7.935c-2.273-1.33-4.032-3.174-4.032-6.348c0-4.504,3.817-6.906,8.321-6.906
			c5.275,0,8.149,2.702,8.149,6.391c0,2.874-2.23,5.49-4.204,7.12C189.119,44.949,191.435,46.922,191.435,50.568z M176.68,50.825
			c0,2.788,2.188,4.418,5.619,4.418c3.217,0,5.275-1.887,5.275-4.418c0-3.431-3.088-4.718-6.562-6.262
			C178.224,46.579,176.68,48.594,176.68,50.825z M186.974,36.456c0-2.702-2.145-3.603-4.589-3.603c-2.531,0-4.418,1.287-4.418,3.56
			c0,2.831,2.659,4.161,5.619,5.576C185.43,40.36,186.974,38.601,186.974,36.456z"/>
		<path class="st3" d="M219.446,57.688v-2.316l3.518-0.386l-2.316-6.777H208.68l-2.273,6.777l3.474,0.386v2.316h-9.865v-2.273
			l1.845-0.472c0.687-0.172,0.9-0.301,1.072-0.815l9.437-27.494h4.976l9.607,27.537c0.172,0.515,0.515,0.601,1.029,0.729
			l1.931,0.472v2.316H219.446z M214.728,29.98l-5.062,15.098h10.037L214.728,29.98z"/>
		<path class="st3" d="M244.841,57.688v-2.359l2.059-0.257c0.558-0.043,0.772-0.258,0.772-0.858V44.048
			c0-2.788-0.558-5.49-3.732-5.49c-2.444,0-4.761,1.201-6.648,2.745v12.911c0,0.687,0.043,0.772,0.687,0.858l2.402,0.3v2.316h-9.822
			v-2.359l2.145-0.257c0.601-0.086,0.687-0.215,0.687-0.858V39.631c0-0.472-0.129-0.772-0.558-0.901l-2.445-0.815l0.386-2.273h5.619
			l0.343,2.531l0.129,0.043c2.23-1.587,4.847-3.002,7.936-3.002c4.933,0,6.776,3.174,6.776,7.849v11.152
			c0,0.687,0.043,0.772,0.687,0.858l2.445,0.3v2.316H244.841z"/>
		<path class="st3" d="M270.364,57.688v-2.359l2.059-0.257c0.558-0.043,0.772-0.258,0.772-0.858V44.048
			c0-2.788-0.558-5.49-3.732-5.49c-2.444,0-4.761,1.201-6.648,2.745v12.911c0,0.687,0.043,0.772,0.687,0.858l2.402,0.3v2.316h-9.822
			v-2.359l2.145-0.257c0.601-0.086,0.687-0.215,0.687-0.858V39.631c0-0.472-0.129-0.772-0.558-0.901l-2.445-0.815l0.386-2.273h5.619
			l0.343,2.531l0.129,0.043c2.23-1.587,4.847-3.002,7.936-3.002c4.933,0,6.776,3.174,6.776,7.849v11.152
			c0,0.687,0.043,0.772,0.687,0.858l2.445,0.3v2.316H270.364z"/>
		<path class="st3" d="M298.761,57.688l-0.344-2.917l-0.086-0.043c-1.973,1.673-4.503,3.475-8.277,3.475
			c-4.719,0-6.177-2.874-6.177-7.807V39.502c0-0.687-0.043-0.858-0.687-0.986l-2.23-0.558l0.343-2.316h6.478v13.854
			c0,3.731,0.644,5.533,3.346,5.533c2.916,0,5.404-2.017,6.905-3.732V39.459c0-0.686-0.043-0.815-0.687-0.943l-2.145-0.558
			l0.344-2.316h6.391v18.529c0,0.644,0.129,0.858,0.601,0.901l2.273,0.3v2.316H298.761z"/>
		<path class="st3" d="M321.067,57.688l-0.386-2.788l-0.129-0.043c-2.059,1.93-4.461,3.346-7.764,3.346
			c-5.361,0-6.048-3.688-6.048-5.876c0-4.29,2.66-6.306,7.807-6.734l5.791-0.472v-2.273c0-3.131-0.601-4.675-4.332-4.675
			c-2.617,0-4.504,0.085-4.547,3.303l-3.688-0.386c0-5.276,4.89-5.876,8.277-5.876c6.091,0,8.15,1.715,8.15,7.635v11.366
			c0,0.687,0.043,0.772,0.686,0.858l2.188,0.3v2.316H321.067z M320.338,47.823l-4.848,0.429c-3.688,0.343-4.718,1.416-4.718,3.646
			c0,2.316,0.986,3.261,3.003,3.261c2.53,0,5.232-2.06,6.562-3.303V47.823z"/>
		<path class="st3" d="M327.76,57.688v-2.359l2.659-0.257c0.601-0.043,0.687-0.215,0.687-0.858v-24.92
			c0-0.472-0.129-0.772-0.558-0.901l-2.574-0.815l0.387-2.273h6.647v28.909c0,0.687,0.043,0.772,0.687,0.858l2.574,0.3v2.316H327.76
			z"/>
		<path class="st3" d="M363.448,57.688v-2.316l3.389-0.257l-3.561-8.879c-0.558-1.373-1.201-1.802-2.917-1.802h-4.718v9.736
			c0,0.687,0.043,0.772,0.687,0.858l2.831,0.343v2.316h-10.81v-2.316l2.702-0.3c0.601-0.086,0.687-0.215,0.687-0.858V30.151
			c0-0.644-0.086-0.815-0.687-0.858l-2.702-0.3v-2.359h13.125c7.721,0,9.694,4.289,9.694,8.407c0,4.59-2.488,7.12-5.962,8.364
			c1.415,0.643,1.758,1.544,2.401,3.131l2.917,7.507c0.257,0.686,0.687,0.9,1.329,0.986l2.617,0.386v2.273H363.448z M359.587,41.346
			c4.074,0,7.463-1.201,7.463-6.176c0-4.375-2.831-5.404-8.063-5.404h-3.346v11.581H359.587z"/>
		<path class="st3" d="M393.003,56.272c-2.145,1.201-4.718,1.931-7.807,1.931c-7.764,0-10.294-5.104-10.294-11.495
			c0-7.85,4.375-11.495,9.779-11.495c5.233,0,8.836,2.831,8.836,10.251c0,0.558-0.043,1.416-0.086,2.145H379.02
			c0.129,4.332,1.888,7.292,6.562,7.292c2.402,0,3.903-0.429,6.177-1.544L393.003,56.272z M389.615,44.649
			c-0.086-4.89-2.316-6.305-4.933-6.305c-2.874,0-5.275,1.544-5.619,6.305H389.615z"/>
		<path class="st3" d="M395.663,66.781v-2.358l1.759-0.258c0.601-0.086,0.729-0.215,0.729-0.857V39.631
			c0-0.472-0.129-0.772-0.558-0.901l-2.445-0.815l0.386-2.273h5.662l0.386,2.488l0.129,0.043c2.359-1.759,4.761-2.959,7.678-2.959
			c4.804,0,8.063,3.088,8.063,10.637c0,6.434-2.188,12.353-8.921,12.353c-2.445,0-4.504-0.601-6.52-2.359v7.421
			c0,0.686,0.043,0.814,0.686,0.857l4.032,0.344v2.315H395.663z M402.012,52.198c1.458,1.415,3.603,2.788,5.876,2.788
			c4.074,0,5.619-3.389,5.619-8.793c0-5.833-2.273-7.678-4.933-7.678c-2.745,0-5.319,1.673-6.562,2.659V52.198z"/>
		<path class="st3" d="M419.515,46.579c0-6.734,3.432-11.366,10.766-11.366c7.335,0,10.166,4.675,10.166,11.109
			c0,7.206-3.26,11.881-10.595,11.881C422.389,58.203,419.515,53.399,419.515,46.579z M436.414,46.579
			c0-5.619-2.059-8.106-6.22-8.106c-4.203,0-6.647,2.488-6.647,8.149c0,5.705,2.188,8.45,6.434,8.45
			C434.141,55.072,436.414,52.455,436.414,46.579z"/>
		<path class="st3" d="M442.464,57.688v-2.359l2.145-0.257c0.601-0.086,0.687-0.215,0.687-0.858V39.631
			c0-0.472-0.129-0.772-0.558-0.901l-2.445-0.815l0.386-2.273h5.619l0.429,2.959l0.129,0.043c1.415-1.587,3.518-3.431,6.434-3.431
			c0.987,0,2.316,0.171,3.089,0.386v6.477l-3.046-0.129l-0.515-2.959c-0.043-0.343-0.129-0.429-0.515-0.429
			c-1.93,0-4.117,1.759-5.104,2.703v12.91c0,0.687,0.043,0.815,0.687,0.858l3.946,0.343v2.316H442.464z"/>
		<path class="st3" d="M474.463,56.873c-1.716,0.687-3.774,1.33-5.962,1.33c-4.118,0-5.962-1.931-5.962-5.791V39.03
			c0-0.257,0-0.429-0.344-0.429h-3.131v-2.488c3.346-0.429,4.289-1.758,4.847-6.133h2.531v5.233c0,0.257,0,0.429,0.343,0.429h6.305
			v2.959h-6.647v12.654c0,2.702,0.643,3.731,3.088,3.731c1.33,0,2.831-0.387,3.989-0.858L474.463,56.873z"/>
	</g>
</g>
</svg>
