<?xml version="1.0" encoding="utf-8"?>
<!-- Generator: Adobe Illustrator 23.0.6, SVG Export Plug-In . SVG Version: 6.00 Build 0)  -->
<svg version="1.1" id="Layer_1" xmlns="http://www.w3.org/2000/svg" xmlns:xlink="http://www.w3.org/1999/xlink" x="0px" y="0px"
	 width="24px" height="23.854px" viewBox="0 0 24 23.854" style="enable-background:new 0 0 24 23.854;" xml:space="preserve">
<style type="text/css">
	.st0{fill:#FFFFFF;}
</style>
<g>
	<g>
		<path class="st0" d="M11.998,1.125c-2.933,0-3.301,0.012-4.453,0.065c-1.15,0.052-1.935,0.235-2.622,0.502
			c-0.71,0.276-1.312,0.645-1.913,1.246c-0.6,0.6-0.97,1.203-1.246,1.913c-0.267,0.687-0.45,1.472-0.502,2.622
			c-0.053,1.152-0.065,1.52-0.065,4.453c0,2.933,0.012,3.301,0.065,4.453c0.052,1.15,0.235,1.935,0.502,2.622
			c0.276,0.71,0.645,1.312,1.246,1.913c0.6,0.6,1.203,0.97,1.913,1.246c0.687,0.267,1.472,0.45,2.622,0.502
			c1.152,0.053,1.52,0.065,4.453,0.065c2.933,0,3.301-0.012,4.453-0.065c1.15-0.052,1.935-0.235,2.622-0.502
			c0.71-0.276,1.312-0.645,1.913-1.246c0.6-0.6,0.97-1.203,1.246-1.913c0.267-0.687,0.45-1.472,0.502-2.622
			c0.053-1.152,0.065-1.52,0.065-4.453c0-2.933-0.012-3.301-0.065-4.453c-0.052-1.15-0.235-1.935-0.502-2.622
			c-0.276-0.71-0.645-1.312-1.246-1.913c-0.6-0.6-1.203-0.97-1.913-1.246c-0.687-0.267-1.472-0.45-2.622-0.502
			C15.299,1.138,14.931,1.125,11.998,1.125L11.998,1.125L11.998,1.125z M11.998,3.071c2.884,0,3.225,0.011,4.364,0.063
			c1.053,0.048,1.625,0.224,2.005,0.372c0.504,0.196,0.864,0.43,1.242,0.808c0.378,0.378,0.612,0.738,0.808,1.242
			c0.148,0.381,0.324,0.952,0.372,2.005c0.052,1.139,0.063,1.48,0.063,4.364c0,2.884-0.011,3.225-0.063,4.364
			c-0.048,1.053-0.224,1.625-0.372,2.005c-0.196,0.504-0.43,0.864-0.808,1.242c-0.378,0.378-0.738,0.612-1.242,0.808
			c-0.381,0.148-0.952,0.324-2.005,0.372c-1.139,0.052-1.48,0.063-4.364,0.063c-2.884,0-3.225-0.011-4.364-0.063
			c-1.053-0.048-1.625-0.224-2.005-0.372c-0.504-0.196-0.864-0.43-1.242-0.808c-0.378-0.378-0.612-0.738-0.808-1.242
			c-0.148-0.381-0.324-0.952-0.372-2.005c-0.052-1.139-0.063-1.48-0.063-4.364c0-2.884,0.011-3.225,0.063-4.364
			c0.048-1.053,0.224-1.625,0.372-2.005c0.196-0.504,0.43-0.864,0.808-1.242c0.378-0.378,0.738-0.612,1.242-0.808
			c0.381-0.148,0.952-0.324,2.005-0.372C8.773,3.082,9.115,3.071,11.998,3.071"/>
	</g>
	<g>
		<path class="st0" d="M11.998,15.525c-1.988,0-3.6-1.612-3.6-3.6c0-1.988,1.612-3.6,3.6-3.6c1.988,0,3.6,1.612,3.6,3.6
			C15.598,13.914,13.986,15.525,11.998,15.525L11.998,15.525z M11.998,6.379c-3.063,0-5.546,2.483-5.546,5.546
			c0,3.063,2.483,5.546,5.546,5.546c3.063,0,5.546-2.483,5.546-5.546C17.544,8.862,15.061,6.379,11.998,6.379L11.998,6.379z"/>
	</g>
	<g>
		<path class="st0" d="M19.059,6.16c0,0.716-0.58,1.296-1.296,1.296c-0.716,0-1.296-0.58-1.296-1.296
			c0-0.716,0.58-1.296,1.296-1.296C18.479,4.864,19.059,5.445,19.059,6.16L19.059,6.16z"/>
	</g>
</g>
</svg>
