<?xml version="1.0" encoding="utf-8"?>
<!-- Generator: Adobe Illustrator 23.0.6, SVG Export Plug-In . SVG Version: 6.00 Build 0)  -->
<svg version="1.1" id="Layer_1" xmlns="http://www.w3.org/2000/svg" xmlns:xlink="http://www.w3.org/1999/xlink" x="0px" y="0px"
	 width="20.827px" height="20.7px" viewBox="0 0 20.827 20.7" style="enable-background:new 0 0 20.827 20.7;" xml:space="preserve"
	>
<style type="text/css">
	.st0{fill:#FFFFFF;}
</style>
<g>
	<g>
		<g>
			<path class="st0" d="M20.827,10.413C20.827,4.662,16.164,0,10.413,0S0,4.662,0,10.413c0,5.198,3.808,9.506,8.786,10.287v-7.277
				H6.142v-3.01h2.644V8.119c0-2.61,1.555-4.051,3.933-4.051c1.139,0,2.331,0.203,2.331,0.203v2.563h-1.313
				c-1.294,0-1.697,0.803-1.697,1.626v1.953h2.888l-0.462,3.01H12.04V20.7C17.019,19.919,20.827,15.611,20.827,10.413L20.827,10.413
				z"/>
		</g>
	</g>
</g>
</svg>
