<?xml version="1.0" encoding="utf-8"?>
<!-- Generator: Adobe Illustrator 23.0.6, SVG Export Plug-In . SVG Version: 6.00 Build 0)  -->
<svg version="1.1" id="Layer_1" xmlns="http://www.w3.org/2000/svg" xmlns:xlink="http://www.w3.org/1999/xlink" x="0px" y="0px"
	 width="251px" height="4px" viewBox="0 0 251 4" style="enable-background:new 0 0 251 4;" xml:space="preserve">
<style type="text/css">
	.st0{fill:#B1E8F4;}
</style>
<g>
	<g>
		<g>
			<g>
				<g>
					<path class="st0" d="M0.035,0.952C-0.096,1.038-0.022,1.234,0.34,1.195l0.258-0.331L0.035,0.952z"/>
					<path class="st0" d="M2.475,1.565c0.426-0.16,0.918-0.442,0.642-0.746C2.694,1.137,2.592,1.004,2.137,1.383
						C1.774,1.422,1.504,1.277,1.565,1.155C1.437,1.24,1.002,1.082,0.806,1.29c0.472,0.256,1.07,0.267,1.695,0.055
						C2.635,1.418,2.505,1.504,2.475,1.565z"/>
					<path class="st0" d="M37.928,2.082L37.7,2.042C37.762,2.064,37.84,2.076,37.928,2.082z"/>
					<path class="st0" d="M59.894,2.263c-0.167,0.008-0.237,0.041-0.246,0.071C59.804,2.312,59.932,2.292,59.894,2.263z"/>
					<path class="st0" d="M63.645,2.628c-0.08-0.01-0.148-0.015-0.221-0.022C63.508,2.636,63.593,2.653,63.645,2.628z"/>
					<path class="st0" d="M37.928,2.082l0.587,0.104C38.556,2.078,38.214,2.105,37.928,2.082z"/>
					<path class="st0" d="M7.364,0.767C7.241,0.783,7.138,0.814,7.045,0.854C7.146,0.84,7.243,0.828,7.344,0.819
						C7.35,0.801,7.354,0.786,7.364,0.767z"/>
					<path class="st0" d="M28.244,2.35L28.066,2.35c-0.052,0.038-0.102,0.083-0.148,0.134L28.244,2.35z"/>
					<path class="st0" d="M20.813,2.401c0.168,0.012,0.227-0.269,0.291-0.392c-0.095,0.116-0.219,0.171-0.367,0.193
						C20.735,2.255,20.757,2.319,20.813,2.401z"/>
					<path class="st0" d="M9.029,1.906L8.82,1.945C8.874,1.933,8.966,1.922,9.029,1.906z"/>
					<path class="st0" d="M33.564,2.411c0.013,0.042,0.039,0.079,0.068,0.1C33.631,2.476,33.605,2.442,33.564,2.411z"/>
					<path class="st0" d="M241.421,0.298c-0.006,0.02,0.002,0.033,0.001,0.05C241.464,0.32,241.478,0.3,241.421,0.298z"/>
					<path class="st0" d="M250.035,1.69l-0.119,0.015c-0.013,0.053-0.026,0.105-0.026,0.158L250.035,1.69z"/>
					<path class="st0" d="M70.508,2.988c-0.013-0.003-0.018-0.003-0.03-0.005C70.297,3.015,70.4,3.009,70.508,2.988z"/>
					<path class="st0" d="M133.519,2.781c-0.714-0.251,1.162-0.323,0.087-0.602C133.706,2.289,132.629,2.617,133.519,2.781z"/>
					<path class="st0" d="M7.556,0.804c0.1-0.003,0.202-0.006,0.305-0.003C7.722,0.792,7.628,0.793,7.556,0.804z"/>
					<path class="st0" d="M133.606,2.179c0-0.001,0-0.002,0-0.002l-0.111-0.026C133.541,2.162,133.567,2.169,133.606,2.179z"/>
					<path class="st0" d="M86.323,2.819c-0.032-0.049-0.095-0.087-0.161-0.123C86.167,2.725,86.204,2.76,86.323,2.819z"/>
					<path class="st0" d="M74.542,2.419l0.292,0.038C74.718,2.431,74.624,2.422,74.542,2.419z"/>
					<path class="st0" d="M92.441,2.422c0.159,0.021,0.212,0.06,0.429,0.022c-0.02-0.014-0.04-0.024-0.066-0.034
						C92.725,2.449,92.621,2.467,92.441,2.422z"/>
					<path class="st0" d="M98.808,2.421c-0.034-0.021-0.078-0.038-0.117-0.057c-0.063,0.006-0.137,0.01-0.202,0.015L98.808,2.421z"
						/>
					<path class="st0" d="M222.07,0.434c0.139,0.079,0.226,0.166,0.294,0.253C222.266,0.486,223.202,0.415,222.07,0.434z"/>
					<path class="st0" d="M7.367,0.925c0.037-0.071,0.092-0.106,0.189-0.121C7.483,0.807,7.413,0.813,7.344,0.819
						C7.326,0.861,7.322,0.9,7.367,0.925z"/>
					<path class="st0" d="M92.699,0.205l1.012,0.042C93.428,0.219,93.061,0.205,92.699,0.205z"/>
					<path class="st0" d="M176.392,0.474l0.232-0.034C176.535,0.434,176.452,0.442,176.392,0.474z"/>
					<path class="st0" d="M96.713,0.205c0.181,0.099,0.372,0.157,0.57,0.194c0.042-0.022,0.09-0.04,0.117-0.073L96.713,0.205z"/>
					<path class="st0" d="M222.366,0.689c-0.002-0.001-0.002-0.003-0.002-0.003S222.364,0.688,222.366,0.689z"/>
					<path class="st0" d="M229.03,0.021c-0.964-0.008-0.453,0.362-0.657,0.574c-1.151,0.105-0.532-0.272-0.924-0.461
						c-0.718,0.098-1.269,0.437-1.805,0.423c-0.04-0.061-0.144-0.083-0.022-0.159c-0.759,0.294-2.255,0.014-3.139,0.383
						c-0.066-0.033-0.099-0.064-0.116-0.092c0.143,0.185,0.165,0.373,0.136,0.507c-0.432,0.006-0.802,0.233-0.965-0.008
						c0.265,0.007,0.287-0.09,0.411-0.166l-0.453,0.105c-0.408-0.347,0.618-0.12,0.618-0.377c-0.883,0.113-1.912,0.4-2.588,0.302
						c-0.141-0.34,1.582-0.114,0.679-0.416l1.047,0.13c-0.8-0.536,0.636,0.037-0.099-0.536c-1.378-0.098-1.541,0.173-2.915,0.074
						c-0.309,0.189,0.102,0.279-0.207,0.468c-1.953,0.339-1.537-0.854-2.974-0.402c-0.372,0.226-0.516,0.656-1.538,0.429
						l0.349-0.384c-1.334-0.038-0.761,0.552-2.158,0.294c0.248-0.151,1.048-0.127,0.846-0.173c-0.905-0.303-0.64,0.218-1.336,0.218
						l-0.144-0.34c-1.42,0.053-2.984,0.299-4.557,0.361c0.087-0.101,0.357-0.207-0.011-0.311c-1.983,0.17-4.234-0.042-6.147-0.243
						l-0.731,0.293c-0.17-0.003-0.315-0.133-0.131-0.19c-0.746-0.111-0.039,0.186-0.397,0.302c-0.424,0.021-0.56-0.169-0.292-0.257
						c-1.316,0.249-3.748,0.536-5.135,0.222l0.27-0.087c-1.08-0.119-1.218,0.602-2.219,0.328l0.192-0.052
						c-2.343-0.127-4.932,0.142-6.72-0.301c-0.34,0.423-2.319-0.189-2.47,0.401c-1.338-0.292-0.955-0.398-2.839-0.594
						c-0.503-0.027-0.75,0.368-1.372,0.43l-0.015-0.308l-0.845,0.323l-0.45-0.369l-0.584,0.079c0.232,0.018,0.494,0.138,0.459,0.227
						c-0.911,0.14-2.222-0.215-2.244-0.372l-2.156,0.261c0.048-0.124,0.409-0.166,0.694-0.246c-1.151,0.314-0.209-0.325-1.264-0.036
						c0.141,0.07-0.076,0.184-0.1,0.246c-0.526-0.186-1.723-0.188-2.608-0.109l0.17-0.212c-1.599-0.054-3.372,0.102-5.167,0.098
						c0.644,0.099,0.496,0.467-0.03,0.503l-0.21-0.326c-0.34,0.202,0.55,0.123-0.148,0.37c-0.671-0.038-0.451-0.37-0.066-0.477
						l-0.815,0.113c-0.048-0.097,0.143-0.148,0.193-0.272c-0.334,0.202-1.407-0.327-1.89,0.024l-0.046-0.097
						c-1.794-0.003-2.608,0.109-4.07,0.126c-0.029,0.281-0.6,0.219-1.036,0.446c-1.074-0.09-2.266-0.311-3.561-0.287
						c-0.91,0.14-0.266,0.238-0.675,0.405c-0.067-0.256-1.36-0.232-0.689-0.416c-1.554,0.042-1.984,0.051-3.949,0.259
						c0.213,0.105,0.453,0.15,0.329,0.238c-0.357,0.042-0.811-0.107-0.76-0.23l0.094-0.027c-2.205,0.384-5.09-0.747-6.846-0.213
						l0.098-0.026l-1.821,0.278c-0.838-0.044,0.503-0.192-0.117-0.351c-1.964,0.427-3.104-0.062-4.721,0.223
						c-1.252-0.756-4.444,0.053-6.134-0.429l0.098,0.178c-0.437,0.174-0.528-0.102-0.85-0.143c0.046,0.138,0.474,0.16,0.203,0.257
						c-3.701,0.215-7.638-0.26-11.432-0.421c-1.388-0.048-0.787,0.921-2.537,0.496l0.497-0.33c-2.8,0.396-5.726-0.014-8.467,0.323
						c0.163-0.076,0.168-0.175,0.436-0.174c-0.579-0.24-2.141-0.012-2.151,0.184c-0.427-0.022-0.099-0.177-0.362-0.277
						c-0.581-0.142-1.458,0.306-1.766,0.068c-0.052-0.039,0.163-0.078,0.269-0.096c-0.379,0.116-1.763-0.03-1.401,0.247
						c-1.029-0.132-1.968,0.123-2.789-0.041c-0.535,0.31-1.761-0.149-1.931,0.289c0.074-0.452-1.804-0.365-2.454-0.152
						c0.218-0.137-0.566-0.142-0.311-0.331c-0.742,0.006-1.423,0.09-1.293,0.323c-1.368-0.541-2.749,0.436-3.519-0.258
						c-2.205,0.243-4.246,0.408-6.23,0.513c0.071-0.451,2.193-0.045,2.108-0.518c-1.882,0.186-2.968,0.573-4.834,0.464
						c-0.483-0.062,0.274-0.196,0.438-0.273c-1.88,0.186-3.635-0.041-5.308,0.205c0.005-0.042,0.185-0.088,0.356-0.122
						c-0.33,0.015-0.767-0.066-0.73,0.139l0.321-0.056c0.526,0.298-1.309,0.622-1.368,0.779c0.56-0.588-1.652-0.148-0.764-0.89
						c-0.217,0.039-0.489,0.136-0.439,0.273c-0.322-0.04-0.424-0.12-0.098-0.276c-1.181,0.112-0.761,0.33-1.831,0.325
						c0.004-0.099,0.22-0.138,0.33-0.254c-0.542,0.193-1.086,0.387-1.99,0.303c0.054-0.06-0.051-0.138,0.219-0.136
						c-1.553,0.03-2.647,0.515-4.351,0.329c0.503-0.431-0.579-0.142-0.67-0.515l-0.916,0.111l0.368,0.181
						c-0.802-0.006-1.512,0.266-2.202,0.143L60.78,0.84l-1.504,0.071l0.851,0.142c-0.812,0.192,0.087,0.472-0.981,0.368
						c0.217-0.038-0.803-0.005-1.221-0.225c0,0,0.003,0,0.003-0.001c-0.397,0.119-0.805,0.244-1.399,0.151
						c-0.154-0.119,0.124-0.413,0.024-0.492c-0.392,0.312-1.879,0.086-2.375,0.419c0.165-0.078,0.174-0.274,0.12-0.314l-0.329,0.254
						c-0.372-0.081-0.426-0.12-0.366-0.277c-1.118-0.046,0.355,0.474-0.972,0.27c0.104-0.021,0.054-0.059,0.271-0.097
						c-1.333-0.106-2.575,0.161-3.8,0.036c-0.361-0.376,1.07-0.092,0.656-0.409c-1.766,0.068-3.657,0.45-5.365,0.362l0.318,0.042
						c-0.237,0.53-1.273-0.262-2.137-0.012c0.212-0.039,0.277-0.294,0.22-0.235c-1.17-0.085-2.393,0.13-4.166,0.297l0.22-0.136
						c-0.69-0.122-1.816-0.07-2.561-0.132c-0.221,0.136-0.647,0.114-0.388,0.312c-2.297-0.776-4.382,0.416-6.42-0.23
						c0.244-0.001,0.581-0.119,0.387-0.12l-1.736,0.126c0.137,0.231,0.228,0.14,0.592,0.32c-0.22,0.137-0.71,0.243-1.14,0.243
						c0.781-0.153-0.007-0.371-0.344-0.5c0.057,0.071-0.059,0.149-0.03,0.221c-0.907-0.411-0.152,0.465-1.39,0.188l0.066-0.121
						c-0.463,0.062-0.89,0.222-1.39,0.188c-0.207-0.267,0.493-0.125,0.525-0.345c-0.702,0.015-1.385,0.506-2.02,0.24
						c0.298-0.074,0.727-0.076,1.025-0.15c-0.692-0.314-0.772-0.234-1.286-0.284l0.051,0.007L21.6,0.873l0.303,0.085
						c-0.878,0.697-1.788,0.127-2.972,0.584c1.15-0.432,0.19-0.25,0.278-0.553c-0.302-0.084-0.761-0.178-0.631-0.264
						C18.02,0.97,17.646,0.533,16.856,0.89c-0.035-0.098-0.598-0.009-0.472-0.254c-0.727,0.077,0.172,0.17,0.111,0.292
						c-1.121,0.333-2.634-0.404-4.246,0.053c-1.39,0.188-1.647,0.517-2.937,0.681C8.877,1.506,9.668,1.307,9.668,1.307
						C8.966,1.163,8.438,1.189,7.776,1.301C7.91,1.216,7.772,1.144,7.57,1.034C7.039,1.06,7.215,1.39,6.514,1.246
						c0.12-0.109,0.274-0.283,0.531-0.392c-0.626,0.09-1.244,0.272-1.892,0.36c-0.172-0.17,0.391-0.258,0.619-0.369
						C5.044,0.922,3.885,0.999,3.66,1.268l0.467,0.096c-0.265,0.013-0.137-0.231,0.059-0.28c0.624-0.211,0.9,0.093,0.935,0.191
						L4.661,1.338C5.135,1.91,6.514,1.246,7.443,1.279L7.056,1.695L8.009,1.35C8.211,1.458,8.35,1.69,7.891,1.753
						c0.666,0.206,0.59-0.148,1.162,0.081C9.116,1.87,9.088,1.89,9.029,1.906L9.68,1.782C9.552,1.87,9.788,2.076,9.388,2.016
						c1.168,0.24,1.883-0.312,2.323,0.003l-0.098,0.026c1.62-0.141,0.157-0.305,1.372-0.664l0.818,0.753l0.159-0.305
						C14.13,1.84,14.461,1.863,14.4,1.985c0.622-0.209-0.106-0.133,0.255-0.33c0.805,0.278,2.219-0.13,2.4,0.356
						c0.289-0.232-0.77-0.179,0.089-0.34c0.245,0.523,0.993-0.09,1.728,0.15c-0.226,0.27-0.922,0.127-0.187,0.368
						c0.443-0.456,1.431,0.1,2.051,0.013c0.029-0.363,1.348-0.152,2.389-0.273c-0.066,0.122,1.958,0.2,2.926,0.331l-0.029,0.061
						c0.187-0.367,1.186-0.298,1.913-0.374c-0.029,0.22-0.159,0.306-0.553,0.405l0.683-0.002c0.161-0.118,0.374-0.18,0.818-0.222
						l-0.172,0.274c0.91-0.015,1.832-0.323,3.002-0.14c0.066-0.256-0.931-0.713,0.307-0.884c0.046,0.138,0.092,0.375-0.232,0.432
						c0.106-0.018,0.378-0.115,0.592-0.056l-0.494,0.233c0.533,0.102,0.279-0.195,0.705-0.173c-0.008,0.198,0.315,0.141,0.254,0.298
						c-0.109,0.019-0.372-0.082-0.535-0.004c0.48,0.035,1.061,0.152,1.253,0.302c-0.042-0.112,0-0.266,0.352-0.291
						c0.91-0.014,0.311,0.237,0.842,0.339c0.22-0.137,0.801,0.005,0.816-0.29c0.266,0.001,0.315,0.139,0.418,0.219
						c0.471-0.13,2.199-0.037,1.668-0.351l-0.121-0.021c0.023-0.006,0.049-0.006,0.077-0.013c-0.004,0,0,0-0.004,0h0.004
						c1.543-0.293,3.205,0.167,4.736,0.041l-0.002,0.099c0.914-0.113,2.034-0.067,2.687-0.279c0.27,0,0.638,0.18,0.522,0.298
						c0.699-0.074,0.777-0.185,1.786-0.022c-0.702,0.172,0.242,0.153-0.72,0.126c0.908,0.085,1.113,0.243,2.088-0.027
						c-0.332,0.253,0.683,0.319,1.115,0.243L49.191,2.3c0.485-0.037,0.909-0.014,1.34,0.007L50.299,2.64
						c1.858,0.405,3.35-0.689,4.764-0.011c0.491-0.233-1.009-0.164-0.569-0.436c0.854,0.045,1.745,0.522,2.012,0.523
						c1.17,0.184,1.092-0.486,2.317-0.36c-0.157-0.118-0.305-0.435,0.611-0.547c0.855,0.044,1.051,0.498,0.511,0.593
						c-0.205,0.01-0.304-0.028-0.295-0.068c-0.276,0.043-0.639,0.094-0.3,0.223l0.111-0.119c0.424,0.121,1.601,0.108,1.324,0.303
						c0.646-0.113,0.276-0.195-0.202-0.256c1.097,0.172,1.713,0.005,2.842,0.121c-0.179-0.065-0.345-0.205-0.166-0.204
						c1.656,0.147,0.729-0.225,1.851-0.277c0.637,0.181-0.228,0.432,0.901,0.28c0.69,0.122,0.146,0.315-0.128,0.412
						c1.029-0.229,1.922,0.15,2.51,0.192L67.85,3.105c0.324-0.057,0.589-0.055,0.86-0.055L68.4,2.813
						c0.318,0.042,0.588,0.042,0.582,0.141c0.328-0.155-0.251-0.395,0.4-0.607c0.424,0.121,1.292-0.129,1.438,0.185
						c-1.334-0.107,0.147,0.316-0.982,0.367c0.218-0.038,0.484-0.036,0.803,0.006c0.048,0.035-0.045,0.065-0.132,0.083
						c1.277,0.281,0.587-0.356,1.91-0.349c-0.168,0.177,0.307,0.337,0.523,0.299c-0.533-0.004-0.255-0.296,0.234-0.432
						c0.848,0.138,0.922-0.103,1.366-0.087l-0.507-0.065c0.172-0.177,0.596-0.154,1.188-0.21c0.051,0.138-0.537,0.095-0.326,0.156
						c0.657-0.312,1.484,0.323,2.399,0.113c0.424,0.12,0.041,0.333,0.414,0.415c1.026-0.23,1.111,0.243,2.19,0.053
						c-0.311-0.238-0.365-0.18,0.394-0.413L78.52,2.636l1.138-0.347c-0.535-0.003-1.129,0.15-1.45,0.109
						c0.542-0.195,0.486-0.135,0.23-0.333c0.732,0.358,1.452-0.208,2.298,0.033l-0.026,0.591c1.273,0.263,2.261-0.303,3.914-0.155
						l-0.531-0.103c0.222-0.235,1.02-0.033,1.555-0.128c-0.05,0.198,0.285,0.269,0.513,0.392c-0.028-0.146,1.21,0.013,1.36-0.381
						l0.738,0.26c1.334,0.107,1.523-0.562,2.805-0.495c-0.386,0.215,0.197,0.354-0.663,0.508c0.428,0.002,0.813,0.038,0.82-0.099
						c0.25,0.124,1.188-0.266,1.581-0.079c0.181-0.087,0.24-0.293,0.72-0.277c0.052,0.04-0.002,0.097-0.002,0.097
						c0.002-0.097,0.753-0.133,0.333-0.351c1.319,0.616,3.687-0.045,4.836,0.484c0.935-0.066,2.061-0.13,2.909-0.144
						c-0.054,0.059-0.003,0.098-0.163,0.078c1.17,0.184,0.72-0.567,2.051-0.362c0.68,0.319-0.707,0.173-0.283,0.293
						c0.185,0.65,1.607-0.089,2.504,0.291l-0.217,0.038c0.685,0.221,1.672-0.246,2.791-0.2c0,0-0.054,0.057-0.006,0.098
						c0.765-0.331,2.215-0.441,3.291-0.533c-0.335,0.254-0.489,0.134-0.285,0.393c0.483-0.037-0.141-0.415,0.822-0.487
						c0.313,0.139,1.008,0.261,1.1,0.536l-0.909,0.015c0.466,0.357,1.176-0.012,1.655,0.05l-0.061,0.156
						c1.393-0.051,1.412-0.443,2.909-0.415l-0.155-0.118c0.818-0.389,0.686,0.219,1.502-0.07l0.247,0.395
						c0.54-0.095,1.891-0.382,2.859-0.456c-0.548,0.293-1.681,0.442-2.382,0.616c0.535,0.003,1.818-0.029,2.097-0.224
						c-0.216,0.038-0.487,0.135-0.7,0.074c0.656-0.31,1.52-0.463,2.586-0.456c-0.189,0.765,2.779,0.193,3.552,0.787
						c1.886-0.283,3.742,0.121,5.939,0.076c-0.779-0.596,0.641-0.017,0.507-0.628c0.512-0.039,0.707-0.029,0.753,0.01l1.551,0.365
						c0.368,0.178-0.487,0.135-0.44,0.272c1.121,0.047,0.47,0.259,1.212,0.422c-0.152-0.219,0.39-0.313,1.028-0.23l-0.9-0.282
						c1.566-0.325,1.354,0.513,2.932,0.191l-0.499,0.192c0.81-0.113,2.988,0.004,3.782-0.487c0.143,0.071,0.333,0.238-0.024,0.282
						c1.936,0.074,4.309-0.523,5.814-0.22l-0.147,0.149c0.361-0.043,0.629-0.281,1.081-0.13c-0.023,0.062-0.146,0.149,0.022,0.158
						c0.191-0.052,0.959-0.262,1.438-0.175l-0.409,0.168c1.888,0.196,2.898-0.41,4.481-0.512c-0.004,0.44,1.482,0.583,2.223,0.654
						l-0.026,0.062c2.199,0.054,3.735-0.365,5.771-0.538c1.264,0.478,4.281,0.2,6.313,0.468c-0.311-0.08,0.051-0.343,0.412-0.387
						c0.477,0.089,1.318-0.305,1.242,0.098l-0.17-0.008c0.359,0.396,1.339,0.29,2.104,0.302l0.126-0.528
						c2.001,0.768,5.242-0.282,6.335,0.406c0.483-0.132,1.081-0.13,1.559-0.263L180.39,2.89c1.338,0.072,2.006,0.108,3.659,0.04
						l-0.337,0.202c0.933,0.018,1.178-0.816,2.038-0.833l0.259,0.423c1.627-0.007,3.274,0.365,4.882-0.019
						c-0.026,0.062-0.074,0.184-0.338,0.201c0.766,0.011,2.963,0.286,2.685-0.294c0.019,0.378,1.679,0.037,2.558-0.13l-0.137,0.279
						c0.742-0.356,0.765-0.453,1.801-0.552c0.246,0.036,0.215,0.223-0.111,0.152c0.818,0.146,0.637-0.264,1.629-0.116l-0.37,0.178
						c0.842,0.021,0.775-0.074,1.238-0.281c0.529-0.112,1.596,0.07,1.721,0.322c0.113-0.154,0.574-0.359,1.07-0.286
						c0.067,0.095-0.114,0.154-0.204,0.183c1.407,0.19,2.092-0.324,3.06-0.05c0.02,0.092,0.083,0.138,0.163,0.166
						c-1.118-0.007-2.018-0.022-1.934-0.042c0,0.257,0.903,0.302,0.185,0.657c0.725-0.194,1.964-0.615,2.845-0.494
						c0.043,0.025,0.084,0.049,0.116,0.089l-0.091,0.029c0.203,0.026,0.385,0.002,0.556-0.042c0.281,0.042,0.459,0.074,0.729,0.077
						c0.104,0.212,1.036,0.115,1.486,0.125c-0.037-0.281,0.552-0.236,0-0.468c0.072,0.02-0.085,0.034-0.385,0.045
						c-0.068,0.008-0.147,0.013-0.192,0.029c0.009-0.008,0.019-0.017,0.031-0.025c-0.296,0.008-0.681,0.014-1.119,0.019
						c0.356-0.143,0.727-0.263,1.225-0.107c0.231-0.181,0.485-0.366,0.629-0.454c0.616,0.392,1.804,0.604,1.969,0.846
						c1.375-0.158,3.239-0.104,4.103-0.632c0.391-0.068,0.45,0.151,0.596,0.234c-0.226,0.053-0.494,0.045-0.616,0.121
						c0.781-0.135,2.316-0.053,2.502-0.422c0.985,0.167-0.554,0.34,0.8,0.279l-0.183,0.113c2.663,0.59,4.329-0.942,7.282-0.185
						c-0.204-0.046-0.307-0.068-0.349-0.13c3.366,0.334,6.936-0.313,10.258,0.216c0.944,0.107,1.046-0.129,1.623-0.308l0.204,0.302
						l0.985-0.348c1.397-0.255,2.419,0.741,4.188,0.259l-0.228-0.203c0.635,0.038,2.012-0.12,1.906,0.114
						c0.065-0.037,0.208-0.212,0.457-0.105l0.019,0.158l1.56-0.271c1.21,0.114-0.189,0.627,1.576,0.658
						c0.656-0.061,1.868-0.46,1.622-0.566c-0.265-0.008-0.677-0.099-0.696-0.257l0.6-0.082c0.109-0.466,0.57-0.942-0.903-1.268
						l-1.026,0.285l-0.331-0.226l0.864-0.014c-0.49-0.212-0.801-0.024-1.149,0.104c-0.082-0.12-0.227-0.204-0.43-0.249l-1.008,0.445
						c-0.122-0.182,0.452-0.361-0.224-0.462c-0.472,0.207,0.453,0.408-0.329,0.544c-0.491-0.211-0.348-0.384-0.924-0.203
						c-0.081-0.12,0.041-0.196,0.269-0.249c-0.513,0.144-1.358,0.061-1.623,0.308c-0.512-0.261-1.732,0.068-1.682-0.373
						c-0.161,0.105-0.904,0.346-1.375,0.364c0.861-0.528-1.764-0.031-1.536-0.597c-0.637,0.474-2.302,0.211-3.43,0.474
						c0.063-0.038,0.187-0.114,0.287-0.09c-0.635-0.039-0.82-0.182-1.228-0.272c-0.082,0.392-1.071,0.481-1.604,0.723
						c-0.779-0.378,0.473-0.46,0.228-0.823c0.039,0.318-1.353,0.317-1.088,0.582c-0.596-0.234-0.513-0.114-0.82-0.439
						c-0.104,0.49-0.555,0.083-1.048,0.384c-0.862-0.241-0.222-0.459-1.168-0.31C228.188,0.195,229.03,0.021,229.03,0.021z
						 M206.516,0.869c0-0.003,0-0.005,0-0.006c0.194-0.006,0.359-0.012,0.465-0.016C206.884,0.851,206.75,0.857,206.516,0.869z
						 M204.624,0.873c0.23,0.011,0.517,0.013,0.821,0.011c0.066,0.097-0.005,0.197-0.196,0.192
						C205.352,1.011,204.906,0.955,204.624,0.873z M208.626,2.821c-0.299,0.04-0.4-0.015-0.441-0.073
						c0.141-0.005,0.307-0.014,0.524-0.034c0.009-0.01,0.027-0.022,0.035-0.034C208.716,2.734,208.683,2.784,208.626,2.821z"/>
					<path class="st0" d="M209.164,2.452c0.043-0.006,0.067-0.018,0.123-0.021c-0.061-0.025-0.119-0.046-0.179-0.063
						c-0.036,0.03-0.074,0.059-0.106,0.088C209.058,2.455,209.114,2.454,209.164,2.452z"/>
					<path class="st0" d="M37.66,2.036l0.04,0.006c-0.033-0.011-0.064-0.022-0.084-0.04C37.642,2.016,37.642,2.025,37.66,2.036z"/>
					<polygon class="st0" points="178.499,0.335 178.502,0.406 178.667,0.344 					"/>
					<path class="st0" d="M27.239,1.071c-0.02-0.025-0.059-0.05-0.137-0.072C27.109,1.017,27.168,1.043,27.239,1.071z"/>
					<path class="st0" d="M22.738,1.008l-0.637-0.1C22.377,0.965,22.578,0.992,22.738,1.008z"/>
					<path class="st0" d="M19.277,0.869c-0.044,0.049-0.056,0.086-0.068,0.121c0.003,0.001,0.005,0.001,0.007,0.002L19.277,0.869z"
						/>
					<path class="st0" d="M74.303,0.538c0.047-0.001,0.092-0.005,0.134-0.013C74.75,0.471,74.537,0.493,74.303,0.538z"/>
					<path class="st0" d="M57.928,1.195c0.174-0.051,0.345-0.101,0.526-0.133C58.163,1.041,57.936,1.035,57.928,1.195z"/>
					<path class="st0" d="M92.588,0.2c-0.002,0.002,0,0.002-0.002,0.005c0.039-0.001,0.074,0,0.113,0L92.588,0.2z"/>
					<path class="st0" d="M59.216,1.067c-0.292-0.056-0.535-0.044-0.761-0.005C58.694,1.081,58.975,1.11,59.216,1.067z"/>
					<path class="st0" d="M4.278,0.741L4.111,0.729c0.003,0.019-0.007,0.034-0.02,0.045L4.278,0.741z"/>
					<path class="st0" d="M4.091,0.775L3.906,0.808C3.991,0.808,4.065,0.806,4.091,0.775z"/>
					<path class="st0" d="M3.516,0.879l0.39-0.071C3.771,0.807,3.605,0.798,3.516,0.879z"/>
					<path class="st0" d="M8.859,0.871l0.052-0.102C8.883,0.79,8.865,0.823,8.859,0.871z"/>
					<path class="st0" d="M10.251,0.841C9.919,0.818,9.418,0.624,8.955,0.688L8.912,0.769C9.129,0.617,9.936,1.013,10.251,0.841z"/>
					<path class="st0" d="M16.062,2.102L14.896,2.02c0.204,0.109,0.472,0.255-0.058,0.281C16.308,2.625,14.534,2.058,16.062,2.102z"
						/>
					<path class="st0" d="M19.68,2.259c-0.627,0.051,0.007,0.158-0.026,0.219C20.052,2.379,20.148,2.354,19.68,2.259z"/>
					<path class="st0" d="M45.821,2.26l-0.063,0.256C46.242,2.479,45.763,2.417,45.821,2.26z"/>
					<polygon class="st0" points="50.819,0.938 50.348,0.779 50.125,1.013 					"/>
					<polygon class="st0" points="53.771,2.76 53.56,2.797 54.366,2.704 					"/>
					<path class="st0" d="M97.675,2.669l-0.146-0.315C97.203,2.411,97.134,2.765,97.675,2.669z"/>
					<path class="st0" d="M116.629,2.348c0.206,0.158,0.74,0.259,1.068,0.104C117.271,2.431,116.846,2.308,116.629,2.348z"/>
					<polygon class="st0" points="173.472,2.862 173.091,2.967 173.81,2.879 					"/>
				</g>
			</g>
		</g>
	</g>
</g>
</svg>
