<?xml version="1.0" encoding="utf-8"?>
<!-- Generator: Adobe Illustrator 22.1.0, SVG Export Plug-In . SVG Version: 6.00 Build 0)  -->
<svg version="1.1" id="Layer_1" xmlns="http://www.w3.org/2000/svg" xmlns:xlink="http://www.w3.org/1999/xlink" x="0px" y="0px"
	 width="468px" height="6px" viewBox="0 0 468 6" style="enable-background:new 0 0 468 6;" xml:space="preserve">
<style type="text/css">
	.st0{fill:#D8D8D8;}
</style>
<path class="st0" d="M467.737,0.638c-0.104,0.05,0.144,0.326-0.546,0.302C467.22,1.012,466.582,0.699,467.737,0.638z M455.798,1.567
	L456,1.455l-1.679,0.277L455.798,1.567z M445.144,1.562c1.007,0.471,3.86-0.076,5.759,0.092l0.313,0.107l0.856-0.379
	C449.765,1.442,446.768,1.694,445.144,1.562z M439.463,0.543c0.351,0.183-1.229,0.158,1.325,0.057
	c-0.128-0.02-0.165-0.032-0.24-0.046C440.318,0.557,440.002,0.557,439.463,0.543z M440.548,0.554
	C441.67,0.541,439.814,0.4,440.548,0.554L440.548,0.554z M435.367,0.659l1.478-0.164c-0.309-0.108-1.624-0.133-1.135-0.211
	C434.193,0.374,434.505,0.481,435.367,0.659z M433.965,1.003l0.766-0.069C434.597,0.888,434.394,0.873,433.965,1.003z
	 M436.355,0.788l-1.624,0.146c0.214,0.076,0.237,0.229,0.746-0.053C435.344,1.021,435.665,0.887,436.355,0.788z M437.275,0.859
	c0.829,0.102,1.9,0.167,0.417,0.33C440.519,1.125,440.102,0.793,437.275,0.859z M444.6,2.05l1.108,0.138l0.959-0.158
	C446.188,2.108,444.531,1.902,444.6,2.05z M426.16,0.415c-0.092,0.1,0.497,0.267,0.607,0.395l1.092-0.115
	C427.298,0.627,426.234,0.564,426.16,0.415z M426.767,0.811l-1.633,0.172C426.593,1.003,426.859,0.921,426.767,0.811z
	 M433.702,1.526l2.683-0.362l-3.2,0.366L433.702,1.526z M419.922,0.403l0.926-0.232l-1.649,0.351L419.922,0.403z M415.784,0.443
	c0.685-0.192-0.939-0.325-0.215-0.443c-1.124,0.034-2.084,0.199-2.948,0.348C413.539,0.265,414.518,0.286,415.784,0.443z
	 M411.17,0.564c0.459-0.046,0.934-0.129,1.451-0.216C412.134,0.392,411.654,0.456,411.17,0.564z M422.352,0.933
	c-0.126-0.061-0.37-0.219-1.285-0.286l0.642,0.282C421.905,0.931,422.126,0.932,422.352,0.933z M421.731,0.938l-0.023-0.009
	c-0.697-0.006-1.181-0.013-1.388-0.016C420.499,0.916,420.923,0.923,421.731,0.938z M422.514,0.935
	c-0.06-0.001-0.103-0.001-0.162-0.001C422.413,0.961,422.451,0.97,422.514,0.935z M429.42,1.271c-0.96,0.158-2.96,0.327-1.024,0.567
	C429.084,1.645,427.976,1.508,429.42,1.271z M423.311,1.287l1.735,0.064c-0.034-0.074-0.347-0.183,0.128-0.261L423.311,1.287z
	 M422.462,1.377l0.849-0.09l-0.643-0.024L422.462,1.377z M414.142,0.828c-0.749,0.123-1.569,0.133-2.495,0.153
	c0.992,0.055,2.019,0.085,2.993,0.085C414.777,0.977,415.206,0.818,414.142,0.828z M417.83,0.906
	c-0.052,0.006-0.118,0.01-0.167,0.016C417.766,0.946,417.848,0.954,417.83,0.906z M402.531,0.979
	c0.051,0.016,0.095,0.035,0.146,0.051c0.012-0.016,0.019-0.032,0.034-0.049L402.531,0.979z M414.806,1.118
	c0.746,0.054,1.192-0.015,1.617-0.102c-0.558,0.028-1.149,0.047-1.783,0.049C414.578,1.105,414.567,1.132,414.806,1.118z
	 M408.627,0.696c0.388,0.059,0.829,0.109,1.292,0.155C409.539,0.762,408.765,0.622,408.627,0.696z M417.412,0.844
	c0.037-0.004,0.071-0.01,0.112-0.013C417.279,0.771,417.31,0.801,417.412,0.844z M417.412,0.844
	c-0.384,0.041-0.686,0.11-0.989,0.172c0.454-0.022,0.875-0.052,1.24-0.094C417.571,0.902,417.478,0.872,417.412,0.844z
	 M399.769,2.789c0.132-0.261,2.093-0.503,3.786-0.223c1.666-0.196,0.577-1.056-0.878-1.537c-0.052,0.114-0.052,0.219-1.766,0.374
	c0.6,0.143,3.804,0.334,2.358,0.57c-2.271,0.135-1.861-0.092-2.965-0.231c0.938,0.326-2.889,0.474-2.395,0.953l1.991-0.169
	C399.938,2.602,399.216,2.721,399.769,2.789z M405.944,1.057l0.705-0.032c-0.804-0.046-1.38-0.15-2.44-0.355
	c-1.174,0.128-1.417,0.225-1.498,0.312l3.474,0.036L405.944,1.057z M409.817,1.023c-0.551,0.285-2.245,0.405-1.207,0.713
	c2.07-0.02,1.451-0.238,2.688-0.361c-3.341,0.071,0.96-0.158-1.454-0.32c0.657-0.048,1.247-0.063,1.805-0.075
	c-0.602-0.034-1.182-0.077-1.728-0.13c0.03,0.006,0.052,0.011,0.077,0.018l0.016-0.001c0,0.002-0.003,0.003-0.003,0.004
	c0.144,0.035,0.191,0.057,0.029,0.036c-0.011,0.004-0.052,0.005-0.07,0.006c-0.023,0.04-0.084,0.074-0.151,0.107
	c-0.968-0.059-0.152-0.074,0.151-0.107c0.011-0.014,0.037-0.027,0.041-0.042c-0.003-0.002-0.008-0.003-0.012-0.004l-3.346,0.156
	C407.357,1.064,408.244,1.056,409.817,1.023z M426.611,2.45c-0.104-0.025-0.099-0.045-0.107-0.066
	C426.287,2.419,426.205,2.442,426.611,2.45z M425.234,2.278c0.244-0.04,0.446-0.153,1.237-0.124c0.686,0.085-0.003,0.136,0.033,0.23
	c0.477-0.075,1.668-0.204,0.173-0.342L426.44,2.08c-1.347-0.098-3.078-0.452-2.843-0.492C423.99,1.845,424.337,2.027,425.234,2.278z
	 M417.429,1.723l-2.787,0.14l1.419,0.246l-0.072-0.148C417.574,2.019,417.232,1.837,417.429,1.723z M402.212,0.837l0.37-0.3
	l-1.61,0.424L402.212,0.837z M398.59,0.873l0.134-0.261l-0.956,0.158L398.59,0.873z M194.224,4.114l-0.819,0.074
	C193.792,4.165,194.042,4.14,194.224,4.114z M200.152,4.132l0.145-0.129C200.023,4.074,199.911,4.126,200.152,4.132z M309.646,0.903
	c-1.193-0.244-2.525-0.622-2.381-0.328l0.366,0.286C308.464,0.809,309.103,0.841,309.646,0.903z M248.732,2.612
	c0.113,0.028,0.232,0.058,0.349,0.087c0.29-0.098,0.562-0.189,0.806-0.274C249.539,2.484,249.145,2.547,248.732,2.612z
	 M247.89,3.797l-1.572-0.185C246.671,3.677,247.177,3.739,247.89,3.797z M161.846,4.418l-0.956,0.292
	C162.385,4.708,161.727,4.561,161.846,4.418z M361.499,0.979c-1.029-0.112-1.848-0.159-2.568-0.173
	C360.171,0.97,361.171,1.217,361.499,0.979z M196.557,1.075c-0.501,0.052-0.715,0.11-0.7,0.174
	C196.372,1.2,196.664,1.146,196.557,1.075z M355.958,0.807c0.181,0.029,0.359,0.043,0.544,0.067c0.753-0.048,1.51-0.087,2.429-0.068
	C358.015,0.683,356.966,0.608,355.958,0.807z M44.419,4.18c-0.085-0.013-0.188-0.019-0.266-0.034
	C44.128,4.185,44.246,4.187,44.419,4.18z M10.209,1.291c0.337-0.018,0.886-0.018,1.404-0.022
	C11.361,1.249,10.938,1.251,10.209,1.291z M384.019,0.748C384.787,0.73,384.141,0.717,384.019,0.748L384.019,0.748z M387.754,1.881
	c-0.163,0.032-0.287,0.073-0.307,0.139C387.511,1.951,387.618,1.907,387.754,1.881z M348.307,2.589
	c-0.023,0-0.041-0.001-0.066-0.001C348.469,2.644,348.43,2.634,348.307,2.589z M385.174,0.879c-0.288-0.035-0.621-0.064-0.982-0.085
	C384.351,0.816,384.649,0.843,385.174,0.879z M385.019,0.743c0.265,0.013,0.473,0.02,0.671,0.028
	C385.787,0.723,385.701,0.693,385.019,0.743z M382.949,0.764c0.439-0.004,0.849,0.009,1.243,0.03
	c-0.151-0.019-0.214-0.036-0.173-0.045C383.794,0.753,383.476,0.759,382.949,0.764z M107.337,3.414
	c-0.051-0.009-0.109-0.015-0.165-0.027C106.398,3.506,106.738,3.487,107.337,3.414z M289.655,3.876
	c0.036-0.003,0.055-0.01,0.088-0.014c-0.036-0.003-0.081-0.007-0.113-0.01L289.655,3.876z M286.897,4.09
	c1.175-0.356,1.843-0.313,2.733-0.237l-0.913-0.826L286.897,4.09z M182.316,4.143c-2.542-0.378-4.935,0.098-6.311,0.332
	c-0.971-0.129,0.764-0.673-2.004-0.525c-3.909,0.175,0.741,0.654-1.607,0.76l-1.701-0.464c-2.998,0.355-5.238,0.037-7.767-0.021
	c-0.572,0.037-0.853,0.085-0.992,0.135c-2.691-0.201-5.64,0.453-7.67,0.301c0.475-0.095-1.159-0.292-1.404-0.404L149.2,4.544
	c1.62-0.122,1.549-0.389,1.845-0.648c-1.144,0.027-1.683,0.174-2.461,0.208c0.475-0.094,0.955-0.19,0.35-0.31l-3.842,0.441
	c0.227,0.045,0.668,0.062,1.038,0.074c-0.96,0.003-3.038,0.171-4.411-0.047c0.122-0.103,0.594-0.199,0.712-0.302
	c1.153,0.293,1.809,0.043,2.408-0.156c-2.651,0.045-0.661-0.068-1.936-0.257c-1.87,0.01-2.637,0.363-2.146,0.588
	c-2.112-0.102-2.784-0.171-4.939,0.098l0.409-0.362l-1.982,0.114l1.607-0.442c-3.801-0.247-0.699,0.621-4.92,0.417l-0.012-0.318
	c-1.624,0.122-2.182,0.659-3.443,0.278c-1.577,0.192,2.697,0.45-1.008,0.515c-0.653-0.164-2.059-0.285-3.124-0.349
	c-1.184,0.145,0.901,0.377,1.658,0.333c-5.592,0.15-3.47-1.088-8.464-0.669c1.712,0.228-1.428,0.616,2.621,0.606
	c-1.934,0.189-3.805-0.461-5.821-0.114l1.313-0.406c-0.725-0.008-1.542,0.14-1.936,0.189l0.164-0.313
	c-2.491,0.55-4.634-0.261-6.114,0.459c1.03-0.566-1.858,0.033-2.846-0.188c2.049-0.399,5.877,0.011,6.149-0.512
	c-0.955-0.158-1.808,0.098-2.729-0.056c0.644-0.077,1.582-0.216,1.827-0.321c-3.151-0.296-4.944,0.315-6.857,0.452l3.374-0.121
	c-0.273,0.522-1.518,0.089-2.465,0.499c-1.688-0.281-3.009,0.126-4.385-0.047c0.365,0.003,0.39-0.048,0.756-0.045
	c-3.678,0.013-4.702-0.839-6.164-0.854c-1.436-0.068-4.157,0.217-3.171,0.438c-1.177,0.145,4.885-0.156,2.784,0.521
	c-2.1-0.783-4.319,0.293-8.896-0.242c2.004-0.278-1.177-0.441,0.612-0.651c-2.181,0.063-2.262,0.18-3.233,0.402L80.862,3.2
	c-2.849,0.548-0.669,0.485-4.982,0.778c1.446-0.191-1.731-0.354-0.628-0.527c-1.195-0.017-2.362,0.057-3.236,0.204l0.159-0.035
	c-4.367,0.126-3.575-0.309-7.553-0.036l0.395,0.148C59.808,4.13,53.225,3.873,47.834,4.056l1.898,0.121
	c-0.577-0.075-3.633,0.234-5.312,0.004c0.337-0.014,0.916-0.08,1.23-0.061c-0.048-0.166-0.702-0.41-1.997-0.452L43.153,3.92
	L42.63,3.724c-1.975-0.004,0.58,0.362-1.396,0.358C40.083,3.359,32.73,3.986,31.027,3.35c-1.343,0.523,3.738,0.075,2.264,0.549
	c-0.601-0.078-0.872-0.176-2.156-0.218l0.442,0.313c-5.976-0.178-8.257-0.445-13.576-0.379l0.214-0.067
	c-1.894-0.122-2.915-0.065-3.761,0.206c-0.394-0.147,0.971-0.221,0.234-0.35c-3.338,0.802-6.668-0.588-8.702-0.028
	c0.266-0.632-4.093-1.235-2.277-1.727L2.344,1.723c0.45-0.417,4.29-0.01,5.076-0.447l4.314,0.437
	c-0.136-0.157,0.573-0.39-0.12-0.444c1.066-0.008,1.996-0.031,0.6-0.256c10.305,1.063,20.892,0.034,31.039,0.599
	c0.686-0.037,0.292-0.184,0.028-0.282c1.869,0.403,1.788-0.21,2.811-0.267l2.735,0.58c1.111-0.173,0.244-0.35,0.324-0.466
	c5.18-0.116,10.224,0.45,14.414,0.107c1.336,0.208-0.318,0.468,1.443,0.539c-2.391-0.599,5.131-0.281,3.607-0.703
	c1.705,0.636,6.34,0.136,5.569,1.02c2.11,0.052,1.746-0.376,1.138-0.455c2.446,0.034,4.421,0.038,6.422-0.239
	c1.34,0.207,11.179-0.22,13.362,0.446c-1.487-0.432,0.115-0.224,1.543-0.412l-1.289-0.381l3.223,0.041
	c0.657-0.036,0.841-0.02,0.838,0.014c0.546,0.019-0.13,0.22,1.258,0.316c2.193,0.024,2.3-0.185,3.507-0.382l-0.335-0.056
	l1.488-0.036c1.096,0.012-3.873,0.379-0.3,0.575c0.052-0.105,2.153-0.608,3.113-0.334c-1.825-0.02-1.595,0.245-0.924,0.358
	l2.558,0.028l-0.845-0.483c7.333,0.026,14.964,0.37,22.793,0.34c-0.107,0.423,5.543,0.022,4.837,0.643l-0.301-0.06
	c-1.923,0.061,0.558,0.49,2.122,0.421c-1.637-0.198,2.934-0.622-1.044-0.715l3.075-0.294c1.708-1.191,8.204,0.1,12.864-0.284
	c-0.329,0.046-0.415,0.11-0.455,0.147c4.142-0.382,9.288,0.322,10.248,0.131l0.368,0.327c3.541-0.502,3.961-0.545,8.184-0.342
	c-0.055,0.053-0.543,0.147,0.125,0.216c1.016-0.242,2.038-0.484,4.928-0.417l-0.118,0.103l4.522-0.054
	c-0.033,1.008,7.748-0.617,9.106,0.477c0.885-0.295,4.193-0.387,5.663-0.528c0.01,0.043,0.102,0.088,0.347,0.135
	c1.737-0.543,5.013,0.17,6.936,0.108c1.255-0.13,0.712-0.302,0.165-0.474c2.48,0.429,6.848-0.478,7.754-0.297
	c1.818,0.042,0.678,0.387,1.176,0.61c2.701-0.096-0.454-0.913,3.171-0.511c-0.421,0.044-1.2,0.08-0.898,0.139
	c1.385,0.085,3.86,1.244,5.238,1.011l-0.911-0.181c2.524-0.26,5.972,0.822,6.378,0.141l-0.237-0.316
	c4.35,0.419,1.844-0.124,6.253,0.243l-0.055,0.052c1.923-0.061,2.964,0.334,3.905-0.175l-0.661-0.069
	c2.385-0.04,2.599-0.002,5.027,0.023c0.285-0.049,1.459-0.124,1.798-0.017c0.11-0.422,5.64-0.195,6.722-0.169
	c-1.924,0.062-1.013,0.242-0.466,0.414c1.133-0.345,1.916-0.38,3.485-0.131c0.225-0.526,0.538-1.087,3.635-1.118
	c-0.48,0.079-1.232,0.124-0.924,0.232c0.316,0.109,1.035-0.01,1.279-0.05c0.309,0.108-0.687,0.192-0.34,0.375
	c2.093-0.503,3.616-0.036,6.647-0.214c-0.962,0.158-0.134,0.261,0.212,0.443c0.235-0.596,4.148,0.518,2.996-0.251
	c5.939,0.461,15.075,0.034,17.389,0.53c0.624,0.216,2.277-0.134,3.312-0.144l-0.141,0.261c2.894-0.474,2.252-0.176,5.655-0.654
	c-1.409,0.311-0.821,0.454,0.598,0.7l2.336-0.543l0.454,0.404c0.96-0.158,2.029-0.094,3.099-0.03
	c-0.518,0.005-0.235,0.039-0.203,0.112c0.511-0.561,4.689-0.495,5.336-0.762c1.044,0.547,2.797-0.139,3.562,0.374
	c0.343-0.077,0.786-0.14,1.269-0.192c-0.502-0.239-0.687-0.507,0.255-0.39c0.081-0.005,0.144-0.005,0.222-0.009l0.409,0.318
	c0.96-0.074,1.939-0.111,2.584-0.117c-0.292-0.027-0.628-0.087-0.978-0.159c0.412,0.047,0.793,0.107,1.163,0.158
	c0.131-0.001,0.258,0,0.344,0.004c-0.06,0.009-0.13,0.015-0.208,0.016c0.587,0.074,1.193,0.111,2.03,0.004
	c3.359,0.487,7.469-0.668,11.173,0.001c-0.556-0.068-1.343-0.098-1.554,0.015c3.1-0.03,6.179,0.423,8.139,0.18l-0.14-0.296
	c2.273-0.134,4.029-0.229,5.861-0.21l0.101-0.335c2.66,0.122,8.371-0.417,10.003,0.273c0.65-0.267,3.681,0.079,5.193-0.011
	l0.384,0.256c1.971,0.084,3.189-0.007,4.367-0.082c4.001,0.535,7.706,0.007,11.206,0.044l0.033,0.074l3.547-0.184
	c-0.929,0.232,0.699-0.16,1.765-0.096c1.129-0.125,2.961-0.059,4.293,0.108l2.262,0.013c-2.513,0.174,0.178,0.37,0.321,0.666
	l1.444-0.237c0.582,0.142-0.931,0.232,0.136,0.295c0.967-0.159,3.825-0.149,4.718-0.455c-0.141-0.074-0.488-0.145-0.916-0.203
	c-0.122,0.019-0.115,0.015-0.037-0.005c-0.036-0.005-0.063-0.011-0.099-0.016c0.047,0.004,0.066,0.006,0.121,0.01
	c0.122-0.029,0.313-0.079,0.394-0.118c1.798,0.066,1.138-0.056,1.075-0.189c2.041,0.463,3.182,0.15,4.744,0.693
	c-2.119-0.611,4.678-0.005,3.359-0.587c1.522,0.468,1.041,0.022,2.015,0.422c-2.141-0.128-4.272,0.302-5.995,0.505l1.694,0.28
	c-1.104,0.53-3.801-0.197-4.809-0.018c0.679-0.123,2.207-0.001,2.259,0.118l-0.454-0.405c-2.416-0.162-4.34,0.154-6.057,0.355
	c1.62,0.134-1.965,0.243-0.789,0.529l1.279-0.05c0.587,0.143-0.653,0.266-1.372,0.385c-4.044-0.294-11.452-0.037-12.899-0.355
	c0.827,0.103,2.344,0.013,3.067-0.105l-1.897-0.168c1.541-0.014,2.757,0.345,5.031,0.211c-0.383-0.256,1.266-0.607-0.461-0.962
	c-4.352-0.402-3.576,0.668-8.818,0.571c-0.484,0.079,1.096-0.419-1.694-0.281c-3.511,0.258-6.084,0.841-6.077,1.398
	c1.478-0.163,4.434-0.49,4.888-0.086c-1.476,0.163-4.025,0.263-4.155,0.524c-1.529-0.467,2.787-0.139,0.782-0.528
	c-1.036,0.011-1.48,0.163-1.963,0.243c0.69-0.194-0.931-0.326-1.24-0.434c-3.359-0.004-5.293-0.208-8.896-0.249
	c-0.191-0.068-0.587-0.217-0.483-0.331c-1.761,0.128-4.271,0.827-3.614,1.118c-2.064,0.02-2.174-0.201-3.932-0.073
	c2.805,0.418-0.55-0.07-0.849,0.38c-1.797,0.055-0.628-0.217-1.454-0.321c-0.299,0.048-1.015,0.198-1.062,0.319
	c-1.104-0.341,2.139-0.89,0.842-1.287c-0.899-0.25-4.757-0.7-5.033-0.734c-0.856,0.38-0.605,1.946,0.679,2.453
	c-0.136,0.263-1.7-0.28-2.487-0.309c-2.281-0.423-3.481,0.332-5.379,0.165l1.446-0.237c-0.313-0.108-3.107,0.031-3.549,0.183
	c-0.071-0.148,1.445-0.761,0.578-0.938c-3.41-0.078-6.644,0.738-6.432,1.181l5.227-0.46c0.184,0.37-3.711,0.371-3.496,0.815
	l-4.812-0.131c0.608-0.012,2.465-0.117,1.735-0.321c-2.067,0.02-1.071-0.064-2.451-0.237c2.37-0.468,6.71-1.672,8.257-2.244
	l-2.484,0.247l-0.621-0.217c-3.237,0.293-6.16,1.741-7.013,2.121c-1.861-0.093-1.21-0.884-0.767-1.037
	c-3.659-0.039-3.614,1.117-7.302,1.005l1.385,0.172c-0.871,0.074-4.034-0.085-3.695,0.06c-0.731-0.21-1.402-0.705-0.587-0.839
	l-3.267,0.742c0.48-0.079,0.166-0.712,0.37-0.825c-1.312-0.024-2.235,0.732-1.404,0.835c-2.562-0.458-1.926-0.208-4.004-0.745
	c-0.757,0.044,0.07,0.673,0.624,0.741c-1.712,0.17-2.717,0.09-3.529,0.021c2.829-0.272,0.771-1.421,1.307-1.903l-6.086,1.889
	c0.206-0.113,0.688-0.718,0.653-0.79c-0.509,0.561-7.481,0.635-10.893,0.557l0.513-0.005c0.69-0.193-2.244-0.35-3.444-0.152
	c0.203-0.113,0.48-0.079,0.994-0.084c-2.279-0.423-2.957,0.851-5.279,0.354c2.104,0.053,2.518-0.173,2.411-0.395
	c-1.725,0.203-5.721-0.018-4.884,0.643c-1.107-0.138-2.103-0.055-2.008-0.389l-4.239,0.394c0.316-0.068,0.588-0.263-0.652-0.308
	c2.377,0.088,4.677-0.529,5.928-0.096c0.062-0.409-0.831-0.627,0.306-0.973c-4.586,0.194-7.099,0.892-9.988,1.365l-4.038-0.295
	l-0.17,0.187l-0.702-0.471c-0.505,0.108-0.827,0.201-0.932,0.157c-0.092-0.042,0.035-0.104,0.234-0.174
	c-0.425,0.023-0.811,0.065-1.012,0.114c-0.159-0.247,0.555-0.531,1.317-0.788c0.363,0.088,0.736,0.177,1.112,0.26
	c0.791-0.236,1.363-0.48,0.259-0.636c-0.155,0.032-0.355,0.066-0.566,0.101c0.506-0.176,0.817-0.321,0.444-0.391l-3.087,0.227
	c0.352,0.064,0.875,0.198,1.488,0.351c-1.934,0.308-4.142,0.683-2.414,1l-2.352-0.277c-2.761,0.466-2.281,0.372-5.644,0.718
	c-0.185-0.163,0.711-0.302,0.107-0.422c-2.451,0.528-5.982-0.617-6.516-0.151c-1.98,0.115-0.825,0.406-2.084,0.537
	c0.06-0.052,0.178-0.156-0.188-0.164l-1.495,0.337c-0.605-0.121,1.376-0.234-0.31-0.379c-2.882,0.253-4.574,0.425-6.984,0.264
	c-3.429,0.08,1.469,0.671-1.428,0.604c-0.426-0.276-0.801-0.603-2.61-0.644c-0.955,0.19-0.827,0.405-2.45,0.527l0.102-0.422
	c-1.501,0.018-2.701,0.096-2.713-0.222c-1.229,0.18-2.075,0.148-2.717,0.081c-2.278,0.223,1.676,0.857,2.208,1.022
	c-2.241-0.317-3.787-0.133-5.065-0.641l1.982-0.114c-4.23-0.523-4.011,0.598-5.971-0.297c1.45,0.033,3.189-0.192,2.334-0.424
	l-2.099,0.217c-0.246-0.112,1.2-0.078,0.237-0.207c-0.598,0.093-1.824,0.31-2.365,0.451l0.028-0.026l-3.79,0.072
	c0.72,0.017,0.896-0.139,0.173-0.156l-2.485,0.222c0.76-0.106-0.018-0.237-1.133-0.305c-3.2-0.128-2.562,0.95-5.045,0.52
	c0.362,0.009,0.42-0.044,0.786-0.035l-1.277-0.189c-0.269,0.896-7.526,0.091-7.8,0.987c-1.819-0.362-0.127-0.216,2.211-0.639
	l-1.937-0.257C180.815,4.162,181.475,4.231,182.316,4.143z M206.892,4.076c0.41,0.188,1.529-0.018,2.09-0.085
	C208.025,3.886,207.531,3.711,206.892,4.076z M251.204,3.157c0.728,0.121,1.373,0.173,1.79,0.067
	C252.331,3.143,251.732,3.131,251.204,3.157z M375.54,1.023c0.019-0.006,0.036-0.01,0.06-0.015
	C374.732,0.948,374.288,0.899,375.54,1.023z M376.902,1.076c0.664,0.023,1.248,0.017,1.429-0.063
	c0.11,0.044,0.128,0.089-0.133,0.133C377.422,1.217,377.086,1.159,376.902,1.076z M99.639,1.354l-0.506-0.083
	C98.816,1.363,98.497,1.446,99.639,1.354z M248.004,3.66c-0.159-0.054-0.203-0.113-0.24-0.173
	C247.543,3.54,247.539,3.602,248.004,3.66z M162.022,4.364c-0.03-0.003-0.059-0.002-0.088-0.004
	c-0.048,0.019-0.074,0.038-0.089,0.057L162.022,4.364z M337.945,3.845c-0.535-0.046-0.833-0.104-1.032-0.164
	C336.884,3.759,337.127,3.825,337.945,3.845z M391.969,0.605l-1.665,0.083c0.805-0.016,1.093,0.054,1.499,0.104
	C391.766,0.717,391.449,0.61,391.969,0.605z M406.417,2.575c0.243-0.039,0.516-0.004,0.756-0.044l-0.066-0.148
	C406.07,2.393,405.346,2.512,406.417,2.575z M393.51,1.663c0.132,0.268,1.176,0.177,2.342,0.127c-0.07,0.001-0.137,0.003-0.206,0
	C395.99,1.415,394.747,1.539,393.51,1.663z M396.122,1.781c0.359-0.013,0.726-0.02,1.078-0.007
	C397.337,1.624,396.763,1.743,396.122,1.781z M381.494,0.968c0.553,0.069,0.347-0.343,0.66-0.233
	C382.772,0.394,378.468,1.147,381.494,0.968z M394.454,2.545l-0.418-0.331l-0.653,0.267L394.454,2.545z M385.247,2.302l1.863,0.092
	c-0.028-0.055,0.209-0.088,0.499-0.113C386.462,2.27,385.204,2.204,385.247,2.302z M387.61,2.281c0.598,0.006,1.167-0.001,1.5-0.055
	C388.786,2.23,388.09,2.241,387.61,2.281z M391.907,2.644l-0.551-0.069l-1.315-0.024L391.907,2.644z M365.219,2.238l-2.033,0.095
	c-0.207,0.113,0.347,0.183,1.104,0.138C364.777,2.392,365.531,2.348,365.219,2.238z M371.369,3.144
	c-0.55-0.069-0.587-0.142-0.897-0.251l-0.062,0.41L371.369,3.144z M365.439,3.24c-0.203,0.114-2.951,0.326-0.374,0.301
	C365.271,3.428,367.308,3.333,365.439,3.24z M334.801,2.721l0.517-0.005l-0.074-0.672L334.801,2.721z M307.797,4.329
	c2.409,0.161,0.572-0.415,2.749-0.214c0.566-0.159-1.78-0.164-1.2-0.301C307.892,3.982,307.129,3.887,307.797,4.329z M309.347,3.814
	c0.233-0.026,0.48-0.059,0.742-0.102C309.668,3.754,309.469,3.786,309.347,3.814z M4.533,0.93l-1.55-0.14l1,0.226L4.533,0.93z
	 M1.558,1.429L1.193,1L0.263,1.388C0.613,1.369,1.292,1.332,1.558,1.429z M213.286,4.854l0.118-0.103
	c-0.24-0.111-0.603-0.12-1.329-0.137L213.286,4.854z M192.272,4.533l0.362,0.009l-0.676-0.387L192.272,4.533z M174.635,5.027
	c0.72,0.016,1.566-0.07,2.289-0.054C175.355,5.043,174.44,4.544,174.635,5.027z"/>
</svg>
