<?xml version="1.0" encoding="utf-8"?>
<!-- Generator: Adobe Illustrator 23.0.6, SVG Export Plug-In . SVG Version: 6.00 Build 0)  -->
<svg version="1.1" id="Layer_1" xmlns="http://www.w3.org/2000/svg" xmlns:xlink="http://www.w3.org/1999/xlink" x="0px" y="0px"
	 width="251px" height="4px" viewBox="0 0 251 4" style="enable-background:new 0 0 251 4;" xml:space="preserve">
<style type="text/css">
	.st0{fill:#B1E8F4;}
</style>
<g>
	<g>
		<g>
			<g>
				<g>
					<path class="st0" d="M250.035,2.283c0.131-0.086,0.057-0.281-0.305-0.243l-0.258,0.331L250.035,2.283z"/>
					<path class="st0" d="M247.595,1.67c-0.426,0.16-0.918,0.442-0.642,0.746c0.422-0.318,0.525-0.185,0.979-0.564
						c0.363-0.039,0.633,0.106,0.572,0.228c0.128-0.085,0.564,0.073,0.759-0.135c-0.472-0.256-1.07-0.267-1.695-0.055
						C247.434,1.818,247.564,1.731,247.595,1.67z"/>
					<path class="st0" d="M212.142,1.154l0.228,0.039C212.308,1.172,212.23,1.16,212.142,1.154z"/>
					<path class="st0" d="M190.175,0.972c0.167-0.008,0.237-0.041,0.246-0.071C190.266,0.923,190.138,0.944,190.175,0.972z"/>
					<path class="st0" d="M186.425,0.608c0.081,0.01,0.148,0.015,0.221,0.022C186.562,0.6,186.477,0.583,186.425,0.608z"/>
					<path class="st0" d="M212.142,1.154l-0.587-0.104C211.514,1.158,211.856,1.13,212.142,1.154z"/>
					<path class="st0" d="M242.706,2.469c0.123-0.016,0.225-0.047,0.319-0.087c-0.101,0.014-0.198,0.026-0.299,0.035
						C242.72,2.434,242.715,2.45,242.706,2.469z"/>
					<path class="st0" d="M221.825,0.886l0.178-0.001c0.052-0.038,0.102-0.083,0.148-0.134L221.825,0.886z"/>
					<path class="st0" d="M229.257,0.835c-0.168-0.012-0.227,0.269-0.291,0.392c0.095-0.116,0.219-0.171,0.367-0.193
						C229.335,0.98,229.313,0.917,229.257,0.835z"/>
					<path class="st0" d="M241.041,1.329l0.209-0.039C241.195,1.303,241.104,1.314,241.041,1.329z"/>
					<path class="st0" d="M216.506,0.825c-0.013-0.042-0.039-0.079-0.068-0.1C216.438,0.76,216.465,0.793,216.506,0.825z"/>
					<path class="st0" d="M8.649,2.937c0.006-0.02-0.002-0.033,0-0.05C8.605,2.915,8.592,2.935,8.649,2.937z"/>
					<path class="st0" d="M0.035,1.545L0.154,1.53C0.167,1.477,0.18,1.424,0.18,1.372L0.035,1.545z"/>
					<path class="st0" d="M179.561,0.247c0.013,0.003,0.018,0.003,0.03,0.005C179.772,0.221,179.67,0.227,179.561,0.247z"/>
					<path class="st0" d="M116.551,0.455c0.714,0.251-1.162,0.323-0.087,0.602C116.364,0.947,117.441,0.618,116.551,0.455z"/>
					<path class="st0" d="M242.514,2.432c-0.1,0.003-0.202,0.006-0.305,0.003C242.348,2.444,242.441,2.443,242.514,2.432z"/>
					<path class="st0" d="M116.464,1.057c0,0.001,0,0.002,0,0.002l0.111,0.026C116.529,1.074,116.503,1.066,116.464,1.057z"/>
					<path class="st0" d="M163.746,0.417c0.032,0.049,0.095,0.087,0.161,0.123C163.902,0.511,163.866,0.475,163.746,0.417z"/>
					<path class="st0" d="M175.528,0.816l-0.292-0.038C175.352,0.804,175.446,0.813,175.528,0.816z"/>
					<path class="st0" d="M157.629,0.813c-0.159-0.022-0.212-0.06-0.429-0.022c0.02,0.014,0.04,0.024,0.066,0.034
						C157.344,0.787,157.449,0.768,157.629,0.813z"/>
					<path class="st0" d="M151.262,0.815c0.034,0.021,0.078,0.038,0.117,0.057c0.063-0.006,0.137-0.01,0.202-0.015L151.262,0.815z"
						/>
					<path class="st0" d="M27.999,2.802c-0.139-0.079-0.226-0.166-0.294-0.253C27.804,2.749,26.868,2.82,27.999,2.802z"/>
					<path class="st0" d="M242.703,2.31c-0.037,0.071-0.092,0.106-0.189,0.121c0.073-0.003,0.143-0.009,0.212-0.015
						C242.744,2.375,242.748,2.335,242.703,2.31z"/>
					<path class="st0" d="M157.37,3.031l-1.012-0.042C156.642,3.017,157.009,3.031,157.37,3.031z"/>
					<path class="st0" d="M73.678,2.762l-0.232,0.034C73.535,2.802,73.617,2.794,73.678,2.762z"/>
					<path class="st0" d="M153.357,3.031c-0.181-0.099-0.372-0.157-0.57-0.194c-0.042,0.022-0.09,0.04-0.117,0.073L153.357,3.031z"
						/>
					<path class="st0" d="M27.703,2.547c0.002,0.001,0.002,0.003,0.002,0.003S27.705,2.548,27.703,2.547z"/>
					<path class="st0" d="M21.04,3.214c0.964,0.008,0.453-0.362,0.657-0.574c1.151-0.105,0.532,0.272,0.924,0.461
						c0.718-0.098,1.269-0.437,1.805-0.423c0.04,0.061,0.144,0.083,0.022,0.159c0.76-0.294,2.255-0.014,3.139-0.383
						c0.066,0.033,0.099,0.064,0.116,0.092c-0.143-0.185-0.165-0.373-0.136-0.507c0.432-0.006,0.802-0.233,0.965,0.008
						c-0.265-0.007-0.287,0.09-0.411,0.166l0.453-0.105c0.408,0.347-0.618,0.12-0.618,0.377c0.883-0.113,1.912-0.4,2.588-0.302
						c0.141,0.34-1.582,0.114-0.679,0.416l-1.047-0.13c0.8,0.536-0.636-0.037,0.099,0.536c1.378,0.098,1.541-0.173,2.915-0.074
						c0.309-0.189-0.102-0.279,0.207-0.468c1.953-0.339,1.537,0.854,2.974,0.402c0.372-0.226,0.516-0.656,1.538-0.429L36.202,2.82
						c1.334,0.038,0.761-0.552,2.158-0.294c-0.248,0.151-1.048,0.127-0.846,0.173c0.905,0.303,0.64-0.218,1.336-0.218l0.144,0.34
						c1.42-0.053,2.984-0.299,4.557-0.361c-0.087,0.101-0.357,0.207,0.011,0.311c1.983-0.17,4.234,0.042,6.147,0.243l0.731-0.293
						c0.17,0.003,0.315,0.133,0.131,0.189c0.746,0.111,0.039-0.186,0.397-0.301c0.424-0.021,0.56,0.169,0.292,0.257
						c1.316-0.249,3.748-0.536,5.135-0.222l-0.27,0.087c1.08,0.119,1.218-0.602,2.219-0.328l-0.192,0.052
						c2.343,0.127,4.932-0.142,6.72,0.301c0.34-0.423,2.319,0.189,2.47-0.401c1.338,0.292,0.955,0.398,2.839,0.594
						c0.503,0.027,0.75-0.368,1.372-0.43l0.015,0.308l0.845-0.323l0.45,0.369l0.584-0.079c-0.233-0.018-0.494-0.138-0.459-0.227
						c0.911-0.14,2.222,0.215,2.244,0.372l2.156-0.261c-0.048,0.124-0.409,0.167-0.695,0.246c1.151-0.314,0.209,0.325,1.264,0.036
						c-0.141-0.07,0.076-0.184,0.1-0.246c0.526,0.186,1.723,0.188,2.608,0.109l-0.17,0.212c1.599,0.054,3.372-0.102,5.167-0.098
						c-0.644-0.099-0.496-0.467,0.03-0.503l0.211,0.326c0.34-0.202-0.55-0.123,0.148-0.37c0.671,0.038,0.451,0.37,0.066,0.477
						l0.815-0.113c0.048,0.097-0.143,0.148-0.193,0.272c0.334-0.202,1.407,0.327,1.89-0.024l0.046,0.097
						c1.794,0.003,2.608-0.109,4.07-0.126c0.029-0.281,0.6-0.219,1.036-0.446c1.074,0.09,2.266,0.311,3.561,0.287
						c0.91-0.14,0.266-0.238,0.675-0.405c0.067,0.256,1.36,0.232,0.689,0.416c1.553-0.042,1.984-0.051,3.949-0.259
						c-0.213-0.105-0.453-0.15-0.329-0.238c0.357-0.042,0.811,0.107,0.76,0.23l-0.094,0.027c2.205-0.384,5.09,0.747,6.846,0.213
						l-0.098,0.026l1.821-0.278c0.838,0.044-0.503,0.192,0.117,0.351c1.964-0.428,3.104,0.062,4.721-0.223
						c1.252,0.756,4.444-0.053,6.134,0.429l-0.098-0.178c0.437-0.174,0.528,0.102,0.85,0.143c-0.046-0.138-0.474-0.16-0.203-0.257
						c3.701-0.215,7.638,0.26,11.432,0.421c1.388,0.048,0.787-0.921,2.537-0.496l-0.497,0.33c2.8-0.396,5.726,0.014,8.467-0.323
						c-0.163,0.076-0.168,0.175-0.436,0.174c0.579,0.24,2.141,0.012,2.151-0.184c0.427,0.022,0.099,0.177,0.362,0.277
						c0.581,0.142,1.458-0.306,1.766-0.068c0.052,0.039-0.163,0.078-0.269,0.096c0.378-0.116,1.763,0.03,1.401-0.247
						c1.029,0.132,1.968-0.123,2.789,0.041c0.535-0.31,1.761,0.149,1.931-0.289C154.645,3,156.522,2.912,157.173,2.7
						c-0.218,0.137,0.566,0.142,0.31,0.331c0.742-0.006,1.423-0.09,1.293-0.323c1.368,0.541,2.749-0.436,3.519,0.258
						c2.205-0.243,4.246-0.408,6.23-0.513c-0.072,0.451-2.193,0.045-2.108,0.518c1.882-0.186,2.968-0.573,4.834-0.464
						c0.483,0.062-0.274,0.196-0.438,0.273c1.88-0.186,3.635,0.041,5.308-0.205c-0.005,0.042-0.185,0.088-0.356,0.122
						c0.33-0.015,0.767,0.066,0.73-0.139l-0.321,0.056c-0.526-0.298,1.309-0.622,1.368-0.779c-0.56,0.588,1.653,0.148,0.764,0.89
						c0.217-0.039,0.489-0.136,0.439-0.273c0.322,0.04,0.424,0.12,0.098,0.276c1.181-0.112,0.761-0.33,1.831-0.325
						c-0.004,0.099-0.22,0.138-0.33,0.254c0.542-0.193,1.086-0.387,1.99-0.303c-0.054,0.06,0.051,0.138-0.219,0.136
						c1.553-0.03,2.647-0.515,4.351-0.329c-0.503,0.431,0.579,0.142,0.67,0.515l0.916-0.111l-0.368-0.181
						c0.802,0.006,1.512-0.266,2.201-0.143l-0.596,0.154l1.504-0.071l-0.851-0.142c0.812-0.192-0.087-0.472,0.981-0.368
						c-0.217,0.038,0.803,0.005,1.221,0.225c0,0-0.003,0-0.003,0.001c0.397-0.119,0.805-0.244,1.399-0.151
						c0.154,0.119-0.124,0.413-0.024,0.492c0.392-0.312,1.879-0.086,2.375-0.419c-0.165,0.078-0.174,0.274-0.12,0.314l0.329-0.254
						c0.372,0.081,0.426,0.12,0.366,0.277c1.118,0.046-0.355-0.474,0.972-0.27c-0.104,0.021-0.054,0.059-0.271,0.097
						c1.333,0.106,2.575-0.161,3.8-0.036c0.361,0.376-1.07,0.092-0.656,0.409c1.766-0.068,3.657-0.45,5.365-0.362l-0.318-0.042
						c0.237-0.53,1.273,0.262,2.137,0.012c-0.212,0.039-0.277,0.294-0.22,0.235c1.17,0.085,2.393-0.13,4.166-0.297l-0.22,0.136
						c0.69,0.122,1.816,0.07,2.561,0.132c0.221-0.136,0.647-0.114,0.388-0.312c2.297,0.776,4.382-0.416,6.42,0.23
						c-0.244,0.001-0.581,0.119-0.387,0.12l1.736-0.126c-0.137-0.231-0.228-0.14-0.592-0.32c0.22-0.137,0.71-0.243,1.14-0.243
						c-0.781,0.153,0.007,0.371,0.344,0.5c-0.057-0.071,0.059-0.149,0.03-0.221c0.907,0.411,0.152-0.465,1.39-0.188l-0.066,0.121
						c0.463-0.062,0.89-0.222,1.39-0.188c0.207,0.267-0.493,0.125-0.525,0.345c0.702-0.015,1.385-0.506,2.02-0.24
						c-0.298,0.075-0.727,0.076-1.025,0.15c0.692,0.314,0.772,0.234,1.286,0.284l-0.051-0.007l1.188,0.142l-0.303-0.085
						c0.878-0.697,1.788-0.127,2.972-0.584c-1.15,0.432-0.19,0.25-0.278,0.553c0.302,0.084,0.761,0.178,0.631,0.264
						c0.559-0.244,0.934,0.193,1.723-0.165c0.035,0.098,0.598,0.01,0.472,0.254c0.727-0.077-0.172-0.17-0.111-0.292
						c1.121-0.333,2.634,0.404,4.246-0.053c1.39-0.188,1.647-0.517,2.937-0.681c0.435,0.156-0.357,0.355-0.357,0.355
						c0.702,0.144,1.231,0.117,1.893,0.005c-0.134,0.085,0.004,0.157,0.206,0.267c0.531-0.026,0.355-0.355,1.056-0.211
						c-0.12,0.109-0.274,0.283-0.531,0.392c0.626-0.09,1.244-0.272,1.892-0.36c0.172,0.17-0.391,0.258-0.619,0.369
						c0.728-0.077,1.887-0.154,2.112-0.423l-0.467-0.096c0.265-0.013,0.136,0.231-0.059,0.28c-0.624,0.211-0.9-0.093-0.935-0.191
						l0.461-0.062c-0.474-0.572-1.853,0.092-2.782,0.059l0.387-0.416l-0.953,0.345c-0.203-0.108-0.341-0.341,0.117-0.403
						c-0.666-0.206-0.59,0.148-1.162-0.081c-0.063-0.036-0.035-0.056,0.024-0.072l-0.651,0.124c0.128-0.087-0.108-0.294,0.292-0.234
						c-1.168-0.24-1.883,0.312-2.323-0.003l0.098-0.026c-1.62,0.141-0.157,0.305-1.372,0.664l-0.818-0.753l-0.159,0.305
						c-0.167-0.011-0.498-0.034-0.437-0.156c-0.622,0.209,0.106,0.133-0.255,0.33c-0.805-0.278-2.219,0.13-2.4-0.356
						c-0.289,0.232,0.77,0.179-0.089,0.34c-0.245-0.523-0.993,0.09-1.728-0.15c0.226-0.27,0.922-0.127,0.187-0.368
						c-0.443,0.456-1.431-0.1-2.051-0.013c-0.029,0.363-1.348,0.152-2.389,0.273c0.066-0.122-1.958-0.2-2.926-0.331l0.029-0.061
						c-0.187,0.367-1.186,0.298-1.913,0.374c0.029-0.22,0.159-0.306,0.553-0.405l-0.683,0.002c-0.161,0.118-0.374,0.18-0.818,0.222
						l0.172-0.274c-0.91,0.015-1.832,0.323-3.002,0.14c-0.066,0.256,0.931,0.713-0.307,0.884c-0.046-0.138-0.092-0.375,0.232-0.432
						c-0.106,0.018-0.378,0.115-0.592,0.056l0.494-0.233c-0.533-0.102-0.279,0.195-0.705,0.173c0.008-0.198-0.315-0.141-0.254-0.298
						c0.109-0.019,0.372,0.081,0.535,0.004c-0.481-0.035-1.061-0.152-1.253-0.302c0.042,0.112,0,0.266-0.352,0.292
						c-0.91,0.014-0.311-0.237-0.842-0.339c-0.22,0.137-0.801-0.005-0.816,0.29c-0.266-0.001-0.315-0.139-0.418-0.219
						c-0.471,0.13-2.199,0.037-1.668,0.351l0.121,0.021c-0.023,0.006-0.049,0.006-0.077,0.013c0.004,0,0,0,0.004,0h-0.004
						c-1.543,0.293-3.205-0.167-4.736-0.041l0.002-0.099c-0.914,0.113-2.034,0.067-2.687,0.279c-0.27,0-0.638-0.18-0.522-0.298
						c-0.699,0.074-0.777,0.185-1.786,0.022c0.702-0.172-0.242-0.153,0.72-0.126c-0.908-0.085-1.113-0.243-2.088,0.027
						c0.332-0.253-0.683-0.319-1.115-0.243l0.636,0.181c-0.485,0.037-0.909,0.014-1.34-0.007l0.233-0.333
						c-1.858-0.405-3.35,0.689-4.764,0.011c-0.491,0.233,1.009,0.164,0.569,0.436c-0.854-0.045-1.745-0.522-2.012-0.523
						c-1.17-0.184-1.092,0.486-2.317,0.36c0.157,0.118,0.305,0.435-0.611,0.547c-0.855-0.044-1.051-0.498-0.511-0.593
						c0.205-0.01,0.304,0.028,0.295,0.068c0.276-0.043,0.639-0.094,0.3-0.223l-0.111,0.119c-0.424-0.121-1.601-0.108-1.324-0.303
						c-0.646,0.113-0.276,0.195,0.202,0.256c-1.097-0.172-1.713-0.005-2.842-0.121c0.18,0.065,0.345,0.205,0.166,0.204
						c-1.656-0.147-0.729,0.225-1.851,0.277c-0.637-0.181,0.228-0.432-0.901-0.28c-0.69-0.122-0.146-0.315,0.128-0.412
						c-1.029,0.229-1.922-0.15-2.51-0.192l0.542-0.096c-0.324,0.057-0.59,0.055-0.86,0.055l0.309,0.237
						c-0.318-0.042-0.588-0.042-0.582-0.141c-0.328,0.155,0.251,0.395-0.4,0.607c-0.424-0.121-1.292,0.129-1.438-0.185
						c1.334,0.107-0.147-0.316,0.982-0.367c-0.218,0.038-0.484,0.036-0.803-0.006c-0.048-0.035,0.045-0.065,0.132-0.083
						c-1.277-0.281-0.587,0.356-1.91,0.349c0.168-0.178-0.307-0.337-0.523-0.299c0.533,0.004,0.255,0.296-0.234,0.432
						c-0.848-0.138-0.922,0.103-1.366,0.087l0.507,0.065c-0.172,0.178-0.596,0.154-1.188,0.21c-0.051-0.138,0.537-0.095,0.326-0.156
						c-0.657,0.312-1.484-0.323-2.399-0.113c-0.424-0.12-0.041-0.333-0.414-0.415c-1.026,0.23-1.111-0.243-2.19-0.053
						c0.311,0.238,0.365,0.18-0.394,0.413L171.55,0.6l-1.138,0.347c0.535,0.003,1.129-0.15,1.45-0.109
						c-0.542,0.195-0.486,0.135-0.23,0.333c-0.732-0.358-1.452,0.208-2.298-0.033l0.026-0.591c-1.273-0.263-2.261,0.303-3.914,0.155
						l0.531,0.103c-0.222,0.235-1.02,0.033-1.555,0.128c0.05-0.198-0.285-0.269-0.513-0.392c0.028,0.147-1.21-0.013-1.36,0.381
						l-0.738-0.26c-1.334-0.107-1.523,0.562-2.805,0.495c0.386-0.215-0.197-0.354,0.663-0.508c-0.428-0.002-0.813-0.038-0.82,0.099
						c-0.25-0.124-1.188,0.266-1.581,0.079c-0.181,0.087-0.24,0.294-0.72,0.277c-0.052-0.04,0.002-0.097,0.002-0.097
						c-0.002,0.097-0.753,0.133-0.333,0.351c-1.319-0.616-3.687,0.045-4.836-0.484c-0.935,0.066-2.061,0.13-2.909,0.144
						c0.054-0.059,0.003-0.098,0.163-0.078c-1.17-0.184-0.72,0.567-2.051,0.362c-0.68-0.319,0.707-0.173,0.283-0.293
						c-0.185-0.65-1.607,0.089-2.504-0.291l0.217-0.038c-0.685-0.221-1.672,0.246-2.791,0.2c0,0,0.054-0.057,0.007-0.098
						c-0.765,0.331-2.215,0.441-3.291,0.533c0.335-0.254,0.489-0.135,0.285-0.393c-0.483,0.037,0.141,0.415-0.822,0.487
						c-0.313-0.139-1.008-0.261-1.101-0.536l0.909-0.015c-0.466-0.357-1.176,0.012-1.655-0.05l0.061-0.156
						c-1.393,0.051-1.412,0.443-2.909,0.415l0.155,0.118c-0.818,0.389-0.686-0.219-1.502,0.07l-0.247-0.395
						c-0.54,0.095-1.891,0.382-2.859,0.456c0.548-0.293,1.681-0.442,2.382-0.616c-0.535-0.003-1.818,0.029-2.097,0.224
						c0.216-0.038,0.487-0.135,0.7-0.074c-0.656,0.31-1.52,0.463-2.586,0.456c0.189-0.765-2.779-0.193-3.552-0.787
						c-1.886,0.283-3.742-0.121-5.939-0.076c0.779,0.595-0.641,0.017-0.507,0.628c-0.512,0.039-0.707,0.029-0.753-0.01l-1.551-0.365
						c-0.368-0.178,0.487-0.135,0.44-0.272c-1.121-0.047-0.47-0.259-1.212-0.422c0.152,0.219-0.39,0.313-1.028,0.23l0.9,0.282
						c-1.566,0.325-1.354-0.513-2.932-0.191l0.499-0.192c-0.81,0.114-2.988-0.004-3.782,0.487c-0.143-0.071-0.333-0.238,0.024-0.282
						c-1.936-0.074-4.309,0.523-5.814,0.22l0.147-0.149c-0.361,0.043-0.629,0.281-1.081,0.13c0.023-0.062,0.146-0.149-0.022-0.158
						c-0.191,0.052-0.959,0.262-1.438,0.175l0.409-0.168c-1.888-0.196-2.898,0.41-4.481,0.512c0.004-0.44-1.482-0.583-2.223-0.654
						l0.026-0.062c-2.199-0.054-3.735,0.365-5.771,0.538c-1.264-0.478-4.281-0.2-6.313-0.468c0.311,0.08-0.051,0.343-0.412,0.387
						c-0.477-0.089-1.318,0.305-1.242-0.098l0.17,0.008c-0.359-0.396-1.339-0.29-2.104-0.302l-0.126,0.528
						c-2.001-0.768-5.242,0.282-6.335-0.406c-0.483,0.132-1.081,0.13-1.56,0.262l0.026-0.283c-1.338-0.072-2.006-0.108-3.659-0.04
						l0.337-0.202c-0.933-0.018-1.178,0.816-2.038,0.833l-0.259-0.423c-1.627,0.007-3.274-0.365-4.882,0.019
						c0.026-0.062,0.074-0.184,0.338-0.201c-0.766-0.011-2.963-0.286-2.685,0.294c-0.019-0.378-1.679-0.037-2.558,0.13l0.137-0.279
						c-0.742,0.356-0.766,0.453-1.801,0.552c-0.246-0.036-0.215-0.223,0.111-0.152c-0.818-0.146-0.637,0.264-1.629,0.116l0.37-0.178
						c-0.842-0.022-0.775,0.074-1.238,0.281c-0.529,0.112-1.596-0.07-1.721-0.322c-0.113,0.154-0.574,0.359-1.07,0.286
						c-0.067-0.095,0.114-0.154,0.204-0.183c-1.407-0.19-2.092,0.324-3.06,0.05c-0.02-0.092-0.083-0.138-0.163-0.166
						c1.118,0.007,2.018,0.022,1.934,0.042c0-0.257-0.903-0.302-0.185-0.657c-0.725,0.194-1.964,0.615-2.845,0.494
						c-0.043-0.025-0.084-0.049-0.116-0.089l0.091-0.029c-0.203-0.026-0.385-0.002-0.556,0.041
						c-0.281-0.042-0.459-0.073-0.729-0.077c-0.104-0.212-1.035-0.115-1.486-0.125c0.037,0.281-0.552,0.236,0,0.468
						c-0.072-0.02,0.085-0.034,0.385-0.045c0.068-0.008,0.147-0.013,0.192-0.029c-0.009,0.008-0.019,0.017-0.031,0.025
						c0.296-0.008,0.681-0.014,1.119-0.019c-0.356,0.143-0.727,0.263-1.225,0.107c-0.231,0.181-0.485,0.366-0.629,0.454
						c-0.616-0.392-1.804-0.604-1.969-0.846c-1.375,0.158-3.239,0.104-4.103,0.632c-0.391,0.068-0.45-0.151-0.596-0.234
						c0.226-0.053,0.494-0.045,0.616-0.121c-0.781,0.135-2.316,0.053-2.502,0.422c-0.985-0.167,0.554-0.34-0.8-0.279l0.183-0.113
						c-2.663-0.59-4.329,0.942-7.282,0.185c0.204,0.046,0.307,0.068,0.349,0.13C20.861,0.762,17.291,1.409,13.97,0.88
						c-0.944-0.107-1.046,0.129-1.623,0.308l-0.204-0.302l-0.985,0.348C9.761,1.489,8.738,0.493,6.97,0.975l0.228,0.203
						c-0.635-0.038-2.012,0.12-1.906-0.114C5.227,1.102,5.084,1.277,4.835,1.17L4.816,1.012l-1.56,0.271
						C2.046,1.169,3.445,0.656,1.68,0.625c-0.656,0.061-1.868,0.46-1.622,0.566c0.265,0.008,0.677,0.099,0.696,0.257l-0.6,0.082
						c-0.109,0.466-0.57,0.942,0.903,1.268l1.026-0.285l0.331,0.226L1.55,2.753c0.49,0.212,0.801,0.024,1.149-0.104
						c0.082,0.12,0.227,0.204,0.43,0.249l1.008-0.445c0.122,0.182-0.452,0.361,0.224,0.462C4.833,2.708,3.908,2.506,4.69,2.371
						c0.491,0.211,0.348,0.384,0.924,0.203c0.081,0.12-0.041,0.196-0.269,0.249c0.513-0.144,1.358-0.061,1.623-0.308
						c0.512,0.261,1.732-0.068,1.682,0.373c0.161-0.105,0.904-0.346,1.375-0.364C9.163,3.051,11.787,2.554,11.56,3.12
						c0.637-0.474,2.302-0.211,3.43-0.474c-0.063,0.038-0.187,0.114-0.287,0.09c0.635,0.039,0.82,0.182,1.228,0.272
						c0.082-0.392,1.071-0.481,1.604-0.723c0.779,0.378-0.473,0.46-0.228,0.823c-0.039-0.318,1.353-0.317,1.088-0.582
						c0.596,0.234,0.513,0.113,0.82,0.439c0.104-0.49,0.554-0.083,1.048-0.384c0.862,0.241,0.222,0.459,1.168,0.31
						C21.882,3.04,21.04,3.214,21.04,3.214z M43.554,2.367c0,0.003,0,0.005,0,0.006c-0.194,0.006-0.359,0.012-0.465,0.016
						C43.186,2.384,43.32,2.379,43.554,2.367z M45.446,2.362c-0.23-0.011-0.517-0.013-0.821-0.011
						c-0.066-0.097,0.005-0.197,0.196-0.192C44.717,2.225,45.163,2.28,45.446,2.362z M41.444,0.414
						c0.299-0.04,0.4,0.015,0.441,0.073c-0.141,0.005-0.307,0.014-0.524,0.034c-0.009,0.01-0.027,0.022-0.035,0.034
						C41.354,0.502,41.387,0.452,41.444,0.414z"/>
					<path class="st0" d="M40.905,0.783c-0.043,0.006-0.067,0.018-0.123,0.021c0.061,0.025,0.119,0.046,0.179,0.063
						c0.036-0.03,0.074-0.059,0.106-0.088C41.012,0.78,40.956,0.781,40.905,0.783z"/>
					<path class="st0" d="M212.41,1.2l-0.04-0.006c0.033,0.011,0.064,0.022,0.084,0.04C212.427,1.22,212.427,1.211,212.41,1.2z"/>
					<polygon class="st0" points="71.571,2.901 71.568,2.829 71.402,2.892 					"/>
					<path class="st0" d="M222.83,2.164c0.02,0.025,0.059,0.05,0.137,0.072C222.961,2.218,222.902,2.193,222.83,2.164z"/>
					<path class="st0" d="M227.332,2.228l0.637,0.1C227.693,2.271,227.492,2.244,227.332,2.228z"/>
					<path class="st0" d="M230.792,2.367c0.044-0.049,0.056-0.086,0.068-0.121c-0.003-0.001-0.005-0.001-0.007-0.002L230.792,2.367z
						"/>
					<path class="st0" d="M175.767,2.697c-0.046,0.001-0.092,0.005-0.133,0.013C175.32,2.764,175.533,2.743,175.767,2.697z"/>
					<path class="st0" d="M192.142,2.04c-0.174,0.051-0.345,0.101-0.526,0.133C191.907,2.195,192.133,2.2,192.142,2.04z"/>
					<path class="st0" d="M157.481,3.036c0.002-0.002,0-0.002,0.002-0.005c-0.039,0.001-0.074,0-0.113,0L157.481,3.036z"/>
					<path class="st0" d="M190.854,2.168c0.292,0.056,0.535,0.044,0.761,0.005C191.376,2.155,191.095,2.126,190.854,2.168z"/>
					<path class="st0" d="M245.792,2.495l0.167,0.012c-0.003-0.019,0.007-0.034,0.02-0.045L245.792,2.495z"/>
					<path class="st0" d="M245.979,2.461l0.185-0.033C246.079,2.428,246.005,2.43,245.979,2.461z"/>
					<path class="st0" d="M246.553,2.357l-0.39,0.071C246.299,2.428,246.465,2.437,246.553,2.357z"/>
					<path class="st0" d="M241.211,2.365l-0.052,0.102C241.187,2.445,241.205,2.412,241.211,2.365z"/>
					<path class="st0" d="M239.818,2.394c0.332,0.023,0.833,0.217,1.297,0.154l0.043-0.081
						C240.94,2.618,240.134,2.222,239.818,2.394z"/>
					<path class="st0" d="M234.007,1.134l1.167,0.081c-0.204-0.109-0.472-0.255,0.058-0.281
						C233.762,0.611,235.536,1.178,234.007,1.134z"/>
					<path class="st0" d="M230.39,0.977c0.627-0.051-0.007-0.158,0.026-0.219C230.018,0.856,229.922,0.881,230.39,0.977z"/>
					<path class="st0" d="M204.248,0.975l0.063-0.256C203.828,0.757,204.307,0.819,204.248,0.975z"/>
					<polygon class="st0" points="199.251,2.298 199.721,2.457 199.945,2.222 					"/>
					<polygon class="st0" points="196.299,0.475 196.51,0.439 195.704,0.532 					"/>
					<path class="st0" d="M152.395,0.566l0.146,0.315C152.867,0.825,152.936,0.471,152.395,0.566z"/>
					<path class="st0" d="M133.441,0.887c-0.206-0.158-0.74-0.259-1.068-0.104C132.799,0.805,133.224,0.928,133.441,0.887z"/>
					<polygon class="st0" points="76.597,0.374 76.979,0.268 76.26,0.356 					"/>
				</g>
			</g>
		</g>
	</g>
</g>
</svg>
