<?xml version="1.0" encoding="utf-8"?>
<!-- Generator: Adobe Illustrator 23.0.6, SVG Export Plug-In . SVG Version: 6.00 Build 0)  -->
<svg version="1.1" id="Layer_1" xmlns="http://www.w3.org/2000/svg" xmlns:xlink="http://www.w3.org/1999/xlink" x="0px" y="0px"
	 width="59.578px" height="60.756px" viewBox="0 0 59.578 60.756" style="enable-background:new 0 0 59.578 60.756;"
	 xml:space="preserve">
<style type="text/css">
	.st0{fill:#FFFFFF;}
</style>
<path class="st0" d="M45.882,16.766l-0.004-0.076c0.038,0.001,0.072,0.008,0.106,0.018c0.037,0.012,0.075,0.037,0.112,0.06
	l-0.064,0.072l-0.025-0.037l-0.046,0.024l-0.055,0.087l0.015-0.187L45.882,16.766z M44.827,22.325v-0.008l-0.013-0.023
	c-0.001-0.001-0.001-0.001-0.001-0.002c-0.011,0.019-0.01,0.022-0.007,0.027l0.01,0.013L44.827,22.325z M46.148,16.852l0.011,0.001
	l-0.011-0.031h0.001l0.018-0.008c-0.005-0.004-0.009-0.01-0.014-0.013l-0.019,0.056c0.005,0.001,0.008,0.008,0.013,0.01
	L46.148,16.852z M44.827,22.342l-0.002,0.002l0.002,0.002V22.342z M46.512,17.655h0.004c-0.002-0.001-0.002-0.001-0.003-0.002
	L46.512,17.655z M46.447,17.199c-0.013,0.012-0.028,0.023-0.042,0.032l0.057,0.014C46.457,17.231,46.453,17.213,46.447,17.199z
	 M44.884,22.424c-0.001,0-0.001-0.001-0.002-0.003l-0.016-0.03l-0.039,0.039l-0.001-0.054l-0.034,0.015l-0.016,0.024l0.038,0.023
	L44.884,22.424z M46.178,17.041l0.007,0.005l0.071-0.008l0.051,0.051c0.005-0.002,0.008-0.005,0.015-0.007l0.056-0.015
	c-0.041-0.068-0.084-0.127-0.133-0.177l-0.003,0.019l-0.028,0.036l-0.03,0.001c-0.005,0.014-0.012,0.027-0.016,0.034l-0.035,0.059
	C46.149,17.041,46.164,17.033,46.178,17.041z M46.431,18.066c-0.011-0.004-0.021-0.008-0.032-0.012
	c0.007,0.007,0.013,0.014,0.02,0.022C46.423,18.072,46.427,18.069,46.431,18.066z M45.374,17.206
	c-0.006,0.003-0.011,0.006-0.017,0.009l-0.003,0.009l0.017,0.004C45.374,17.22,45.374,17.212,45.374,17.206z M45.869,16.689H45.85
	c0.002,0.005,0.003,0.01,0.006,0.015L45.869,16.689z M46.484,17.825c0.001,0.002,0.002,0.003,0.004,0.004l0.003,0.001
	c0-0.002,0-0.005,0-0.007h-0.009L46.484,17.825z M46.153,17.927c0.006-0.007,0.013-0.014,0.021-0.02l-0.033,0.011L46.153,17.927z
	 M45.002,18.865c0.023,0.047-0.004,0.091-0.024,0.127c-0.022,0.036-0.026,0.049-0.021,0.055l0.254,0.269l-0.249-0.149
	c-0.006,0.026-0.018,0.049-0.026,0.066l0.119,0.048l-0.112,0.023c0.022,0.026,0.027,0.055,0.016,0.101
	c0.012,0.007,0.023,0.015,0.029,0.027c0.01,0.016,0.012,0.036,0.006,0.056l-0.004,0.012l0.019,0.044l-0.031,0.015
	c0.005,0.006,0.009,0.013,0.012,0.022c0,0.001,0.001,0.002,0.001,0.003l0.144-0.078l-0.04,0.063
	c0.005,0.001,0.012,0.003,0.019,0.007l0.041,0.025l-0.014,0.03c0,0.019-0.006,0.043-0.013,0.068l-0.01,0.021
	c-0.003,0.006-0.006,0.012-0.009,0.023c-0.004,0.011-0.021,0.067-0.04,0.133l-0.002,0.065c0.005-0.005,0.01-0.009,0.016-0.012
	c0.003-0.01,0.006-0.019,0.012-0.028c0.006-0.049,0.02-0.112,0.074-0.123c-0.015-0.184-0.013-0.213-0.006-0.232l0.011-0.028
	l-0.012-0.022l0.017,0.011l0.049-0.127l0.013-0.158l0.065,0.353l0.014,0.008c0.007,0,0.024-0.017,0.031-0.024
	c0.034-0.035,0.078-0.082,0.134-0.09c0-0.014,0.003-0.028,0.012-0.041l0.011-0.016v-0.004c0.001-0.01,0.002-0.021-0.012-0.065
	l0.057-0.024l-0.09-0.163l0.161,0.1c-0.005-0.023-0.004-0.043-0.004-0.059c0.001-0.007,0.001-0.018,0-0.021l-0.162-0.19l0.166,0.082
	l0-0.001l-0.019-0.01c-0.036-0.022-0.048-0.048-0.036-0.077c0.018-0.044,0.063-0.034,0.11-0.023
	c0.011,0.002,0.023,0.005,0.034,0.007l-0.006-0.024l0.045-0.004l0.014-0.014c-0.001-0.005-0.001-0.009-0.002-0.013
	c-0.004-0.035-0.009-0.082,0.023-0.116c0.017-0.018,0.039-0.027,0.067-0.029l-0.008-0.036l0.033,0.034
	c0.006-0.004,0.012-0.007,0.018-0.011l-0.025-0.012l-0.002-0.029c-0.003-0.032-0.005-0.064,0.001-0.094l-0.086-0.049l0.062-0.047
	c0-0.002,0.003-0.02,0.006-0.031c0.007-0.034,0.017-0.083,0.059-0.109c0.014-0.009,0.03-0.014,0.047-0.016
	c0.008-0.015,0.023-0.026,0.032-0.034c0.002-0.002,0.005-0.004,0.007-0.006l-0.006-0.063l0.033,0.01l0.02-0.027
	c0.001-0.005-0.006-0.014-0.005-0.018c0.008-0.021,0.022-0.019,0.037-0.027l0.004-0.004c0.013-0.019,0.036-0.029,0.062-0.039
	c-0.001-0.027-0.003-0.059,0.013-0.089l0.001-0.001l-0.006-0.026c-0.008-0.012-0.013-0.026-0.012-0.041
	c-0.003-0.01-0.004-0.021-0.003-0.032l-0.009-0.044l-0.043,0.014l0.083-0.083c0.001-0.009,0.003-0.014,0.005-0.019L45.869,17.8
	l0.312-0.056l-0.001-0.002v-0.002l-0.005,0.002l0.005-0.004l-0.001-0.019v-0.055l-0.076-0.029l-0.085,0.058l0.049-0.063
	l-0.136,0.007l0.095-0.031l-0.075-0.028h0.158l0.019-0.024l-0.002-0.001l0.004-0.002l0.019-0.024l-0.014,0.001l0.022-0.022l-0.005,0
	c-0.049-0.005-0.084-0.008-0.107-0.033l-0.087-0.095l0.129,0.01c0.002-0.001,0.005-0.002,0.007-0.003l-0.008-0.064l0.033-0.003
	l-0.002-0.004l-0.018-0.013l0.012,0.001l-0.002-0.005l-0.097-0.01l0.035-0.02l-0.008-0.002l-0.002,0.001
	c-0.004,0-0.008-0.001-0.013-0.001l-0.208-0.027l-0.037,0.083l0.012-0.123h-0.124l0.127-0.03l0.006-0.067l-0.02,0.016l0.022-0.035
	l0.008-0.088L45.795,17c-0.001-0.003-0.003-0.006-0.006-0.012l-0.015-0.018l0.002-0.015l-0.003-0.003l-0.011,0.006
	c0.003-0.002,0.006-0.005,0.009-0.008l-0.003-0.001l-0.048,0.056c-0.035-0.026-0.094-0.052-0.172,0.033
	c-0.013,0.015-0.025,0.03-0.038,0.044c-0.034,0.043-0.073,0.089-0.133,0.122c0.002,0.003,0.005,0.006,0.007,0.009
	c0.019,0.022,0.037,0.042,0.035,0.07l-0.003,0.062l-0.05-0.013c-0.018,0.043-0.054,0.071-0.087,0.095
	c-0.049,0.036-0.051,0.044-0.046,0.059l0.019,0.062l-0.064,0.005h-0.003l-0.011,0.094c-0.008,0-0.016-0.002-0.024-0.002
	c-0.016,0-0.022,0.006-0.032,0.014c-0.013,0.011-0.026,0.02-0.04,0.026l-0.004,0.006c-0.018,0.034-0.02,0.044,0.001,0.071
	l0.048,0.063l-0.064,0.015c-0.003,0.009-0.005,0.023-0.009,0.034c-0.008,0.034-0.02,0.084-0.05,0.123l0.104-0.007l-0.038,0.103
	l0.037,0.021l-0.045,0.017c-0.002,0.006-0.005,0.01-0.008,0.014l0.013,0.086l-0.014,0.036l-0.022,0.006l-0.004,0.02
	c-0.011,0.052-0.03,0.103-0.049,0.154c-0.029,0.077-0.059,0.157-0.059,0.238l0.001,0.054l-0.05-0.003
	c-0.003,0.009-0.007,0.02-0.012,0.03l0.03,0.031C44.931,18.807,44.982,18.823,45.002,18.865z M46.008,17.079l0.042,0.001
	c0.005,0.002,0.008,0.002,0.008,0.002l0.001,0c0.006-0.011,0.009-0.024,0.02-0.031l-0.004-0.072
	c-0.025-0.003-0.046-0.003-0.059-0.004l-0.051-0.008L45.91,17.01v0.004h-0.001c0,0.001-0.001,0.004-0.001,0.006L45.9,17.122
	l-0.02-0.035l-0.03,0.068l0.133-0.031L46.008,17.079z M45.911,17.198h-0.08l-0.009,0.021l0.032-0.002L45.911,17.198z M44.898,22.609
	c0.007,0.011,0.02,0.023,0.031,0.034c0.014,0.013,0.032,0.035,0.045,0.059l0.019-0.056l0.016,0.005
	c-0.022-0.038-0.044-0.076-0.064-0.115L44.898,22.609z M45.818,17.227l-0.001,0.004l0.007-0.003L45.818,17.227z M46.481,17.438
	l0.01,0.032c0.006-0.001,0.011-0.004,0.017-0.004l-0.016-0.046l0.027-0.006c-0.005-0.022-0.014-0.039-0.02-0.061l-0.051,0.052
	C46.461,17.414,46.475,17.417,46.481,17.438z M46.639,24.915l-0.002,0.009l0.011,0.001C46.645,24.922,46.642,24.917,46.639,24.915z
	 M46.654,24.93c-0.001-0.001-0.002-0.002-0.004-0.004l0.001,0.006C46.653,24.932,46.653,24.931,46.654,24.93z M46.094,24.245
	l-0.001-0.002l-0.001,0C46.092,24.244,46.093,24.244,46.094,24.245L46.094,24.245z M49.966,24.032l0.018,0.013
	c0.042-0.109,0.076-0.208,0.089-0.25c-0.013-0.014-0.036-0.026-0.067-0.034C49.995,23.851,49.982,23.942,49.966,24.032z
	 M46.193,24.463c-0.013-0.011-0.028-0.019-0.038-0.036c-0.005-0.008-0.01-0.017-0.016-0.025l-0.014-0.021l-0.011,0.049
	c0.019,0.014,0.045,0.023,0.077,0.033C46.192,24.463,46.193,24.463,46.193,24.463z M46.482,24.846
	c-0.012-0.02-0.017-0.042-0.021-0.061c-0.003-0.017-0.006-0.03-0.011-0.04c-0.007,0.004-0.015,0.008-0.022,0.011
	c-0.031,0.017-0.048,0.026-0.054,0.05c0.01,0.038,0.022,0.038,0.071,0.039C46.456,24.845,46.469,24.845,46.482,24.846z
	 M46.708,25.017l0.006-0.012L46.7,24.995c0,0,0,0.001,0,0.001c-0.001,0.011,0.003,0.018,0.006,0.021L46.708,25.017z M36.309,31.852
	l0.013-0.026l-0.009-0.009L36.309,31.852z M33.919,27.303l0.017,0.004l-0.007-0.008L33.919,27.303z M21.768,32.985
	c-0.678,0-1.23,0.23-1.655,0.69c-0.426,0.46-0.639,1.031-0.639,1.712c0,0.681,0.213,1.251,0.639,1.711
	c0.425,0.46,0.98,0.69,1.665,0.69c0.678,0,1.229-0.23,1.655-0.69c0.426-0.46,0.638-1.031,0.638-1.711
	c0-0.681-0.213-1.252-0.638-1.712C23.008,33.214,22.452,32.985,21.768,32.985z M56.214,28.836c0.041,0.016,0.093,0.017,0.143,0.018
	c0.029,0.496,0.047,0.995,0.047,1.498c0,0.486-0.015,0.969-0.042,1.449c0.007-0.026,0.016-0.052,0.023-0.077
	c0.077-0.28,0.138-0.498,0.185-0.183l-0.004-0.472c0.039,0.079,0.046,0.45,0.015,0.834c-0.028,0.384-0.057,0.782-0.02,0.923
	c0,0-0.009,0.093-0.036,0.231c-0.027,0.138-0.062,0.322-0.098,0.505c-0.035,0.183-0.07,0.366-0.097,0.503
	c-0.025,0.138-0.046,0.229-0.046,0.229c0.042-0.041,0.05,0.208,0.103-0.026c-0.063,0.364-0.115,0.682,0.019,0.214
	c-0.399,1.745-0.874,3.488-1.515,5.17c-0.639,1.679-1.447,3.297-2.458,4.731c-0.121,0.205-0.021,0.108,0.046,0.042
	c-0.418,0.498-0.311,0.536-0.501,0.837c0,0-0.163,0.174-0.326,0.349c-0.08,0.088-0.163,0.173-0.229,0.235
	c-0.064,0.062-0.107,0.104-0.107,0.104c-0.208,0.324,0.008,0.113,0.011,0.151c-1.08,1.441-2.391,2.609-3.43,3.617
	c-0.379,0.268,0.015-0.149-0.454,0.237c0.351-0.224,0.037,0.089-0.334,0.396c-0.372,0.306-0.777,0.631-0.541,0.504
	c-0.268,0.136-0.729,0.434-1.093,0.682c-0.367,0.244-0.668,0.394-0.605,0.244c-0.617,0.382-0.462,0.395-0.277,0.296
	c-0.353,0.232-0.689,0.412-0.999,0.599c-0.154,0.094-0.304,0.187-0.453,0.279c-0.151,0.087-0.299,0.176-0.446,0.268
	c-0.109,0.041-0.374,0.182-0.73,0.352c-0.362,0.158-0.803,0.38-1.269,0.564c-0.927,0.384-1.922,0.691-2.302,0.732
	c0.52-0.056-0.022,0.061-0.487,0.232l0.452-0.042c0,0-0.269,0.074-0.539,0.148c-0.134,0.037-0.269,0.074-0.37,0.102
	c-0.101,0.03-0.169,0.043-0.169,0.043c-0.22,0.059-0.283,0.07-0.284,0.062c-0.185,0.039,0.032-0.056-0.44,0.031
	c-0.369,0.086-0.562,0.135-0.714,0.175c-0.149,0.047-0.261,0.082-0.461,0.143l0.117-0.008l-0.507,0.098
	c-0.373,0.064,1.306-0.317,0.083-0.142c-0.012,0.037-0.718,0.24-1.056,0.221c0.628-0.075,0.54-0.123,0.307-0.118
	c0,0-0.219,0.026-0.439,0.052c-0.109,0.014-0.219,0.026-0.302,0.037c-0.082,0.01-0.137,0.011-0.137,0.011s0.076,0.023,0.151,0.039
	c0.076,0.017,0.151,0.034,0.151,0.034c-2.531,0.266-5.194,0.107-7.85-0.409c0.051-0.067-1.867-0.427-1.591-0.514l0.096,0.041
	c0.321,0.079,0.282,0.036,0.095-0.032c-0.185-0.077-0.512-0.19-0.772-0.256c0.529,0.196-1.011-0.146,0.302,0.249
	c0,0-0.26-0.057-0.519-0.115c-0.262-0.052-0.516-0.128-0.516-0.128c-0.319,0.028-1-0.192-1.766-0.54
	c-0.771-0.336-1.622-0.795-2.355-1.134c0.106,0.043,0.139,0.044,0.155,0.044c-1.32-0.583-2.726-1.702-3.005-1.875l-0.061-0.132
	c-0.536-0.302-0.811-0.507-1.114-0.725c-0.304-0.215-0.597-0.492-1.135-0.986c0.022,0.004,0.163,0.099-0.001-0.064
	c-0.15-0.095-0.292-0.202-0.491-0.365c-0.195-0.168-0.461-0.381-0.795-0.755l0.044,0.014c0,0-0.272-0.281-0.544-0.562
	c-0.266-0.287-0.521-0.584-0.521-0.584c0.044-0.034-0.051-0.171-0.218-0.367c-0.167-0.196-0.393-0.463-0.63-0.741
	c-0.244-0.272-0.472-0.578-0.653-0.839c-0.18-0.263-0.316-0.481-0.326-0.615c-0.109-0.111-0.322-0.404-0.546-0.721
	c-0.226-0.316-0.43-0.676-0.574-0.887c0.006-0.008-0.001-0.041-0.034-0.119c-0.404-0.466-0.775-1.554-1.047-2.157
	c-0.204-0.384-0.162-0.199-0.119-0.01c-0.145-0.406-0.364-0.956-0.595-1.432c-0.204-0.486-0.386-0.909-0.418-1.065
	c-0.18-0.606,0.012-0.25,0.008-0.429c-0.274-0.895-0.152,0.208-0.405-1.029c0.043,0.14,0.129,0.397,0.111,0.293
	c-0.064-0.232-0.064-0.578-0.084-0.915c-0.017-0.338-0.045-0.669-0.106-0.9l0.018,0.317c-0.106-0.422-0.155-0.938-0.19-1.36
	c-0.02-0.424-0.04-0.754-0.123-0.815l-0.058,0.09c-0.028-0.375-0.041-0.602-0.046-0.756C5.361,32.55,5.352,32.47,5.342,32.39
	c-0.01-0.08-0.021-0.161-0.031-0.317c-0.009-0.156-0.026-0.387-0.011-0.767l0.012,0.019c-0.03-0.663,0.042-1.02-0.053-1.345
	l-0.021,0.228c0.009-0.411,0.014-0.635,0.019-0.861c0.003-0.226,0.021-0.454,0.058-0.871c-0.003-0.099,0.011-0.505,0.043-0.62
	c-0.052-0.024,0.001-0.508,0.07-1.034c0.018-0.131,0.036-0.265,0.053-0.395c0.025-0.129,0.049-0.253,0.071-0.368
	c0.045-0.228,0.082-0.414,0.1-0.506c-0.103,0.657-0.009,0.353,0.061,0.175c-0.003-0.198,0.006-0.365,0.033-0.548
	c0.037-0.18,0.094-0.376,0.182-0.634c-0.048-0.051-0.095-0.11-0.101-0.287c-0.003-0.089,0.004-0.207,0.027-0.369
	c0.03-0.161,0.079-0.364,0.151-0.624c-0.029,0.166-0.091,0.419-0.039,0.322c0.053-0.099,0.096-0.346,0.111-0.43
	c0.052-0.097-0.025,0.24,0.047,0.136c0.045-0.365,0.126-0.668,0.252-1c0.12-0.334,0.253-0.705,0.431-1.201
	c-0.09,0.323,0.036,0.063,0.117-0.033c-0.046-0.062,0.112-0.385,0.244-0.655c0.138-0.266,0.258-0.474,0.097-0.326
	c0.448-0.927,1.057-2.08,1.645-3.065c0.315-0.479,0.588-0.939,0.856-1.289c0.263-0.354,0.473-0.63,0.615-0.773
	c0.17-0.14,0.462-0.635,0.681-0.918l0.014,0.074c0.28-0.415,0.405-0.565,0.539-0.736c0.066-0.086,0.136-0.175,0.235-0.302
	c0.101-0.124,0.231-0.285,0.418-0.515c-0.287,0.4-0.123,0.272,0.253-0.044c0,0,0.118-0.167,0.236-0.333
	c0.125-0.161,0.25-0.321,0.25-0.321l0.175-0.045c0.215-0.251,0.485-0.498,0.776-0.723c0.083-0.131,0.329-0.373,0.584-0.614
	c0.312-0.269,0.633-0.536,0.704-0.629c0.35-0.135,0.769-0.593,1.045-0.66c0.089-0.081,0.202-0.187,0.338-0.283
	c-0.176,0.051-0.262,0.037,0.027-0.119c0.024-0.016,0.041-0.028,0.064-0.043l0.158-0.019c0.272-0.191,0.55-0.387,0.744-0.501
	c-0.09,0.044-0.196,0.095-0.307,0.149c0.126-0.07,0.244-0.129,0.362-0.181c0.039-0.022,0.077-0.044,0.103-0.059
	c-0.017,0.012-0.038,0.026-0.061,0.039c0.185-0.088,0.371-0.185,0.611-0.351c0.993-0.437,2.092-1.198,3.266-1.548
	c-0.116,0.043-0.22,0.087-0.255,0.117c0.25-0.099,0.501-0.196,0.748-0.281c0.251-0.076,0.496-0.149,0.729-0.219
	c0.463-0.148,0.889-0.243,1.207-0.364l-0.064-0.049c0.188-0.06,0.364-0.12,0.535-0.171c0.172-0.045,0.337-0.089,0.497-0.131
	c0.322-0.078,0.622-0.168,0.937-0.215l0.02-0.078c0.229-0.034,0.523-0.089,0.843-0.151c0.32-0.062,0.672-0.103,1.011-0.153
	c0.339-0.053,0.669-0.081,0.951-0.088c0.281-0.01,0.513-0.007,0.656,0.02c0.111-0.044,0.433-0.044,0.79-0.045
	c0.358,0.001,0.752,0.003,1.016,0.003l0.133,0.059c0.342,0.018,0.618,0.025,0.861,0.026c0.242,0.01,0.45,0.018,0.654,0.027
	c0,0,0,0,0,0c0,0,0,0,0,0c0,0,0,0,0,0c0.69,0.096,1.348,0.198,1.992,0.265c0.638,0.104,1.262,0.17,1.851,0.324l0.007,0.019
	c0,0,0.302,0.059,0.605,0.119c0.299,0.073,0.599,0.146,0.599,0.146c-0.325-0.04,0.243,0.032,0.597,0.148
	c0.382,0.093,0.984,0.31,1.406,0.502l0.73,0.291c-0.826-0.285,0.028,0.098,0.049,0.176c0,0,0.121,0.034,0.242,0.068
	c0.119,0.04,0.238,0.079,0.238,0.079c0.172,0.111-0.313-0.086,0.017,0.078c0.159,0.053,0.464,0.182,0.768,0.306
	c0.302,0.128,0.595,0.269,0.749,0.307c-0.036-0.037-0.136-0.105-0.263-0.184c-0.04-0.016-0.037-0.015-0.011-0.007
	c-0.011-0.007-0.018-0.012-0.029-0.019c0.014,0.008,0.02,0.011,0.037,0.021c0.04,0.013,0.104,0.034,0.133,0.039
	c0.55,0.298,0.358,0.17,0.352,0.134c0.296,0.202,0.528,0.351,0.744,0.487c0.217,0.137,0.415,0.263,0.617,0.451
	c-0.551-0.507,1.368,0.873,1.051,0.522c0.376,0.387,0.293,0.213,0.52,0.479c-0.294-0.228-0.605-0.43-0.919-0.592
	c-0.312-0.166-0.604-0.326-0.875-0.453c0,0,0.122,0.082,0.235,0.177l0.229,0.183c-0.371-0.12-1.106-0.701-1.425-0.845
	c0.217,0.092,0.66,0.379,0.662,0.409l-0.091-0.155c-0.177-0.112-0.347-0.213-0.512-0.305c-0.169-0.085-0.333-0.16-0.49-0.231
	c-0.317-0.137-0.603-0.268-0.885-0.363c0.495,0.256-0.638-0.23-0.296-0.006l0.404,0.171c0.05,0.032,0.047,0.041,0.019,0.037
	c1.047,0.502,2.054,1.075,3.016,1.711l-0.241-0.168l0.22,0.072l0.079,0.134c0.329,0.218,0.653,0.445,0.971,0.678
	c0.138-0.001,0.949,0.588,0.761,0.364c0.14,0.129,0.175,0.182,0.253,0.26c0.079,0.077,0.204,0.177,0.507,0.424
	c0.411,0.288-0.395-0.472-0.549-0.613c0.49,0.337,0.496,0.332,0.527,0.322c0.293,0.382,0.447,0.74,0.1,0.514
	c0.188,0.164,0.375,0.33,0.558,0.499c-0.101-0.116,0.069,0.02,0.286,0.225l-0.005,0.036c4.17,3.939,7.003,9.271,7.772,15.251
	c-0.037,0.02-0.055,0.038-0.058,0.046l-0.014,0.044c-0.048,0.031-0.092,0.063-0.141,0.093l-0.012,0.006
	c-0.084,0.03-0.152,0.045-0.284,0.055l-0.023,0.008c-0.054,0.034-0.084,0.055-0.112,0.076l0.055-0.154l-0.176,0.153
	c-0.039,0.034-0.078,0.067-0.118,0.099c-0.072-0.031-0.146-0.03-0.217-0.012l0.001-0.016l-0.057,0.028
	c-0.005,0.002-0.01,0.001-0.015,0.004c-0.11-0.132-0.294-0.181-0.451-0.106c-0.04,0.017-0.065,0.019-0.213-0.024
	c-0.163-0.044-0.359-0.082-0.62-0.035c-0.058-0.112-0.167-0.19-0.293-0.204c-0.116-0.012-0.388-0.047-0.534,0.151
	c-0.124-0.044-0.25-0.103-0.381-0.162l-0.134-0.06c-0.242-0.123-0.468-0.057-0.619-0.014c-0.041,0.012-0.102,0.03-0.09,0.039
	c-0.036-0.017-0.121-0.101-0.179-0.157c-0.165-0.164-0.371-0.367-0.597-0.388c-0.288-0.083-0.516-0.128-0.712-0.154
	c-0.083-0.077-0.193-0.167-0.333-0.212l-0.087-0.027c-0.023-0.013-0.044-0.024-0.069-0.039c-0.012-0.007-0.025-0.015-0.037-0.024
	l0.064-0.033l-0.045-0.027c0.001-0.002,0.003-0.003,0.004-0.005c0.007-0.007,0.013-0.014,0.018-0.021
	c0.018-0.019,0.041-0.062,0.082-0.153c0.021-0.047,0.032-0.086,0.036-0.117c0.197-0.167,0.343-0.731,0.465-1.25l0.035-0.144
	l-0.063-0.028c0.056-0.249,0.075-0.499,0.083-0.794l0.002-0.067l-0.063,0.015c0-0.103,0.014-0.224,0.029-0.362
	c0.017-0.151,0.035-0.316,0.039-0.488l0.004,0.001c0.063-0.298,0.01-0.553-0.065-0.86c-0.07-0.217-0.226-0.381-0.439-0.462
	c-0.223-0.086-0.48-0.068-0.681,0.05c-0.147,0.129-0.22,0.253-0.268,0.361l-0.008-0.002l-0.002,0.008h-0.001
	c-0.006,0.021-0.015,0.047-0.017,0.064c-0.03,0.077-0.039,0.192-0.039,0.272h0c-0.006,0.045-0.017,0.092-0.027,0.135
	c-0.027,0.124-0.04,0.187,0,0.219c0.006,0.005,0.02,0.014,0.039,0.014c0.006,0,0.012-0.002,0.017-0.003
	c0.006,0.026,0.016,0.05,0.045,0.06c0.014,0.005,0.032,0.007,0.055-0.005c0.005,0.018,0.011,0.036,0.016,0.052
	c-0.038,0.063-0.03,0.143-0.022,0.221c0.008,0.084,0.017,0.164-0.028,0.217l-0.023,0.03l0.019,0.031
	c0.018,0.028,0.019,0.178,0.021,0.276c0.002,0.176,0.006,0.303,0.034,0.38l-0.008,0.031c-0.027,0.109-0.054,0.222-0.056,0.332
	l-0.094,0.043l0.004,0.036c0.006,0.054,0.012,0.113,0.017,0.171l-0.018-0.024l0.023,0.164c-0.019,0.033-0.034,0.057-0.045,0.075
	c0-0.009-0.001-0.019-0.001-0.03l-0.102-0.004c-0.022,0.23-0.044,0.32-0.064,0.401c-0.002,0.006-0.003,0.012-0.004,0.018
	c-0.064-0.018-0.129-0.037-0.191-0.023c-0.018,0.004-0.024,0.018-0.04,0.024c-0.077-0.036-0.157-0.059-0.238-0.059
	c-0.005-0.004-0.01-0.008-0.014-0.013c-0.004-0.004-0.008-0.008-0.013-0.012c-0.051-0.056-0.112-0.121-0.186-0.174
	c-0.053-0.053-0.106-0.108-0.159-0.163c-0.158-0.161-0.314-0.314-0.464-0.437c-0.054-0.073-0.109-0.147-0.156-0.221l-0.079-0.124
	l-0.009,0.086c-0.007-0.013-0.014-0.026-0.02-0.038c-0.053-0.1-0.107-0.202-0.173-0.226c0-0.005-0.001-0.01-0.002-0.013l0.046-0.048
	c-0.118-0.131-0.192-0.247-0.256-0.351c-0.062-0.097-0.117-0.184-0.196-0.265l0.245,0.224l-0.243-0.36
	c-0.208-0.308-0.338-0.341-0.452-0.321c-0.056-0.154-0.104-0.237-0.185-0.317l0.047-0.024c-0.031-0.064-0.127-0.264-0.212-0.446
	c-0.055-0.108-0.083-0.157-0.112-0.195c-0.02-0.028-0.04-0.049-0.058-0.063c0.002-0.003,0.004-0.005,0.006-0.009
	c0.013-0.019,0.03-0.045,0.039-0.068l0.405-0.473l-0.04-0.039c0.02-0.045,0.06-0.084,0.123-0.143
	c0.032-0.031,0.068-0.064,0.105-0.105l0.001,0.001l0.063-0.06c0.235-0.223,0.267-0.272,0.305-0.335
	c0.032-0.051,0.069-0.109,0.268-0.313l0.071-0.074l-0.131-0.017c0.017-0.043,0.096-0.133,0.15-0.197
	c0.118-0.135,0.266-0.303,0.323-0.489l0.022-0.071c0.035-0.038,0.076-0.077,0.114-0.116c0.039-0.039,0.079-0.078,0.115-0.117
	l-0.075,0.329l0.192-0.386c0.107-0.216,0.117-0.268,0.099-0.31c-0.015-0.032-0.044-0.04-0.064-0.044
	c-0.001-0.001-0.011-0.02,0.004-0.105c0.018,0.007,0.042,0.014,0.068,0.001c0.039-0.02,0.062-0.07,0.083-0.182
	c0.041-0.091,0.014-0.348-0.029-0.548c-0.025-0.124-0.06-0.248-0.094-0.368c-0.032-0.11-0.061-0.215-0.081-0.306l-0.093,0.009
	c-0.002-0.002-0.003-0.005-0.005-0.008c-0.018-0.038-0.038-0.081-0.057-0.128c-0.048-0.113-0.104-0.24-0.182-0.362
	c-0.088-0.141-0.195-0.238-0.302-0.303l0.006-0.006l-0.007-0.054l-0.019-0.013c-0.08-0.051-0.113-0.052-0.132-0.049
	c-0.154-0.085-0.305-0.15-0.436-0.18c-0.159-0.035-0.314-0.044-0.405-0.021c-0.152-0.124-0.547-0.035-0.8,0.135
	c-0.111,0.068-0.207,0.145-0.284,0.207c-0.066,0.053-0.149,0.119-0.169,0.121l-0.036-0.04l-0.038,0.037
	c-0.136,0.133-0.258,0.281-0.364,0.441l-0.008-0.026l-0.059,0.094c-0.194,0.305-0.226,0.478-0.236,0.611l-0.009-0.015L43.88,17.32
	c-0.223,0.559-0.216,0.661-0.18,1.134l-0.068,0.048l0.004,0.03c0.004,0.027-0.003,0.102-0.01,0.189
	c-0.023,0.274-0.064,0.772,0.061,1.193l-0.019,0.006c0.049,0.169,0.089,0.365,0.127,0.553c0.033,0.16,0.066,0.327,0.106,0.479
	l0.037,0.146l0.007,0.02c0.002,0.007,0.007,0.017,0.007,0.017l-0.007,0.014c-0.033,0.067-0.032,0.122-0.021,0.195l-0.192,0.355
	l0.085,0.056c0.021-0.027,0.039-0.049,0.054-0.066c-0.001,0.017,0,0.034,0.006,0.047c-0.021,0.027-0.044,0.052-0.065,0.075
	c-0.016-0.026-0.039-0.033-0.051-0.035c-0.074-0.015-0.143,0.075-0.302,0.287c-0.049,0.065-0.119,0.159-0.156,0.194l-0.02-0.021
	l-0.036,0.05c-0.591,0.882-1.177,1.834-1.279,2.93l-0.014,0.146l0.013-0.014c-0.025,0.093-0.008,0.224,0.017,0.323
	c-0.006-0.001-0.013-0.001-0.021,0c-0.049,0.009-0.044,0.06-0.042,0.077c0.005,0.08,0.013,0.157,0.025,0.229l0.064,0.396
	l0.023-0.244c0.026,0.063,0.055,0.14,0.097,0.298c0.021,0.087,0.016,0.107,0.015,0.109c-0.017,0.022-0.021,0.044-0.013,0.076
	c-0.002,0.023,0.011,0.059,0.052,0.136c0.032,0.076,0.068,0.15,0.104,0.222l0.015,0.027c0.014,0.028,0.031,0.059,0.059,0.101
	l0.219,0.285l-0.049-0.216c0.046,0.054,0.075,0.08,0.102,0.08h0.002c0.113,0.184,0.35,0.432,0.608,0.628
	c0.218,0.174,0.454,0.306,0.609,0.395c0.07,0.039,0.129,0.072,0.152,0.09l0.019,0.01c0.121,0.031,0.237,0.069,0.359,0.108
	c0.159,0.052,0.324,0.105,0.516,0.151l0.025-0.078c0.019,0,0.048,0.003,0.09,0.011c-0.001,0.015,0.002,0.026,0.006,0.036
	c0.033,0.086,0.185,0.111,0.451,0.148c0.133,0.019,0.27,0.038,0.358,0.068c0.007,0.003,0.013,0.005,0.018,0.007l0.013-0.036
	l0.003,0.007c0.014-0.007,0.077-0.017,0.128-0.024c0.056-0.008,0.121-0.018,0.18-0.032c0.075-0.01,0.228-0.035,0.288-0.09
	l0.003,0.003c0.021,0.02,0.051,0.028,0.104,0.028h0.018l0.015-0.003c0.28-0.1,0.595-0.214,0.912-0.365
	c0.339-0.143,0.664-0.37,0.917-0.639l0.022-0.023l-0.011-0.03c-0.009-0.025-0.027-0.033-0.047-0.038
	c0.001-0.002,0.002-0.003,0.003-0.004l0.337-0.205l0.006-0.014c0.012-0.024,0.011-0.052,0.011-0.08
	c-0.001-0.064,0.004-0.077,0.037-0.084l0.056-0.019l0.137,0.11c0.139,0.101,0.287,0.201,0.444,0.299
	c0.287,0.178,0.597,0.345,0.946,0.514c0.499,0.24,1.005,0.447,1.527,0.655c0.002,0.001,0.002,0.004,0.004,0.005
	c0.11,0.062,0.205,0.094,0.292,0.115c0.018,0.008,0.035,0.014,0.053,0.021l0.12,0.048l0.02-0.045
	c0.025,0.005,0.051,0.011,0.076,0.017l0.004,0.001c0,0,0,0,0.001,0c0.04,0.012,0.101,0.024,0.197,0.038l0.008-0.052
	c0.115,0.041,0.238,0.083,0.369,0.12l0.019,0.006l0.019-0.01c0.022-0.011,0.077-0.011,0.143-0.01l-0.023,0.007l0.105-0.001
	c0.032,0.002,0.064,0.005,0.093,0.007c0.046,0.005,0.075,0.005,0.113,0.007l-0.375,0.047l0.523,0.106l0.029-0.098l-0.134-0.052
	c0.025,0.001,0.058,0.005,0.079,0.005c0.084,0,0.135-0.014,0.166-0.047l0.105,0.18l0.375-0.208l-0.226,0.014
	c-0.117,0.007-0.146-0.002-0.155-0.006l-0.054-0.028l0.032-0.04l-0.108,0.001l-0.027-0.013l0.008,0.014l-0.057,0.001
	c-0.001-0.024-0.013-0.045-0.032-0.066c0.023,0.001,0.039,0.001,0.061,0.002c0.188,0.083,0.394,0.08,0.487,0.072
	c0.059-0.003,0.121-0.01,0.185-0.017c0.024-0.003,0.048-0.006,0.071-0.008c0.275,0.153,0.577,0.111,0.745-0.106
	c0.011-0.016,0.022-0.032,0.031-0.049c0.005-0.001,0.01-0.003,0.015-0.004c0.07,0.059,0.144,0.108,0.233,0.097
	c0.054-0.01,0.101-0.039,0.149-0.064l-0.134,0.176l0.2-0.102c0.044-0.023,0.084-0.049,0.126-0.073
	c0.024,0.001,0.045,0.006,0.07,0.004c0.059-0.002,0.12-0.006,0.185-0.013C56.117,28.786,56.162,28.815,56.214,28.836z M46.728,10.36
	c0.234,0.185,0.463,0.374,0.69,0.567C47.193,10.693,46.927,10.489,46.728,10.36z M6.087,24.561
	c-0.019,0.011-0.045,0.065-0.086,0.189c-0.006,0.054-0.013,0.122-0.022,0.194c0.001-0.178-0.006-0.289-0.049-0.167
	c0,0-0.053,0.261-0.09,0.523c-0.034,0.263-0.069,0.527-0.069,0.527c0.028-0.095,0.075-0.229,0.129-0.385
	c0.017-0.087,0.033-0.174,0.051-0.261c0.009-0.083,0.02-0.163,0.028-0.236c0,0.034-0.001,0.076-0.001,0.115
	C6.013,24.892,6.049,24.726,6.087,24.561z M13.93,11.147c0.003-0.015,0.014-0.035,0.029-0.058
	C13.836,11.197,13.91,11.143,13.93,11.147z M12.122,13.133c0.145-0.159,0.292-0.315,0.441-0.469
	c-0.058-0.008-0.106-0.022-0.091-0.083l-0.179,0.281C12.243,12.943,12.184,13.034,12.122,13.133z M16.687,36.969
	c0-0.783-0.263-1.354-0.792-1.711c-0.454-0.308-0.954-0.501-1.496-0.595l-0.173-0.028c-0.032-0.004-0.062-0.012-0.093-0.015
	c-0.614-0.103-1.005-0.256-1.175-0.46c-0.171-0.204-0.171-0.451,0-0.741c0.17-0.289,0.561-0.434,1.175-0.434
	c0.473,0,0.86,0.129,1.171,0.373l0.195,0.158c0.089,0.077,0.23,0.076,0.315-0.021l0.014-0.016l0.634-0.723
	c0.077-0.089,0.076-0.229-0.02-0.315l-0.212-0.182c-0.001-0.001-0.003-0.002-0.004-0.003l-0.005-0.004l-0.001,0
	c-0.108-0.086-0.22-0.165-0.333-0.234c-0.13-0.08-0.263-0.149-0.4-0.208c-0.392-0.17-0.943-0.255-1.655-0.255
	c-0.613,0-1.21,0.205-1.791,0.616c-0.581,0.411-0.871,0.954-0.871,1.632c0,0.75,0.255,1.277,0.766,1.584
	c0.386,0.232,0.801,0.395,1.244,0.49l0.143,0.023c0.099,0.018,0.197,0.037,0.299,0.049c0.681,0.068,1.106,0.247,1.275,0.536
	c0.169,0.289,0.169,0.579,0,0.869c-0.169,0.289-0.594,0.435-1.275,0.435c-0.604-0.051-1.154-0.255-1.509-0.5l-0.076-0.057
	l-0.144-0.126c-0.088-0.077-0.229-0.076-0.315,0.021l-0.013,0.016l-0.634,0.723c-0.077,0.088-0.076,0.229,0.02,0.314l0.221,0.189
	l0,0.001c0.271,0.215,0.577,0.396,0.918,0.542c0.477,0.205,1.071,0.307,1.783,0.307c0.749,0,1.406-0.222,1.97-0.665
	C16.405,38.111,16.687,37.582,16.687,36.969z M16.687,25.989c0-0.783-0.263-1.354-0.792-1.712c-0.454-0.307-0.954-0.501-1.496-0.595
	l-0.173-0.028c-0.032-0.004-0.062-0.012-0.093-0.016c-0.614-0.102-1.005-0.255-1.175-0.459c-0.171-0.205-0.171-0.452,0-0.741
	c0.17-0.289,0.561-0.434,1.175-0.434c0.473,0,0.86,0.129,1.171,0.372l0.195,0.158c0.089,0.077,0.23,0.077,0.315-0.021l0.014-0.016
	l0.634-0.723c0.077-0.089,0.076-0.229-0.02-0.315l-0.212-0.181v0c-0.001-0.001-0.003-0.002-0.004-0.003l-0.005-0.004l-0.001,0
	c-0.108-0.086-0.22-0.165-0.333-0.234c-0.13-0.08-0.263-0.149-0.4-0.208c-0.392-0.17-0.943-0.256-1.655-0.256
	c-0.613,0-1.21,0.205-1.791,0.616c-0.581,0.41-0.871,0.955-0.871,1.632c0,0.749,0.255,1.277,0.766,1.583
	c0.386,0.232,0.801,0.395,1.244,0.49l0.143,0.024c0.099,0.018,0.197,0.037,0.299,0.049c0.681,0.068,1.106,0.247,1.275,0.536
	c0.169,0.289,0.169,0.579,0,0.869c-0.169,0.289-0.594,0.434-1.275,0.434c-0.604-0.051-1.154-0.255-1.509-0.5l-0.076-0.056
	l-0.144-0.126c-0.088-0.077-0.229-0.076-0.315,0.021l-0.013,0.016l-0.634,0.723c-0.077,0.088-0.076,0.229,0.02,0.314l0.221,0.189
	l0,0.001c0.271,0.215,0.577,0.396,0.918,0.542c0.477,0.205,1.071,0.306,1.783,0.306c0.749,0,1.406-0.221,1.97-0.664
	C16.405,27.13,16.687,26.602,16.687,25.989z M39.321,5.936c0.007,0.001,0.013,0.002,0.021,0.004
	C39.061,5.831,38.918,5.771,39.321,5.936z M33.977,5.046c1.209,0.145,2.391,0.374,3.54,0.681c-0.083-0.028-0.153-0.054-0.199-0.074
	c0.267,0.1,0.772,0.222,1.018,0.266L37.72,5.705c0.255,0.07,0.478,0.153,0.731,0.242c0.251,0.095,0.529,0.207,0.904,0.317
	c-0.107-0.096,0.458,0.015-0.082-0.25c-0.697-0.291-1.009-0.333-1.355-0.384c-0.173-0.026-0.356-0.052-0.603-0.104
	c-0.25-0.04-0.566-0.102-1.004-0.208c-0.168-0.013,0.391-0.021-0.56-0.175c-0.301-0.039-0.582-0.071-0.834-0.094
	c-0.253-0.021-0.48-0.016-0.667-0.015C34.146,5.035,34.056,5.04,33.977,5.046z M29.253,4.917c0.241-0.016,0.483-0.028,0.726-0.036
	c-0.064-0.015-0.135-0.037-0.109-0.056C29.674,4.84,29.454,4.876,29.253,4.917z M19.053,7.787c0.42-0.221,0.847-0.431,1.28-0.63
	c0.36-0.249,0.681-0.48,0.87-0.601c0,0-0.196,0.086-0.386,0.187c-0.19,0.101-0.38,0.201-0.38,0.201l-0.215,0.045
	C19.765,7.228,19.37,7.519,19.053,7.787z M17.621,28.237h1.071c0.188,0,0.293-0.117,0.34-0.235l0.377-0.941h3.454l0.376,0.941
	c0.047,0.117,0.152,0.235,0.34,0.235h1.071c0.176,0,0.27-0.153,0.199-0.305l-2.859-7.147c-0.009-0.022-0.018-0.04-0.027-0.059
	l-0.002-0.005c-0.045-0.093-0.097-0.147-0.193-0.147h-0.293h-0.672h-0.059h-0.234c-0.117,0-0.169,0.076-0.223,0.211l-2.867,7.147
	c-0.006,0.013-0.004,0.026-0.008,0.039l-0.001,0.002c0,0,0,0,0,0v0l0,0C17.376,28.111,17.461,28.237,17.621,28.237z M25.605,35.386
	c0-1.09-0.366-2.001-1.098-2.733c-0.732-0.732-1.644-1.099-2.734-1.099s-2.001,0.366-2.733,1.099
	c-0.732,0.732-1.099,1.643-1.099,2.733c0,1.086,0.367,1.997,1.099,2.73c0.732,0.734,1.643,1.101,2.733,1.101
	s2.001-0.367,2.734-1.099C25.239,37.387,25.605,36.475,25.605,35.386z M26.529,5.239c-0.018-0.007-0.044-0.01-0.089-0.011
	c-0.156,0.006-0.568,0.021-0.947,0.083c-0.381,0.057-0.734,0.109-0.781,0.116c-0.108,0.059-0.141,0.144-0.118,0.225
	c0.298-0.076,0.598-0.145,0.899-0.21l0.084-0.128l0.041,0.101C25.92,5.351,26.224,5.292,26.529,5.239z M27.001,28.237h0.688
	c0.117,0,0.223-0.094,0.223-0.223v-0.02v-0.962v-1.967h2.697c0.118,0,0.223-0.094,0.223-0.223v-0.02v-0.802v-0.16
	c0-0.118-0.094-0.223-0.223-0.223h-2.697v-1.634h3.725c0.117,0,0.223-0.094,0.223-0.223v-0.021v-0.802v-0.16
	c0-0.117-0.094-0.223-0.223-0.223h-5.186c-0.129,0-0.223,0.106-0.223,0.223v0.961v0v6.256c0,0.129,0.105,0.223,0.223,0.223H27.001z
	 M33.758,31.777c0-0.117-0.094-0.223-0.223-0.223h-0.021H32.61h-0.161c-0.118,0-0.223,0.094-0.223,0.223v2.697h0v1.525
	c0,0.579-0.171,1.005-0.511,1.277c-0.34,0.272-0.766,0.409-1.277,0.409c-0.511,0-0.937-0.136-1.278-0.409
	c-0.341-0.272-0.511-0.698-0.511-1.277v-1.525v-1.981v-0.715c0-0.117-0.095-0.223-0.224-0.223h-0.02h-0.904H27.34
	c-0.118,0-0.223,0.094-0.223,0.223v0.721v1.976v1.934c0,0.783,0.315,1.448,0.945,1.992c0.63,0.545,1.421,0.817,2.376,0.817
	c0.953,0,1.745-0.272,2.375-0.817c0.63-0.545,0.945-1.209,0.945-1.992v-1.934v-1.46V31.777z M37.746,28.237h1.127
	c0.117,0,0.223-0.094,0.223-0.223v-0.021v-0.801v-0.161c0-0.117-0.094-0.222-0.223-0.222h-3.88l0.004-0.002v-1.742h2.848
	c0.117,0,0.222-0.094,0.222-0.223v-0.021v-0.802v-0.16c0-0.118-0.093-0.223-0.222-0.223h-2.848v-1.634h3.876
	c0.117,0,0.223-0.094,0.223-0.223v-0.021v-0.801v-0.161c0-0.117-0.094-0.223-0.223-0.223h-5.186c-0.129,0-0.223,0.105-0.223,0.223
	v0.161v0.153v0.648v0.021v5.252v0.161v0.32v0.481v0.021c0,0.129,0.105,0.223,0.223,0.223h1.127H37.746z M36.913,55.39l0.175-0.022
	C37.19,55.324,37.293,55.281,36.913,55.39z M42.677,31.777c0-0.129-0.106-0.223-0.223-0.223h-0.549h-0.541
	c-0.117,0-0.223,0.094-0.223,0.223v0.02v0.963v1.967v0.007l0.004,1.623l-4.674-4.803h-0.123h-0.293
	c-0.117,0-0.223,0.094-0.223,0.211v0.974v2.924v2.5v0.832c0,0.129,0.106,0.223,0.223,0.223h0.549h0.541
	c0.118,0,0.223-0.094,0.223-0.223v-0.02v-0.962v-1.967v-0.009v-1.421l4.599,4.602h0.195h0.293c0.117,0,0.223-0.094,0.223-0.211
	v-0.649v-0.324v-5.896V31.777z M51.274,35.385c0-2.558-1.193-3.837-3.577-3.837h-2.27h-0.46c-0.129,0-0.223,0.111-0.223,0.228v0.161
	v0.153v0.648v0.021v5.252v0.161v0.32v0.481v0.021c0,0.129,0.106,0.223,0.223,0.223h0.46h0.667h1.603
	C50.081,39.218,51.274,37.94,51.274,35.385z M54.203,29.163l-0.004-0.011c0.001-0.002,0.001-0.004,0.002-0.005
	c0.006-0.029-0.008-0.06-0.036-0.078l-0.039-0.022l-0.017,0.014c-0.059,0.005-0.093,0.031-0.102,0.08l-0.158,0.106l0.209-0.023
	c0.053-0.006,0.115-0.018,0.137-0.06H54.203z M21.136,22.747l-1.114,2.782h2.227L21.136,22.747z M45.199,38.284l0.016,0.004
	l-0.007-0.008L45.199,38.284z M47.698,33.086h-1.42v2.984l0-0.025v1.645h1.42c1.359-0.003,2.04-0.771,2.043-2.304
	C49.737,33.853,49.057,33.086,47.698,33.086z M8.304,42.799c0.096,0.145,0.145,0.203,0.154,0.192
	C8.36,42.841,8.299,42.759,8.304,42.799z M32.87,4.578C32.87,4.578,32.87,4.578,32.87,4.578c0.261,0.012,0.526,0.013,0.842,0.057
	c-0.313-0.066-0.678-0.1-1.03-0.086C32.746,4.558,32.806,4.568,32.87,4.578C32.87,4.578,32.87,4.578,32.87,4.578
	C32.87,4.578,32.87,4.578,32.87,4.578z M35.123,5.166c-0.074,0.012,0.11,0.06,0.368,0.096c0.167,0.012,0.425,0.048,0.324,0.006
	L35.123,5.166z M46.42,18.249c0,0,0.001-0.001,0.001-0.001l0.001-0.015c-0.005,0.004-0.002,0.008-0.005,0.013
	C46.419,18.247,46.42,18.248,46.42,18.249z M45.382,23.45c-0.001,0.002-0.003,0.004-0.004,0.006l0.087,0.042l-0.099,0.027
	l0.018,0.045l0.075-0.024c0.02-0.011,0.045-0.026,0.076-0.013c0.005,0.001,0.009,0.003,0.013,0.006l0.023-0.019
	c-0.042-0.061-0.078-0.12-0.118-0.18C45.43,23.385,45.409,23.418,45.382,23.45z M45.305,23.322c-0.005,0.007-0.004,0.018-0.01,0.023
	l0.006,0.018c0.003-0.012,0.006-0.021,0.007-0.032L45.305,23.322z M45.467,23.703c0.001,0.003,0.006,0.002,0.008,0.005l0.006,0.006
	l0.014,0.011l0.012-0.035l-0.136-0.113l0.008-0.003l-0.065-0.032l0.004,0.006l0.007,0.01l0,0.001l0.003,0.006
	c0.001,0.003,0.003,0.005,0.004,0.007l-0.029,0.019l-0.03,0.045l0.029,0.004l0.014-0.034l0.05,0.025
	c0.017,0.009,0.033,0.019,0.048,0.031L45.467,23.703z M45.376,23.842l0.035,0.019c-0.007-0.007-0.016-0.019-0.025-0.02l-0.015-0.004
	C45.372,23.838,45.374,23.841,45.376,23.842z M46.089,24.648c0.001,0,0.002-0.001,0.003-0.001l0.021-0.008
	c-0.012-0.009-0.025-0.018-0.038-0.025l0,0.009l0.002,0.008C46.08,24.637,46.085,24.643,46.089,24.648z M46.173,17.196
	c-0.003,0.001-0.011,0.002-0.015,0.004h0.002l0.059-0.003c0.001,0,0.002-0.001,0.003,0h0h0.005V17.19l0.007,0.001l-0.002-0.02
	L46.173,17.196z M46.304,17.311l-0.023,0.007l-0.001,0.001c0.004,0.002,0.011,0.005,0.013,0.007l0.014,0.009l0.005-0.001
	l0.003,0.006c0.008,0.005,0.017,0.001,0.022,0.01l0.006,0.009l0.003,0.002l0.015-0.009l-0.041-0.038L46.304,17.311z M45.843,24.168
	l-0.002-0.003l-0.002,0.004l0.003,0.001C45.842,24.17,45.843,24.169,45.843,24.168z M45.973,24.173
	c0.004,0.003,0.004,0.01,0.008,0.013l0.036-0.044c-0.008-0.01-0.017-0.021-0.026-0.031c-0.022,0.004-0.042,0.002-0.061,0
	l0.014,0.035c0.001,0.002,0.003,0.005,0.011,0.012l0.007,0.005l-0.032,0.039L45.973,24.173z M45.521,23.744l0.002,0.002l0.041,0.02
	c0.007,0.002,0.01,0.003,0.018,0.001c0.031-0.001,0.071-0.001,0.112,0.05l0.019,0.024l-0.012,0.028
	c-0.02,0.048-0.053,0.064-0.084,0.07c0.003,0.005,0.005,0.01,0.007,0.015l0.046,0.04c0.01-0.014,0.019-0.025,0.031-0.038
	l-0.013-0.019l0.017,0.014c0.023-0.026,0.046-0.054,0.072-0.073c-0.011-0.007-0.022-0.016-0.031-0.029l-0.031-0.039l0.028-0.023
	c-0.048-0.068-0.082-0.129-0.128-0.196l-0.027,0.167l-0.073-0.061L45.521,23.744z M45.534,24.012l-0.006-0.005l-0.014,0.004
	l-0.035,0.14l0.047-0.02l-0.007-0.003l0.008-0.04C45.534,24.045,45.537,24.026,45.534,24.012z M45.851,24.239
	c0-0.012,0.005-0.023,0.01-0.033l-0.003-0.004l-0.021,0l0.012,0.035C45.85,24.238,45.85,24.238,45.851,24.239z M50.014,21.882v0.009
	c0.016,0.026,0.032,0.052,0.047,0.076l0.031-0.093c-0.024-0.116-0.123-0.241-0.223-0.276l-0.003-0.001
	c-0.008-0.003-0.016-0.007-0.023-0.009c0.089,0.066,0.153,0.165,0.169,0.28L50.014,21.882z M51.686,14.972
	c0.036,0.051,0.12,0.172,0.28,0.402l-0.003-0.007C51.824,15.168,51.728,15.031,51.686,14.972z M51.518,14.61l0.176,0.183
	l0.229,0.232c0,0-0.099-0.106-0.198-0.212L51.518,14.61z M51.963,15.367c0.039,0.056,0.084,0.119,0.129,0.183
	c-0.015-0.043-0.035-0.132-0.208-0.4L51.963,15.367z M52.097,15.68l-0.062-0.044l0.186,0.229L52.097,15.68z M53.054,17.416
	c0.155,0.185-0.01-0.163,0.284,0.245C53.142,17.389,52.766,16.81,53.054,17.416z M53.176,17.127
	c-0.079-0.18-0.272-0.497-0.257-0.536c-0.036-0.015,0.044,0.177,0.04,0.224c0,0,0.058,0.076,0.111,0.155L53.176,17.127z
	 M52.959,16.815l-0.338-0.458C52.891,16.786,52.956,16.855,52.959,16.815z M50.423,13.458c0.046,0.023,0.17,0.113-0.074-0.165
	c-0.188-0.181-0.379-0.393-0.607-0.619C49.976,12.928,50.203,13.202,50.423,13.458z M50.618,13.926
	c-0.163-0.177-0.326-0.353-0.326-0.353l0.279,0.404l0.009-0.04c0.339,0.427,0.288,0.317,0.353,0.353c0,0-0.039-0.046-0.097-0.115
	C50.778,14.106,50.701,14.013,50.618,13.926z M50.452,13.51c0.16,0.203,0.273,0.31,0.384,0.41c-0.131-0.143-0.268-0.295-0.413-0.461
	C50.402,13.448,50.396,13.449,50.452,13.51z M47.024,10.16l0.355,0.246l0.139,0.033c0,0-0.119-0.076-0.245-0.143
	C47.148,10.228,47.024,10.16,47.024,10.16z M47.474,10.544c0.005,0,0.01-0.001,0.016,0l-0.047-0.042
	C47.453,10.516,47.464,10.529,47.474,10.544z M47.49,10.543c0,0,0.227,0.199,0.453,0.398c0.113,0.1,0.227,0.199,0.312,0.273
	c0.082,0.078,0.137,0.13,0.137,0.13l-0.067-0.052l0.182,0.164c-0.192-0.203-0.329-0.35-0.579-0.624
	C47.601,10.586,47.524,10.547,47.49,10.543z M55.943,24.699l0.147,0.271c-0.101-0.386-0.206-0.833-0.334-1.243
	c-0.129-0.409-0.241-0.792-0.309-1.064c-0.004,0.364,0.4,1.272,0.494,1.926L55.943,24.699z M55.149,21.167
	c-0.012-0.042-0.015-0.055-0.021-0.081c-0.029-0.075-0.069-0.177-0.137-0.352C54.999,20.862,54.802,20.348,55.149,21.167z
	 M55.128,21.086C55.274,21.449,55.065,20.836,55.128,21.086L55.128,21.086z M54.375,19.489c-0.047-0.029,0.026,0.06,0.144,0.27
	l-0.261-0.501C54.273,19.333,54.246,19.354,54.375,19.489z M56.324,26.308l-0.161-0.561l0.125,0.496L56.324,26.308z M54.63,20.217
	c0.377,0.905,0.401,0.74,0.006-0.16C54.739,20.327,54.858,20.678,54.63,20.217z M51.119,14.244
	c-0.017-0.028-0.031-0.058-0.041-0.079c-0.089-0.099-0.166-0.172-0.242-0.246C50.939,14.039,51.033,14.151,51.119,14.244z
	 M55.286,22.517l0.047,0.185c0.023,0.093,0.04,0.187,0.04,0.187l0.123,0.307c-0.031-0.077-0.074-0.255-0.113-0.411
	C55.341,22.631,55.297,22.501,55.286,22.517z M52.618,16.919L52.618,16.919c-0.046-0.059-0.066-0.08,0.007,0.038
	C52.612,16.925,52.616,16.924,52.618,16.919C52.618,16.92,52.618,16.919,52.618,16.919C52.618,16.919,52.618,16.919,52.618,16.919z
	 M54.403,19.434l0.245,0.454c-0.023-0.108-0.207-0.529-0.121-0.38C54.291,19.034,54.314,19.144,54.403,19.434z M52.618,16.919
	C52.618,16.919,52.618,16.92,52.618,16.919C52.618,16.92,52.618,16.919,52.618,16.919C52.618,16.919,52.618,16.919,52.618,16.919z
	 M52.285,15.943c-0.039-0.047-0.064-0.078-0.064-0.078s0.084,0.124,0.16,0.254c0.078,0.128,0.156,0.257,0.156,0.257
	c0.007-0.019-0.032-0.123,0.072,0.006c0,0-0.096-0.13-0.192-0.26C52.369,16.057,52.321,15.991,52.285,15.943z M52.402,16.54
	c0.052,0.066,0.111,0.111,0.252,0.343c0.111,0.208-0.025,0.017-0.036,0.036c0,0,0,0,0,0c0.104,0.128,0.34,0.462,0.095,0.01
	l-0.051-0.064c-0.185-0.319-0.382-0.723-0.432-0.847C52.258,16.15,52.292,16.275,52.402,16.54z M54.196,19.14l0.062,0.118
	c-0.01-0.047-0.035-0.114-0.13-0.232C54.128,19.026,54.162,19.083,54.196,19.14z M53.902,18.835l0.082,0.159
	c0,0,0.128,0.195,0.237,0.4c0.114,0.204,0.227,0.407,0.227,0.407s-0.133-0.244-0.264-0.488c-0.063-0.123-0.139-0.24-0.192-0.33
	C53.938,18.895,53.902,18.835,53.902,18.835z M50.812,13.552c-0.265-0.292-0.508-0.526-0.735-0.726
	c0.229,0.224,0.445,0.49,0.71,0.845C50.976,13.825,50.627,13.377,50.812,13.552z M17.316,8.371c-0.377,0.177-0.815,0.36-0.736,0.386
	l0.142-0.017C16.96,8.575,17.15,8.46,17.316,8.371z M56.443,33.784c-0.013,0.116-0.035,0.305-0.057,0.483
	C56.402,34.181,56.42,34.035,56.443,33.784z M56.637,30.798l0.097-0.125l-0.077-0.323C56.658,30.472,56.66,30.707,56.637,30.798z
	 M56.821,30.351c-0.023-0.402-0.086-0.18-0.07-0.19C56.751,30.4,56.809,30.314,56.821,30.351z M34.593,4.784
	c-0.351-0.069-0.633-0.115-0.881-0.15C34.137,4.725,34.472,4.822,34.593,4.784z M41.481,6.722c0.227,0.016-1.206-0.438-0.229-0.048
	C41.42,6.767,41.391,6.655,41.481,6.722z M56.014,27.347L56.014,27.347l-0.078,0.044l-0.004-0.007
	c-0.079,0.035-0.165,0.065-0.249,0.096c0.036,0.011,0.069,0.027,0.099,0.046c0.09-0.013,0.183-0.025,0.271-0.042l0.033-0.008
	c0.004-0.021-0.004-0.043,0.004-0.063c0.018-0.048,0.049-0.087,0.082-0.124c0-0.005-0.003-0.012-0.002-0.018
	C56.106,27.307,56.056,27.33,56.014,27.347z M47.614,26.32c-0.021,0-0.042,0-0.06-0.007l0.005,0.024
	c0.011-0.004,0.023-0.009,0.03-0.01C47.596,26.326,47.606,26.322,47.614,26.32z M47.441,26.112
	c-0.014-0.026-0.028-0.051-0.042-0.066l-0.035,0.043l-0.037-0.016c-0.065-0.03-0.115-0.058-0.157-0.093l-0.057,0.053l-0.033-0.052
	c-0.012-0.019-0.046-0.043-0.078-0.067c-0.065-0.048-0.159-0.116-0.154-0.214c-0.028-0.019-0.047-0.052-0.061-0.075
	c-0.01-0.016-0.026-0.044-0.034-0.049l-0.046-0.026l0.037-0.061c-0.012-0.015-0.026-0.021-0.04-0.03H46.69l-0.008-0.002l0.007,0.063
	l-0.055-0.076c-0.02-0.009-0.031-0.035-0.045-0.063l-0.014-0.02c-0.02-0.029-0.034-0.064-0.044-0.11l-0.004-0.015
	c-0.01-0.008-0.019-0.017-0.031-0.025c-0.039-0.028-0.08-0.057-0.111-0.096l-0.023-0.029l-0.069-0.046
	c-0.02-0.006-0.041-0.016-0.056-0.034c-0.015-0.008-0.03-0.019-0.042-0.032l-0.021-0.014l0.008-0.001
	c-0.022-0.029-0.037-0.065-0.043-0.105l-0.05-0.065c-0.064-0.008-0.082-0.036-0.084-0.059c0-0.003,0.001-0.011,0.002-0.018
	c-0.006-0.007-0.015-0.015-0.018-0.019l-0.02-0.024l-0.002,0l-0.007-0.014l-0.105,0.099l0.036-0.163
	c0.008-0.038,0.003-0.054-0.005-0.076c-0.003-0.008-0.004-0.016-0.006-0.024c-0.002,0.002-0.003,0.004-0.005,0.005l-0.026,0.035
	l-0.03-0.022l-0.003,0.001l-0.026-0.022l0.021-0.023c-0.001-0.008-0.001-0.014-0.001-0.02l0.02-0.003l0.003-0.017
	c-0.003-0.004-0.008-0.007-0.012-0.012c0,0,0,0,0-0.001c-0.004,0.002-0.01,0.003-0.011,0.004c0.003-0.004,0.005-0.006,0.007-0.008
	c-0.007-0.009-0.016-0.021-0.019-0.024c0.009,0.006,0.025,0.003,0.029-0.003l-0.048-0.02l-0.047-0.019
	c0.004-0.01,0.005-0.015,0.006-0.02l-0.196-0.035l0.131-0.08l-0.092,0.002l-0.024,0.015l0.006-0.014l-0.237,0.007l0.146-0.063
	l-0.023-0.153l-0.002-0.002c-0.01-0.011-0.012-0.027-0.013-0.041l-0.092-0.021c-0.046-0.01-0.102-0.022-0.141-0.062l-0.122-0.127
	l0.146,0.035c0.013-0.023,0.035-0.049,0.077-0.05l-0.039-0.02l0.019-0.031l-0.025-0.022l-0.003,0.005l-0.012,0.062l-0.027-0.003
	l-0.01,0.015L45.2,23.721l-0.048-0.006l0.007-0.102l0.02,0.001c-0.01-0.053,0.018-0.091,0.027-0.104l0.001-0.001l-0.052-0.026
	c-0.012,0.017-0.024,0.034-0.043,0.043l-0.379,0.169l0.322-0.252c0-0.003,0-0.007,0-0.011L45.05,23.43l0.004-0.004
	c0-0.001,0-0.003,0-0.004c0-0.009,0-0.018,0-0.026l0.003-0.08l0.099,0.05c0.006,0,0.017-0.007,0.022-0.006
	c0.007,0.001,0.008,0.009,0.014,0.012l-0.004-0.009l0.036,0.018l0.01-0.01l0.011-0.009c-0.025,0-0.049-0.009-0.069-0.016
	c-0.007-0.002-0.014-0.005-0.02-0.007l0.013-0.049v0l0.013-0.049c0.011,0.001,0.014-0.001,0.019-0.003l-0.009-0.005h-0.153
	c-0.001,0-0.004-0.002-0.004-0.002l-0.002,0.004L45,23.218c0,0-0.001,0-0.003-0.001l0,0.018l-0.013-0.016
	c-0.009,0.02-0.013,0.045-0.04,0.052c-0.007,0.002-0.014,0.003-0.021,0.003c-0.032,0-0.058-0.022-0.07-0.031l-0.198-0.167
	l0.176,0.055l-0.016-0.041l-0.025-0.002l-0.012-0.05c-0.002-0.014,0.011-0.02,0.016-0.031l0.016-0.101l0.071,0.075
	c0.007,0.007,0.005,0.005,0.01,0.009c0.004-0.004,0.003-0.012,0.007-0.016c0.021-0.017,0.053-0.021,0.082-0.006
	c0.02,0.01,0.04,0.027,0.059,0.051l0.03,0.039l0.094,0.037l0.085,0.128c0.011-0.004,0.016-0.012,0.032-0.012h0.053v0.001
	c0.009-0.005,0.019-0.008,0.029-0.009c-0.096-0.149-0.207-0.304-0.294-0.451l-0.003,0.033l-0.043,0.029l-0.034-0.008
	c-0.012-0.005-0.01-0.016-0.016-0.025c-0.004,0.013,0.005,0.024-0.007,0.039l-0.079,0.101l-0.012-0.128
	c-0.002-0.025-0.042-0.067-0.075-0.101c-0.023-0.024-0.045-0.048-0.063-0.071l-0.032-0.044c-0.186,0.095-0.286,0.252-0.385,0.423
	c-0.063,0.107-0.126,0.217-0.214,0.308l0.35,0.049l-0.368,0.045c0.012,0.019,0.023,0.044,0.016,0.071l-0.008,0.034l-0.061,0.01
	l0.01,0.006l-0.016,0.037c-0.032,0.074-0.082,0.133-0.131,0.19c-0.061,0.071-0.113,0.132-0.115,0.205v0.034l-0.032,0.013
	c-0.009,0.003-0.018,0.005-0.026,0.007c-0.003,0.016-0.007,0.032-0.011,0.047c-0.004,0.012-0.01,0.03-0.01,0.037
	c0-0.009-0.008-0.02-0.018-0.024l0.006,0.1c-0.007,0-0.012,0-0.015,0.001c-0.027,0.002-0.041,0.018-0.064,0.047
	c-0.014,0.017-0.032,0.04-0.058,0.054l-0.013,0.03c-0.032,0.068-0.052,0.117-0.031,0.178l0.013,0.041l-0.038,0.02
	c-0.004,0.008-0.019,0.062-0.03,0.102c-0.022,0.081-0.049,0.174-0.097,0.238c0.002,0.006,0.003,0.013,0.004,0.019l0.124-0.038
	l-0.038,0.098c-0.008,0.019-0.013,0.039-0.018,0.057c-0.002,0.01-0.004,0.018-0.007,0.028v0.01l0.001,0.002l-0.001,0.002
	c-0.001,0.013-0.006,0.032-0.022,0.045l-0.02,0.018l-0.01-0.001c-0.007,0.003-0.018,0.001-0.03,0.003
	c0,0.01,0.003,0.015,0.014,0.026l0.053-0.039l0.008,0.188l-0.037,0.011l-0.006,0.063c-0.006,0.058-0.014,0.115-0.023,0.173
	c-0.026,0.176-0.051,0.344,0.006,0.504l0.019,0.052l-0.042,0.011c0.001,0.008,0.003,0.017,0.004,0.024
	c0.005,0.02,0.011,0.044,0.009,0.069l0.077,0.051c0.015-0.002,0.027-0.004,0.037-0.006c0.076-0.01,0.097,0,0.13,0.067l0.023,0.052
	c0.025,0.061,0.052,0.127,0.101,0.143l0.406,0.13l-0.301-0.021c0.026,0.034,0.046,0.07,0.064,0.099
	c0.007,0.014,0.017,0.032,0.025,0.043l0.087-0.014l-0.041,0.072c0.094,0.007,0.127,0.033,0.209,0.13l0.001,0.001
	c0.043-0.008,0.095,0.005,0.151,0.054l0.04,0.035l-0.004,0.004l0.117,0.058l-0.025,0.046c-0.004,0.007-0.006,0.012-0.007,0.016
	c0.014,0.003,0.037,0.006,0.054,0.007c0.057,0.005,0.128,0.012,0.165,0.064c0.008,0.011,0.014,0.024,0.017,0.038
	c0.027-0.004,0.053-0.005,0.08-0.002c0.024,0,0.051,0,0.065-0.003l0.094-0.022l-0.011,0.029c0.042,0.009,0.073,0.044,0.099,0.073
	c0.005,0.005,0.01,0.012,0.016,0.018c0-0.002-0.001-0.004-0.001-0.006l-0.072-0.323l0.166,0.286c0.012,0.02,0.05,0.008,0.108-0.014
	c0.034-0.014,0.088-0.036,0.122-0.005c0.007,0.002,0.012,0.006,0.017,0.009c0.004-0.003,0.009-0.006,0.015-0.008
	c0.043-0.016,0.08,0.018,0.098,0.035l0.055,0.048l-0.048,0.026c0.009,0.016,0.017,0.035,0.028,0.058
	c0.006,0.013,0.015,0.032,0.024,0.05c0.007-0.001,0.014-0.002,0.02-0.002c0.047,0,0.091,0.031,0.125,0.055
	c0.003,0.001,0.006,0.003,0.008,0.005l-0.019-0.127l0.089,0.046c0.043,0.022,0.057,0.023,0.057,0.023
	c0.023-0.012,0.048-0.018,0.085-0.009l0.124-0.036c0.059-0.017,0.082-0.019,0.118-0.022c0.01-0.001,0.021-0.002,0.036-0.003
	c0.011-0.008,0.025-0.016,0.04-0.02c0.002-0.002,0.003-0.005,0.005-0.007c0.04-0.055,0.138-0.074,0.219-0.085l0.055-0.007
	c-0.015-0.08-0.011-0.167,0.079-0.209l0.109-0.053l-0.027,0.08c0.019-0.01,0.038-0.015,0.054-0.019
	c0.025-0.006,0.045-0.011,0.064-0.031l0.159-0.163l-0.046,0.136h0.032c0.106-0.001,0.207-0.071,0.294-0.134
	c0.075-0.053,0.141-0.099,0.207-0.099h0.005c0.001-0.004,0.002-0.008,0.003-0.011c0.005-0.023,0.011-0.046,0.028-0.065l0.036-0.041
	l0.003-0.009c0.007-0.018,0.014-0.035,0.017-0.099l0.007-0.157l-0.217,0.073l0.196-0.124l-0.104-0.037l0.131,0.001l0.004-0.088
	c-0.024-0.026-0.046-0.066-0.048-0.115C47.465,26.153,47.453,26.132,47.441,26.112z M45.874,28.74l-0.005,0.016l0.013,0.003
	c0-0.008-0.002-0.014-0.005-0.02C45.876,28.739,45.874,28.74,45.874,28.74z M47.671,26.478l-0.091-0.033l0.007,0.035l0.097,0.055
	c-0.009-0.022-0.012-0.041-0.013-0.054C47.67,26.479,47.671,26.479,47.671,26.478z M42.121,7.026
	C42.075,7,42.057,6.988,42.071,6.992c-0.071-0.031-0.173-0.076-0.34-0.151C41.87,6.904,41.998,6.965,42.121,7.026z M56.742,31.565
	c0.011-0.134,0.022-0.268,0.022-0.268l-0.058,0.345l0.007,0.191C56.712,31.833,56.733,31.699,56.742,31.565z M44.512,8.292
	c0,0-0.122-0.078-0.251-0.145c-0.128-0.069-0.255-0.137-0.255-0.137c0.244,0.138,0.325,0.197,0.437,0.285
	C44.44,8.275,44.359,8.195,44.512,8.292z M46.311,9.532C46.239,9.49,46.166,9.45,46.166,9.45l0.219,0.184l0.071-0.017
	C46.456,9.617,46.385,9.572,46.311,9.532z M42.071,6.992C42.313,7.105,42.113,7.002,42.071,6.992L42.071,6.992z M42.861,7.797
	c-0.003-0.015,0.073,0.016,0.164,0.057c-0.35-0.182-0.728-0.392-0.724-0.366L42.861,7.797z M43.479,8.096
	c-0.097-0.054-0.303-0.175-0.454-0.243C43.206,7.95,43.373,8.051,43.479,8.096z M44.912,22.478l-0.139,0.061l0.162-0.02
	C44.927,22.506,44.92,22.492,44.912,22.478z M49.054,11.879c0.09,0.102,0.192,0.216,0.294,0.341
	C49.274,12.109,49.101,11.9,49.054,11.879z M48.507,11.457c0.17,0.178,0.402,0.38,0.79,0.764c-0.171-0.101-0.621-0.477-0.407-0.184
	c0.512,0.498,0.387,0.321,0.705,0.609c-0.809-0.826,0.255,0.217-0.298-0.413c0.165,0.157,0.309,0.304,0.444,0.442
	c-0.136-0.158-0.268-0.31-0.394-0.454c0.006,0.009,0.011,0.015,0.016,0.022l0.004,0.004h-0.001c0.029,0.041,0.037,0.057,0.001,0.013
	c-0.003-0.003-0.013-0.012-0.018-0.016c-0.011,0-0.031-0.01-0.052-0.022c-0.223-0.252-0.025-0.05,0.052,0.022
	c0.005,0,0.013,0.005,0.017,0.004c0,0-0.002-0.002-0.003-0.004c0,0-0.204-0.206-0.424-0.397
	C48.723,11.651,48.507,11.457,48.507,11.457z M51.078,14.165c0.009,0.01,0.017,0.019,0.026,0.029
	C51.062,14.119,51.064,14.131,51.078,14.165z M45.573,9.299c0.102,0.07,0.206,0.142,0.304,0.214
	C45.934,9.514,45.757,9.42,45.573,9.299z M42.383,7.146c0.081,0.044,0.145,0.079,0.205,0.112
	C42.622,7.264,42.599,7.245,42.383,7.146z M42.417,7.197c-0.086-0.052-0.185-0.111-0.296-0.172
	C42.17,7.054,42.26,7.106,42.417,7.197z M44.839,8.776c0.003,0.079,0.328,0.24,0.657,0.471l-0.058-0.041
	C45.582,9.205,45.217,8.978,44.839,8.776z M59.568,23.946c-0.006,0.071-0.049,0.126-0.09,0.181c0.001,0.003,0.004,0.004,0.005,0.007
	l0.068,0.242c0.039,0.141-0.021,0.276-0.125,0.371l-0.025,0.156c-0.027,0.164-0.156,0.288-0.315,0.312
	c-0.017,0.139-0.028,0.277-0.01,0.33c0.151,0.141,0.145,0.356,0.007,0.51c-0.026,0.029-0.056,0.053-0.089,0.071
	c-0.148,0.326-0.328,0.696-0.523,1.004c-0.034,0.056-0.069,0.104-0.103,0.156c0.017,0.038-0.006,0.087-0.079,0.184l-0.019-0.012
	l0.005,0.012c-0.008,0.005-0.023,0.019-0.041,0.035c-0.004,0.004-0.005,0.004-0.009,0.007l-0.008,0.13l-0.029-0.102
	c-0.001,0.001-0.002,0.002-0.004,0.003c-0.022,0.028-0.046,0.062-0.067,0.086c-0.06,0.071-0.114,0.126-0.152,0.159
	c-0.008,0.008-0.019,0.016-0.03,0.025c-0.005,0.004-0.009,0.007-0.014,0.011c-0.035,0.054-0.073,0.108-0.111,0.161
	c-0.104,0.116-0.199,0.204-0.29,0.285c-0.238,0.18-0.423,0.293-0.591,0.368c-0.053,0.029-0.128,0.064-0.196,0.096
	c-0.055,0.026-0.104,0.048-0.145,0.072c-0.063,0.037-0.148,0.049-0.231,0.047c-0.035-0.601-0.096-1.195-0.171-1.784
	c0.027-0.014,0.058-0.03,0.126-0.044v0c0,0,0.001-0.001,0.001-0.001l0.077-0.077l0.001,0.042c0.02-0.011,0.04-0.022,0.06-0.034
	l0.043-0.024c0.051-0.04,0.088-0.082,0.129-0.123c-0.011,0.011-0.031,0.022-0.042,0.033l-0.077-0.067
	c0.017-0.023,0.035-0.047,0.053-0.071c0.05-0.066,0.105-0.141,0.173-0.211l0.279-0.286l-0.161,0.284
	c0.012,0.002,0.024,0.007,0.035,0.018c0.013,0.014,0.026,0.039,0.01,0.082l-0.006,0.016l-0.015,0.009
	c-0.031,0.02-0.045,0.038-0.072,0.057c0.012-0.004,0.024-0.006,0.035-0.001c0.036-0.035,0.072-0.07,0.102-0.105l0.017-0.031
	c0.009-0.018,0.019-0.034,0.028-0.051c0.003-0.03,0.027-0.05,0.04-0.056l0.039-0.021c0.01-0.051,0.018-0.098,0.025-0.142
	l-0.005-0.002l0.009-0.027c0.011-0.077,0.017-0.132,0.018-0.132l0.007-0.066l0.172-0.047c0.016-0.004,0.032-0.009,0.046-0.013
	c0.009-0.099,0.01-0.18,0.011-0.258c0.002-0.217,0.004-0.404,0.159-0.848c0.11-0.29,0.187-0.614,0.247-0.955
	c0.002-0.087,0.003-0.183,0.003-0.284c-0.002-0.215-0.011-0.463-0.015-0.524c-0.001-0.013-0.002-0.026-0.002-0.039
	c0-0.1,0.05-0.193,0.117-0.271c0.012-0.475,0-0.978-0.058-1.539c-0.003-0.023-0.009-0.045-0.011-0.069
	c-0.017-0.081-0.034-0.166-0.052-0.244c-0.048-0.21-0.096-0.422-0.125-0.639c-0.017-0.152-0.031-0.303-0.04-0.456
	c-0.038-0.199-0.072-0.395-0.114-0.593c-0.064-0.07-0.133-0.193-0.142-0.279c-0.016-0.15-0.065-0.321-0.115-0.499l-0.181-0.7
	c-0.041-0.139-0.075-0.282-0.096-0.41c-0.006-0.046-0.006-0.093,0.003-0.137l-0.732-1.316c-0.141-0.247-0.273-0.481-0.375-0.725
	c-0.033-0.052-0.054-0.111-0.058-0.173c-0.001-0.017,0.009-0.031,0.01-0.048l-0.413-0.583c-0.133-0.193-0.242-0.375-0.339-0.56
	l-0.041-0.074c-0.094-0.173-0.192-0.353-0.277-0.554l-0.049-0.118c-0.312-0.364-0.657-0.715-0.998-1.061l-0.432-0.442
	c-0.062-0.065-0.095-0.15-0.101-0.239c-0.09-0.039-0.169-0.1-0.208-0.196l-0.121-0.304c-0.006-0.016,0.001-0.032-0.002-0.048
	c-0.193-0.162-0.394-0.342-0.6-0.527c-0.329-0.296-0.668-0.603-0.987-0.842l-0.04-0.03l0.002-0.049c0-0.05-0.089-0.198-0.191-0.354
	c-0.025-0.018-0.049-0.034-0.073-0.052l-0.097-0.071c-0.153-0.108-0.391-0.276-0.476-0.291c-0.103,0.007-0.185-0.024-0.248-0.079
	L50.048,8.55l-0.082-0.078c-0.062-0.051-0.142-0.112-0.229-0.177l-0.262-0.192c-0.22-0.162-0.326-0.266-0.353-0.356
	c-0.11-0.083-0.192-0.157-0.286-0.241l-0.049-0.045c-0.028-0.008-0.057,0-0.083-0.015l-0.428-0.254
	c-0.201-0.125-0.407-0.23-0.412-0.232C47.77,6.91,47.703,6.826,47.674,6.73c-0.04-0.017-0.082-0.033-0.123-0.05
	c-0.032-0.013-0.065-0.026-0.097-0.04c-0.095,0.051-0.212,0.06-0.315,0.017l-0.565-0.222c-0.136-0.053-0.225-0.177-0.24-0.315
	c-0.02-0.016-0.042-0.033-0.059-0.045c-0.1-0.077-0.274-0.207-0.288-0.418c-0.443-0.244-0.87-0.356-1.317-0.475
	C44.36,5.1,44.046,5.016,43.714,4.891c-0.018-0.006-0.038-0.014-0.058-0.022c-0.095-0.041-0.165-0.116-0.202-0.205
	c-0.271-0.087-0.499-0.082-0.763-0.078c-0.002,0.001-0.008,0.001-0.008,0.001c-0.148,0-0.283-0.086-0.347-0.217
	c-0.132,0.009-0.321,0.011-0.69-0.073c-0.071-0.015-0.133-0.05-0.182-0.098c-0.041-0.002-0.081-0.006-0.117-0.011
	c-0.169-0.022-0.302-0.153-0.327-0.32c-0.005-0.037,0.007-0.072,0.012-0.107l-0.12,0.004l0.116-0.097
	c-0.055-0.03-0.098-0.071-0.147-0.107c-0.01-0.001-0.019-0.003-0.03-0.005c-0.082-0.013-0.15-0.024-0.225-0.037
	c-0.038,0.081-0.093,0.16-0.153,0.2c-0.201,0.133-0.432,0.064-0.616,0.01c-0.039-0.011-0.079-0.022-0.117-0.031
	c-0.162-0.008-0.304-0.029-0.404-0.136c-0.286-0.055-0.572-0.114-0.85-0.177c-0.612-0.139-1.243-0.283-1.907-0.328
	c-0.159-0.011-0.293-0.121-0.338-0.271c-0.288-0.038-0.58-0.051-0.888-0.041c-0.209,0.001-0.415,0.011-0.631,0.021
	c-0.311,0.015-0.647,0.026-1.019,0.028c-0.176-0.002-0.324-0.123-0.366-0.287c-0.781-0.008-1.532,0.016-2.3,0.076
	c-0.118-0.001-0.229-0.035-0.309-0.121c-0.109-0.118-0.302-0.103-0.72-0.043c-0.336,0.049-0.739,0.108-1.158,0.011
	c-0.18,0.112-0.476,0.166-0.967,0.194c-0.009,0.001-0.018,0.005-0.028,0.005h-0.005L27.78,2.625l-0.001,0
	c-0.15,0.008-0.301,0.013-0.439,0.013c-0.084,0-0.163-0.002-0.234-0.006c-0.074-0.004-0.138-0.034-0.194-0.074
	c-0.318,0.04-0.651,0.048-0.89-0.038c-0.156,0.059-0.332,0.073-0.483,0.082c-0.054,0.152-0.188,0.26-0.35,0.26
	c-0.006,0-0.013,0-0.018-0.001l-0.454-0.022c-0.059-0.002-0.114-0.023-0.164-0.05c-0.159,0.017-0.323,0.049-0.498,0.092
	c-0.232,0.062-0.478,0.124-0.714,0.166c-0.126,0.135-0.349,0.199-0.611,0.274c-0.085,0.024-0.216,0.062-0.29,0.089
	c-0.03,0.016-0.059,0.03-0.085,0.043c-0.104,0.051-0.221,0.049-0.321,0.004c-0.003,0.001-0.005,0.003-0.008,0.004
	c-0.226,0.135-0.465,0.277-0.74,0.291c-0.064-0.004-0.134-0.014-0.202-0.039c-0.116,0.087-0.256,0.165-0.398,0.234
	c-0.203,0.116-0.617,0.332-0.975,0.304c-0.023-0.001-0.046-0.004-0.068-0.01c-0.07,0.036-0.139,0.072-0.208,0.108
	c-0.169,0.086-0.337,0.172-0.504,0.263l-0.398,0.199C18.26,4.946,17.986,5.08,17.72,5.236c-0.421,0.23-0.81,0.442-1.151,0.693
	c-0.353,0.242-0.713,0.504-1.015,0.823c-0.122,0.128-0.315,0.155-0.468,0.066c-0.005-0.004-0.011-0.007-0.015-0.011
	c-0.057,0.268-0.129,0.563-0.54,0.874l-1.49,1.105c-0.25,0.185-0.485,0.376-0.717,0.575l-0.219,0.185
	c-0.167,0.14-0.334,0.279-0.498,0.422l-0.288,0.274c-0.361,0.34-0.702,0.66-1.008,1.014c-0.209,0.232-0.412,0.461-0.603,0.695
	c-0.089,0.114-0.177,0.231-0.265,0.349c0.014,0.029,0.024,0.061,0.03,0.094c0.024,0.128-0.019,0.259-0.114,0.346
	c-0.056,0.053-0.114,0.09-0.166,0.119c0.001,0.126-0.06,0.246-0.167,0.32c-0.213,0.143-0.42,0.398-0.596,0.627
	c-0.219,0.281-0.418,0.601-0.609,0.911l-0.07,0.107c-0.382,0.595-0.745,1.16-1.216,1.437c-0.158,0.385-0.358,0.693-0.553,0.992
	c-0.293,0.452-0.569,0.877-0.711,1.565c-0.014,0.067-0.046,0.129-0.092,0.18c-0.1,0.108-0.197,0.162-0.284,0.185l-0.173,0.754
	c-0.089,0.659-0.442,1.355-0.797,2.014c-0.167,0.362-0.329,0.712-0.463,1.063c-0.119,0.301-0.186,0.639-0.204,1.01
	c-0.003,0.071-0.026,0.136-0.062,0.192c0,0.015-0.001,0.031-0.003,0.047c-0.037,0.312-0.052,0.563-0.065,0.781
	c-0.015,0.233-0.031,0.423-0.049,0.605l-0.117,1.178c-0.012,0.143-0.104,0.263-0.23,0.316c0,0.001,0,0.001,0,0.002
	c0.098,0.158,0.112,0.373,0.121,0.505c-0.023,0.515-0.097,0.947-0.166,1.307c-0.068,0.338-0.115,0.664-0.157,0.975
	c0.051,0.124,0.078,0.243,0.1,0.345c0.006,0.024,0.01,0.049,0.015,0.07c0.11,0.064,0.184,0.183,0.189,0.317
	c0.012,0.402,0.036,0.728,0.061,1.059l0.013,0.17c0.01,0.142,0.026,0.289,0.04,0.446c0.028,0.28,0.058,0.59,0.078,0.965
	c0.001,0.028,0,0.056-0.005,0.084c0.078,0.24,0.053,0.51,0.03,0.74c-0.009,0.095-0.022,0.239-0.013,0.285
	c0.103,0.126,0.095,0.272,0.008,0.41c-0.015,0.025-0.033,0.044-0.054,0.063l0.006,0.023c0.014,0.05,0.016,0.101,0.009,0.149
	c0.045,0.047,0.077,0.108,0.088,0.18c0.083,0.564,0.17,1.148,0.298,1.676c0.124,0.561,0.229,1.089,0.331,1.63
	c0.02,0.105-0.006,0.213-0.068,0.297c0.05,0.192,0.093,0.385,0.125,0.566c0.019,0.088,0.054,0.27,0.072,0.464
	c0.049,0.027,0.093,0.065,0.127,0.113c0.089,0.123,0.298,0.414,0.174,0.685l0.043,0.059c0,0.001,0.001,0.001,0.001,0.001
	c0.078,0.104,0.096,0.232,0.06,0.348l0.315,0.528c0.057,0.089,0.073,0.198,0.046,0.302c-0.007,0.023-0.015,0.046-0.026,0.068
	c0,0.086,0.03,0.258,0.082,0.44c0.029,0.009,0.06,0.001,0.088,0.019c0.058,0.037,0.092,0.107,0.135,0.164
	c0.019,0.016,0.04,0.026,0.056,0.046l0.229,0.301c0.07,0.092,0.094,0.21,0.066,0.323l-0.034,0.135l0.038,0.028
	c0.047,0.036,0.093,0.067,0.134,0.095H5.39c0.101,0.026,0.211,0.08,0.261,0.172l0.052,0.095c0.044,0.08,0.054,0.169,0.038,0.253
	c0.144,0.077,0.302,0.174,0.419,0.374c0.277,0.535,0.4,0.802,0.481,1.041l0.047,0.152c0.031,0.101,0.064,0.213,0.13,0.375
	c0.294,0.092,0.528,0.411,0.685,0.627c0.137,0.181,0.3,0.401,0.374,0.44c0.156-0.016,0.227,0.061,0.296,0.204
	c0.385,0.81,1.289,1.66,2.162,2.483c0.247,0.233,0.493,0.465,0.727,0.695c0.055,0.054,0.09,0.121,0.105,0.193
	c0.059,0.031,0.128,0.048,0.224,0.072c0.221,0.053,0.523,0.126,0.831,0.449c0.068,0.072,0.104,0.166,0.105,0.26
	c0.239,0.236,0.567,0.488,0.947,0.724c0.563,0.353,1.099,0.596,1.45,0.738c0.039,0.016,0.074,0.038,0.104,0.064
	c0.171,0.016,0.31,0.139,0.401,0.221c0.036,0.032,0.065,0.071,0.086,0.111l0.232,0.033c0.071,0.01,0.137,0.04,0.192,0.086
	c0.42,0.355,0.94,0.734,1.585,1.16c0.238,0.164,0.489,0.295,0.736,0.427l0.131,0.07c0.333,0.166,0.593,0.298,0.862,0.391
	c0.051,0.017,0.096,0.044,0.135,0.08c0.101,0.094,0.164,0.192,0.188,0.293c0.15,0.057,0.29,0.099,0.436,0.15l0.032-0.079
	c0.069,0.024,0.199,0.099,0.29,0.19c0.089,0.029,0.183,0.066,0.269,0.093c0.159,0.046,0.304,0.097,0.46,0.143
	c0.118-0.011,0.254,0.02,0.487,0.151c0.155,0.05,0.323,0.094,0.471,0.147c0.108,0.038,0.191,0.123,0.229,0.226
	c0.117-0.029,0.237-0.029,0.371,0.014l-0.014-0.018l0.324,0.122c0.163,0.061,0.325,0.12,0.527,0.154l0.056,0.009l-0.006,0.039
	c0.078,0.019,0.146,0.029,0.242,0.063c0.105,0.038,0.175,0.125,0.213,0.227c0.036,0.015,0.07,0.031,0.108,0.047
	c0.062-0.031,0.124-0.06,0.19-0.081c0.061-0.019,0.125-0.019,0.182-0.019c0.542,0,0.771,0.211,0.975,0.448
	c0.121,0.142,0.225,0.265,0.545,0.319c0.003-0.006,0.008-0.008,0.012-0.013l-0.321-0.167l0.373,0.106
	c0.073-0.09,0.164-0.152,0.237-0.179c0.078-0.028,0.162-0.032,0.24-0.008c0.377,0.11,0.598,0.126,0.832,0.143
	c0.301,0.012,0.576,0.06,1.011,0.149c0.083,0.017,0.159,0.062,0.214,0.127c0.029,0.034,0.069,0.083,0.107,0.142
	c0.067-0.035,0.143-0.054,0.219-0.042c0.311,0.038,0.535,0.071,0.636,0.233c0.223-0.009,0.445-0.006,0.642,0.004l0.137,0.008
	c0.273,0.015,0.558,0.032,0.701-0.026c0.131-0.052,0.278-0.027,0.38,0.058c0.076-0.021,0.158-0.049,0.245-0.08
	c0.189-0.065,0.402-0.14,0.649-0.174c0.084-0.015,0.17,0.006,0.243,0.047c0.057,0.033,0.103,0.07,0.139,0.109
	c0.01-0.015,0.021-0.03,0.033-0.043c0.16-0.189,0.422-0.223,0.633-0.23c0.166-0.043,0.35,0.121,0.387,0.303
	c0.029,0.023,0.058,0.05,0.087,0.083c0.004,0.005,0.013,0.013,0.033,0.023c0.129-0.056,0.25-0.072,0.34-0.079
	c0.041-0.092,0.117-0.167,0.213-0.203c0.137-0.049,0.291-0.024,0.398,0.078c0.041,0.039,0.064,0.061,0.085,0.078
	c0.041-0.008,0.077-0.018,0.119-0.025c0.07-0.037,0.142-0.073,0.214-0.102c0.044-0.018,0.108-0.043,0.156-0.065
	c0.031-0.085,0.092-0.159,0.176-0.205c0.158-0.085,0.356-0.049,0.473,0.091c0.031,0.039,0.063,0.091,0.086,0.149l0.035-0.002
	c0.034-0.023,0.068-0.046,0.08-0.063c-0.007-0.107,0.021-0.165,0.096-0.242c0.075-0.079,0.171-0.074,0.275-0.069
	c0.107,0.003,0.197,0.018,0.287,0.035c0.121,0.022,0.212,0.039,0.381,0.007c0.039-0.013,0.078-0.02,0.122-0.021
	c0.23-0.097,0.479-0.176,0.72-0.253l0.359-0.12l0.012-0.003c0.029-0.014,0.051-0.02,0.075-0.022l-0.004-0.011
	c0.079-0.033,0.153-0.068,0.221-0.106c0.152-0.082,0.206-0.145,0.225-0.174c0.092-0.143,0.272-0.207,0.432-0.156
	c0.062,0.019,0.116,0.053,0.159,0.097c0.105-0.022,0.251-0.066,0.342-0.093c0.254-0.076,0.5-0.15,0.687-0.079
	c0.115-0.079,0.207-0.155,0.26-0.205c0.045-0.093,0.113-0.172,0.218-0.204c0.133-0.041,0.283,0.008,0.386,0.1
	c0.056-0.017,0.12-0.037,0.171-0.054c0.167-0.057,0.35-0.119,0.531-0.137c0.138-0.127,0.322-0.217,0.503-0.304
	c0.116-0.057,0.238-0.116,0.318-0.173c0.021-0.017,0.039-0.03,0.052-0.039c0.116-0.085,0.261-0.094,0.384-0.04
	c0.02-0.065,0.058-0.136,0.121-0.208c0.051-0.06,0.121-0.102,0.196-0.121c0.081-0.02,0.241-0.059,0.4-0.016l0.141-0.171
	c0.056-0.067,0.134-0.113,0.22-0.13c0.107-0.021,0.201-0.023,0.286-0.014c0.147-0.154,0.361-0.325,0.721-0.34l0.078-0.072
	c0.05-0.046,0.112-0.078,0.178-0.093c0.166-0.037,0.376-0.062,0.573-0.028c0.006-0.004,0.01-0.008,0.016-0.012
	c0.118-0.077,0.185-0.137,0.203-0.182l0.015-0.034l0.033-0.015c0.15-0.07,0.224-0.057,0.301-0.01c0-0.002,0.056-0.014,0.257-0.189
	c0.102-0.1,0.102-0.145,0.102-0.146l-0.311-0.134l0.338-0.04c0.127-0.018,0.464-0.228,0.75-0.469l0.258-0.216
	c-0.011-0.011-0.02-0.024-0.028-0.039l-0.033-0.07l0.063-0.047c0.454-0.341,0.757-0.719,1.049-1.085
	c0.149-0.186,0.292-0.364,0.448-0.529l0.137-0.145l0.024,0.179c0.11-0.15,0.15-0.237,0.169-0.315l0.006-0.024l0.363-0.384
	l0.149,0.116c-0.032,0.049-0.056,0.091-0.076,0.126c0.02-0.022,0.039-0.045,0.059-0.068c0.229-0.263,0.575-0.662,0.53-0.799
	l0.073-0.024l-0.035-0.038l0.033-0.03c0.051-0.048,0.094-0.086,0.152-0.153l0.224-0.267c0.154-0.185,0.317-0.382,0.462-0.558
	l0.045-0.053c0.329-0.398,0.441-0.53,0.509-0.567c0.127-0.213,0.275-0.429,0.419-0.637c0.193-0.283,0.458-0.67,0.44-0.762
	l-0.059-0.048l0.043-0.055c0.085-0.167,0.24-0.336,0.39-0.499c0.224-0.243,0.457-0.496,0.426-0.713l-0.007-0.048l0.035-0.033
	c0.172-0.167,0.24-0.229,0.316-0.174c0.021,0.014,0.033,0.03,0.04,0.048c0.036-0.074,0.067-0.148,0.096-0.219
	c0.075-0.18,0.148-0.354,0.273-0.441c-0.023-0.022-0.043-0.058-0.046-0.117l-0.005-0.109l0.108,0.009
	c0.001,0.001,0.003,0.001,0.004,0.001c0.112,0,0.299-0.337,0.388-0.5c0.045-0.08,0.088-0.164,0.133-0.25
	c0.106-0.204,0.215-0.415,0.344-0.581l-0.001-0.001c-0.077-0.046-0.06-0.142-0.024-0.308l0.05-0.227l0.079,0.126
	c0.021-0.029,0.048-0.071,0.077-0.125l-0.136-0.222l0.706-0.388c0.043-0.254,0.019-0.305,0.016-0.31
	c-0.028-0.001-0.081-0.014-0.112-0.07c-0.042-0.076-0.034-0.196,0.129-0.677l0.038,0.01c0.11-0.101,0.148-0.286,0.201-0.538
	c0.058-0.279,0.13-0.627,0.336-1.016l0.093,0.044l0.035-0.247l0.112,0.01l0.024-0.038c-0.038-0.017-0.069,0-0.081,0.01
	c0.108-0.162,0.116-0.238,0.126-0.334c0.01-0.102,0.022-0.229,0.147-0.463l0.177-0.33l-0.026-0.651l0.244,0.485
	c0.013-0.083,0.024-0.177,0.034-0.286c0.008-0.11,0.011-0.225,0.014-0.339c0.002-0.088,0.004-0.176,0.008-0.261
	c0.025-0.446,0.083-0.779,0.285-0.95l0.159-0.133c-0.001-0.041,0.008-0.066,0.002-0.114c-0.002-0.023-0.006-0.042-0.011-0.057
	l-0.147-0.028c0.005-0.052,0.018-0.091,0.034-0.118l0.125-0.426l0.113,0.159c0.176,0.246,0.078,1.318,0.03,1.675l-0.08,0.595
	l-0.073-0.403c-0.002,0.147-0.018,0.298-0.027,0.448c0.016-0.007,0.023-0.028,0.041-0.029c0.055-0.007,0.109,0.029,0.133,0.08
	c0.001,0.003,0.003,0.007,0.004,0.01c0.003-0.022,0.006-0.036,0.008-0.059l0.018-0.186l0.063,0.091
	c0.004-0.012,0.009-0.023,0.013-0.035l0.057-0.142l0.067,0.136c0.053,0.11,0.122,0.252,0.141,0.465l0.023,0.258l-0.245-0.359
	c-0.002,0.052,0.008,0.091,0.017,0.13c0.02,0.08,0.042,0.172,0.006,0.354l-0.012,0.027c-0.079,0.106-0.131,0.176-0.19,0.188
	c-0.053,0.434-0.167,0.803-0.393,1.281l-0.166,0.351l0.034-0.348c-0.029,0.068-0.046,0.129-0.08,0.201
	c-0.031,0.192-0.052,0.358-0.066,0.529c-0.024,0.307-0.073,0.618-0.229,1.146c-0.139,0.733-0.518,1.33-0.853,1.857
	c-0.18,0.284-0.352,0.557-0.467,0.82c0.062-0.06,0.102-0.092,0.158-0.058c0.06,0.042,0.033,0.118-0.049,0.293l-0.058,0.125
	l-0.057-0.11c-0.012,0.011-0.025,0.032-0.039,0.051c-0.016,0.044-0.036,0.091-0.059,0.14c-0.018,0.039-0.06,0.053-0.1,0.063
	c-0.066,0.332-0.21,0.522-0.338,0.688c-0.105,0.136-0.197,0.255-0.235,0.435l-0.12-0.016c-0.002,0.001-0.005,0.005-0.008,0.006
	c0.003,0.008,0.005,0.02,0.019,0.028c0.017,0.012,0.038,0.01,0.043,0.007c-0.019,0.008-0.068,0.056-0.118,0.108
	c-0.005,0.017-0.015,0.029-0.019,0.048c-0.013,0.065-0.063,0.108-0.134,0.109c-0.022,0.022-0.044,0.046-0.065,0.067l-0.055,0.052
	l-0.003-0.004c-0.006,0.006-0.013,0.014-0.019,0.02c-0.048,0.051-0.099,0.104-0.145,0.149c-0.029,0.027-0.072,0.037-0.109,0.039
	c-0.013-0.001-0.026-0.004-0.038-0.008c-0.011,0.01-0.023,0.021-0.031,0.027c-0.019,0.016-0.044,0.037-0.072,0.054
	c-0.057,0.095-0.113,0.197-0.168,0.282l-0.064,0.097c-0.166,0.25-0.308,0.482-0.359,0.766l0.036-0.034l0.098,0.092l-0.285,0.347
	c-0.11,0.128-0.218,0.255-0.267,0.312c-0.056,0.068-0.099,0.124-0.137,0.174c-0.098,0.127-0.169,0.219-0.336,0.354
	c-0.079,0.091-0.187,0.189-0.37,0.322c-0.051,0.119-0.112,0.235-0.178,0.348c-0.073,0.171-0.15,0.344-0.26,0.502l-0.1,0.142
	l-0.118-0.124c-0.012,0.024-0.024,0.047-0.036,0.071c-0.062,0.125-0.126,0.25-0.205,0.375l-0.17,0.27l-0.019-0.066
	c-0.027,0.042-0.082,0.086-0.157,0.135c0,0.002,0,0.006,0.001,0.008c0.003,0.016-0.002,0.028,0,0.044l0.195-0.01l-0.195,0.113
	c-0.01,0.046-0.035,0.09-0.074,0.131l0.024-0.001l-0.028,0.017l0.322-0.017l-0.594,0.348c-0.053,0.032-0.101,0.059-0.148,0.086
	l-0.107,0.123l0.126,0.014l-0.125,0.144l0.064-0.04l-0.252,0.256l-0.717,0.828c-0.128,0.131-0.228,0.053-0.245,0.033
	c-0.005-0.005-0.01-0.01-0.014-0.015c-0.254,0.172-0.496,0.356-0.726,0.543c-0.063,0.069-0.125,0.135-0.188,0.206l-0.186,0.209
	c-0.187,0.207-0.38,0.405-0.583,0.596c-0.006,0.007-0.012,0.013-0.018,0.019l0.01,0.006l-0.019,0.003
	c-0.145,0.146-0.296,0.287-0.461,0.421l-0.032,0.024c-0.076,0.061-0.149,0.118-0.236,0.178c-0.103,0.068-0.209,0.133-0.313,0.192
	l-0.098,0.041c-0.023,0.053-0.056,0.102-0.111,0.14l-0.03,0.02c-0.067,0.063-0.148,0.111-0.218,0.15l-0.087,0.06
	c-0.119,0.146-0.265,0.283-0.401,0.396l0.552,0.092l-0.708,0.033c-0.128,0.097-0.223,0.161-0.227,0.163
	c-0.452,0.206-0.684,0.31-0.849,0.257l-0.811,0.547c-0.081,0.055-0.179,0.076-0.277,0.059c-0.102,0.086-0.242,0.113-0.371,0.072
	c-0.002-0.001-0.004-0.002-0.006-0.002c-0.111,0.037-0.287,0.109-0.414,0.163c-0.046,0.02-0.093,0.039-0.14,0.058
	c-0.025,0.077-0.072,0.147-0.141,0.196c-0.66,0.48-1.268,0.516-1.804,0.547c-0.369,0.022-0.687,0.04-0.978,0.205l-0.498,0.413
	c-0.125,0.101-0.295,0.112-0.433,0.034c-0.008,0.008-0.016,0.015-0.018,0.017c-0.019,0.016-0.043,0.032-0.067,0.046
	c-0.046,0.037-0.073,0.059-0.102,0.077c-0.196,0.137-0.425,0.217-0.764,0.268c-0.294,0.028-0.565,0.072-0.838,0.119
	c-0.308,0.036-0.594,0.076-0.879,0.126c-0.128,0.02-0.249,0.044-0.371,0.068c-0.175,0.035-0.35,0.07-0.526,0.09l-0.869,0.128
	c-1.179,0.178-2.213,0.229-3.15,0.144c-0.057,0.033-0.122,0.052-0.19,0.052c-0.031,0-0.064-0.004-0.098-0.013
	c-0.017-0.005-0.034-0.009-0.052-0.014c-0.507-0.135-0.885-0.198-1.222-0.206c-0.267-0.011-0.515,0.009-0.762,0.026
	c-0.14,0.01-0.28,0.02-0.417,0.024l-0.094,0.007c-0.36,0.023-0.733,0.049-1.12,0.027c-0.492-0.045-0.935-0.163-1.369-0.359
	c-0.05-0.023-0.093-0.056-0.128-0.095c-0.119-0.032-0.211-0.077-0.271-0.152c-0.265,0.022-0.6-0.045-0.976-0.115
	c-0.212-0.039-0.42-0.079-0.583-0.091c-0.129-0.01-0.242-0.085-0.302-0.192h-0.011c-0.261,0-0.573-0.038-0.962-0.115
	c-0.289-0.053-0.591-0.138-0.883-0.222c-0.215-0.061-0.425-0.122-0.624-0.165c-0.147-0.031-0.261-0.146-0.292-0.292
	c-0.007,0.028-0.122-0.078-0.211-0.154l-0.098-0.086c-0.074-0.067-0.15-0.136-0.225-0.207c-0.062,0.062-0.144,0.114-0.219,0.142
	c-0.035,0.042-0.08,0.076-0.131,0.1c-0.098,0.048-0.212,0.049-0.314,0.003c-0.065-0.029-0.15-0.061-0.242-0.096
	c-0.103-0.039-0.213-0.081-0.314-0.124c-0.123-0.055-0.353-0.159-0.482-0.34c-0.102-0.056-0.187-0.113-0.292-0.185
	c-0.153-0.034-0.291-0.09-0.415-0.17c-0.069-0.044-0.12-0.107-0.149-0.179c-0.406-0.192-1.004-0.304-1.419-0.382l-0.192-0.036
	c-0.191-0.038-0.324-0.215-0.305-0.409c0.01-0.103,0.06-0.194,0.134-0.255c-0.19-0.092-0.395-0.211-0.609-0.384
	c-0.058-0.046-0.099-0.105-0.122-0.171c-0.026-0.003-0.048-0.003-0.06,0.001c-0.124,0.056-0.256,0.039-0.366-0.042
	c-0.111-0.078-0.158-0.215-0.146-0.35c-0.043-0.029-0.398-0.355-0.613-0.428c0.009,0.01-0.044,0.007-0.089,0.005
	c-0.265-0.012-0.424-0.048-0.831-0.34c-0.077-0.054-0.127-0.133-0.148-0.219c-0.156-0.039-0.317-0.099-0.521-0.287
	c-0.025-0.022-0.05-0.047-0.076-0.076c-0.038-0.042-0.063-0.092-0.08-0.141c-0.198-0.092-0.301-0.107-0.548-0.143l-0.262-0.04
	c-0.16-0.027-0.286-0.153-0.313-0.312c-0.001-0.009-0.002-0.018-0.003-0.027c-0.595-0.299-0.898-0.515-1.057-0.675
	c-0.349-0.042-0.763-0.408-1.447-1.112l-0.157-0.162c-0.051-0.05-0.085-0.111-0.1-0.175c-0.57-0.417-1.011-0.957-1.442-1.482
	c-0.188-0.23-0.376-0.461-0.574-0.677c-0.092-0.102-0.123-0.246-0.079-0.376l0.024-0.073c-0.063-0.022-0.139-0.038-0.239-0.057
	c-0.306-0.062-0.698-0.143-0.994-0.522c-0.068-0.087-0.093-0.195-0.075-0.299c-0.536-0.627-0.793-1.028-1.204-1.689
	c-0.054-0.087-0.07-0.193-0.045-0.293c0.001-0.005,0.002-0.01,0.004-0.015c-0.053-0.058-0.106-0.119-0.159-0.179
	C3.8,45.569,3.699,45.45,3.592,45.353c-0.081-0.074-0.126-0.18-0.124-0.29c0.006-0.258-0.271-0.708-0.565-1.184l-0.244-0.4
	c-0.268-0.446-0.466-0.855-0.605-1.236c-0.066-0.032-0.125-0.079-0.164-0.147c0,0-0.07-0.122-0.133-0.25l-0.115-0.225
	c-0.053-0.104-0.04-0.215,0.003-0.316c-0.092-0.044-0.171-0.11-0.204-0.212c-0.105-0.331-0.195-0.62-0.244-0.888
	c-0.015-0.084-0.023-0.134-0.035-0.239c-0.006-0.108-0.003-0.182,0.003-0.251c0.019-0.171,0.069-0.315,0.149-0.434
	c-0.045-0.111-0.092-0.231-0.116-0.357c-0.19-0.013-0.344-0.165-0.355-0.357c-0.027-0.476-0.101-1.02-0.174-1.565
	c-0.148-1.096-0.287-2.134-0.114-2.814l-0.376-1.822c-0.061-0.328-0.103-0.656-0.137-1.002c-0.028-0.318-0.061-0.71-0.033-1.129
	c0.005-0.073,0.031-0.142,0.073-0.199c0.074-0.57,0.185-1.222,0.501-1.504c-0.014-0.246-0.05-0.48-0.087-0.724
	c-0.024-0.154-0.047-0.308-0.065-0.465c-0.047-0.52-0.077-1.076,0.106-1.765c0.022-0.083,0.069-0.151,0.132-0.201
	c-0.003-0.121-0.013-0.245-0.027-0.359c-0.005-0.043-0.003-0.086,0.006-0.129c0.022-0.095,0.093-0.204,0.18-0.273
	c-0.002-0.021-0.006-0.046-0.011-0.074c-0.015-0.094-0.035-0.211-0.025-0.345c0.011-0.145,0.105-0.271,0.239-0.324
	c0.094-0.318,0.153-0.703,0.216-1.104l0.102-0.629c0.045-0.258,0.089-0.521,0.14-0.78c0.071-0.387,0.202-0.754,0.319-1.068
	c0.029-0.075,0.078-0.136,0.14-0.179c0.034-0.505,0.256-1.123,0.52-1.801c0.076-0.195,0.141-0.364,0.179-0.489
	c0.034-0.11,0.114-0.195,0.214-0.238c0.115-0.196,0.243-0.316,0.352-0.415c-0.056-0.117-0.051-0.258,0.024-0.373
	c0.076-0.115,0.141-0.227,0.184-0.318c-0.004-0.008-0.009-0.016-0.013-0.024c-0.068-0.141-0.041-0.31,0.065-0.424
	c0.201-0.215,0.35-0.278,0.509-0.301c0-0.013,0.052-0.076,0.147-0.223c0.086-0.138,0.248-0.198,0.406-0.166
	c0.029,0.007,0.059,0.019,0.086,0.033c0-0.045,0.004-0.09,0.011-0.131c-0.001-0.002-0.003-0.004-0.004-0.007
	c-0.117-0.15-0.128-0.348,0.005-0.485c0.056-0.058,0.192-0.188,0.369-0.232c-0.06-0.116-0.07-0.252-0.001-0.367
	c0.177-0.291,0.388-0.568,0.59-0.831l0.069-0.09c0.226-0.289,0.447-0.561,0.671-0.818c0.208-0.244,0.411-0.488,0.598-0.742
	c0.172-0.224,0.363-0.485,0.52-0.765c0.054-0.096,0.146-0.164,0.254-0.187c0.033-0.007,0.133-0.046,0.353-0.26
	c0.162-0.149,0.319-0.317,0.472-0.482L8.63,9.866c0.22-0.243,0.416-0.42,0.604-0.538c0.262-0.317,0.51-0.585,0.881-0.989
	l0.042-0.046c0.212-0.478,0.977-1.175,0.984-1.184c0.082-0.073,0.184-0.106,0.292-0.095c0.064-0.074,0.154-0.107,0.248-0.117
	c0-0.044-0.011-0.089,0.006-0.133c0.158-0.401,0.682-0.683,0.967-0.661c0.012,0,0.022,0.009,0.033,0.01
	c0.171-0.162,0.265-0.292,0.351-0.417c0.168-0.251,0.344-0.49,0.753-0.807c0.077-0.06,0.172-0.087,0.269-0.078
	c0.01-0.011,0.021-0.022,0.03-0.032c0.148-0.155,0.346-0.363,0.63-0.444c0.384-0.278,0.8-0.557,1.407-0.911l0.046-0.027l0.034,0.018
	c0.146-0.167,0.405-0.282,0.643-0.377c0.081-0.034,0.165-0.064,0.243-0.092c0.021-0.008,0.039-0.016,0.061-0.023
	c0.05-0.033,0.099-0.055,0.157-0.063c0.056-0.025,0.102-0.051,0.123-0.077l0.177-0.233L17.61,2.728
	c0.126-0.081,0.253-0.161,0.371-0.248c0.352-0.258,0.683-0.502,1.092-0.515c0.064,0.001,0.111,0.01,0.16,0.03
	c0.146-0.054,0.302-0.141,0.447-0.222c0.006-0.004,0.09-0.05,0.097-0.054c0.146-0.071,0.402-0.179,0.658-0.181l0.662-0.235
	c0.274-0.086,0.533-0.148,0.784-0.208l0.337-0.081l-0.078,0.131c0.086-0.027,0.175-0.054,0.265-0.08L22.7,0.987l0.082-0.016
	c0.168-0.051,0.329-0.097,0.489-0.142c0.065-0.062,0.147-0.104,0.242-0.109l0.225-0.009C23.745,0.71,23.75,0.71,23.755,0.71
	c0.025,0,0.042,0.02,0.066,0.025l0.086-0.033c0.003-0.001,0.004-0.001,0.007-0.002c0.003-0.013,0-0.027,0.004-0.04
	c0.037-0.11,0.123-0.196,0.234-0.235c0.325-0.117,0.527-0.029,0.635,0.064c0.025,0.022,0.039,0.064,0.06,0.098l0.026-0.009
	l0.031,0.088c0.089-0.02,0.183-0.041,0.279-0.062c0.404-0.091,0.814-0.166,0.814-0.166l0.082-0.016l0.017,0.053
	c0.078,0.032,0.344,0.071,0.664,0.091c0.046-0.023,0.096-0.048,0.131-0.062c-0.004,0.003-0.021,0.032-0.032,0.046
	c0.098-0.123,0.261-0.173,0.411-0.127l0.003,0.001c0.052-0.091,0.126-0.167,0.231-0.193c0.148-0.035,0.246-0.029,0.337-0.018
	c0.043,0.004,0.087,0.011,0.133,0.022C27.982,0.237,27.99,0.244,28,0.247c0.067-0.013,0.136-0.028,0.187-0.04
	c0.149-0.036,0.287-0.068,0.417-0.072c0.057-0.026,0.126-0.046,0.21-0.056c0.096-0.009,0.228-0.01,0.371-0.006l0.102,0.001
	c0.147,0.002,0.275,0.088,0.337,0.214c0.286-0.117,0.613-0.243,1.173-0.175c0.036,0.004,0.071,0.014,0.105,0.028l0.274,0.118
	c0.19-0.097,0.424-0.109,0.629-0.114c0.011-0.013,0.011-0.032,0.023-0.043c0.125-0.116,0.313-0.135,0.46-0.045
	c0.041,0.026,0.109,0.071,0.17,0.137l0.036,0.021c0.059,0.032,0.174,0.096,0.267,0.195c0.064,0.004,0.126,0.01,0.187,0.017
	c0.087-0.097,0.223-0.145,0.358-0.118c0.126,0.025,0.245,0.041,0.36,0.052l0.351,0.021c0.206,0.003,0.396-0.003,0.58-0.011
	c0.445-0.025,0.925-0.026,1.437,0.164c0.051,0.019,0.096,0.048,0.133,0.084c0.069-0.096,0.181-0.158,0.304-0.16
	c0.48,0.004,0.716,0.104,0.915,0.193c0.164,0.074,0.286,0.121,0.557,0.118c0.059-0.021,0.118,0.009,0.172,0.034
	c0.105,0.048,0.258,0.149,0.307,0.337c0.302,0.045,0.555,0.175,0.768,0.285c0.142,0.072,0.268,0.133,0.37,0.156
	c0.106-0.1,0.263-0.133,0.407-0.074l0.164,0.068c0.04,0.011,0.07,0.014,0.144,0.011c0.169-0.007,0.337,0.001,0.585,0.093
	c0.07-0.127,0.209-0.202,0.353-0.191c0.188,0.02,0.474,0.164,0.599,0.388c0.09,0.005,0.132-0.009,0.178-0.028
	c0.281-0.116,0.515-0.12,0.999,0.179c0.001,0.001,0.001,0.002,0.002,0.002c0.081,0.035,0.142,0.082,0.19,0.142
	c0.05,0.012,0.102,0.026,0.14,0.038c0.107,0.034,0.19,0.112,0.232,0.209c0.07-0.034,0.138-0.046,0.183-0.052
	c0.047-0.005,0.096-0.001,0.142,0.013c0.081-0.021,0.163-0.019,0.243,0.013c0.19,0.078,0.325,0.135,0.497,0.173l0.009,0.002
	c0.166,0.036,0.284,0.175,0.299,0.337c0.248,0.171,0.526,0.34,0.866,0.414c0.196,0.042,0.325,0.229,0.295,0.427
	c-0.001,0.002-0.001,0.004-0.001,0.006c0.07,0.05,0.124,0.113,0.158,0.198c0.018,0.042,0.025,0.094,0.024,0.148
	c0.039,0.009,0.064,0.01,0.066,0.01c0.17-0.043,0.331-0.013,0.523,0.067c0.058-0.031,0.121-0.058,0.191-0.047
	c0.114,0.006,0.219,0.066,0.318,0.155c0.003,0.002,0.007,0.002,0.01,0.004c0.263,0.188,0.49,0.311,0.707,0.429l0.102,0.056
	c0.119,0.07,0.236,0.141,0.354,0.218c0.129-0.003,0.292,0.053,0.378,0.085c0.128,0.05,0.218,0.162,0.24,0.292
	c0.008,0.007,0.017,0.014,0.026,0.021l0.113,0.094c0.089,0.073,0.178,0.15,0.256,0.222c0.119,0.004,0.232,0.065,0.301,0.167
	c0.051,0.075,0.08,0.145,0.096,0.208c0.02,0.012,0.039,0.025,0.057,0.041c0.24,0.21,0.372,0.231,0.555,0.261
	c0.11,0.019,0.256,0.044,0.418,0.115c0.044,0.021,0.083,0.039,0.121,0.062c0.014,0.008,0.085,0.052,0.098,0.061
	c0.133,0.104,0.212,0.177,0.295,0.272c0.065,0.051,0.143,0.185,0.261,0.387c0.028,0.047,0.058,0.098,0.089,0.151
	c0.067-0.01,0.128-0.006,0.178,0.006c0.119,0.03,0.214,0.115,0.26,0.227c0.007,0.019,0.02,0.032,0.027,0.05
	c0.083-0.006,0.168,0.01,0.242,0.06l0.474,0.328c0.142,0.098,0.19,0.275,0.139,0.43l0.215,0.146
	c0.203,0.133,0.411,0.272,0.601,0.442c0.282,0.255,0.5,0.521,0.666,0.812c0.04,0.07,0.056,0.149,0.048,0.227
	c0.069,0.062,0.522,0.482,0.574,0.873c0.302,0.255,0.414,0.466,0.548,0.721c0.05,0.095,0.106,0.203,0.184,0.331
	c0.022,0.037,0.032,0.077,0.04,0.116c0.208-0.002,0.352,0.159,0.417,0.241c0.075,0.095,0.099,0.221,0.067,0.338
	c-0.024,0.082-0.08,0.145-0.147,0.195c-0.003,0.025-0.004,0.049-0.012,0.073c0.057,0.082,0.116,0.169,0.178,0.269
	c0.216,0.275,0.441,0.631,0.66,0.981l0.216,0.338c0.047,0.071,0.067,0.157,0.06,0.24c0.197,0.354,0.325,0.737,0.449,1.111l0.159,0.5
	c0.042,0.142,0.087,0.281,0.134,0.42c0.152,0.029,0.289,0.127,0.314,0.283l0.038,0.286c0.137,0.119,0.214,0.319,0.277,0.48
	l0.163,0.447c0.064,0.212,0.092,0.275,0.103,0.295c0.059,0.105,0.063,0.232,0.013,0.343c0.085,0.119,0.127,0.256,0.149,0.326
	c0.013,0.04,0.022,0.081,0.038,0.112c0.07,0.075,0.085,0.148,0.08,0.25c-0.008,0.171-0.061,0.296-0.147,0.393
	c0.098,0.02,0.187,0.066,0.243,0.152c0.079,0.121,0.082,0.276,0.009,0.4c-0.013,0.022-0.044,0.05-0.07,0.076
	c-0.034,0.099-0.078,0.379-0.08,0.674c0,0.032-0.005,0.062-0.012,0.092c0.111,0.08,0.174,0.217,0.154,0.361
	c-0.058,0.409-0.015,0.773,0.027,1.126C59.56,23.305,59.597,23.618,59.568,23.946z M58.205,38.213
	c-0.01,0.072,0.001,0.116,0.013,0.166c0.003,0.012,0.005,0.031,0.008,0.044c0.003,0.003,0.008,0,0.011,0.004l-0.005-0.054
	C58.227,38.313,58.217,38.26,58.205,38.213z M57.752,38.99c0.007-0.006,0.015-0.014,0.024-0.023l-0.007-0.18l-0.011,0.08
	C57.75,38.927,57.75,38.966,57.752,38.99z M48.36,53.766c-0.005-0.006-0.009-0.013-0.014-0.02c-0.005,0.014-0.017,0.035-0.015,0.042
	c0,0.001,0.001,0.003,0.001,0.004c0.011-0.008,0.015-0.015,0.026-0.023C48.359,53.768,48.359,53.767,48.36,53.766z M48.284,53.604
	l0.033,0.025c0.006-0.034,0.022-0.067,0.052-0.089c0.004-0.004,0.006-0.007,0.011-0.011c-0.008,0-0.018,0-0.026,0
	c-0.011,0-0.022,0.001-0.035,0L48.284,53.604z M48.128,53.519l0.021-0.015c-0.004-0.001-0.007-0.003-0.011-0.005L48.128,53.519z
	 M56.627,26.961l0.106-0.021l0.05-0.092C56.736,26.886,56.684,26.924,56.627,26.961z M56.792,26.932l-0.271,0.115l0.033,0.04
	c0.013-0.005,0.023-0.014,0.037-0.018c0,0,0.02-0.008,0.041-0.017c0.015-0.006,0.039-0.019,0.062-0.03
	c0.002-0.002,0.005-0.002,0.008-0.003L56.792,26.932z M57.014,26.635c-0.025,0.048-0.057,0.101-0.134,0.153
	c-0.003,0.003-0.009,0.004-0.013,0.007l-0.131,0.144l0.06-0.012l0.028-0.027c0.012-0.013,0.022-0.025,0.034-0.037
	c0.02-0.025,0.037-0.045,0.054-0.063c0.012-0.013,0.028-0.026,0.042-0.039c0.015-0.016,0.029-0.033,0.044-0.05l0.005-0.025
	C57.007,26.672,57.01,26.651,57.014,26.635z M54.201,29.147c0.006-0.029-0.008-0.06-0.036-0.078l-0.039-0.022l-0.017,0.014
	c-0.059,0.005-0.093,0.031-0.102,0.08l-0.158,0.106l0.209-0.023c0.053-0.006,0.115-0.018,0.137-0.06h0.008l-0.004-0.011
	C54.2,29.15,54.2,29.148,54.201,29.147z"/>
</svg>
