<?xml version="1.0" encoding="utf-8"?>
<!-- Generator: Adobe Illustrator 22.1.0, SVG Export Plug-In . SVG Version: 6.00 Build 0)  -->
<svg version="1.1" id="Layer_1" xmlns="http://www.w3.org/2000/svg" xmlns:xlink="http://www.w3.org/1999/xlink" x="0px" y="0px"
	 width="129px" height="132px" viewBox="0 0 129 132" enable-background="new 0 0 129 132" xml:space="preserve">
<g>
	<path fill="#055394" d="M122.657,65.532c-0.034,0.022,0.102-0.457,0.152,0.409C122.785,65.863,122.658,66.048,122.657,65.532
		 M121.737,57.222l-0.348-1.21l0.269,1.07L121.737,57.222z M120.917,53.751l0.318,0.584c-0.217-0.834-0.445-1.797-0.72-2.681
		c-0.279-0.882-0.52-1.707-0.667-2.296c-0.009,0.786,0.862,2.745,1.066,4.155L120.917,53.751z M119.158,45.957
		c-0.063-0.161-0.148-0.383-0.295-0.76c0.017,0.277-0.407-0.832,0.341,0.935C119.179,46.04,119.172,46.012,119.158,45.957
		 M119.158,45.957C119.473,46.74,119.023,45.417,119.158,45.957 M118.122,43.373c-0.049-0.232-0.446-1.14-0.261-0.82
		c-0.509-1.023-0.458-0.785-0.267-0.16L118.122,43.373z M117.281,42.013c-0.022-0.101-0.075-0.245-0.28-0.501
		c0,0,0.073,0.123,0.146,0.247L117.281,42.013z M117.845,43.094l-0.564-1.081c0.033,0.162-0.025,0.208,0.253,0.499
		C117.433,42.449,117.589,42.641,117.845,43.094 M118.084,44.082c0.813,1.951,0.865,1.597,0.014-0.346
		C118.318,44.319,118.576,45.078,118.084,44.082 M119.687,49.847l0.265,0.663c-0.066-0.166-0.16-0.551-0.244-0.887
		c-0.09-0.334-0.185-0.613-0.208-0.579l0.101,0.399C119.65,49.643,119.687,49.847,119.687,49.847 M114.948,37.417
		c-0.171-0.389-0.586-1.071-0.555-1.157c-0.078-0.033,0.095,0.382,0.087,0.483c0,0,0.126,0.163,0.24,0.333L114.948,37.417z
		 M114.48,36.743l-0.729-0.987C114.333,36.68,114.473,36.829,114.48,36.743 M117.202,42.309c0.246,0.439,0.49,0.878,0.49,0.878
		s-0.286-0.527-0.57-1.053c-0.137-0.266-0.3-0.519-0.415-0.712c-0.116-0.191-0.194-0.32-0.194-0.32l0.177,0.343
		C116.69,41.445,116.966,41.866,117.202,42.309 M112.246,32.883c0,0-0.213-0.228-0.426-0.457l-0.449-0.439l0.38,0.395
		L112.246,32.883z M109.849,29.704c-0.572-0.629-1.095-1.134-1.585-1.566c0.494,0.484,0.961,1.058,1.531,1.823
		C110.202,30.294,109.449,29.327,109.849,29.704 M107.436,27.418c0.254,0.234,0.528,0.466,0.828,0.72
		C107.995,27.887,107.724,27.646,107.436,27.418 M112.331,33.62c0.084,0.12,0.181,0.256,0.278,0.394
		c-0.032-0.094-0.076-0.285-0.449-0.864L112.331,33.62z M112.338,33.636l-0.007-0.016c-0.299-0.428-0.507-0.725-0.597-0.852
		C111.811,32.878,111.992,33.139,112.338,33.636 M112.679,34.113c-0.025-0.037-0.045-0.063-0.07-0.099
		C112.625,34.059,112.637,34.084,112.679,34.113 M114.685,38.039c0.334,0.399-0.022-0.351,0.612,0.528
		C114.875,37.982,114.064,36.733,114.685,38.039 M113.57,35.795c0.016-0.04-0.068-0.265,0.155,0.014c0,0-0.207-0.28-0.415-0.561
		c-0.103-0.14-0.207-0.281-0.284-0.386c-0.084-0.101-0.139-0.168-0.139-0.168s0.181,0.267,0.346,0.547
		C113.401,35.518,113.57,35.795,113.57,35.795 M112.486,34.201l0.401,0.493l-0.268-0.398L112.486,34.201z M108.849,29.147
		c-0.406-0.391-0.817-0.847-1.31-1.336c0.505,0.547,0.994,1.138,1.47,1.692C109.108,29.553,109.375,29.747,108.849,29.147
		 M110.593,31.292c-0.025-0.029-0.058-0.066-0.082-0.093C110.549,31.266,110.584,31.317,110.593,31.292 M102.581,23.126
		c0.022,0.031,0.044,0.059,0.067,0.09c0.011,0,0.021-0.002,0.035,0L102.581,23.126z M109.072,29.613
		c0.346,0.438,0.589,0.669,0.828,0.884c-0.283-0.308-0.579-0.636-0.891-0.994C108.964,29.48,108.95,29.482,109.072,29.613
		 M106.056,26.096c0.194,0.219,0.414,0.466,0.634,0.736C106.53,26.591,106.157,26.141,106.056,26.096 M110.422,31.027
		c0.019,0.021,0.036,0.04,0.056,0.062C110.387,30.927,110.391,30.954,110.422,31.027 M110.422,31.027
		c-0.193-0.214-0.357-0.372-0.521-0.531c0.22,0.26,0.424,0.5,0.609,0.702C110.474,31.138,110.442,31.074,110.422,31.027
		 M104.332,24.663c0.177,0.168,0.295,0.28,0.295,0.28l-0.144-0.111l0.393,0.353c-0.415-0.438-0.71-0.754-1.248-1.346
		c-0.706-0.532-0.873-0.616-0.945-0.624c0,0,0.489,0.429,0.977,0.858C103.904,24.288,104.149,24.502,104.332,24.663 M106.579,26.834
		c-0.369-0.217-1.34-1.028-0.877-0.397c1.105,1.074,0.835,0.693,1.521,1.313c-1.745-1.782,0.549,0.468-0.642-0.891
		c0.355,0.339,0.667,0.655,0.958,0.953c-0.294-0.341-0.579-0.669-0.85-0.98c0.014,0.019,0.024,0.033,0.034,0.048l0.009,0.008h-0.003
		c0.062,0.089,0.08,0.122,0.002,0.027c-0.006-0.006-0.027-0.026-0.038-0.035C106.669,26.88,106.625,26.859,106.579,26.834
		c-0.48-0.544-0.053-0.108,0.114,0.046c0.011,0.001,0.029,0.011,0.036,0.008c0,0-0.004-0.005-0.006-0.008
		c0,0-0.441-0.445-0.915-0.857c-0.466-0.419-0.933-0.837-0.933-0.837C105.241,25.57,105.742,26.006,106.579,26.834 M113.761,37.051
		c-0.031-0.071-0.022-0.073-0.016-0.083C113.645,36.842,113.601,36.797,113.761,37.051 M113.951,36.991l-0.11-0.138
		c-0.398-0.687-0.824-1.56-0.931-1.827c0.057,0.283,0.132,0.553,0.369,1.124c0.113,0.142,0.239,0.239,0.544,0.74
		c0.24,0.45-0.056,0.032-0.079,0.078C113.968,37.243,114.479,37.968,113.951,36.991 M112.91,35.026
		c-0.005-0.026-0.012-0.052-0.016-0.079C112.871,34.919,112.882,34.957,112.91,35.026 M109.43,30.512
		c-0.352-0.381-0.703-0.762-0.703-0.762l0.601,0.872l0.019-0.085c0.731,0.922,0.622,0.683,0.761,0.76c0,0-0.084-0.1-0.209-0.248
		C109.775,30.899,109.61,30.699,109.43,30.512 M102.743,22.991c0,0-0.257-0.165-0.529-0.308c-0.269-0.147-0.537-0.295-0.537-0.295
		l0.766,0.531L102.743,22.991z M100.452,21.216c0,0-0.153-0.095-0.312-0.183c-0.157-0.089-0.314-0.177-0.314-0.177l0.473,0.397
		L100.452,21.216z M36.006,19.362l0.306-0.036c0.513-0.357,0.924-0.604,1.282-0.798C36.781,18.911,35.837,19.305,36.006,19.362
		 M74.862,10.793c-0.758-0.15-1.365-0.249-1.9-0.324C73.878,10.664,74.602,10.873,74.862,10.793 M18.154,92.793
		c0.208,0.313,0.312,0.438,0.333,0.414C18.274,92.884,18.143,92.707,18.154,92.793 M70.741,10.284
		c0.137,0.021,0.267,0.042,0.404,0.063c0.564,0.027,1.135,0.029,1.818,0.123C72.287,10.327,71.501,10.255,70.741,10.284
		 M121.874,74.39c0.033-0.186,0.072-0.5,0.122-1.042C121.967,73.598,121.92,74.006,121.874,74.39 M90.993,15.554
		C91.516,15.797,91.084,15.575,90.993,15.554 M93.003,17.249c0.057-0.007,0.138,0.011,0.234,0.046
		C93.121,17.253,93.03,17.228,93.003,17.249 M91.74,15.998c-0.185-0.113-0.4-0.24-0.638-0.371C91.206,15.688,91.4,15.8,91.74,15.998
		 M91.665,15.887c0.175,0.096,0.312,0.17,0.443,0.241C92.182,16.142,92.131,16.1,91.665,15.887 M90.993,15.554
		c-0.154-0.068-0.373-0.165-0.734-0.325c0.3,0.135,0.578,0.267,0.843,0.398C91.003,15.572,90.963,15.546,90.993,15.554
		 M122.259,67.49c0.083,0.17,0.1,0.971,0.032,1.8c-0.061,0.828-0.123,1.688-0.043,1.99c0,0-0.02,0.201-0.078,0.498
		s-0.134,0.694-0.211,1.09c-0.075,0.395-0.152,0.79-0.209,1.086c-0.055,0.297-0.099,0.493-0.099,0.493
		c0.091-0.089,0.108,0.449,0.223-0.057c-0.135,0.785-0.248,1.472,0.041,0.461c-0.86,3.765-1.885,7.524-3.267,11.152
		c-1.379,3.623-3.122,7.112-5.302,10.205c-0.261,0.441-0.045,0.232,0.1,0.091c-0.902,1.074-0.671,1.156-1.08,1.806
		c0,0-0.352,0.376-0.703,0.752c-0.173,0.19-0.352,0.374-0.494,0.506c-0.138,0.135-0.23,0.225-0.23,0.225
		c-0.448,0.7,0.018,0.244,0.024,0.325c-2.329,3.109-5.158,5.628-7.399,7.803c-0.818,0.577,0.033-0.321-0.979,0.511
		c0.758-0.483,0.079,0.192-0.721,0.855c-0.803,0.659-1.676,1.36-1.168,1.088c-0.578,0.293-1.572,0.936-2.358,1.471
		c-0.791,0.527-1.44,0.849-1.306,0.527c-1.33,0.823-0.997,0.851-0.597,0.638c-0.761,0.5-1.486,0.889-2.155,1.293
		c-0.333,0.204-0.656,0.404-0.978,0.601c-0.326,0.188-0.646,0.379-0.963,0.578c-0.235,0.088-0.806,0.392-1.575,0.76
		c-0.782,0.341-1.733,0.82-2.738,1.216c-1.999,0.829-4.146,1.49-4.966,1.58c1.121-0.12-0.047,0.131-1.05,0.5l0.976-0.09
		c0,0-0.581,0.159-1.162,0.32c-0.29,0.08-0.581,0.159-0.799,0.219c-0.217,0.064-0.365,0.092-0.365,0.092
		c-0.475,0.127-0.611,0.151-0.613,0.134c-0.399,0.084,0.07-0.122-0.949,0.067c-0.797,0.185-1.213,0.291-1.54,0.377
		c-0.321,0.101-0.564,0.176-0.994,0.309l0.252-0.017l-1.094,0.212c-0.805,0.139,2.818-0.684,0.178-0.307
		c-0.025,0.079-1.548,0.518-2.278,0.476c1.354-0.162,1.165-0.265,0.662-0.254c0,0-0.473,0.057-0.946,0.113
		c-0.236,0.029-0.473,0.057-0.651,0.079c-0.176,0.021-0.296,0.024-0.296,0.024s0.163,0.05,0.325,0.084
		c0.163,0.037,0.325,0.074,0.325,0.074c-5.459,0.574-11.205,0.23-16.934-0.882c0.111-0.144-4.027-0.92-3.433-1.11l0.207,0.089
		c0.693,0.169,0.608,0.077,0.206-0.069c-0.398-0.165-1.105-0.41-1.665-0.552c1.142,0.422-2.181-0.314,0.652,0.536
		c0,0-0.561-0.123-1.12-0.247c-0.565-0.111-1.114-0.276-1.114-0.276c-0.688,0.061-2.158-0.415-3.81-1.165
		c-1.663-0.725-3.498-1.714-5.079-2.446c0.228,0.092,0.3,0.095,0.335,0.094c-2.848-1.258-5.881-3.672-6.483-4.045l-0.132-0.284
		c-1.156-0.652-1.75-1.094-2.403-1.563c-0.656-0.464-1.288-1.062-2.449-2.126c0.048,0.008,0.352,0.213-0.002-0.137
		c-0.324-0.206-0.629-0.435-1.06-0.788c-0.421-0.362-0.994-0.823-1.715-1.629l0.096,0.03c0,0-0.587-0.606-1.174-1.213
		c-0.574-0.618-1.123-1.26-1.123-1.26c0.094-0.073-0.109-0.37-0.47-0.792c-0.36-0.423-0.848-0.998-1.358-1.598
		c-0.526-0.588-1.018-1.246-1.409-1.809c-0.388-0.567-0.681-1.037-0.702-1.327c-0.235-0.239-0.695-0.871-1.177-1.556
		c-0.487-0.682-0.927-1.458-1.238-1.913c0.014-0.017-0.003-0.087-0.074-0.256c-0.871-1.005-1.671-3.352-2.258-4.653
		c-0.441-0.828-0.35-0.429-0.256-0.023c-0.312-0.876-0.786-2.062-1.283-3.088c-0.439-1.048-0.832-1.962-0.902-2.297
		c-0.388-1.308,0.026-0.539,0.017-0.926c-0.592-1.93-0.328,0.448-0.873-2.22c0.092,0.302,0.278,0.856,0.24,0.632
		c-0.137-0.5-0.139-1.246-0.181-1.973c-0.036-0.729-0.098-1.444-0.228-1.941l0.038,0.683c-0.228-0.911-0.334-2.024-0.41-2.933
		c-0.044-0.915-0.087-1.627-0.265-1.759l-0.126,0.193c-0.06-0.809-0.089-1.298-0.1-1.63c-0.019-0.331-0.04-0.503-0.062-0.676
		c-0.022-0.172-0.045-0.347-0.067-0.684c-0.02-0.336-0.057-0.834-0.023-1.655l0.026,0.04c-0.064-1.43,0.09-2.2-0.115-2.902
		l-0.045,0.491c0.019-0.887,0.03-1.37,0.041-1.858c0.007-0.488,0.045-0.979,0.125-1.879c-0.007-0.213,0.024-1.089,0.093-1.336
		c-0.113-0.052,0.003-1.097,0.15-2.231c0.039-0.283,0.077-0.571,0.115-0.851c0.054-0.278,0.106-0.547,0.154-0.794
		c0.097-0.491,0.177-0.893,0.216-1.091c-0.223,1.418-0.02,0.762,0.131,0.377c-0.007-0.428,0.013-0.788,0.072-1.182
		c0.08-0.389,0.203-0.811,0.392-1.367c-0.103-0.11-0.205-0.236-0.218-0.619c-0.006-0.192,0.009-0.447,0.059-0.797
		c0.065-0.347,0.171-0.785,0.326-1.345c-0.063,0.357-0.197,0.905-0.084,0.695c0.114-0.213,0.207-0.747,0.239-0.927
		c0.112-0.209-0.054,0.519,0.101,0.293c0.098-0.786,0.271-1.442,0.544-2.157c0.259-0.72,0.546-1.521,0.93-2.591
		c-0.195,0.697,0.078,0.136,0.253-0.072c-0.1-0.133,0.242-0.832,0.526-1.412c0.297-0.574,0.556-1.022,0.21-0.704
		c0.967-2.001,2.279-4.487,3.548-6.611c0.68-1.032,1.268-2.026,1.847-2.781c0.568-0.763,1.021-1.359,1.326-1.668
		c0.367-0.303,0.997-1.371,1.47-1.981l0.03,0.16c0.605-0.895,0.874-1.219,1.162-1.588c0.143-0.185,0.294-0.378,0.508-0.652
		c0.218-0.268,0.499-0.615,0.901-1.112c-0.62,0.864-0.265,0.588,0.546-0.094c0,0,0.254-0.359,0.509-0.718
		c0.27-0.346,0.54-0.692,0.54-0.692l0.377-0.096c0.463-0.542,1.047-1.075,1.674-1.559c0.18-0.282,0.709-0.805,1.259-1.325
		c0.672-0.58,1.366-1.156,1.518-1.356c0.755-0.292,1.658-1.279,2.255-1.423c0.191-0.175,0.436-0.402,0.73-0.611
		c-0.379,0.109-0.566,0.079,0.059-0.256c0.051-0.034,0.089-0.06,0.138-0.093l0.34-0.04c0.587-0.413,1.187-0.836,1.604-1.08
		c-0.195,0.094-0.422,0.205-0.662,0.321c0.271-0.15,0.526-0.278,0.782-0.391c0.084-0.048,0.167-0.095,0.223-0.127
		c-0.036,0.026-0.081,0.055-0.131,0.084c0.399-0.189,0.8-0.399,1.318-0.756c2.293-1.01,4.84-2.86,7.575-3.521
		c-0.4,0.122-0.953,0.325-1.08,0.433c0.539-0.214,1.08-0.423,1.613-0.605c0.541-0.163,1.069-0.321,1.572-0.473
		c0.998-0.32,1.918-0.523,2.604-0.785l-0.137-0.106c0.405-0.129,0.786-0.259,1.155-0.368c0.372-0.097,0.728-0.191,1.073-0.282
		c0.694-0.167,1.341-0.362,2.021-0.463L56.226,11c0.495-0.074,1.128-0.192,1.819-0.326c0.691-0.135,1.45-0.222,2.181-0.331
		c0.731-0.114,1.444-0.174,2.052-0.19c0.607-0.023,1.107-0.016,1.416,0.042c0.24-0.094,0.933-0.095,1.704-0.096
		c0.773,0.003,1.623,0.006,2.192,0.007l0.286,0.128c0.738,0.038,1.334,0.053,1.857,0.056c0.522,0.021,0.971,0.039,1.413,0.057
		c1.488,0.208,2.909,0.428,4.298,0.572c1.376,0.224,2.723,0.368,3.993,0.7l0.016,0.04c0,0,0.652,0.128,1.305,0.257
		c0.646,0.158,1.293,0.316,1.293,0.316c-0.701-0.085,0.524,0.07,1.287,0.319c0.824,0.201,2.122,0.668,3.033,1.083l1.575,0.628
		c-1.781-0.615,0.061,0.211,0.105,0.379c0,0,0.261,0.074,0.522,0.147c0.257,0.086,0.513,0.171,0.513,0.171
		c0.37,0.24-0.676-0.185,0.037,0.169c0.343,0.114,1.001,0.393,1.656,0.66c0.651,0.277,1.283,0.581,1.615,0.663
		c-0.077-0.079-0.294-0.226-0.567-0.397c-0.086-0.034-0.08-0.033-0.024-0.015c-0.023-0.015-0.039-0.026-0.063-0.041
		c0.031,0.018,0.044,0.025,0.08,0.046c0.087,0.029,0.224,0.074,0.287,0.085c1.187,0.643,0.773,0.366,0.76,0.289
		c0.638,0.435,1.139,0.757,1.606,1.051c0.467,0.295,0.895,0.568,1.331,0.973c-1.189-1.095,2.95,1.882,2.267,1.125
		c0.811,0.835,0.632,0.46,1.121,1.034c-0.633-0.491-1.305-0.927-1.983-1.278c-0.673-0.357-1.303-0.704-1.888-0.977
		c0,0,0.263,0.176,0.507,0.381l0.495,0.395c-0.8-0.259-2.385-1.512-3.073-1.822c0.468,0.198,1.424,0.817,1.428,0.883l-0.197-0.333
		c-0.381-0.241-0.749-0.459-1.104-0.658c-0.365-0.183-0.718-0.346-1.057-0.498c-0.684-0.296-1.3-0.577-1.908-0.782
		c1.068,0.551-1.376-0.496-0.638-0.014l0.872,0.368c0.107,0.069,0.102,0.088,0.042,0.08c2.259,1.084,4.431,2.32,6.506,3.692
		l-0.519-0.362l0.475,0.156l0.17,0.289c0.71,0.471,1.408,0.959,2.094,1.463c0.298-0.003,2.047,1.268,1.642,0.785
		c0.302,0.279,0.377,0.393,0.546,0.561c0.171,0.167,0.441,0.381,1.093,0.915c0.886,0.62-0.852-1.018-1.184-1.322
		c1.056,0.728,1.07,0.715,1.137,0.694c0.631,0.825,0.965,1.596,0.215,1.11c0.406,0.353,0.808,0.711,1.204,1.075
		c-0.218-0.25,0.148,0.044,0.617,0.486l-0.011,0.078c10.612,10.024,17.236,24.226,17.236,39.976c0,1.049-0.032,2.091-0.09,3.126
		c0.016-0.055,0.034-0.111,0.05-0.166c0.166-0.605,0.298-1.075,0.399-0.394L122.259,67.49z M102.526,24.044
		c-0.484-0.506-1.059-0.947-1.488-1.224C101.542,23.219,102.037,23.627,102.526,24.044 M85.107,13.285
		c-0.607-0.235-0.915-0.363-0.046-0.008C85.077,13.28,85.089,13.282,85.107,13.285 M75.56,11.363
		c-0.546-0.044-1.035-0.035-1.438-0.032c-0.223,0.003-0.419,0.012-0.589,0.026c2.607,0.312,5.157,0.806,7.637,1.47
		c-0.178-0.061-0.33-0.117-0.43-0.161c0.576,0.215,1.665,0.48,2.197,0.573l-1.33-0.46c0.55,0.152,1.031,0.331,1.577,0.522
		c0.541,0.205,1.141,0.446,1.949,0.683c-0.231-0.206,0.988,0.032-0.176-0.539c-1.503-0.627-2.177-0.718-2.923-0.829
		c-0.374-0.056-0.767-0.113-1.3-0.223c-0.54-0.086-1.221-0.221-2.166-0.45c-0.362-0.028,0.843-0.046-1.208-0.377
		C76.711,11.481,76.104,11.413,75.56,11.363 M64.674,10.881c-0.423,0.032-0.897,0.109-1.33,0.199
		c0.519-0.034,1.041-0.06,1.565-0.078C64.77,10.969,64.618,10.923,64.674,10.881 M53.55,12.179c-0.232,0.127-0.305,0.31-0.255,0.486
		c0.642-0.164,1.289-0.313,1.94-0.454l0.181-0.277l0.088,0.218c0.65-0.137,1.306-0.264,1.964-0.378
		c-0.038-0.014-0.094-0.023-0.191-0.025c-0.336,0.013-1.226,0.046-2.043,0.179C54.413,12.051,53.651,12.164,53.55,12.179
		 M43.864,15.548c-0.987,0.516-1.839,1.144-2.524,1.721c0.906-0.477,1.827-0.931,2.762-1.359c0.776-0.536,1.468-1.035,1.876-1.297
		c0,0-0.423,0.185-0.832,0.404c-0.409,0.217-0.819,0.434-0.819,0.434L43.864,15.548z M30.351,24.394
		c-0.263,0.231-0.103,0.115-0.062,0.124C30.296,24.485,30.32,24.443,30.351,24.394 M26.76,28.219
		c-0.109,0.172-0.237,0.369-0.369,0.583c0.313-0.342,0.63-0.679,0.951-1.012c-0.126-0.018-0.228-0.047-0.196-0.178L26.76,28.219
		 M12.84,55.047c-0.074,0.568-0.148,1.136-0.148,1.136c0.061-0.206,0.161-0.495,0.278-0.83c0.036-0.188,0.071-0.376,0.11-0.564
		c0.02-0.18,0.043-0.352,0.06-0.51c-0.001,0.074-0.002,0.165-0.003,0.247c0.076-0.359,0.153-0.717,0.236-1.073
		c-0.04,0.024-0.097,0.14-0.186,0.407c-0.012,0.116-0.029,0.264-0.047,0.419c0.003-0.383-0.012-0.623-0.105-0.361
		C13.035,53.918,12.92,54.48,12.84,55.047 M80.244,119.907c0.22-0.095,0.443-0.187-0.377,0.047L80.244,119.907 M96.259,18.359
		c0,0-0.263-0.169-0.542-0.312c-0.276-0.148-0.551-0.295-0.551-0.295c0.527,0.297,0.701,0.425,0.942,0.615
		C96.103,18.322,95.929,18.15,96.259,18.359 M96.963,19.403c0.007,0.17,0.707,0.517,1.417,1.016l-0.125-0.089
		C98.567,20.329,97.779,19.838,96.963,19.403 M99.202,20.993c0.124,0.002-0.257-0.201-0.655-0.462
		C98.768,20.681,98.992,20.837,99.202,20.993 M89.72,14.972c0.489,0.034-2.602-0.945-0.495-0.103
		C89.589,15.069,89.527,14.828,89.72,14.972 M92.697,17.29c-0.006-0.032,0.157,0.034,0.354,0.122
		c-0.754-0.392-1.57-0.845-1.561-0.789L92.697,17.29z M93.051,17.412c0.39,0.21,0.751,0.427,0.979,0.525
		C93.82,17.821,93.376,17.559,93.051,17.412 M76.799,11.825c0.361,0.027,0.916,0.104,0.698,0.013l-1.491-0.221
		C75.847,11.643,76.243,11.747,76.799,11.825 M122.575,69.138c0,0,0.046-0.288,0.064-0.578c0.024-0.29,0.047-0.579,0.047-0.579
		l-0.125,0.744L122.575,69.138z M122.622,66.638l-0.166-0.697c0.003,0.262,0.008,0.769-0.043,0.966L122.622,66.638z"/>
	<path fill="#FFFFFF" d="M41.313,82.693c-1.579-1.582-2.37-3.547-2.37-5.89c0-2.351,0.791-4.317,2.37-5.896
		c1.58-1.58,3.545-2.37,5.896-2.37s4.317,0.79,5.897,2.37c1.579,1.579,2.369,3.545,2.369,5.896c0,2.35-0.79,4.317-2.369,5.896
		c-1.58,1.579-3.546,2.37-5.897,2.37S42.893,84.276,41.313,82.693 M47.22,81.983c1.462,0,2.652-0.496,3.571-1.488
		c0.918-0.992,1.377-2.223,1.377-3.692s-0.459-2.7-1.377-3.692c-0.919-0.992-2.117-1.488-3.593-1.488
		c-1.462,0-2.653,0.496-3.57,1.488c-0.919,0.992-1.378,2.223-1.378,3.692s0.459,2.7,1.378,3.692
		C44.545,81.487,45.743,81.983,47.22,81.983 M84.095,44.851H72.909c-0.278,0-0.48,0.228-0.48,0.481v0.347v0.331v1.397v0.045v11.329
		v0.347v0.691v1.038v0.044c0,0.279,0.227,0.481,0.48,0.481h2.432h6.323h2.431c0.253,0,0.481-0.202,0.481-0.481v-0.044v-1.729v-0.347
		c0-0.253-0.202-0.48-0.481-0.48h-8.369l0.008-0.005v-3.757h6.144c0.253,0,0.48-0.202,0.48-0.481v-0.045v-1.729v-0.346
		c0-0.254-0.201-0.481-0.48-0.481h-6.144v-3.525h8.361c0.253,0,0.481-0.202,0.481-0.48v-0.045v-1.728v-0.347
		C84.576,45.079,84.374,44.851,84.095,44.851 M73.445,59.376l-0.036-0.009l0.02-0.008L73.445,59.376z M103.13,68.526h-4.896h-0.993
		c-0.279,0-0.481,0.239-0.481,0.492v0.347v0.331v1.397v0.045v11.33v0.347v0.69v1.037v0.045c0,0.279,0.228,0.481,0.481,0.481h0.993
		h1.438h3.458c5.142,0,7.715-2.755,7.715-8.266C110.845,71.285,108.272,68.526,103.13,68.526 M97.741,83.054l0.019-0.009
		l0.016,0.018L97.741,83.054z M103.13,81.773h-3.063v-3.548l-0.001,0.055v-6.437h3.064c2.932,0,4.4,1.653,4.408,4.959
		C107.53,80.11,106.062,81.766,103.13,81.773 M68.486,44.851H57.3c-0.278,0-0.48,0.228-0.48,0.481v2.075v-0.001v13.495
		c0,0.279,0.227,0.481,0.48,0.481h1.186h1.485c0.253,0,0.48-0.202,0.48-0.481v-0.044v-2.076v-4.243h5.817
		c0.254,0,0.481-0.202,0.481-0.481v-0.044v-1.729v-0.346c0-0.254-0.202-0.481-0.481-0.481h-5.817v-3.525h8.035
		c0.253,0,0.481-0.202,0.481-0.48v-0.045v-1.729v-0.346C68.967,45.079,68.764,44.851,68.486,44.851 M53.848,60.724l-6.166-15.418
		c-0.019-0.048-0.039-0.087-0.059-0.128l-0.004-0.01c-0.098-0.201-0.21-0.317-0.417-0.317h-0.633H45.12h-0.128h-0.505
		c-0.253,0-0.364,0.163-0.481,0.455l-6.184,15.418c-0.013,0.028-0.009,0.056-0.017,0.084l-0.002,0.005v-0.001
		c-0.08,0.297,0.104,0.57,0.45,0.57h2.31c0.405,0,0.633-0.253,0.734-0.506l0.813-2.029h7.451l0.812,2.029
		c0.102,0.253,0.328,0.506,0.734,0.506h2.311C53.798,61.382,54,61.053,53.848,60.724 M43.433,55.541l2.402-6.001l2.402,6.001H43.433
		z M34.529,52.841c-0.979-0.663-2.058-1.081-3.227-1.283l-0.373-0.061c-0.069-0.009-0.133-0.026-0.201-0.034
		c-1.324-0.22-2.168-0.55-2.535-0.991c-0.368-0.441-0.368-0.974,0-1.599c0.367-0.624,1.211-0.936,2.535-0.936
		c1.02,0,1.855,0.279,2.526,0.803l0.421,0.34c0.191,0.167,0.496,0.166,0.679-0.044l0.03-0.034l1.368-1.559
		c0.167-0.191,0.165-0.495-0.044-0.679l-0.457-0.391v-0.001c-0.003-0.002-0.006-0.005-0.009-0.007l-0.011-0.009l-0.002,0.001
		c-0.234-0.185-0.475-0.355-0.719-0.505c-0.281-0.173-0.568-0.322-0.862-0.45c-0.845-0.367-2.035-0.551-3.571-0.551
		c-1.322,0-2.61,0.443-3.863,1.328c-1.253,0.885-1.879,2.059-1.879,3.521c0,1.616,0.551,2.755,1.653,3.416
		c0.832,0.5,1.727,0.851,2.684,1.057l0.308,0.051c0.214,0.038,0.425,0.08,0.645,0.105c1.469,0.147,2.386,0.533,2.75,1.157
		c0.364,0.624,0.364,1.249,0,1.874c-0.364,0.624-1.281,0.937-2.75,0.937c-1.303-0.109-2.49-0.551-3.255-1.079l-0.163-0.121
		l-0.311-0.272c-0.19-0.167-0.494-0.165-0.679,0.044l-0.029,0.034l-1.368,1.56c-0.167,0.19-0.165,0.494,0.044,0.678l0.476,0.407
		l-0.001,0.003c0.584,0.464,1.245,0.855,1.98,1.17c1.029,0.441,2.311,0.661,3.846,0.661c1.616,0,3.033-0.477,4.249-1.433
		c1.216-0.954,1.823-2.094,1.823-3.416C36.237,54.843,35.669,53.613,34.529,52.841 M34.529,76.527
		c-0.979-0.663-2.058-1.081-3.227-1.283l-0.373-0.061c-0.069-0.008-0.133-0.026-0.201-0.033c-1.324-0.221-2.168-0.551-2.535-0.992
		c-0.368-0.441-0.368-0.974,0-1.599c0.367-0.624,1.211-0.936,2.535-0.936c1.02,0,1.855,0.279,2.526,0.804l0.421,0.34
		c0.191,0.166,0.496,0.165,0.679-0.045l0.03-0.034l1.368-1.559c0.167-0.191,0.165-0.495-0.044-0.679l-0.457-0.392
		c-0.003-0.002-0.006-0.004-0.009-0.007l-0.011-0.009l-0.002,0.001c-0.234-0.185-0.475-0.355-0.719-0.505
		c-0.281-0.172-0.568-0.322-0.862-0.45c-0.845-0.367-2.035-0.551-3.571-0.551c-1.322,0-2.61,0.443-3.863,1.328
		c-1.253,0.886-1.879,2.059-1.879,3.521c0,1.617,0.551,2.755,1.653,3.416c0.832,0.5,1.727,0.851,2.684,1.058l0.308,0.05
		c0.214,0.039,0.425,0.08,0.645,0.105c1.469,0.147,2.386,0.533,2.75,1.157c0.364,0.624,0.364,1.249,0,1.874
		c-0.364,0.624-1.281,0.937-2.75,0.937c-1.303-0.109-2.49-0.55-3.255-1.078l-0.163-0.122l-0.311-0.273
		c-0.19-0.166-0.494-0.164-0.679,0.045l-0.029,0.034l-1.368,1.56c-0.167,0.19-0.165,0.494,0.044,0.678l0.476,0.408l-0.001,0.002
		c0.584,0.464,1.245,0.855,1.98,1.17c1.029,0.441,2.311,0.662,3.846,0.662c1.616,0,3.033-0.478,4.249-1.434
		c1.216-0.954,1.823-2.094,1.823-3.416C36.237,78.529,35.669,77.299,34.529,76.527 M72.579,68.537h-0.046h-1.948h-0.348
		c-0.254,0-0.482,0.202-0.482,0.481v5.817h0.001v3.29c0,1.249-0.368,2.168-1.103,2.755c-0.734,0.588-1.653,0.882-2.754,0.882
		c-1.103,0-2.021-0.294-2.756-0.882c-0.735-0.587-1.102-1.506-1.102-2.755v-3.29v-4.274v-1.543c0-0.253-0.204-0.481-0.483-0.481
		h-0.044h-1.949h-0.348c-0.254,0-0.482,0.202-0.482,0.481v1.555v4.262v4.172c0,1.689,0.679,3.122,2.039,4.298
		c1.358,1.175,3.066,1.763,5.125,1.763c2.056,0,3.764-0.588,5.124-1.763c1.359-1.176,2.038-2.609,2.038-4.298v-4.172v-3.149v-2.668
		C73.061,68.765,72.858,68.537,72.579,68.537 M91.818,68.537h-1.184h-1.168c-0.253,0-0.481,0.202-0.481,0.481v0.044v2.076v4.243
		v0.016l0.008,3.5L78.91,68.537h-0.265h-0.633c-0.252,0-0.481,0.202-0.481,0.455v2.101v6.308v5.392v1.794
		c0,0.279,0.228,0.481,0.481,0.481h1.185h1.167c0.254,0,0.481-0.202,0.481-0.481v-0.044v-2.076v-4.243v-0.018v-3.065l9.92,9.927
		h0.42h0.633c0.253,0,0.482-0.202,0.482-0.456v-1.4v-0.7V69.793v-0.775C92.3,68.739,92.071,68.537,91.818,68.537 M78.573,69.105
		l0.02,0.02l-0.029,0.055L78.573,69.105z"/>
	<path fill="#38BCDE" d="M128.643,50.092c-0.091-0.761-0.184-1.547-0.059-2.429c0.043-0.311-0.093-0.606-0.333-0.779
		c0.015-0.065,0.026-0.13,0.026-0.199c0.004-0.637,0.099-1.24,0.172-1.454c0.056-0.057,0.122-0.116,0.15-0.164
		c0.158-0.268,0.151-0.603-0.019-0.864c-0.12-0.185-0.312-0.283-0.524-0.327c0.186-0.21,0.3-0.479,0.318-0.848
		c0.011-0.221-0.021-0.379-0.173-0.54c-0.034-0.067-0.055-0.156-0.082-0.242c-0.047-0.151-0.138-0.447-0.321-0.704
		c0.107-0.238,0.099-0.511-0.028-0.739c-0.025-0.043-0.085-0.179-0.223-0.637l-0.352-0.964c-0.135-0.348-0.302-0.778-0.597-1.035
		l-0.082-0.618c-0.055-0.335-0.35-0.548-0.678-0.61c-0.102-0.299-0.198-0.599-0.289-0.906l-0.344-1.078
		c-0.267-0.806-0.544-1.632-0.968-2.397c0.016-0.179-0.027-0.363-0.129-0.517l-0.465-0.73c-0.472-0.755-0.957-1.524-1.423-2.117
		c-0.135-0.215-0.262-0.403-0.385-0.579c0.017-0.052,0.019-0.104,0.025-0.157c0.145-0.107,0.267-0.243,0.318-0.42
		c0.07-0.252,0.018-0.524-0.144-0.729c-0.14-0.177-0.452-0.525-0.9-0.521c-0.019-0.085-0.039-0.171-0.087-0.25
		c-0.169-0.275-0.289-0.508-0.397-0.713c-0.289-0.549-0.531-1.005-1.183-1.555c-0.112-0.843-1.089-1.748-1.238-1.882
		c0.017-0.169-0.018-0.339-0.104-0.49c-0.359-0.629-0.828-1.202-1.437-1.752c-0.41-0.366-0.859-0.666-1.296-0.953l-0.463-0.316
		c0.11-0.336,0.006-0.716-0.3-0.928l-1.023-0.707c-0.159-0.108-0.343-0.142-0.522-0.13c-0.016-0.038-0.044-0.067-0.059-0.107
		c-0.098-0.242-0.304-0.426-0.56-0.49c-0.108-0.026-0.241-0.035-0.385-0.014c-0.068-0.114-0.133-0.224-0.193-0.326
		c-0.253-0.436-0.422-0.725-0.562-0.835c-0.18-0.204-0.35-0.361-0.637-0.586c-0.029-0.019-0.182-0.115-0.212-0.132
		c-0.084-0.05-0.167-0.09-0.262-0.135c-0.349-0.152-0.664-0.206-0.901-0.247c-0.395-0.065-0.68-0.11-1.198-0.564
		c-0.039-0.034-0.08-0.063-0.123-0.088c-0.033-0.136-0.095-0.286-0.206-0.448c-0.149-0.22-0.393-0.352-0.65-0.36
		c-0.168-0.155-0.362-0.32-0.553-0.478l-0.244-0.203c-0.019-0.015-0.038-0.03-0.056-0.045c-0.047-0.281-0.24-0.523-0.517-0.631
		c-0.186-0.069-0.537-0.19-0.815-0.183c-0.253-0.167-0.506-0.32-0.763-0.471l-0.221-0.121c-0.469-0.255-0.957-0.519-1.525-0.925
		c-0.006-0.004-0.015-0.003-0.021-0.008c-0.213-0.193-0.439-0.323-0.685-0.335c-0.153-0.024-0.287,0.034-0.413,0.101
		c-0.416-0.172-0.763-0.237-1.129-0.144c-0.005,0-0.059-0.003-0.143-0.022c0.002-0.116-0.014-0.229-0.052-0.319
		c-0.073-0.182-0.19-0.318-0.341-0.426c0-0.004,0-0.009,0.002-0.013c0.063-0.426-0.215-0.829-0.637-0.92
		c-0.734-0.16-1.335-0.526-1.869-0.894c-0.032-0.349-0.285-0.649-0.644-0.726l-0.02-0.005c-0.37-0.082-0.662-0.203-1.071-0.372
		c-0.172-0.069-0.35-0.075-0.524-0.029c-0.099-0.031-0.205-0.04-0.307-0.029c-0.097,0.011-0.244,0.037-0.395,0.111
		c-0.091-0.208-0.271-0.376-0.501-0.45c-0.082-0.026-0.194-0.055-0.302-0.082c-0.103-0.13-0.235-0.23-0.409-0.306
		c-0.001-0.001-0.002-0.003-0.004-0.005c-1.044-0.646-1.547-0.637-2.154-0.386c-0.101,0.041-0.19,0.071-0.385,0.06
		c-0.271-0.484-0.887-0.795-1.293-0.838c-0.311-0.024-0.611,0.138-0.761,0.412c-0.533-0.199-0.896-0.216-1.261-0.201
		c-0.161,0.007-0.225,0.002-0.311-0.023l-0.353-0.147c-0.31-0.128-0.648-0.056-0.877,0.159c-0.22-0.048-0.492-0.18-0.799-0.336
		c-0.46-0.236-1.006-0.516-1.657-0.614c-0.105-0.406-0.436-0.624-0.662-0.728c-0.117-0.054-0.244-0.119-0.372-0.073
		c-0.583,0.006-0.847-0.095-1.201-0.255c-0.43-0.192-0.938-0.408-1.974-0.417c-0.264,0.004-0.506,0.137-0.655,0.345
		c-0.08-0.077-0.176-0.14-0.287-0.181c-1.104-0.41-2.139-0.408-3.1-0.354c-0.397,0.018-0.806,0.03-1.251,0.024l-0.758-0.046
		c-0.248-0.023-0.505-0.058-0.776-0.112c-0.291-0.058-0.585,0.046-0.773,0.255c-0.132-0.015-0.265-0.028-0.404-0.037
		c-0.2-0.213-0.449-0.352-0.576-0.421L70.26,0.89c-0.13-0.144-0.278-0.24-0.366-0.296c-0.316-0.194-0.722-0.153-0.992,0.098
		c-0.027,0.025-0.027,0.065-0.05,0.093c-0.441,0.01-0.945,0.037-1.356,0.246l-0.592-0.255c-0.073-0.03-0.149-0.052-0.227-0.06
		c-1.208-0.147-1.914,0.125-2.531,0.378c-0.134-0.273-0.411-0.458-0.728-0.462l-0.221-0.003c-0.309-0.009-0.594-0.006-0.801,0.013
		c-0.181,0.022-0.33,0.065-0.453,0.121c-0.279,0.009-0.577,0.078-0.899,0.156c-0.11,0.025-0.26,0.057-0.404,0.086
		c-0.021-0.007-0.037-0.021-0.058-0.026c-0.1-0.023-0.194-0.038-0.287-0.047C60.1,0.908,59.888,0.895,59.569,0.97
		c-0.228,0.055-0.387,0.219-0.499,0.416l-0.007-0.003c-0.322-0.1-0.675,0.009-0.886,0.274c0.024-0.029,0.061-0.093,0.07-0.099
		c-0.075,0.029-0.182,0.083-0.282,0.133c-0.69-0.044-1.265-0.128-1.433-0.197l-0.037-0.115l-0.177,0.035
		c0,0-0.884,0.163-1.756,0.358c-0.206,0.045-0.409,0.091-0.601,0.133l-0.067-0.189l-0.056,0.018
		c-0.044-0.072-0.076-0.164-0.129-0.211c-0.234-0.2-0.668-0.391-1.37-0.138c-0.238,0.085-0.424,0.27-0.504,0.508
		c-0.009,0.028-0.003,0.057-0.009,0.086c-0.006,0.002-0.008,0.003-0.014,0.005l-0.185,0.072c-0.052-0.011-0.089-0.053-0.142-0.053
		c-0.011,0-0.023,0-0.036,0.003l-0.486,0.02c-0.205,0.01-0.383,0.101-0.523,0.235c-0.346,0.097-0.693,0.196-1.055,0.306
		l-0.176,0.034l-0.64,0.169c-0.194,0.056-0.386,0.115-0.572,0.173l0.168-0.282l-0.726,0.174c-0.541,0.129-1.1,0.263-1.691,0.449
		L44.32,3.791c-0.551,0.003-1.104,0.238-1.419,0.39c-0.015,0.008-0.197,0.107-0.209,0.116c-0.312,0.175-0.648,0.363-0.964,0.479
		c-0.106-0.043-0.206-0.062-0.345-0.064c-0.882,0.028-1.596,0.553-2.355,1.11c-0.255,0.188-0.529,0.36-0.8,0.535l0.009-0.386
		l-0.382,0.502C37.811,6.53,37.71,6.585,37.59,6.64c-0.124,0.018-0.231,0.064-0.338,0.136c-0.046,0.017-0.086,0.034-0.131,0.051
		c-0.17,0.06-0.35,0.125-0.525,0.199c-0.515,0.205-1.074,0.453-1.388,0.814l-0.074-0.039l-0.1,0.058
		c-1.309,0.764-2.206,1.366-3.035,1.965c-0.614,0.173-1.041,0.622-1.36,0.957c-0.02,0.023-0.044,0.046-0.065,0.07
		c-0.21-0.02-0.413,0.039-0.58,0.168c-0.883,0.683-1.261,1.199-1.624,1.741c-0.186,0.269-0.388,0.55-0.757,0.9
		c-0.025-0.003-0.046-0.022-0.072-0.023c-0.616-0.047-1.746,0.562-2.087,1.426c-0.037,0.094-0.012,0.191-0.013,0.287
		c-0.203,0.022-0.397,0.092-0.535,0.253c-0.234-0.023-0.454,0.048-0.63,0.205c-0.016,0.018-1.665,1.522-2.123,2.553l-0.091,0.1
		c-0.8,0.871-1.335,1.451-1.9,2.134c-0.406,0.254-0.829,0.636-1.303,1.16l-0.22,0.235c-0.329,0.355-0.668,0.718-1.018,1.04
		c-0.475,0.462-0.691,0.546-0.762,0.561c-0.233,0.048-0.432,0.195-0.549,0.402c-0.339,0.603-0.751,1.166-1.121,1.65
		c-0.402,0.549-0.84,1.074-1.289,1.601c-0.484,0.555-0.961,1.141-1.448,1.765l-0.148,0.194c-0.435,0.568-0.891,1.165-1.273,1.793
		c-0.149,0.248-0.126,0.542,0.003,0.792c-0.38,0.097-0.674,0.377-0.795,0.502c-0.288,0.294-0.264,0.721-0.011,1.045
		c0.002,0.005,0.006,0.009,0.009,0.014c-0.015,0.089-0.024,0.185-0.024,0.282c-0.059-0.031-0.124-0.056-0.186-0.071
		c-0.34-0.071-0.689,0.06-0.875,0.357c-0.205,0.317-0.318,0.453-0.318,0.481c-0.341,0.05-0.663,0.186-1.097,0.65
		c-0.229,0.246-0.286,0.61-0.14,0.914c0.008,0.017,0.019,0.034,0.028,0.052c-0.093,0.197-0.232,0.438-0.396,0.687
		c-0.162,0.248-0.172,0.553-0.051,0.805c-0.234,0.212-0.511,0.472-0.759,0.895c-0.216,0.091-0.388,0.274-0.462,0.512
		c-0.082,0.268-0.224,0.633-0.387,1.054c-0.568,1.462-1.048,2.795-1.121,3.884c-0.133,0.092-0.24,0.224-0.302,0.386
		c-0.253,0.676-0.536,1.467-0.689,2.303c-0.11,0.559-0.206,1.126-0.303,1.683l-0.22,1.357c-0.134,0.865-0.262,1.697-0.465,2.382
		c-0.289,0.115-0.492,0.387-0.515,0.7c-0.022,0.289,0.021,0.542,0.053,0.745c0.011,0.061,0.02,0.114,0.024,0.16
		c-0.188,0.149-0.342,0.384-0.389,0.589C1.624,54.25,1.62,54.342,1.63,54.435c0.031,0.245,0.052,0.512,0.059,0.774
		c-0.137,0.108-0.238,0.256-0.285,0.434c-0.396,1.486-0.331,2.685-0.229,3.806c0.039,0.339,0.088,0.671,0.14,1.004
		c0.08,0.527,0.158,1.031,0.188,1.562c-0.68,0.609-0.92,2.015-1.08,3.245c-0.091,0.122-0.147,0.272-0.158,0.429
		c-0.06,0.903,0.011,1.748,0.072,2.435c0.073,0.747,0.164,1.454,0.295,2.162l0.812,3.93c-0.375,1.466-0.075,3.706,0.245,6.07
		c0.157,1.176,0.317,2.35,0.375,3.376c0.024,0.415,0.355,0.743,0.765,0.771c0.052,0.272,0.153,0.531,0.251,0.77
		c-0.173,0.256-0.281,0.567-0.322,0.936c-0.013,0.149-0.018,0.309-0.006,0.542c0.026,0.228,0.042,0.335,0.075,0.516
		c0.106,0.577,0.3,1.202,0.527,1.915c0.07,0.221,0.24,0.363,0.439,0.458c-0.094,0.218-0.122,0.457-0.007,0.682l0.248,0.486
		c0.135,0.274,0.286,0.538,0.286,0.538c0.084,0.147,0.211,0.248,0.353,0.318c0.3,0.822,0.726,1.705,1.305,2.667l0.526,0.862
		c0.633,1.028,1.231,1.998,1.218,2.555c-0.004,0.236,0.093,0.465,0.268,0.625c0.231,0.209,0.449,0.466,0.671,0.721
		c0.113,0.13,0.228,0.261,0.342,0.387c-0.005,0.011-0.007,0.021-0.009,0.032c-0.054,0.216-0.019,0.445,0.097,0.633
		c0.886,1.426,1.441,2.292,2.597,3.644c-0.039,0.225,0.015,0.458,0.162,0.646c0.639,0.817,1.484,0.991,2.145,1.126
		c0.216,0.041,0.38,0.075,0.516,0.122l-0.052,0.158c-0.095,0.281-0.028,0.592,0.171,0.812c0.427,0.467,0.832,0.964,1.238,1.461
		c0.929,1.134,1.881,2.298,3.111,3.197c0.033,0.138,0.105,0.27,0.216,0.378l0.338,0.35c1.476,1.519,2.368,2.307,3.121,2.399
		c0.342,0.344,0.996,0.811,2.28,1.455c0.001,0.019,0.004,0.038,0.006,0.058c0.058,0.345,0.33,0.615,0.676,0.674l0.566,0.086
		c0.532,0.076,0.754,0.11,1.182,0.307c0.035,0.107,0.091,0.213,0.172,0.304c0.056,0.063,0.111,0.117,0.164,0.165
		c0.441,0.406,0.787,0.535,1.124,0.619c0.047,0.186,0.155,0.355,0.32,0.472c0.879,0.63,1.222,0.708,1.793,0.734
		c0.097,0.004,0.211,0.01,0.192-0.011c0.464,0.159,1.231,0.862,1.323,0.924c-0.027,0.292,0.074,0.588,0.314,0.756
		c0.237,0.173,0.521,0.21,0.789,0.089c0.026-0.009,0.073-0.009,0.129-0.002c0.05,0.143,0.139,0.27,0.264,0.369
		c0.46,0.372,0.903,0.631,1.313,0.828c-0.16,0.133-0.268,0.328-0.289,0.551c-0.04,0.42,0.246,0.801,0.659,0.883l0.415,0.078
		c0.896,0.168,2.187,0.41,3.062,0.825c0.063,0.156,0.173,0.291,0.322,0.387c0.268,0.173,0.564,0.294,0.895,0.367
		c0.226,0.155,0.41,0.278,0.63,0.399c0.277,0.39,0.773,0.614,1.039,0.733c0.218,0.092,0.456,0.183,0.678,0.267
		c0.197,0.074,0.38,0.143,0.521,0.206c0.22,0.098,0.467,0.097,0.678-0.007c0.11-0.051,0.207-0.125,0.283-0.215
		c0.162-0.061,0.339-0.174,0.473-0.307c0.162,0.153,0.327,0.302,0.486,0.446l0.211,0.186c0.191,0.163,0.441,0.392,0.455,0.331
		c0.066,0.315,0.313,0.564,0.63,0.63c0.43,0.093,0.882,0.223,1.346,0.355c0.631,0.181,1.281,0.364,1.905,0.479
		c0.84,0.165,1.512,0.247,2.076,0.247h0.023c0.13,0.23,0.372,0.393,0.651,0.414c0.352,0.027,0.799,0.113,1.257,0.197
		c0.812,0.151,1.534,0.296,2.106,0.248c0.13,0.162,0.329,0.26,0.585,0.329c0.077,0.084,0.169,0.155,0.277,0.205
		c0.935,0.423,1.891,0.678,2.953,0.775c0.834,0.047,1.638-0.009,2.415-0.058l0.203-0.016c0.296-0.009,0.596-0.029,0.899-0.051
		c0.533-0.037,1.069-0.079,1.644-0.056c0.725,0.017,1.542,0.154,2.635,0.445c0.038,0.011,0.075,0.019,0.112,0.03
		c0.072,0.02,0.143,0.029,0.211,0.029c0.146,0,0.286-0.04,0.409-0.111c2.02,0.182,4.251,0.073,6.794-0.311l1.874-0.275
		c0.378-0.043,0.757-0.118,1.134-0.194c0.262-0.051,0.524-0.103,0.8-0.147c0.615-0.106,1.232-0.194,1.897-0.271
		c0.589-0.1,1.173-0.195,1.808-0.256c0.73-0.11,1.224-0.282,1.647-0.577c0.063-0.04,0.121-0.086,0.221-0.166
		c0.052-0.03,0.102-0.065,0.144-0.099c0.005-0.004,0.021-0.019,0.039-0.037c0.297,0.169,0.664,0.144,0.934-0.073l1.075-0.891
		c0.627-0.356,1.314-0.395,2.109-0.442c1.157-0.067,2.469-0.145,3.892-1.18c0.147-0.105,0.25-0.255,0.303-0.422
		c0.101-0.042,0.203-0.083,0.302-0.126c0.275-0.115,0.654-0.272,0.894-0.351c0.004,0,0.009,0.003,0.013,0.005
		c0.277,0.089,0.581,0.03,0.8-0.155c0.211,0.038,0.423-0.007,0.598-0.126l1.75-1.181c0.356,0.114,0.855-0.11,1.831-0.555
		c0.007-0.005,0.214-0.143,0.489-0.352l1.527-0.07l-1.19-0.198c0.295-0.244,0.609-0.541,0.866-0.855l0.187-0.13
		c0.152-0.085,0.327-0.188,0.471-0.324l0.065-0.044c0.118-0.082,0.19-0.188,0.239-0.302l0.211-0.089
		c0.226-0.129,0.453-0.268,0.676-0.415c0.188-0.129,0.346-0.252,0.509-0.384l0.07-0.051c0.355-0.288,0.681-0.593,0.994-0.908
		l0.041-0.006l-0.022-0.012c0.013-0.013,0.025-0.027,0.038-0.041c0.438-0.413,0.855-0.84,1.258-1.286l0.402-0.452
		c0.136-0.153,0.271-0.294,0.406-0.444c0.495-0.403,1.018-0.801,1.566-1.172c0.008,0.011,0.019,0.022,0.03,0.033
		c0.036,0.043,0.251,0.211,0.528-0.071l1.546-1.785l0.544-0.553l-0.138,0.086l0.27-0.311l-0.272-0.031l0.231-0.266
		c0.102-0.058,0.204-0.116,0.319-0.186l1.282-0.75l-0.695,0.036l0.061-0.036l-0.052,0.003c0.083-0.09,0.137-0.183,0.159-0.283
		l0.421-0.243l-0.42,0.022c-0.004-0.034,0.008-0.06,0.001-0.095c-0.002-0.005-0.002-0.012-0.002-0.017
		c0.162-0.105,0.281-0.202,0.339-0.292l0.041,0.143l0.367-0.582c0.172-0.27,0.309-0.541,0.443-0.81
		c0.025-0.051,0.051-0.101,0.077-0.153l0.255,0.268l0.216-0.307c0.238-0.341,0.404-0.714,0.562-1.083
		c0.142-0.244,0.273-0.494,0.383-0.751c0.396-0.287,0.629-0.497,0.799-0.694c0.359-0.291,0.513-0.49,0.724-0.764
		c0.081-0.108,0.174-0.229,0.295-0.376c0.104-0.123,0.337-0.397,0.575-0.673l0.615-0.748l-0.212-0.199l-0.077,0.073
		c0.11-0.611,0.417-1.114,0.775-1.652l0.137-0.209c0.118-0.184,0.239-0.404,0.362-0.608c0.062-0.036,0.115-0.081,0.156-0.116
		c0.017-0.015,0.043-0.038,0.067-0.059c0.025,0.009,0.054,0.016,0.082,0.018c0.08-0.006,0.173-0.026,0.236-0.085
		c0.099-0.096,0.209-0.211,0.312-0.321c0.013-0.013,0.029-0.029,0.042-0.043l0.006,0.008l0.119-0.112
		c0.045-0.044,0.093-0.096,0.14-0.144c0.154-0.003,0.262-0.096,0.29-0.236c0.008-0.041,0.03-0.067,0.041-0.104
		c0.109-0.112,0.213-0.215,0.255-0.233c-0.011,0.006-0.057,0.011-0.093-0.015c-0.03-0.018-0.035-0.042-0.041-0.06
		c0.006-0.004,0.013-0.011,0.017-0.014l0.259,0.035c0.08-0.389,0.28-0.644,0.506-0.938c0.276-0.357,0.585-0.766,0.728-1.483
		c0.087-0.023,0.177-0.053,0.216-0.137c0.049-0.107,0.092-0.207,0.127-0.303c0.03-0.04,0.059-0.085,0.085-0.109l0.122,0.238
		l0.125-0.27c0.176-0.377,0.235-0.541,0.105-0.632c-0.121-0.073-0.206-0.003-0.34,0.126c0.247-0.568,0.618-1.156,1.007-1.769
		c0.722-1.137,1.54-2.424,1.84-4.005c0.335-1.139,0.441-1.81,0.493-2.473c0.029-0.367,0.076-0.726,0.142-1.14
		c0.073-0.156,0.111-0.287,0.173-0.434l-0.073,0.751l0.358-0.758c0.486-1.031,0.733-1.826,0.847-2.763
		c0.126-0.026,0.238-0.178,0.409-0.406l0.026-0.059c0.077-0.393,0.03-0.59-0.014-0.763c-0.019-0.085-0.041-0.168-0.037-0.28
		l0.528,0.775l-0.05-0.557c-0.041-0.46-0.19-0.767-0.305-1.003l-0.144-0.293l-0.124,0.305c-0.008,0.026-0.019,0.049-0.028,0.075
		l-0.135-0.196l-0.038,0.401c-0.004,0.05-0.011,0.08-0.017,0.128c-0.001-0.007-0.005-0.016-0.008-0.022
		c-0.052-0.11-0.169-0.186-0.288-0.172c-0.039,0.001-0.054,0.047-0.089,0.062c0.021-0.324,0.055-0.649,0.059-0.967l0.158,0.868
		l0.172-1.283c0.105-0.77,0.316-3.083-0.064-3.614l-0.244-0.344l-0.27,0.92c-0.035,0.059-0.063,0.143-0.074,0.255l0.318,0.06
		c0.011,0.033,0.02,0.074,0.024,0.124c0.013,0.103-0.006,0.158-0.004,0.246l-0.343,0.287c-0.437,0.369-0.562,1.087-0.615,2.049
		c-0.008,0.183-0.012,0.373-0.017,0.563c-0.006,0.246-0.013,0.495-0.03,0.732c-0.021,0.234-0.046,0.437-0.073,0.616l-0.526-1.046
		l0.056,1.405l-0.381,0.712c-0.271,0.505-0.296,0.78-0.318,1c-0.022,0.208-0.039,0.372-0.272,0.72
		c0.026-0.022,0.094-0.059,0.175-0.022l-0.052,0.082l-0.242-0.023l-0.075,0.533l-0.2-0.095c-0.443,0.84-0.598,1.59-0.724,2.192
		c-0.114,0.543-0.196,0.944-0.434,1.161l-0.081-0.022c-0.353,1.037-0.37,1.296-0.279,1.46c0.067,0.122,0.181,0.149,0.241,0.151
		c0.007,0.011,0.059,0.121-0.034,0.668l-1.523,0.838l0.294,0.479c-0.063,0.117-0.121,0.208-0.166,0.271l-0.171-0.273l-0.108,0.489
		c-0.077,0.358-0.114,0.566,0.052,0.665l0.002,0.002c-0.277,0.358-0.512,0.812-0.741,1.253c-0.097,0.186-0.19,0.367-0.287,0.54
		c-0.194,0.352-0.596,1.078-0.838,1.078c-0.002,0-0.006,0-0.009-0.002l-0.233-0.02l0.011,0.235c0.007,0.128,0.049,0.206,0.099,0.253
		c-0.27,0.188-0.428,0.562-0.589,0.951c-0.063,0.153-0.13,0.313-0.208,0.473c-0.015-0.039-0.041-0.074-0.086-0.104
		c-0.163-0.119-0.309,0.015-0.681,0.376l-0.076,0.071l0.016,0.104c0.065,0.469-0.437,1.013-0.92,1.538
		c-0.324,0.352-0.657,0.715-0.841,1.076l-0.092,0.118l0.127,0.104c0.038,0.199-0.533,1.033-0.95,1.644
		c-0.309,0.449-0.629,0.914-0.903,1.374c-0.147,0.08-0.389,0.365-1.098,1.223l-0.096,0.114c-0.314,0.38-0.664,0.804-0.997,1.203
		l-0.484,0.575c-0.125,0.144-0.216,0.227-0.327,0.33l-0.072,0.065l0.075,0.082l-0.157,0.052c0.098,0.296-0.649,1.156-1.143,1.724
		c-0.043,0.05-0.085,0.1-0.128,0.147c0.042-0.076,0.095-0.167,0.163-0.273l-0.322-0.251l-0.784,0.828l-0.014,0.052
		c-0.041,0.167-0.127,0.356-0.365,0.679l-0.051-0.387L107.236,112c-0.337,0.356-0.644,0.739-0.966,1.14
		c-0.631,0.789-1.284,1.605-2.263,2.34l-0.135,0.101l0.072,0.152c0.016,0.032,0.036,0.06,0.06,0.084l-0.557,0.466
		c-0.618,0.519-1.344,0.973-1.618,1.011l-0.728,0.085l0.67,0.289c0,0.003,0,0.1-0.219,0.315c-0.433,0.376-0.554,0.402-0.554,0.407
		c-0.165-0.1-0.325-0.128-0.649,0.023l-0.071,0.033l-0.033,0.073c-0.038,0.097-0.183,0.227-0.438,0.393
		c-0.013,0.009-0.023,0.018-0.035,0.027c-0.427-0.072-0.88-0.018-1.237,0.061c-0.142,0.033-0.275,0.1-0.383,0.2l-0.168,0.155
		c-0.777,0.034-1.238,0.402-1.555,0.734c-0.182-0.019-0.385-0.013-0.616,0.031c-0.186,0.036-0.354,0.136-0.475,0.28l-0.304,0.368
		c-0.344-0.091-0.688-0.007-0.863,0.035c-0.163,0.041-0.313,0.131-0.423,0.261c-0.136,0.155-0.218,0.309-0.261,0.449
		c-0.264-0.115-0.577-0.097-0.828,0.087c-0.028,0.021-0.067,0.049-0.113,0.085c-0.172,0.121-0.434,0.249-0.685,0.372
		c-0.39,0.188-0.787,0.383-1.085,0.657c-0.391,0.039-0.784,0.173-1.145,0.296c-0.11,0.037-0.247,0.081-0.368,0.117
		c-0.222-0.2-0.545-0.304-0.833-0.216c-0.226,0.068-0.373,0.239-0.47,0.44c-0.114,0.109-0.314,0.272-0.561,0.443
		c-0.403-0.153-0.933,0.008-1.482,0.171c-0.196,0.058-0.511,0.153-0.738,0.2c-0.094-0.095-0.21-0.168-0.344-0.209
		c-0.345-0.11-0.734,0.028-0.932,0.337c-0.041,0.062-0.158,0.197-0.485,0.374c-0.147,0.082-0.306,0.157-0.477,0.229l0.009,0.024
		c-0.052,0.004-0.1,0.017-0.162,0.047l-0.026,0.006l-0.774,0.258c-0.52,0.166-1.056,0.336-1.553,0.546
		c-0.095,0.004-0.181,0.019-0.264,0.046c-0.365,0.069-0.561,0.034-0.822-0.014c-0.195-0.036-0.39-0.069-0.62-0.075
		c-0.225-0.011-0.432-0.021-0.594,0.149c-0.162,0.166-0.223,0.292-0.208,0.522c-0.026,0.037-0.1,0.088-0.173,0.137l-0.076,0.004
		c-0.05-0.126-0.119-0.239-0.186-0.322c-0.253-0.302-0.681-0.381-1.021-0.197c-0.181,0.1-0.312,0.26-0.379,0.443
		c-0.104,0.048-0.241,0.102-0.336,0.141c-0.155,0.062-0.309,0.14-0.461,0.219c-0.089,0.017-0.168,0.037-0.256,0.055
		c-0.047-0.037-0.096-0.085-0.184-0.168c-0.231-0.221-0.563-0.273-0.859-0.168c-0.207,0.077-0.372,0.239-0.46,0.438
		c-0.194,0.017-0.456,0.051-0.734,0.171c-0.044-0.022-0.063-0.04-0.072-0.05c-0.062-0.07-0.125-0.128-0.188-0.178
		c-0.08-0.393-0.477-0.747-0.835-0.654c-0.455,0.017-1.02,0.089-1.366,0.497c-0.026,0.03-0.05,0.062-0.071,0.094
		c-0.078-0.083-0.177-0.163-0.3-0.235c-0.158-0.088-0.342-0.134-0.524-0.101c-0.533,0.074-0.993,0.236-1.401,0.376
		c-0.188,0.067-0.365,0.127-0.528,0.173c-0.221-0.184-0.537-0.236-0.82-0.125c-0.309,0.125-0.925,0.088-1.513,0.056l-0.295-0.016
		c-0.424-0.021-0.903-0.028-1.384-0.008c-0.218-0.351-0.702-0.421-1.372-0.503c-0.164-0.026-0.328,0.015-0.472,0.091
		c-0.082-0.127-0.168-0.232-0.23-0.305c-0.119-0.141-0.282-0.238-0.461-0.275c-0.939-0.192-1.531-0.296-2.181-0.322
		c-0.504-0.036-0.981-0.071-1.795-0.309c-0.169-0.052-0.35-0.043-0.518,0.018c-0.159,0.058-0.354,0.192-0.512,0.385l-0.804-0.228
		l0.692,0.359c-0.007,0.011-0.018,0.016-0.025,0.028c-0.689-0.118-0.913-0.383-1.175-0.689c-0.44-0.51-0.935-0.966-2.104-0.966
		c-0.123,0.002-0.261,0.002-0.392,0.042c-0.144,0.045-0.277,0.109-0.411,0.175c-0.08-0.033-0.154-0.068-0.232-0.101
		c-0.083-0.219-0.233-0.408-0.46-0.489c-0.206-0.075-0.353-0.097-0.521-0.137l0.012-0.084l-0.121-0.019
		c-0.435-0.073-0.785-0.199-1.136-0.331l-0.698-0.263l0.031,0.039c-0.288-0.093-0.548-0.093-0.8-0.031
		c-0.082-0.222-0.262-0.405-0.495-0.487c-0.32-0.115-0.682-0.21-1.017-0.318c-0.504-0.283-0.797-0.35-1.051-0.326
		c-0.338-0.1-0.649-0.21-0.993-0.309c-0.187-0.057-0.39-0.138-0.581-0.2c-0.196-0.195-0.477-0.358-0.626-0.409l-0.07,0.17
		c-0.315-0.111-0.618-0.201-0.941-0.324c-0.052-0.218-0.188-0.43-0.406-0.633c-0.085-0.077-0.183-0.136-0.292-0.172
		c-0.581-0.199-1.142-0.485-1.86-0.843l-0.283-0.151c-0.533-0.283-1.073-0.566-1.587-0.92c-1.393-0.918-2.513-1.737-3.42-2.502
		c-0.119-0.099-0.261-0.164-0.415-0.186l-0.501-0.071c-0.045-0.088-0.108-0.17-0.186-0.24c-0.198-0.177-0.497-0.442-0.866-0.477
		c-0.065-0.056-0.14-0.103-0.224-0.138c-0.758-0.307-1.914-0.832-3.128-1.592c-0.819-0.51-1.528-1.054-2.043-1.562
		c-0.003-0.203-0.081-0.404-0.227-0.56c-0.664-0.698-1.316-0.855-1.793-0.969c-0.208-0.052-0.357-0.087-0.484-0.155
		c-0.033-0.154-0.108-0.299-0.227-0.416c-0.505-0.496-1.036-0.997-1.569-1.499c-1.882-1.776-3.832-3.611-4.663-5.357
		c-0.149-0.309-0.302-0.475-0.639-0.44c-0.158-0.084-0.51-0.558-0.806-0.949c-0.339-0.466-0.842-1.153-1.477-1.352
		c-0.143-0.35-0.214-0.592-0.281-0.81l-0.102-0.328c-0.175-0.514-0.44-1.091-1.037-2.245c-0.253-0.432-0.595-0.639-0.905-0.806
		c0.035-0.182,0.012-0.374-0.082-0.546l-0.112-0.205c-0.108-0.199-0.344-0.316-0.562-0.372h-0.003
		c-0.087-0.06-0.186-0.128-0.288-0.205l-0.083-0.06l0.074-0.292c0.06-0.242,0.009-0.497-0.143-0.696l-0.494-0.65
		c-0.034-0.044-0.081-0.066-0.121-0.1c-0.093-0.123-0.167-0.274-0.292-0.353c-0.059-0.038-0.126-0.021-0.189-0.041
		c-0.111-0.394-0.176-0.765-0.176-0.95c0.024-0.048,0.041-0.098,0.056-0.147c0.059-0.223,0.024-0.459-0.099-0.651l-0.68-1.14
		c0.077-0.249,0.038-0.527-0.13-0.75c0,0-0.003,0-0.003-0.002l-0.092-0.127c0.266-0.586-0.184-1.212-0.376-1.478
		c-0.073-0.104-0.169-0.186-0.274-0.244c-0.04-0.419-0.115-0.812-0.156-1.002c-0.069-0.389-0.162-0.806-0.27-1.221
		c0.134-0.181,0.19-0.415,0.147-0.641c-0.222-1.167-0.447-2.308-0.715-3.517C7.287,78.966,7.1,77.708,6.92,76.49
		c-0.023-0.156-0.092-0.287-0.19-0.389c0.016-0.104,0.011-0.214-0.019-0.322L6.698,75.73c0.045-0.039,0.084-0.082,0.117-0.135
		c0.187-0.297,0.205-0.613-0.018-0.885c-0.019-0.099,0.009-0.409,0.028-0.615c0.05-0.497,0.104-1.079-0.064-1.597
		c0.011-0.061,0.014-0.121,0.011-0.182c-0.044-0.809-0.109-1.479-0.169-2.082c-0.032-0.339-0.065-0.656-0.087-0.963l-0.028-0.367
		c-0.054-0.715-0.105-1.417-0.131-2.284c-0.011-0.289-0.171-0.544-0.408-0.683c-0.012-0.047-0.02-0.099-0.033-0.152
		C5.869,65.566,5.81,65.309,5.7,65.041c0.091-0.671,0.192-1.374,0.339-2.103c0.149-0.778,0.309-1.709,0.359-2.82
		c-0.02-0.285-0.05-0.749-0.261-1.09c0-0.002,0.001-0.002,0.001-0.005c0.272-0.114,0.469-0.373,0.496-0.682L6.886,55.8
		c0.039-0.393,0.074-0.803,0.106-1.305c0.028-0.47,0.06-1.012,0.14-1.684c0.005-0.034,0.007-0.069,0.007-0.102
		c0.077-0.12,0.127-0.261,0.133-0.414c0.039-0.8,0.184-1.528,0.441-2.178c0.288-0.758,0.638-1.512,0.998-2.294
		c0.767-1.421,1.528-2.922,1.72-4.344l0.373-1.626c0.188-0.048,0.396-0.165,0.612-0.398c0.099-0.11,0.168-0.244,0.198-0.389
		c0.307-1.484,0.903-2.402,1.534-3.376c0.419-0.646,0.851-1.311,1.192-2.141c1.014-0.596,1.798-1.816,2.622-3.099l0.15-0.232
		c0.412-0.669,0.84-1.358,1.313-1.965c0.378-0.494,0.825-1.044,1.285-1.352c0.232-0.158,0.363-0.417,0.361-0.689
		c0.114-0.061,0.238-0.141,0.359-0.256c0.205-0.189,0.297-0.472,0.246-0.747c-0.013-0.071-0.035-0.14-0.065-0.203
		c0.19-0.255,0.38-0.507,0.571-0.753c0.412-0.506,0.85-0.999,1.3-1.5c0.661-0.764,1.397-1.455,2.175-2.188l0.622-0.592
		c0.353-0.309,0.713-0.609,1.074-0.911l0.473-0.4c0.499-0.428,1.006-0.842,1.546-1.24l3.215-2.383
		c0.887-0.671,1.041-1.308,1.165-1.885c0.009,0.009,0.023,0.015,0.033,0.024c0.329,0.192,0.746,0.134,1.009-0.143
		c0.652-0.687,1.428-1.253,2.189-1.775c0.736-0.541,1.574-0.997,2.483-1.494c0.573-0.336,1.165-0.626,1.754-0.917l0.858-0.43
		c0.361-0.197,0.723-0.382,1.087-0.568c0.149-0.078,0.298-0.156,0.449-0.234c0.048,0.014,0.097,0.02,0.147,0.022
		c0.773,0.06,1.667-0.404,2.104-0.655c0.306-0.15,0.609-0.317,0.859-0.505c0.147,0.054,0.297,0.076,0.435,0.085
		c0.592-0.029,1.108-0.336,1.596-0.627c0.007-0.003,0.011-0.006,0.017-0.009c0.217,0.097,0.469,0.102,0.693-0.008
		c0.056-0.029,0.119-0.059,0.184-0.093c0.158-0.06,0.441-0.141,0.625-0.193c0.563-0.161,1.045-0.3,1.317-0.591
		c0.509-0.089,1.039-0.223,1.54-0.357c0.377-0.094,0.731-0.163,1.074-0.199c0.108,0.059,0.227,0.103,0.354,0.108l0.979,0.048
		c0.012,0.002,0.026,0.002,0.039,0.002c0.348,0,0.638-0.234,0.754-0.561c0.325-0.02,0.704-0.05,1.041-0.178
		c0.516,0.187,1.234,0.169,1.92,0.083c0.122,0.086,0.26,0.151,0.419,0.159c0.153,0.009,0.324,0.013,0.505,0.013
		c0.299,0,0.625-0.011,0.948-0.027l0.003,0.001l0.156,0.002h0.01c0.021,0,0.04-0.009,0.06-0.011
		c1.059-0.059,1.697-0.177,2.085-0.418c0.903,0.209,1.772,0.082,2.497-0.024c0.901-0.13,1.318-0.162,1.553,0.093
		c0.171,0.185,0.411,0.259,0.666,0.261c1.657-0.13,3.276-0.181,4.961-0.164c0.089,0.355,0.409,0.616,0.789,0.62
		c0.801-0.004,1.527-0.028,2.197-0.06c0.466-0.022,0.91-0.044,1.361-0.046c0.665-0.021,1.294,0.006,1.916,0.088
		c0.097,0.323,0.385,0.56,0.729,0.584c1.433,0.097,2.794,0.406,4.114,0.707c0.6,0.135,1.217,0.263,1.834,0.382
		c0.216,0.232,0.522,0.278,0.872,0.294c0.083,0.02,0.17,0.044,0.253,0.068c0.397,0.118,0.894,0.266,1.328-0.021
		c0.131-0.086,0.249-0.258,0.331-0.432c0.162,0.027,0.309,0.052,0.486,0.079c0.023,0.004,0.043,0.008,0.065,0.011
		c0.106,0.077,0.199,0.167,0.317,0.231l-0.25,0.21l0.258-0.008c-0.01,0.077-0.035,0.151-0.025,0.231
		c0.054,0.361,0.341,0.643,0.705,0.691c0.077,0.011,0.163,0.019,0.252,0.024c0.106,0.104,0.24,0.179,0.393,0.211
		c0.795,0.182,1.203,0.178,1.488,0.158c0.137,0.283,0.428,0.469,0.748,0.469c0,0,0.012,0,0.017-0.002
		c0.568-0.009,1.06-0.02,1.645,0.168c0.079,0.192,0.23,0.355,0.435,0.443c0.043,0.017,0.085,0.035,0.125,0.048
		c0.715,0.269,1.394,0.451,2.061,0.628c0.964,0.255,1.885,0.497,2.841,1.024c0.03,0.454,0.406,0.736,0.622,0.901
		c0.037,0.026,0.084,0.062,0.127,0.097c0.031,0.298,0.223,0.566,0.517,0.68l1.218,0.48c0.223,0.091,0.475,0.073,0.68-0.037
		c0.07,0.03,0.141,0.059,0.21,0.086c0.09,0.038,0.18,0.072,0.266,0.109c0.062,0.207,0.207,0.388,0.412,0.494
		c0.009,0.005,0.454,0.232,0.888,0.501l0.924,0.549c0.055,0.032,0.118,0.014,0.178,0.032l0.105,0.096
		c0.202,0.181,0.378,0.341,0.616,0.52c0.06,0.195,0.287,0.419,0.762,0.769l0.565,0.415c0.188,0.14,0.36,0.272,0.494,0.382
		l0.177,0.167l0.061-0.112c0.135,0.118,0.313,0.186,0.535,0.17c0.184,0.032,0.697,0.395,1.027,0.628l0.209,0.154
		c0.053,0.04,0.105,0.074,0.158,0.113c0.219,0.337,0.412,0.657,0.412,0.764l-0.004,0.106l0.086,0.065
		c0.689,0.515,1.421,1.177,2.13,1.816c0.445,0.4,0.878,0.787,1.294,1.137c0.008,0.035-0.009,0.069,0.005,0.103l0.26,0.656
		c0.084,0.207,0.254,0.338,0.449,0.422c0.013,0.193,0.083,0.376,0.217,0.516l0.931,0.953c0.734,0.745,1.478,1.503,2.152,2.288
		l0.106,0.254c0.183,0.434,0.395,0.821,0.597,1.195l0.088,0.16c0.209,0.397,0.446,0.791,0.732,1.207l0.891,1.258
		c-0.002,0.036-0.024,0.067-0.021,0.103c0.009,0.134,0.054,0.261,0.125,0.373c0.22,0.526,0.504,1.031,0.808,1.564l1.579,2.839
		c-0.019,0.095-0.021,0.196-0.007,0.296c0.044,0.277,0.118,0.585,0.206,0.885l0.391,1.51c0.108,0.384,0.213,0.752,0.248,1.076
		c0.02,0.185,0.167,0.452,0.306,0.602c0.09,0.427,0.164,0.85,0.246,1.279c0.019,0.329,0.05,0.654,0.086,0.983
		c0.062,0.469,0.165,0.925,0.269,1.379c0.038,0.168,0.074,0.352,0.111,0.526c0.005,0.05,0.018,0.098,0.024,0.148
		c0.126,1.211,0.152,2.295,0.126,3.32c-0.144,0.17-0.252,0.37-0.252,0.585c0,0.028,0.002,0.056,0.005,0.084
		c0.008,0.132,0.028,0.666,0.032,1.13c0.001,0.217-0.002,0.424-0.006,0.612c-0.129,0.736-0.294,1.435-0.532,2.06
		c-0.335,0.959-0.339,1.363-0.344,1.83c-0.002,0.168-0.004,0.343-0.023,0.557c-0.03,0.009-0.065,0.02-0.1,0.028l-0.371,0.101
		l-0.015,0.142c-0.002,0.001-0.014,0.12-0.038,0.285l-0.02,0.059l0.01,0.004c-0.015,0.096-0.032,0.198-0.054,0.307l-0.084,0.044
		c-0.028,0.014-0.08,0.056-0.087,0.121c-0.02,0.036-0.041,0.072-0.06,0.11l-0.036,0.067c-0.064,0.075-0.142,0.15-0.219,0.226
		c-0.025-0.01-0.05-0.005-0.076,0.003c0.058-0.041,0.088-0.08,0.156-0.123l0.033-0.02l0.012-0.034
		c0.035-0.093,0.007-0.147-0.021-0.177c-0.024-0.024-0.05-0.034-0.076-0.039l0.348-0.612l-0.602,0.617
		c-0.147,0.15-0.266,0.312-0.373,0.455c-0.038,0.052-0.077,0.103-0.114,0.153l0.167,0.145c0.023-0.024,0.066-0.047,0.09-0.071
		c-0.089,0.089-0.168,0.179-0.278,0.265l-0.093,0.052c-0.043,0.027-0.086,0.05-0.13,0.074l-0.002-0.091l-0.167,0.166
		c0,0-0.002,0.002-0.003,0.002v0.001c-0.35,0.072-0.385,0.164-0.396,0.194l-0.031,0.095c-0.103,0.066-0.199,0.137-0.304,0.2
		l-0.025,0.012c-0.182,0.065-0.327,0.097-0.612,0.118l-0.05,0.018c-0.117,0.073-0.182,0.119-0.241,0.164l0.118-0.333l-0.38,0.33
		c-0.084,0.073-0.168,0.145-0.255,0.214c-0.155-0.066-0.314-0.064-0.469-0.027l0.003-0.035l-0.124,0.061
		c-0.01,0.004-0.022,0.003-0.032,0.008c-0.237-0.284-0.635-0.391-0.972-0.229c-0.086,0.037-0.141,0.041-0.459-0.052
		c-0.351-0.095-0.775-0.177-1.338-0.075c-0.125-0.242-0.361-0.409-0.633-0.441c-0.25-0.026-0.838-0.102-1.151,0.326
		c-0.268-0.095-0.54-0.222-0.822-0.349l-0.288-0.13c-0.521-0.266-1.009-0.123-1.335-0.031c-0.089,0.026-0.221,0.065-0.195,0.084
		c-0.078-0.036-0.261-0.218-0.385-0.338c-0.356-0.353-0.801-0.791-1.287-0.837c-0.622-0.179-1.112-0.276-1.536-0.331
		c-0.179-0.166-0.417-0.36-0.719-0.457l-0.187-0.059c-0.05-0.029-0.096-0.052-0.148-0.084c-0.025-0.014-0.054-0.032-0.08-0.052
		l0.138-0.071l-0.097-0.058c0.002-0.004,0.007-0.007,0.009-0.011c0.015-0.015,0.028-0.03,0.039-0.046
		c0.038-0.04,0.089-0.133,0.177-0.329c0.045-0.102,0.069-0.186,0.077-0.253c0.424-0.361,0.74-1.577,1.003-2.697l0.076-0.31
		l-0.135-0.06c0.121-0.536,0.161-1.077,0.179-1.714l0.005-0.145l-0.136,0.033c0-0.222,0.031-0.484,0.063-0.78
		c0.036-0.326,0.075-0.682,0.084-1.052l0.009,0.002c0.136-0.643,0.021-1.194-0.141-1.855c-0.151-0.467-0.488-0.821-0.948-0.996
		c-0.482-0.186-1.035-0.147-1.469,0.108c-0.317,0.279-0.475,0.546-0.579,0.778l-0.017-0.005l-0.005,0.017h-0.002
		c-0.012,0.046-0.032,0.102-0.037,0.139c-0.064,0.167-0.085,0.414-0.085,0.588h-0.001c-0.014,0.097-0.037,0.198-0.058,0.291
		c-0.059,0.267-0.086,0.402,0,0.473c0.013,0.011,0.044,0.03,0.084,0.03c0.012,0,0.025-0.005,0.037-0.007
		c0.012,0.055,0.035,0.108,0.097,0.128c0.03,0.011,0.07,0.015,0.119-0.01c0.011,0.039,0.023,0.077,0.034,0.112
		c-0.081,0.136-0.065,0.309-0.047,0.477c0.017,0.182,0.036,0.353-0.06,0.467l-0.05,0.065l0.041,0.068
		c0.039,0.061,0.042,0.383,0.045,0.595c0.004,0.38,0.013,0.654,0.074,0.819l-0.018,0.068c-0.059,0.236-0.117,0.478-0.121,0.715
		l-0.202,0.094l0.008,0.077c0.012,0.117,0.026,0.243,0.037,0.369l-0.039-0.053l0.049,0.353c-0.04,0.072-0.073,0.124-0.097,0.161
		c0-0.019-0.002-0.04-0.002-0.065l-0.221-0.009c-0.047,0.497-0.096,0.691-0.139,0.864c-0.004,0.012-0.006,0.026-0.009,0.038
		c-0.137-0.039-0.279-0.079-0.412-0.05c-0.039,0.008-0.052,0.039-0.087,0.051c-0.167-0.078-0.338-0.127-0.514-0.127
		c-0.011-0.009-0.022-0.018-0.03-0.027c-0.009-0.01-0.018-0.018-0.027-0.027c-0.11-0.121-0.241-0.261-0.401-0.376
		c-0.115-0.115-0.229-0.233-0.343-0.352c-0.341-0.348-0.678-0.678-1.001-0.943c-0.117-0.158-0.236-0.317-0.337-0.476l-0.17-0.268
		l-0.02,0.186c-0.015-0.029-0.03-0.057-0.043-0.082c-0.114-0.215-0.231-0.435-0.374-0.488c0-0.012-0.002-0.021-0.005-0.029
		l0.1-0.104c-0.255-0.282-0.413-0.533-0.553-0.756c-0.134-0.209-0.252-0.397-0.423-0.572l0.529,0.484l-0.525-0.776
		c-0.449-0.665-0.73-0.736-0.974-0.693c-0.121-0.331-0.224-0.512-0.399-0.683l0.101-0.051c-0.067-0.138-0.273-0.569-0.458-0.961
		c-0.118-0.232-0.179-0.338-0.242-0.42c-0.044-0.06-0.086-0.106-0.125-0.136c0.005-0.006,0.009-0.011,0.012-0.018
		c0.028-0.04,0.065-0.098,0.085-0.146l0.873-1.02l-0.087-0.084c0.043-0.097,0.13-0.181,0.266-0.308
		c0.069-0.068,0.147-0.139,0.227-0.227l0.002,0.002l0.136-0.13c0.508-0.48,0.575-0.586,0.659-0.722
		c0.069-0.109,0.149-0.235,0.579-0.676l0.153-0.159l-0.283-0.037c0.036-0.093,0.206-0.287,0.324-0.424
		c0.255-0.291,0.573-0.654,0.696-1.054l0.047-0.153c0.076-0.082,0.163-0.166,0.246-0.25c0.085-0.085,0.171-0.169,0.249-0.253
		l-0.162,0.71l0.415-0.833c0.231-0.467,0.253-0.579,0.213-0.668c-0.032-0.069-0.095-0.086-0.139-0.095
		c-0.003-0.002-0.024-0.043,0.008-0.227c0.038,0.015,0.091,0.031,0.147,0.002c0.084-0.043,0.133-0.151,0.179-0.393
		c0.089-0.196,0.03-0.751-0.063-1.183c-0.054-0.266-0.13-0.534-0.202-0.793c-0.069-0.238-0.132-0.463-0.174-0.661l-0.2,0.019
		c-0.004-0.004-0.007-0.011-0.011-0.017c-0.039-0.082-0.081-0.175-0.123-0.277c-0.104-0.244-0.225-0.518-0.392-0.78
		c-0.189-0.304-0.421-0.514-0.652-0.655l0.013-0.012l-0.016-0.116l-0.042-0.029c-0.172-0.11-0.244-0.111-0.284-0.105
		c-0.332-0.184-0.658-0.323-0.941-0.389c-0.344-0.076-0.678-0.095-0.873-0.046c-0.328-0.267-1.181-0.075-1.725,0.292
		c-0.24,0.147-0.446,0.313-0.612,0.447c-0.143,0.115-0.322,0.257-0.365,0.261l-0.078-0.086l-0.082,0.08
		c-0.294,0.288-0.557,0.607-0.785,0.952l-0.018-0.056l-0.128,0.203c-0.419,0.657-0.488,1.031-0.51,1.318l-0.019-0.033l-0.082,0.202
		c-0.482,1.205-0.467,1.425-0.389,2.445l-0.147,0.103l0.009,0.065c0.009,0.059-0.007,0.22-0.022,0.409
		c-0.05,0.59-0.138,1.665,0.132,2.573l-0.041,0.012c0.106,0.365,0.193,0.787,0.274,1.193c0.072,0.345,0.143,0.706,0.229,1.034
		l0.08,0.314l0.015,0.043c0.005,0.015,0.014,0.036,0.014,0.036l-0.015,0.031c-0.072,0.145-0.068,0.263-0.046,0.421l-0.415,0.767
		l0.183,0.121c0.046-0.058,0.083-0.106,0.116-0.143c-0.003,0.037,0,0.073,0.012,0.102c-0.045,0.058-0.095,0.112-0.14,0.162
		c-0.035-0.056-0.084-0.071-0.109-0.076c-0.16-0.032-0.308,0.162-0.652,0.62c-0.105,0.141-0.256,0.344-0.337,0.419l-0.044-0.045
		l-0.077,0.108c-1.274,1.903-2.538,3.957-2.76,6.321l-0.031,0.315l0.029-0.03c-0.054,0.2-0.018,0.483,0.036,0.697
		c-0.012-0.003-0.029-0.003-0.045,0c-0.105,0.02-0.095,0.13-0.09,0.167c0.01,0.172,0.029,0.339,0.053,0.494l0.138,0.854l0.05-0.527
		c0.056,0.136,0.119,0.303,0.21,0.643c0.045,0.188,0.034,0.231,0.032,0.235c-0.036,0.048-0.045,0.096-0.028,0.165
		c-0.004,0.049,0.024,0.127,0.113,0.293c0.069,0.164,0.146,0.324,0.224,0.478l0.033,0.058c0.03,0.061,0.066,0.128,0.127,0.218
		l0.473,0.614l-0.105-0.465c0.1,0.117,0.161,0.173,0.221,0.173h0.005c0.244,0.397,0.756,0.933,1.311,1.354
		c0.471,0.376,0.979,0.661,1.313,0.852c0.15,0.084,0.279,0.155,0.327,0.194l0.041,0.022c0.261,0.067,0.512,0.148,0.775,0.233
		c0.343,0.112,0.698,0.227,1.113,0.326l0.054-0.168c0.04,0,0.103,0.006,0.194,0.025c-0.002,0.031,0.004,0.056,0.013,0.078
		c0.071,0.186,0.4,0.24,0.972,0.32c0.287,0.041,0.583,0.082,0.773,0.147c0.015,0.007,0.029,0.011,0.038,0.015l0.027-0.078
		l0.007,0.015c0.03-0.015,0.166-0.036,0.277-0.053c0.121-0.018,0.26-0.039,0.388-0.068c0.162-0.021,0.492-0.075,0.622-0.194
		l0.007,0.006c0.045,0.044,0.11,0.061,0.224,0.061h0.039l0.032-0.007c0.603-0.216,1.283-0.462,1.968-0.788
		c0.731-0.309,1.432-0.797,1.977-1.378l0.047-0.05l-0.023-0.064c-0.02-0.053-0.058-0.072-0.102-0.081
		c0.002-0.004,0.004-0.006,0.006-0.008l0.727-0.441l0.012-0.03c0.026-0.052,0.024-0.111,0.024-0.173
		c-0.002-0.138,0.008-0.166,0.08-0.182l0.121-0.04l0.295,0.237c0.299,0.218,0.62,0.434,0.958,0.644
		c0.62,0.383,1.287,0.745,2.041,1.108c1.076,0.517,2.168,0.963,3.293,1.413c0.004,0.003,0.004,0.008,0.008,0.011
		c0.237,0.134,0.442,0.203,0.631,0.247c0.039,0.016,0.075,0.031,0.114,0.046l0.259,0.104l0.043-0.097
		c0.053,0.012,0.11,0.024,0.164,0.036l0.009,0.002c0,0,0.001,0.001,0.002,0.001c0.086,0.027,0.217,0.052,0.424,0.082l0.018-0.113
		c0.248,0.089,0.513,0.179,0.797,0.26l0.04,0.013l0.041-0.022c0.048-0.023,0.167-0.023,0.309-0.022l-0.049,0.016l0.226-0.003
		c0.069,0.005,0.139,0.011,0.201,0.015c0.099,0.01,0.162,0.011,0.244,0.016l-0.81,0.101l1.128,0.229l0.063-0.211l-0.288-0.113
		c0.053,0.003,0.126,0.011,0.171,0.011c0.181,0,0.291-0.03,0.359-0.101l0.226,0.389l0.808-0.448l-0.488,0.03
		c-0.252,0.015-0.315-0.004-0.335-0.012l-0.117-0.061l0.07-0.086l-0.232,0.003l-0.058-0.029l0.018,0.03l-0.124,0.002
		c-0.002-0.052-0.028-0.097-0.068-0.143c0.049,0.003,0.085,0.002,0.132,0.004c0.406,0.18,0.85,0.173,1.051,0.154
		c0.128-0.006,0.261-0.021,0.399-0.037c0.052-0.006,0.103-0.013,0.154-0.017c0.594,0.33,1.244,0.24,1.607-0.229
		c0.024-0.034,0.047-0.069,0.066-0.105c0.011-0.003,0.022-0.006,0.033-0.009c0.152,0.127,0.311,0.234,0.502,0.209
		c0.117-0.021,0.218-0.083,0.322-0.138l-0.288,0.38l0.432-0.22c0.094-0.049,0.181-0.105,0.271-0.158
		c0.051,0.002,0.097,0.013,0.15,0.009c0.127-0.005,0.26-0.013,0.398-0.029c0.079,0.072,0.175,0.135,0.287,0.179
		c0.233,0.094,0.589,0.063,0.807-0.064c0.088-0.052,0.193-0.099,0.312-0.155c0.147-0.069,0.308-0.145,0.423-0.207
		c0.363-0.161,0.762-0.405,1.275-0.794c0.196-0.174,0.401-0.365,0.625-0.615c0.081-0.115,0.163-0.232,0.239-0.348
		c0.011-0.009,0.019-0.017,0.03-0.025c0.024-0.018,0.047-0.036,0.065-0.053c0.082-0.071,0.198-0.19,0.328-0.343
		c0.044-0.051,0.097-0.125,0.144-0.186c0.003-0.001,0.006-0.004,0.008-0.006l0.062,0.22l0.018-0.28
		c0.009-0.008,0.012-0.008,0.02-0.016c0.04-0.033,0.072-0.063,0.089-0.075l-0.01-0.026l0.042,0.027
		c0.156-0.211,0.206-0.315,0.17-0.398c0.074-0.111,0.148-0.214,0.222-0.336c0.421-0.665,0.81-1.462,1.129-2.166
		c0.072-0.037,0.137-0.089,0.193-0.152c0.298-0.332,0.311-0.795-0.015-1.099c-0.039-0.113-0.016-0.411,0.021-0.711
		c0.344-0.054,0.622-0.32,0.68-0.674l0.053-0.336c0.224-0.205,0.355-0.497,0.27-0.8l-0.147-0.522
		c-0.002-0.007-0.009-0.01-0.011-0.016c0.088-0.119,0.182-0.238,0.194-0.391C128.798,51.418,128.718,50.744,128.643,50.092
		 M125.853,83.245l0.01,0.116c-0.006-0.007-0.017-0.002-0.023-0.008c-0.007-0.028-0.01-0.067-0.017-0.094
		c-0.026-0.108-0.049-0.203-0.028-0.358C125.821,83.003,125.843,83.117,125.853,83.245 M124.831,84.312l0.024-0.173l0.016,0.389
		c-0.019,0.019-0.037,0.037-0.052,0.049C124.815,84.526,124.815,84.441,124.831,84.312 M104.555,116.456
		c-0.025,0.018-0.034,0.032-0.057,0.05c0-0.003-0.003-0.006-0.003-0.009c-0.004-0.014,0.022-0.059,0.033-0.09
		c0.011,0.014,0.02,0.031,0.031,0.043C104.557,116.453,104.557,116.454,104.555,116.456 M104.473,115.942
		c0.028,0.002,0.051,0,0.075,0c0.015,0,0.037,0,0.055-0.001c-0.01,0.008-0.015,0.015-0.024,0.023
		c-0.065,0.048-0.101,0.118-0.113,0.192l-0.071-0.054L104.473,115.942z M104.08,115.875c0.008,0.005,0.015,0.009,0.024,0.011
		l-0.046,0.032L104.08,115.875z M102.697,57.448l-0.423,0.268l0.469-0.157l-0.016,0.339c-0.006,0.138-0.021,0.175-0.036,0.214
		l-0.007,0.02l-0.077,0.088c-0.037,0.041-0.05,0.091-0.061,0.14c-0.002,0.007-0.004,0.015-0.007,0.024h-0.011
		c-0.142,0-0.284,0.099-0.446,0.214c-0.188,0.136-0.405,0.287-0.634,0.289h-0.07l0.099-0.293l-0.344,0.351
		c-0.041,0.043-0.084,0.055-0.138,0.067c-0.035,0.009-0.076,0.02-0.116,0.041l0.058-0.172l-0.236,0.114
		c-0.194,0.093-0.203,0.279-0.17,0.452l-0.118,0.015c-0.174,0.023-0.385,0.064-0.472,0.183c-0.005,0.005-0.007,0.011-0.011,0.016
		c-0.032,0.008-0.063,0.024-0.086,0.042c-0.033,0.003-0.056,0.005-0.078,0.007c-0.078,0.007-0.128,0.011-0.255,0.048l-0.268,0.077
		c-0.08-0.021-0.134-0.008-0.183,0.018c0,0-0.031-0.003-0.123-0.05l-0.193-0.1l0.041,0.275c-0.004-0.005-0.01-0.009-0.017-0.011
		c-0.073-0.052-0.168-0.119-0.27-0.119c-0.014,0-0.028,0.002-0.044,0.005c-0.019-0.039-0.038-0.08-0.051-0.108
		c-0.024-0.05-0.041-0.091-0.061-0.125l0.104-0.057l-0.118-0.104c-0.039-0.036-0.12-0.109-0.212-0.075
		c-0.013,0.004-0.024,0.011-0.033,0.017c-0.011-0.006-0.021-0.015-0.036-0.019c-0.074-0.067-0.19-0.02-0.264,0.011
		c-0.126,0.047-0.207,0.073-0.233,0.03l-0.359-0.616l0.155,0.696c0,0.004,0.003,0.009,0.003,0.013
		c-0.013-0.013-0.024-0.028-0.035-0.039c-0.056-0.062-0.123-0.139-0.213-0.158l0.023-0.063l-0.203,0.048
		c-0.03,0.007-0.088,0.007-0.14,0.007c-0.059-0.007-0.115-0.005-0.173,0.004c-0.006-0.03-0.019-0.059-0.037-0.082
		c-0.079-0.112-0.233-0.127-0.356-0.138c-0.037-0.004-0.087-0.009-0.117-0.016c0.002-0.009,0.006-0.019,0.015-0.034l0.054-0.1
		l-0.253-0.125l0.009-0.008l-0.086-0.076c-0.121-0.106-0.234-0.134-0.326-0.117l-0.003-0.002c-0.177-0.209-0.248-0.267-0.451-0.281
		l0.089-0.155l-0.188,0.03c-0.018-0.023-0.039-0.063-0.054-0.093c-0.037-0.062-0.081-0.14-0.137-0.214l0.649,0.046l-0.876-0.281
		c-0.105-0.033-0.165-0.177-0.218-0.307l-0.049-0.112c-0.071-0.144-0.118-0.167-0.281-0.144c-0.021,0.003-0.047,0.008-0.079,0.012
		l-0.167-0.11c0.004-0.054-0.009-0.106-0.019-0.149c-0.002-0.015-0.007-0.035-0.009-0.052l0.09-0.024l-0.041-0.112
		c-0.123-0.347-0.069-0.709-0.012-1.088c0.019-0.126,0.036-0.249,0.049-0.374l0.013-0.137l0.08-0.023l-0.017-0.406l-0.115,0.084
		c-0.024-0.024-0.032-0.035-0.031-0.056c0.027-0.003,0.049,0,0.065-0.006l0.021,0.003l0.044-0.038
		c0.033-0.028,0.044-0.068,0.047-0.097l0.003-0.005l-0.003-0.004v-0.022c0.005-0.022,0.009-0.04,0.014-0.061
		c0.011-0.04,0.021-0.082,0.039-0.123l0.082-0.212l-0.268,0.081c-0.002-0.013-0.004-0.028-0.009-0.041
		c0.104-0.138,0.162-0.34,0.209-0.514c0.025-0.084,0.057-0.201,0.065-0.219l0.083-0.042l-0.028-0.089
		c-0.046-0.132-0.002-0.237,0.066-0.384l0.029-0.065c0.056-0.031,0.095-0.08,0.126-0.117c0.051-0.063,0.081-0.098,0.139-0.102
		c0.007-0.002,0.017-0.002,0.033-0.002l-0.013-0.216c0.02,0.009,0.038,0.032,0.038,0.052c0-0.015,0.012-0.054,0.021-0.08
		c0.008-0.032,0.017-0.067,0.023-0.101c0.017-0.005,0.037-0.009,0.057-0.016l0.069-0.027V52.15c0.004-0.158,0.116-0.29,0.248-0.443
		c0.106-0.123,0.214-0.25,0.283-0.41l0.035-0.079l-0.022-0.014l0.131-0.021l0.017-0.074c0.014-0.058-0.01-0.111-0.035-0.152
		l0.794-0.097l-0.756-0.106c0.19-0.198,0.327-0.434,0.462-0.665c0.213-0.368,0.43-0.707,0.831-0.912l0.068,0.094
		c0.039,0.049,0.086,0.101,0.136,0.153c0.071,0.074,0.158,0.164,0.162,0.218l0.026,0.276l0.171-0.217
		c0.024-0.033,0.005-0.055,0.014-0.084c0.013,0.018,0.009,0.043,0.035,0.053l0.074,0.017l0.093-0.063l0.006-0.072
		c0.187,0.316,0.427,0.65,0.634,0.972c-0.021,0.001-0.042,0.008-0.062,0.019v-0.002h-0.114c-0.034,0-0.045,0.016-0.069,0.025
		l-0.184-0.276l-0.202-0.079l-0.065-0.083c-0.042-0.052-0.085-0.089-0.128-0.11c-0.062-0.031-0.132-0.024-0.177,0.013
		c-0.01,0.008-0.008,0.026-0.016,0.035c-0.01-0.009-0.006-0.004-0.021-0.02l-0.154-0.162l-0.035,0.217
		c-0.012,0.024-0.04,0.038-0.035,0.068l0.026,0.108l0.053,0.004l0.035,0.089l-0.379-0.119l0.428,0.359
		c0.025,0.019,0.081,0.067,0.15,0.067c0.015,0,0.03-0.003,0.045-0.007c0.057-0.016,0.067-0.069,0.086-0.113l0.029,0.035l0.001-0.04
		c0.004,0.002,0.006,0.003,0.006,0.003l0.07,0.04l0.005-0.009c0,0,0.007,0.004,0.009,0.004h0.33l0.02,0.01
		c-0.011,0.005-0.019,0.01-0.042,0.007l-0.028,0.105v0.001l-0.029,0.106c0.014,0.005,0.029,0.011,0.044,0.015
		c0.044,0.016,0.095,0.035,0.149,0.035l-0.023,0.019l-0.022,0.021l-0.078-0.038l0.008,0.019c-0.014-0.007-0.016-0.024-0.031-0.027
		c-0.011-0.003-0.033,0.011-0.047,0.012l-0.213-0.108l-0.006,0.173c0,0.017,0,0.037,0.001,0.056c0,0.002,0,0.005,0.001,0.008
		l-0.009,0.008l0.01,0.004c0,0.008,0.001,0.017,0.001,0.023l-0.695,0.543l0.818-0.364c0.042-0.02,0.068-0.057,0.093-0.093
		l0.113,0.056l-0.003,0.003c-0.02,0.03-0.079,0.111-0.058,0.225l-0.044-0.002l-0.016,0.22l0.104,0.013l0.008,0.037l0.021-0.033
		l0.059,0.007l0.025-0.133l0.007-0.01l0.053,0.047l-0.04,0.068l0.085,0.043c-0.092,0.003-0.139,0.058-0.167,0.108l-0.316-0.076
		l0.264,0.275c0.084,0.086,0.205,0.112,0.305,0.133l0.198,0.045c0.003,0.032,0.006,0.065,0.028,0.089l0.005,0.005l0.05,0.33
		l-0.314,0.137l0.512-0.015l-0.013,0.03l0.051-0.032l0.199-0.005l-0.282,0.172l0.423,0.075c-0.003,0.011-0.006,0.022-0.014,0.043
		l0.102,0.041l0.104,0.043c-0.009,0.013-0.043,0.019-0.062,0.006c0.008,0.007,0.027,0.032,0.042,0.051
		c-0.005,0.006-0.009,0.009-0.016,0.018c0.003-0.003,0.016-0.005,0.024-0.009c0,0.001,0.001,0.002,0.001,0.002
		c0.007,0.01,0.018,0.017,0.025,0.026l-0.007,0.037l-0.043,0.007c0,0.013,0,0.026,0.002,0.043l-0.046,0.05l0.055,0.047l0.006-0.002
		l0.065,0.048l0.056-0.076c0.004-0.003,0.006-0.008,0.01-0.012c0.005,0.018,0.008,0.036,0.014,0.053
		c0.017,0.047,0.028,0.083,0.01,0.164l-0.078,0.352l0.226-0.214l0.014,0.031l0.005-0.001l0.043,0.051
		c0.006,0.009,0.025,0.026,0.039,0.041c-0.001,0.014-0.005,0.032-0.004,0.038c0.006,0.051,0.044,0.111,0.182,0.128l0.109,0.14
		c0.013,0.086,0.045,0.164,0.093,0.227l-0.017,0.002l0.045,0.03c0.027,0.029,0.058,0.052,0.091,0.07
		c0.032,0.038,0.077,0.06,0.121,0.073l0.149,0.1l0.049,0.062c0.067,0.084,0.156,0.147,0.24,0.207
		c0.026,0.017,0.044,0.037,0.066,0.054l0.008,0.033c0.021,0.099,0.051,0.175,0.095,0.237l0.031,0.043
		c0.029,0.06,0.053,0.115,0.096,0.135l0.119,0.165l-0.015-0.135l0.017,0.004h0.028c0.029,0.019,0.061,0.033,0.086,0.065
		l-0.079,0.131l0.099,0.057c0.017,0.01,0.052,0.071,0.073,0.106c0.03,0.051,0.072,0.121,0.132,0.163
		c-0.011,0.21,0.193,0.357,0.333,0.461c0.069,0.051,0.143,0.104,0.168,0.145l0.072,0.112l0.123-0.115
		c0.091,0.076,0.198,0.135,0.339,0.2l0.08,0.035l0.076-0.094c0.03,0.032,0.06,0.086,0.09,0.142c0.026,0.043,0.052,0.089,0.082,0.134
		c0.005,0.106,0.052,0.192,0.104,0.249l-0.008,0.19l-0.282-0.002L102.697,57.448z M97.021,40.891l0.107,0.007l-0.002-0.117
		c0-0.175,0.065-0.347,0.128-0.514c0.041-0.11,0.082-0.22,0.106-0.333l0.008-0.043l0.048-0.013l0.03-0.077l-0.028-0.186
		c0.007-0.009,0.013-0.019,0.017-0.031l0.097-0.036l-0.079-0.046l0.081-0.222l-0.224,0.015c0.065-0.084,0.091-0.192,0.108-0.266
		c0.007-0.023,0.013-0.054,0.019-0.073l0.139-0.033l-0.104-0.136c-0.045-0.058-0.041-0.079-0.003-0.153l0.009-0.013
		c0.031-0.013,0.059-0.032,0.087-0.056c0.021-0.019,0.034-0.031,0.069-0.031c0.017,0,0.035,0.005,0.052,0.005l0.023-0.203h0.007
		l0.138-0.01l-0.041-0.135c-0.011-0.032-0.006-0.05,0.1-0.127c0.071-0.052,0.149-0.112,0.188-0.205l0.107,0.028l0.007-0.135
		c0.004-0.06-0.034-0.103-0.075-0.15c-0.005-0.007-0.012-0.013-0.016-0.02c0.13-0.071,0.214-0.171,0.288-0.263
		c0.028-0.031,0.054-0.063,0.081-0.096c0.167-0.183,0.294-0.127,0.37-0.071l0.103-0.12l0.007,0.003
		c-0.007,0.007-0.013,0.014-0.019,0.018l0.024-0.013l0.006,0.006l-0.004,0.033l0.033,0.038c0.008,0.012,0.012,0.018,0.014,0.025
		l0.027-0.01l-0.018,0.189l-0.048,0.075l0.043-0.035l-0.014,0.145l-0.273,0.065h0.268l-0.026,0.264l0.08-0.18l0.449,0.059
		c0.011,0,0.02,0.002,0.028,0.002l0.005-0.002l0.018,0.004l-0.076,0.043l0.21,0.022l0.005,0.011l-0.025-0.002l0.039,0.029
		l0.004,0.008l-0.072,0.006l0.018,0.138c-0.004,0.003-0.011,0.004-0.015,0.007l-0.279-0.022l0.188,0.206
		c0.05,0.053,0.125,0.06,0.231,0.07l0.01,0.001l-0.047,0.047l0.031-0.002l-0.041,0.051l-0.009,0.005l0.004,0.002L99.7,38.39h-0.34
		l0.161,0.06l-0.204,0.067l0.293-0.015l-0.105,0.135l0.184-0.124l0.165,0.062v0.118l0.002,0.041l-0.01,0.008l0.011-0.004v0.004
		l0.002,0.004l-0.672,0.121l0.652,0.077c-0.004,0.01-0.009,0.022-0.011,0.04l-0.179,0.18l0.093-0.031l0.019,0.095
		c-0.001,0.024,0,0.047,0.007,0.069c-0.002,0.033,0.009,0.063,0.026,0.089l0.013,0.056l-0.002,0.002
		c-0.033,0.064-0.03,0.132-0.027,0.191c-0.056,0.022-0.106,0.044-0.133,0.084l-0.008,0.009c-0.033,0.017-0.063,0.012-0.08,0.058
		c-0.004,0.008,0.012,0.028,0.01,0.039l-0.043,0.059l-0.072-0.023l0.014,0.136c-0.005,0.005-0.012,0.008-0.016,0.013
		c-0.021,0.018-0.052,0.042-0.07,0.074c-0.038,0.004-0.072,0.015-0.102,0.034c-0.091,0.058-0.112,0.162-0.128,0.236
		c-0.005,0.025-0.012,0.062-0.012,0.067l-0.134,0.101l0.186,0.106c-0.014,0.065-0.009,0.134-0.003,0.203l0.005,0.062l0.053,0.026
		c-0.013,0.009-0.026,0.015-0.039,0.024l-0.072-0.073l0.018,0.078c-0.06,0.004-0.107,0.025-0.144,0.063
		c-0.069,0.073-0.058,0.174-0.05,0.25c0.002,0.008,0.002,0.017,0.005,0.028l-0.031,0.03l-0.097,0.009l0.013,0.052
		c-0.023-0.006-0.05-0.011-0.073-0.016c-0.103-0.023-0.199-0.045-0.238,0.05c-0.026,0.063,0,0.119,0.077,0.167l0.04,0.021
		l-0.001,0.002l-0.358-0.177l0.35,0.41c0.002,0.007,0.002,0.031,0,0.046c0,0.034-0.002,0.077,0.009,0.127l-0.347-0.216l0.195,0.352
		l-0.123,0.052c0.031,0.095,0.028,0.119,0.026,0.141v0.008l-0.024,0.035c-0.019,0.028-0.025,0.058-0.025,0.088
		c-0.119,0.016-0.214,0.117-0.288,0.193c-0.015,0.017-0.052,0.053-0.067,0.053l-0.03-0.017l-0.14-0.762l-0.029,0.341l-0.105,0.273
		l-0.037-0.023l0.026,0.048l-0.024,0.061c-0.016,0.041-0.019,0.103,0.013,0.501c-0.115,0.025-0.147,0.16-0.159,0.266
		c-0.012,0.019-0.02,0.039-0.026,0.06c-0.014,0.007-0.025,0.015-0.035,0.026l0.004-0.141c0.041-0.142,0.078-0.263,0.087-0.286
		c0.006-0.025,0.012-0.038,0.019-0.05l0.021-0.046c0.016-0.054,0.03-0.106,0.029-0.147l0.031-0.064l-0.088-0.054
		c-0.015-0.009-0.03-0.013-0.04-0.015l0.086-0.136l-0.311,0.168c0-0.003-0.003-0.005-0.003-0.007
		c-0.006-0.019-0.015-0.034-0.025-0.047l0.067-0.033l-0.042-0.095l0.009-0.026c0.013-0.043,0.008-0.086-0.013-0.121
		c-0.014-0.025-0.037-0.044-0.063-0.058c0.024-0.099,0.014-0.162-0.034-0.218l0.242-0.05l-0.257-0.104
		c0.017-0.036,0.043-0.086,0.056-0.142l0.538,0.322l-0.549-0.581c-0.01-0.013-0.002-0.041,0.046-0.119
		c0.042-0.078,0.101-0.173,0.051-0.274c-0.044-0.091-0.153-0.126-0.255-0.143l-0.065-0.067
		C97.007,40.934,97.014,40.91,97.021,40.891 M98.081,37.606c0.013-0.007,0.024-0.013,0.037-0.019c0,0.012,0,0.03-0.006,0.047
		l-0.037-0.008L98.081,37.606z M99.145,36.472h0.042l-0.03,0.033C99.152,36.493,99.15,36.483,99.145,36.472 M99.206,36.474
		c0.081,0.002,0.156,0.017,0.228,0.039c0.079,0.027,0.161,0.08,0.241,0.129l-0.138,0.154l-0.054-0.08l-0.099,0.052l-0.118,0.187
		l0.033-0.403l-0.085,0.086L99.206,36.474z M100.589,38.036l-0.058,0.013l0.035,0.099c-0.013,0.001-0.025,0.007-0.037,0.009
		l-0.022-0.07c-0.014-0.044-0.045-0.051-0.072-0.07l0.11-0.111C100.558,37.952,100.579,37.988,100.589,38.036 M99.254,37.405
		l0.017-0.221c0-0.004,0.002-0.009,0.002-0.012h0.002v-0.008l0.12-0.096l0.11,0.017c0.028,0.002,0.073,0.002,0.127,0.009
		l0.008,0.156c-0.023,0.017-0.031,0.043-0.043,0.068l-0.002,0.001c0,0-0.006,0-0.017-0.005l-0.091-0.002l-0.055,0.096l-0.287,0.067
		l0.065-0.146L99.254,37.405z M100.33,39.416c0.023,0.009,0.045,0.017,0.069,0.026c-0.009,0.007-0.017,0.013-0.026,0.022
		C100.357,39.446,100.345,39.431,100.33,39.416 M99.809,37.573c0.01-0.003,0.026-0.005,0.033-0.008l0.126-0.052l0.004,0.042
		l-0.014-0.003v0.013h-0.01h-0.001c-0.002-0.001-0.004,0.002-0.007,0.001l-0.127,0.007H99.809z M100.522,38.932
		c-0.004-0.002-0.006-0.004-0.009-0.009l-0.004-0.004h0.02c-0.001,0.004,0.001,0.012,0,0.016L100.522,38.932z M100.583,38.555
		h-0.009l0.002-0.004C100.578,38.552,100.579,38.553,100.583,38.555 M100.216,37.921l-0.006-0.004l-0.012-0.018
		c-0.012-0.02-0.031-0.012-0.048-0.023l-0.006-0.013l-0.011,0.002l-0.03-0.019c-0.005-0.004-0.021-0.009-0.029-0.014l0.002-0.003
		l0.049-0.015l0.034,0.006l0.089,0.082L100.216,37.921z M99.277,37.571l-0.123,0.041l-0.07,0.005l0.02-0.046H99.277z M99.076,37.632
		l0.011,0.002l-0.014,0.006L99.076,37.632z M99.844,39.099c-0.018,0.012-0.033,0.028-0.046,0.043l-0.026-0.019L99.844,39.099z
		 M100.375,39.837c-0.001-0.003-0.003-0.004-0.006-0.006c0.006-0.011,0.001-0.02,0.011-0.029l-0.003,0.032
		C100.377,39.834,100.376,39.836,100.375,39.837 M100.467,37.673l-0.124-0.03c0.03-0.02,0.061-0.044,0.09-0.07
		C100.446,37.603,100.455,37.64,100.467,37.673 M100.166,37.321c-0.015,0.004-0.022,0.01-0.033,0.015l-0.11-0.11l-0.154,0.017
		l-0.016-0.011c-0.03-0.019-0.062-0.001-0.093-0.003l0.075-0.127c0.009-0.015,0.024-0.042,0.034-0.073l0.065-0.002l0.061-0.078
		l0.006-0.041c0.104,0.108,0.197,0.235,0.286,0.381L100.166,37.321z M99.828,36.743l-0.038,0.016h-0.002l0.023,0.067l-0.023-0.002
		l-0.004,0.031c-0.011-0.005-0.018-0.018-0.029-0.021l0.042-0.12C99.808,36.722,99.818,36.735,99.828,36.743 M102.822,57.231
		c0.038,0.016,0.083,0.016,0.129,0.016c-0.019,0.004-0.04,0.012-0.053,0.014c-0.015,0.003-0.041,0.013-0.065,0.023L102.822,57.231z
		 M98.542,51.209l-0.049,0.04c-0.008-0.006-0.016-0.01-0.027-0.013c-0.067-0.028-0.121,0.005-0.165,0.028l-0.162,0.053l-0.038-0.098
		l0.213-0.059l-0.188-0.091c0.002-0.004,0.007-0.007,0.009-0.012c0.058-0.071,0.105-0.14,0.152-0.236
		C98.374,50.95,98.452,51.077,98.542,51.209 M98.923,51.916c0.02,0.029,0.043,0.048,0.067,0.063c-0.056,0.041-0.106,0.1-0.156,0.157
		l-0.036-0.03l0.027,0.04c-0.025,0.029-0.045,0.052-0.067,0.082l-0.1-0.085c-0.005-0.011-0.009-0.022-0.015-0.032
		c0.067-0.013,0.138-0.048,0.182-0.151l0.025-0.061l-0.041-0.051c-0.088-0.111-0.175-0.111-0.242-0.109
		c-0.018,0.005-0.025,0.003-0.039-0.002l-0.088-0.043l-0.005-0.004l-0.011-0.101l0.158,0.131l0.059-0.36
		c0.099,0.144,0.172,0.276,0.276,0.423l-0.06,0.05L98.923,51.916z M99.671,52.77v0.002c-0.002-0.003-0.004-0.004-0.005-0.005
		l0.002-0.001L99.671,52.77z M99.667,53.639c-0.002,0-0.005,0.001-0.007,0.002c-0.009-0.012-0.018-0.025-0.024-0.038l-0.005-0.017
		l0.001-0.019c0.028,0.015,0.056,0.034,0.081,0.054L99.667,53.639z M99.714,53.172l0.023-0.105l0.031,0.044
		c0.013,0.017,0.024,0.036,0.035,0.054c0.021,0.036,0.054,0.052,0.082,0.077c-0.001,0-0.002,0-0.004,0.001
		C99.811,53.221,99.755,53.202,99.714,53.172 M100.844,54.234l0.004-0.019c0.006,0.006,0.013,0.015,0.02,0.021L100.844,54.234z
		 M100.872,54.241c0.003,0.003,0.005,0.005,0.008,0.008c-0.002,0.001-0.002,0.003-0.005,0.005L100.872,54.241z M101.008,54.409
		l-0.013,0.026l-0.004,0.002c-0.007-0.006-0.016-0.021-0.013-0.045c0,0,0-0.002,0.001-0.003L101.008,54.409z M100.429,54.066
		c-0.106-0.002-0.132-0.002-0.153-0.083c0.013-0.053,0.049-0.073,0.116-0.109c0.016-0.007,0.033-0.015,0.048-0.024
		c0.011,0.021,0.017,0.05,0.024,0.086c0.008,0.041,0.019,0.089,0.045,0.132C100.481,54.066,100.453,54.066,100.429,54.066
		 M99.169,52.686c-0.012,0.021-0.021,0.044-0.022,0.071c-0.001-0.001-0.003-0.001-0.003-0.003l-0.026-0.075l0.045-0.001
		L99.169,52.686z M97.969,50.781l0.006,0.017c-0.001,0.026-0.008,0.045-0.014,0.07l-0.014-0.038
		C97.96,50.82,97.959,50.795,97.969,50.781 M97.963,51.357l0.062-0.041c-0.003-0.004-0.006-0.009-0.009-0.015l-0.007-0.013
		l0.001-0.002l-0.014-0.021l-0.008-0.014l0.14,0.07l-0.018,0.006l0.294,0.244l-0.025,0.076l-0.03-0.023l-0.013-0.012
		c-0.003-0.006-0.014-0.005-0.017-0.011l-0.117-0.091c-0.032-0.025-0.067-0.048-0.104-0.066l-0.108-0.055l-0.03,0.074l-0.062-0.009
		L97.963,51.357z M98.143,51.898c0.02,0.003,0.038,0.029,0.054,0.043l-0.075-0.04c-0.003-0.001-0.009-0.008-0.012-0.011
		L98.143,51.898z M98.095,51.874c0,0-0.002,0-0.002-0.001L98.095,51.874z M98.422,52.266l0.03-0.009l0.012,0.011
		c0.005,0.03,0,0.071-0.016,0.162l-0.017,0.087l0.016,0.007l-0.101,0.043L98.422,52.266z M99.428,52.645
		c-0.009-0.008-0.01-0.022-0.018-0.029l-0.093,0.065l0.07-0.084l-0.014-0.011c-0.017-0.015-0.022-0.021-0.024-0.026l-0.03-0.076
		c0.041,0.003,0.083,0.008,0.131-0.001c0.019,0.023,0.037,0.046,0.055,0.068L99.428,52.645z M99.131,52.605
		c0,0.001-0.003,0.003-0.003,0.004l-0.006-0.003l0.004-0.008L99.131,52.605z M97.297,49.322l-0.04,0.12
		c-0.029-0.05-0.068-0.098-0.098-0.126c-0.024-0.024-0.052-0.05-0.067-0.074l0.101-0.156c0.044,0.082,0.091,0.165,0.138,0.247
		L97.297,49.322z M96.915,48.642l-0.022-0.028c-0.006-0.009-0.009-0.017,0.015-0.057c0,0.003,0,0.003,0.002,0.005l0.028,0.05v0.017
		L96.915,48.642z M96.938,48.666v0.008l-0.004-0.004L96.938,48.666z M96.938,48.739l0.002,0.117l0.083-0.084l0.034,0.064
		c0.002,0.003,0.002,0.005,0.004,0.006l-0.15,0.032l-0.081-0.049l0.035-0.053L96.938,48.739z M97.122,48.96
		c0.016,0.029,0.033,0.059,0.05,0.088l-0.349,0.044L97.122,48.96z M103.073,57.587c0,0.002-0.002,0.002,0,0.006
		c0.002,0.03,0.009,0.069,0.028,0.117l-0.209-0.119l-0.016-0.076L103.073,57.587z M108.062,52.34l-0.038-0.028
		c0.035-0.194,0.063-0.391,0.086-0.584c0.067,0.018,0.117,0.044,0.145,0.074C108.227,51.891,108.152,52.106,108.062,52.34
		 M108.229,47.857c-0.032-0.053-0.067-0.109-0.102-0.165v-0.018l-0.002-0.032c-0.036-0.247-0.172-0.46-0.365-0.603
		c0.016,0.006,0.033,0.013,0.05,0.02l0.006,0.002c0.215,0.075,0.429,0.345,0.48,0.596L108.229,47.857z M122.393,58.63
		c0.122-0.08,0.235-0.162,0.337-0.245l-0.108,0.199L122.393,58.63z M122.749,58.566l-0.194,0.19
		c-0.006,0.001-0.012,0.002-0.017,0.006c-0.05,0.023-0.102,0.05-0.134,0.064c-0.045,0.021-0.089,0.036-0.089,0.037
		c-0.03,0.008-0.051,0.028-0.08,0.039l-0.071-0.087L122.749,58.566z M122.937,58.256c0.165-0.113,0.234-0.227,0.289-0.33
		c-0.008,0.035-0.015,0.08-0.023,0.112l-0.01,0.053c-0.032,0.036-0.063,0.073-0.095,0.108c-0.031,0.028-0.065,0.056-0.091,0.083
		c-0.038,0.039-0.074,0.083-0.117,0.136c-0.025,0.027-0.047,0.052-0.073,0.08l-0.06,0.059l-0.13,0.026l0.282-0.311
		C122.917,58.265,122.931,58.262,122.937,58.256 M120.892,59.544l0.009,0.015l0.168-0.095v-0.001
		c0.092-0.038,0.199-0.087,0.334-0.161c-0.002,0.013,0.005,0.027,0.005,0.039c-0.072,0.079-0.139,0.162-0.177,0.266
		c-0.016,0.044,0.001,0.09-0.008,0.136l-0.071,0.017c-0.19,0.037-0.39,0.061-0.584,0.09c-0.065-0.041-0.135-0.074-0.213-0.099
		C120.537,59.684,120.721,59.62,120.892,59.544 M99.185,62.501l0.012-0.034c0,0,0.004-0.001,0.005-0.002
		c0.006,0.012,0.011,0.026,0.011,0.043L99.185,62.501z M117.081,63.175c0.06,0.039,0.091,0.106,0.078,0.169
		c-0.002,0.003-0.002,0.008-0.004,0.012l0.008,0.024h-0.017c-0.048,0.091-0.181,0.117-0.296,0.13l-0.451,0.049l0.341-0.229
		c0.019-0.106,0.093-0.162,0.22-0.172l0.037-0.031L117.081,63.175"/>
</g>
</svg>
